<svg xmlns="http://www.w3.org/2000/svg" width="50" height="425" preserveAspectRatio="xMidYMid" viewBox="0 0 60 513" xmlns:v="https://vecta.io/nano"><style><![CDATA[.B{fill:#ff7f2a}.C{fill:#f95}.D{fill:#b3b3b3}.E{fill:#f2f2f2}.F{fill:#00aad4}]]></style><path d="M8.813.063h35.5v25.625h-35.5z" fill="#c87137"/><path d="M23.938 25.469h24.938v5.813H23.938z" fill="#d38d5f"/><path d="M.102 492.125H48.25V513H.102z" class="D"/><path d="M54.393 493.26h5.633v3.816h-5.633zm-54.268-.01h48.148v7.5H.125z" fill="#666"/><path d="M.114 505.892h48.148v6.99H.114zM.177 32.441h59.861v127.011H.177zm1.724 127.802h58.166V492.88H1.901z" fill="#ccc"/><path d="M.031 150.875h3.416v342.521H.031z" fill="#666"/><path d="M3.614 178.829h4.129v313.117H3.614z" class="D"/><path d="M13.934 144.456H45.92v3.636H13.934z" fill="#999"/><path d="M13.563 164.622h46.529v9.382H13.563z" fill="#333"/><path d="M3.625 175.75h55.236v4.824H3.625z" class="D"/><path d="M13.961 147.458h2.641v15.48h-2.641z" fill="#999"/><path d="M5.082 42.861h36.173v100.632H5.082zm42.036 73.004h12.873v6.44H47.118zm.003-14.245h12.873v6.44H47.121zm-.092-13.955h12.873v6.44H47.029zm.092-14.365h12.873v6.44H47.121zm-.144-14.238H59.85v6.44H46.977zM46.945 130h12.873v6.44H46.945zm.116 14.253h12.873v6.44H47.061z" fill="#1a1a1a"/><path d="M9.652 6.438h33.452v6.4H9.652zm.098 12.437h33.452v2.775H9.75z" fill="#a05a2c"/><path d="M9.05 12.685h33.452v3.66H9.05z" fill="#c87137"/><path d="M.188 25.563h24v7h-24z" class="D"/><path d="M48.03 503.15l-.05-9.6H42.7l-.1 6.22-.12 6.24c-.19.17-2.74.29-7.96.39l-6.31.1-.05 1.93-.05 1.93-1.23-.05-1.23-.05v-3.76l-3.97-.09c-4.82-.1-4.64-.02-4.64-2.32v-1.43h-.6c-.32 0-.6.05-.6.14-.02 1.81-.22 3.89-.39 3.99-.12.07-.44.14-.73.14h-.53l-.1-2.16-.12-6.73v-4.57H8.11c-5.52 0-5.88-.02-6.26-.32l-.41-.32V174.77l.41-.44c.41-.43.49-.44 2.35-.44h1.93v-11.76H1.35v-1.88H-.01v-2.04h12.1v-13.12l-4.13-.03-4.14-.05.02-51.15.14-51.6c.09-.34.331-.494.641-.494.29 0 .352-.176.319-.276-.161-.484 5.877-6.228 6.487-6.228.49 0-1.273 4.348-3.66 5.654-.28.154-.757.424-.987.664l-.36.39h35.84v-5.62h-14.9l-15.02.17c-.05.09-.26.17-.44.17-.17 0-.32.09-.32.2 0 .44-.9 1.16-1.48 1.16-.51 0-.56-.03-.56-.55 0-.6.88-1.687 1.34-1.687.15 0 .31-.092.39-.302l.06-.281 15.85-.05 16.4.05.56.1.03 53.64.05 53.64 1.52.05c1.67.05 1.93.17 2.01.85l.05.46 6.1.05 6.09.03v1.48l-2.16.1a108.91 108.91 0 0 1-5.1.12H49.8l-.07.78c-.03.43-.03 1.09 0 1.45l.07.66H60v1.88H48.06l-.09-.39c-.05-.2-.1-1.18-.14-2.16-.03-.99-.05.9-.03 4.18v5.97l6.1.05 6.09.03v1.82l-1.4.1c-.78.07-3.49.12-6.03.12h-4.62l-.1 2.86c-.09 2.63-.72 7.16-1.02 7.48-.07.05-.49.14-.97.19l-.85.09v-.68c0-.72.46-4.55.61-5.03.09-.29-.75-.31-15.77-.31H13.97v8.86h40.06v-2.85c0-1.59.05-3.27.1-3.75l.12-.9h5.74v.85c0 .48-.05.87-.12.87-.09.02-.94.07-1.93.14l-1.79.1v5.62l1.88.1 1.93.14c.02 0 .03 71.88.03 159.73v159.72h-2.2l-.44 1.38c-.24.75-.43 1.43-.43 1.53 0 .09.68.15 1.53.15h1.53v1.88h-2.61c-1.81 0-2.68-.07-2.81-.2-.14-.14-.2-.87-.2-2.2 0-1.11-.05-2.11-.1-2.27-.15-.41-3.9-.41-4.06 0-.05.15-.1 4.48-.1 9.63v9.36h-2.04zm-8.4-4.23v-5.37H19.01l-.05 5.2c-.02 2.86 0 5.28.05 5.4.05.19 2.18.22 10.35.19l10.28-.05v-5.37zm-22.59-2.23v-3.07l-.55.05-.56.05-.05 2.81c-.02 1.53 0 2.9.03 3.02.05.12.32.22.61.22h.51v-3.09zM58.6 333.85l-.15-157.7c-.17-.2-4.69-.24-27.49-.2L3.67 176l-.05 157.72-.03 157.7 27.48-.03 27.49-.05.05-157.48zM11.08 163.12v-2.9H8.52v5.8h2.56zm34.74-9.41l-.05-9.09-13.64-.05c-7.5-.03-14.66 0-15.89.05l-2.27.12v18.04h31.88zm-33.65-10.79l.27-.43h28.8V43.11H5.78v100.22h6.1l.27-.43zM7.26 481.5c-.82-1.72-1.01-2.91-.92-5.71.07-2.06.15-2.56.61-3.99l.55-1.64V449.6l-.51-1.57c-1.16-3.63-1.14-6.85.07-10.33l.44-1.3v-20.66l-.49-1.5c-1.18-3.51-1.16-6.87.05-10.21l.44-1.21v-20.61l-.43-1.26c-1.24-3.66-1.24-6.95-.02-10.55l.44-1.28v-20.34L7 347.25c-1.18-3.55-1.14-7.11.07-10.36l.43-1.11v-20.84l-.49-1.47c-1.18-3.43-1.16-6.92.05-10.14l.44-1.16v-20.86l-.43-1.26c-1.24-3.68-1.24-7.14 0-10.48l.43-1.11V247.1l-.51-1.47c-1.09-3.22-1.14-6.38-.1-9.48l.61-1.82v-20.84l-.51-1.52c-1.23-3.61-1.14-6.48.36-10.64l.38-1.07.78.05.78.05.05.78c.03.55-.09 1.13-.38 1.84-1.14 2.83-1.21 4.81-.24 7.43l.56 1.53.05 11.66.03 11.68-.63 1.79c-.58 1.65-.63 1.96-.63 3.6s.05 1.94.63 3.58l.63 1.81v11.74c-.02 10.14-.05 11.86-.27 12.44-.89 2.32-.99 2.73-.99 4.52 0 1.64.05 1.94.63 3.61l.63 1.81v22.96l-.63 1.7c-.58 1.59-.63 1.84-.63 3.58 0 1.72.05 1.99.58 3.41l.6 1.53.03 11.66.05 11.68-.63 1.79c-.6 1.67-.65 1.94-.63 3.68 0 1.72.05 2.01.58 3.41l.6 1.53.03 11.63.05 11.63-.49 1.24c-1.09 2.76-1.13 4.76-.12 7.67l.61 1.77v22.64l-.63 1.81c-.6 1.67-.65 1.91-.63 3.75 0 1.84.03 2.06.63 3.66l.63 1.7v22.76l-.63 1.82c-.58 1.69-.63 1.99-.63 3.72-.02 1.74.03 2.01.63 3.7l.63 1.81v22.69l-.51 1.38c-.61 1.65-1.04 3.95-.92 4.88.22 1.72.49 2.95.78 3.61.17.41.31.97.31 1.24 0 .44-.05.49-.6.49-.56 0-.61-.05-1.18-1.23zm34.67-326.54v-5.13h1.54l-.03 5.08-.05 5.06-.72.05-.73.05v-5.11zm6.1-21.7c-.05-1.81-.07-3.34-.02-3.41.03-.09 2.74-.14 6.03-.14h5.95v1.7H49.81l-.12 1.36c-.07.75-.09 1.43-.02 1.53s1.86.17 4.94.17c2.66 0 4.94.05 5.1.1.2.09.27.34.27 1.02v.92H48.1l-.09-3.27zm.04-14.2v-3.49h11.94v1.7h-10.2l-.07.82a16.06 16.06 0 0 0 0 1.7l.07.89h10.2v1.88H48.07v-3.49zm0-14.23v-3.41h11.94v.66c0 .49-.09.7-.29.77-.17.05-2.47.1-5.1.14l-4.81.05-.09.95c-.05.53-.05 1.31 0 1.76l.1.78H60v1.7H48.06v-3.41zm0-13.98v-3.41h11.94v1.48l-5.11.14-5.11.12v3.04h2.78c1.53 0 3.84.05 5.11.12l2.34.1v1.6l-2.16.1c-1.21.07-3.89.12-5.97.12h-3.8v-3.41zm0-14.32v-3.24h11.94v.66c0 .44-.09.7-.27.77-.15.05-2.05.1-4.21.1-2.18 0-4.36.05-4.84.1l-.9.12v3.02h10.22v1.7H48.07v-3.24zm0-14.06v-3.32l3.55-.03c3.51-.05 3.53-.05 3.58-.43.05-.39.1-.39 2.44-.39h2.37v1.88h-1.53c-1.41 0-1.53.02-1.53.34s-.12.34-3.56.34h-3.56l-.07.82c-.02.44-.03 1.16 0 1.62l.05.8h10.21v1.7H48.08v-3.32zm-.04-25.43l-.05-4.57H36.22c-6.46 0-11.97-.02-12.22-.05l-.48-.03-.03-3.27-.05-3.29-1.7-.05c-2.34-.07-2.47-.02-2.47.82v.68H11.7c-7.41 0-7.57 0-7.65-.34-.09-.32-.24-.34-2.06-.34H.01v-2.04l3.87-.03 3.89-.05.05-12.22L7.85.02h1.88l.03 8.4.03 12.65.02 4.26 3.72.05 3.7.03v-.55c0-1.02-.07-1.01 4.19-.95l3.9.05.15 3.2.15 3.19h10.86v-2.11c0-1.16.05-2.23.1-2.39.09-.22.44-.27 2.13-.27h2.03V25c0-.66.19-.78 1.3-.78h.75V.02h1.88v8.57c0 8.23.12 15.14.26 15.6.05.15.75.2 2.69.2 1.81 0 2.68.07 2.81.2.15.15.2 1.35.2 4.35v4.14h9.38V34c0 .89-.02.92-.53 1.02-.29.05-2.56.1-5.03.1h-4.5v4.6l4.31.02 5.03-.02.72-.03v1.9H48.07l-.03-4.55zm.55-8.66v-2.13h-5.95l-.05.56-.05.55-2.05.09-2.05.09-.05 1.26c-.03.7-.02 1.36.03 1.5.07.17 1.07.22 5.13.22h5.03v-2.13zM13.01 16.09c-.27-.07-.41-.26-.49-.66-.12-.72.05-9.8.19-9.95.15-.15 25.99-.2 26.88-.05l.73.14.05 5.23.03 5.23H27.75l-13.52.07c-.46.05-1.02.03-1.23 0zm25.91-1.72c.05-.17.07-1.91.05-3.89l-.02-3.58H14.07l-.05 3.66c-.02 2.01 0 3.75.03 3.87.07.17 2.59.22 12.44.22 11.63 0 12.36-.02 12.43-.29z" fill="#020201"/><path d="M14.938 91.031h5.082v5.038h-5.082z" class="E"/><path d="M1 144.625h12.873v6.44H1z" fill="#1a1a1a"/><path d="M15.125 82.063h5.082v5.038h-5.082z" class="E"/><path d="M55.4 148.99l-1.28-.1v-.51c-.02-.34-.1-.53-.31-.56-.38-.07-.41-1.06-.05-1.06.17 0 .27-.24.31-.72l.05-.73 2.01-.05c1.93-.05 1.99-.05 1.99.29 0 .29-.1.36-.51.36h-.51v2.56h.94c.68 0 .94.07.94.24 0 .44-.75.49-3.58.29zm-.12-14.11l-1.24-.07v-.58c0-.41-.09-.6-.26-.6s-.26-.17-.26-.51.09-.51.26-.51c.19 0 .26-.2.26-.77v-.77h3.06v3.24h1.19c1.07 0 1.19.03 1.19.34 0 .32-.1.34-1.48.31l-2.73-.09zm2.85-3.53c0-.24.49-.44 1.16-.44.26 0 .38.1.38.34 0 .29-.12.34-.77.34-.55 0-.77-.07-.77-.24m-3.98-10.45c-.07-.05-.12-.41-.12-.77 0-.46-.07-.65-.26-.65-.17 0-.26-.19-.26-.6s.09-.6.26-.6.26-.17.26-.58c0-.32.05-.63.14-.66.07-.05 1.33-.14 2.81-.2 2.66-.14 2.68-.14 2.68.24 0 .34-.09.36-1.28.36H57.1v3.58h-1.41c-.78 0-1.48-.05-1.53-.12zm1.25-14.01l-1.28-.1-.05-.72c-.03-.49-.14-.73-.31-.73-.15 0-.24-.19-.24-.58 0-.43.09-.6.34-.66.27-.07.32-.2.29-.75l-.03-.65 1.5-.05 1.48-.05v3.77h1.28c1.16 0 1.28.03 1.28.34 0 .32-.1.34-1.48.31l-2.78-.12zm-1.25-14.28c-.07-.05-.12-.41-.12-.77 0-.46-.07-.65-.26-.65-.41 0-.34-.95.09-1.07.24-.07.31-.19.26-.48-.17-.9 0-1.01 1.55-1.01h1.43v4.1h-1.41c-.78 0-1.48-.05-1.53-.12zM54.2 78c0-.6-.17-.95-.44-.95-.38 0-.31-.99.07-1.06.22-.03.29-.22.29-.73v-.68l1.5-.05 1.48-.05v3.94h-1.45c-1.41 0-1.45-.02-1.45-.41zm4.1-3.24c0-.27.55-.44 1.02-.32.63.17.39.56-.34.56-.46 0-.68-.07-.68-.24m-3.02-10.28l-1.24-.07v-.68c0-.44-.09-.72-.26-.77-.14-.07-.26-.29-.26-.51 0-.26.1-.41.26-.41.19 0 .26-.2.26-.77v-.77h1.18c1.02 0 1.18-.03 1.26-.34.05-.19.22-.34.38-.34.26 0 .27.14.17 1.19-.07.65-.07 1.57 0 2.05l.12.85h1.18c1.06 0 1.18.03 1.18.34 0 .32-.1.34-1.48.31l-2.73-.09z" fill="#705b38"/><path d="M56.59 147.2v-1.76l.78-.12 1.57-.1h.77l-.12.53c-.05.29-.1 1.14-.1 1.88v1.35h-2.9v-1.77zm1.25-12.32l-1.24-.07v-3.74h2.9v1.43c0 .78.05 1.67.1 1.96.1.44.07.53-.2.49l-1.55-.09zm-4.32-1.84c0-.24.1-.43.22-.43.34 0 .43.15.34.53-.14.48-.56.41-.56-.1m3.07-14.06v-2.05h2.9v1.52l.1 2.05.12.53h-3.12zm0-14.24v-2.13h2.98v4.26h-2.98zm0-14.06v-2.05h2.9v1.52l.1 2.05.12.53h-3.12zm0-14.23v-1.96h3.12l-.12.53c-.05.29-.1 1.18-.1 1.96v1.43h-2.9zm0-14.32v-2.3h2.9v4.6h-2.9z" fill="#9c8761"/><path d="M59.01 147.15c.05-1.59.09-1.84.36-1.89.26-.05.29.12.29 1.82 0 1.79-.02 1.89-.34 1.89-.34 0-.36-.09-.31-1.82m-.03-14.2c0-1.76.02-1.88.34-1.88s.34.12.34 1.88-.02 1.88-.34 1.88-.34-.12-.34-1.88m.12-12.05c-.07-.05-.12-.97-.12-2.05 0-1.81.02-1.93.34-1.93s.34.12.34 2.05c0 1.59-.05 2.05-.22 2.05-.14 0-.29-.05-.34-.12m-.05-14.25c-.03-.12-.05-1.06-.03-2.1.05-1.6.09-1.86.36-1.91.26-.05.29.14.29 2.08 0 1.82-.03 2.15-.26 2.15-.15 0-.31-.1-.36-.22m.05-14.04c-.07-.05-.12-.97-.12-2.05 0-1.81.02-1.93.34-1.93s.34.12.34 2.05c0 1.59-.05 2.05-.22 2.05-.14 0-.29-.05-.34-.12m-.09-16.11l.05-1.93.48-.05c.38-.05.46.02.46.29 0 .2-.07.36-.17.36s-.17.65-.17 1.62c0 1.52-.02 1.62-.34 1.62-.34 0-.36-.09-.31-1.91m-.03-14.37c0-2.18.02-2.3.34-2.3s.34.12.34 2.3-.02 2.3-.34 2.3-.34-.12-.34-2.3" fill="#b7ae83"/><path d="M23.659 42.1l-18.32-.09 3.07-2.83 3.43-3.02c.27-.15 4.38-.2 15.38-.2h15.02v1.41l.03 3.09c.02.97-.03 1.7-.12 1.7-.1.02-8.4-.02-18.48-.07z" class="F"/><path d="M59.15 147.1v-1.88h.86v3.76h-.86zm0-14.15v-1.88h.86v3.76h-.86zm0-13.97v-2.05h.86v4.1h-.86zm0-14.24v-2.13h.86v4.26h-.86zm0-14.06v-2.05h.86v4.1h-.86zm0-14.15v-1.88h.86v3.76h-.86zm0-14.4v-2.3h.86v4.6h-.86z" fill="#bebba3"/><path d="M28.188 64.063h5.082v5.038h-5.082zm-.032-9.125h5.082v5.038h-5.082z" class="E"/><path fill="#ccc" d="M12.938 144.188h33.25v3.375h-33.25z" fill-opacity="0"/><g class="E"><path d="M15 100h5.082v5.038H15zm0 9h5.082v5.038H15z"/><path d="M15.156 135.844h5.082v5.038h-5.082zm.046-18.354h5.082v5.038h-5.082zm-.067 9.014h5.082v5.038h-5.082zm.116-17.402h5.082v5.038h-5.082zm-.06-9.265h5.082v5.038h-5.082zm-.072-8.912h5.082v5.038h-5.082zm0-8.955h5.082v5.038h-5.082zm-.105-9.028h5.082v5.038h-5.082zm.016-9.044h5.082v5.038H15.03zm-.193-9.133h5.082v5.038h-5.082zm13.497.116h5.082v5.038h-5.082zm.194 9.265h5.082v5.038h-5.082zm-.059 8.76h5.082v5.038h-5.082zm.156 9.282h5.082v5.038h-5.082zm0 8.812h5.082v5.038h-5.082zm-.375 8.875h5.082v5.038H28.25zm-.312 9.375h5.082v5.038h-5.082zm-.25 8.125h5.082v5.038h-5.082zm-.063 8.813h5.082v5.038h-5.082zm-.125 9.437h5.082v5.038H27.5z" stroke="#000"/></g><path d="M11.645 185.837h16.241v10.607H11.645z" class="B"/><use href="#B" class="C"/><circle cx="19.722" cy="190.886" r="2.154"/><path d="M17.47 216.9c-3.51-.66-6.39-3.19-7.41-6.55-.41-1.3-.46-4.4-.1-5.73.6-2.28 2.42-4.67 4.28-5.64 1.47-.77 1.26-.92-1.19-.92-1.18 0-2.13-.02-2.15-.03l-.09-6.19.09-6.61-.005-.468 9.005.038 8.83.05v13.12l-2.08.05c-1.16.02-2.1.1-2.1.17s.36.31.8.55c1.91 1.01 3.68 3.2 4.35 5.37.49 1.57.53 4.6.07 6.14-.95 3.24-3.41 5.66-6.55 6.48-1.55.39-4.11.48-5.74.17zm4.84-1.98c3.72-1.19 6.49-5.28 5.85-8.63-.46-2.34-2.23-4.79-4.24-5.88-2.59-1.41-6.02-1.28-8.57.38-1.93 1.24-3.49 3.7-3.68 5.81-.32 3.41 2.01 6.85 5.51 8.16 1.74.65 3.43.7 5.15.15zm.53-17.57v-.48H16.7v.94h6.14zm-9.03-1.48c0-.48.34-.567 1.39-.637.58-.05 2.94.027 5.65.077l4.89.09v.48c0 .46.05.49.68.49h.68l-.03-4.89-.05-4.91-7.19-.05-7.21-.03v9.88h.6c.55 0 .6-.05.6-.49z"/><path d="M12.053 219.59h16.241v10.607H12.053z" class="B"/><use href="#B" x="0.408" y="33.753" class="C"/><circle cx="20.13" cy="224.639" r="2.154"/><use href="#C"/><path d="M12.426 253.95h16.241v10.607H12.426z" class="B"/><use href="#B" x="0.781" y="68.113" class="C"/><circle cx="20.503" cy="258.999" r="2.154"/><use href="#C" x="0.373" y="34.36"/><path d="M12.426 287.7h16.241v10.607H12.426z" class="B"/><use href="#B" x="0.781" y="101.863" class="C"/><circle cx="20.503" cy="292.749" r="2.154"/><use href="#C" x="0.373" y="68.11"/><path d="M34.989 287.825H51.23v10.607H34.989z" class="B"/><use href="#B" x="23.344" y="101.988" class="C"/><circle cx="43.066" cy="292.874" r="2.154"/><use href="#C" x="22.936" y="68.235"/><path d="M34.989 321.45H51.23v10.607H34.989z" class="B"/><use href="#B" x="23.344" y="135.613" class="C"/><circle cx="43.066" cy="326.499" r="2.154"/><use href="#C" x="22.936" y="101.86"/><path d="M35.301 354.887h16.241v10.607H35.301z" class="B"/><use href="#B" x="23.656" y="169.05" class="C"/><circle cx="43.378" cy="359.936" r="2.154"/><use href="#C" x="23.248" y="135.297"/><path d="M35.614 388.325h16.241v10.607H35.614z" class="B"/><use href="#B" x="23.969" y="202.488" class="C"/><circle cx="43.691" cy="393.374" r="2.154"/><use href="#C" x="23.561" y="168.735"/><path d="M34.676 456.262h16.241v10.607H34.676z" class="B"/><use href="#B" x="23.031" y="270.425" class="C"/><circle cx="42.753" cy="461.311" r="2.154"/><use href="#C" x="22.623" y="236.672"/><path d="M34.864 422.075h16.241v10.607H34.864z" class="B"/><use href="#B" x="23.219" y="236.238" class="C"/><circle cx="42.941" cy="427.124" r="2.154"/><use href="#C" x="22.811" y="202.485"/><path d="M12.489 321.2H28.73v10.607H12.489z" class="B"/><use href="#B" x="0.844" y="135.363" class="C"/><circle cx="20.566" cy="326.249" r="2.154"/><use href="#C" x="0.436" y="101.61"/><path d="M12.176 354.95h16.241v10.607H12.176z" class="B"/><use href="#B" x="0.531" y="169.113" class="C"/><circle cx="20.253" cy="359.999" r="2.154"/><use href="#C" x="0.123" y="135.36"/><path d="M11.904 388.163h16.241v10.607H11.904z" class="B"/><use href="#B" x="0.259" y="202.326" class="C"/><circle cx="19.981" cy="393.212" r="2.154"/><use href="#C" x="-0.149" y="168.573"/><path d="M12.12 421.976h16.241v10.607H12.12z" class="B"/><path d="M19.39 422.666h1.591v8.767H19.39z" class="C"/><circle cx="20.197" cy="427.025" r="2.154"/><use href="#C" x="0.067" y="202.386"/><path d="M12.248 455.921h16.241v10.607H12.248z" class="B"/><use href="#B" x="0.603" y="270.084" class="C"/><circle cx="20.325" cy="460.97" r="2.154"/><use href="#C" x="0.195" y="236.331"/><path d="M34.815 185.914h16.241v10.607H34.815z" class="B"/><use href="#B" x="23.17" y="0.077" class="C"/><circle cx="42.892" cy="190.963" r="2.154"/><use href="#C" x="22.762" y="-33.676"/><path d="M34.861 219.562h16.241v10.607H34.861z" class="B"/><use href="#B" x="23.216" y="33.725" class="C"/><circle cx="42.938" cy="224.611" r="2.154"/><use href="#C" x="22.808" y="-0.028"/><path d="M34.926 254.075h16.241v10.607H34.926z" class="B"/><use href="#B" x="23.281" y="68.238" class="C"/><circle cx="43.003" cy="259.124" r="2.154"/><use href="#C" x="22.873" y="34.485"/><path d="M4.773 145.045h7.38v4.685h-7.38z" class="F"/><text xml:space="preserve" x="14.659" y="55.709" transform="scale(1.09153 .91615)" font-size="11.218" font-family="&quot;Gill Sans MT&quot;" writing-mode="lr-tb" direction="ltr" fill-opacity="0" stroke="#30a5e6" class="F"><tspan x="14.659" y="55.709" stroke-opacity=".994" stroke-width=".439">DI8</tspan></text><defs ><path id="B" d="M18.915 186.527h1.591v8.767h-1.591z"/><path id="C" d="M17.878 250.653c-3.51-.66-6.39-3.19-7.41-6.55-.41-1.3-.46-4.4-.1-5.73.6-2.28 2.42-4.67 4.28-5.64 1.47-.77 1.26-.92-1.19-.92-1.18 0-2.13-.02-2.15-.03l-.09-6.19.09-6.61-.005-.468 9.005.038 8.83.05v13.12l-2.08.05c-1.16.02-2.1.1-2.1.17s.36.31.8.55c1.91 1.01 3.68 3.2 4.35 5.37.49 1.57.53 4.6.07 6.14-.95 3.24-3.41 5.66-6.55 6.48-1.55.39-4.11.48-5.74.17zm4.84-1.98c3.72-1.19 6.49-5.28 5.85-8.63-.46-2.34-2.23-4.79-4.24-5.88-2.59-1.41-6.02-1.28-8.57.38-1.93 1.24-3.49 3.7-3.68 5.81-.32 3.41 2.01 6.85 5.51 8.16 1.74.65 3.43.7 5.15.15zm.53-17.57v-.48h-6.14v.94h6.14zm-9.03-1.48c0-.48.34-.567 1.39-.637.58-.05 2.94.027 5.65.077l4.89.09v.48c0 .46.05.49.68.49h.68l-.03-4.89-.05-4.91-7.19-.05-7.21-.03v9.88h.6c.55 0 .6-.05.6-.49z"/></defs></svg>