<?xml version="1.0" encoding="UTF-8" standalone="no"?>
<svg
   version="1.0"
   width="60px"
   height="513px"
   viewBox="0 0 60 513"
   preserveAspectRatio="xMidYMid meet"
   id="svg9309"
   sodipodi:docname="IO_Template.svg"
   inkscape:version="1.4.4 (dcaf3e7, 2026-05-05)"
   inkscape:export-filename="DI.svg"
   inkscape:export-xdpi="77.099419"
   inkscape:export-ydpi="77.099419"
   xmlns:inkscape="http://www.inkscape.org/namespaces/inkscape"
   xmlns:sodipodi="http://sodipodi.sourceforge.net/DTD/sodipodi-0.dtd"
   xmlns:xlink="http://www.w3.org/1999/xlink"
   xmlns="http://www.w3.org/2000/svg"
   xmlns:svg="http://www.w3.org/2000/svg">
  <defs
     id="defs9309">
    <linearGradient
       id="linearGradient53"
       inkscape:collect="always">
      <stop
         style="stop-color:#7dd500;stop-opacity:0;"
         offset="0"
         id="stop53" />
      <stop
         style="stop-color:#7dd500;stop-opacity:0;"
         offset="1"
         id="stop54" />
    </linearGradient>
    <linearGradient
       inkscape:collect="always"
       xlink:href="#linearGradient53"
       id="linearGradient54"
       x1="11.072384"
       y1="68.455175"
       x2="23.090189"
       y2="68.455175"
       gradientUnits="userSpaceOnUse" />
  </defs>
  <sodipodi:namedview
     id="namedview9309"
     pagecolor="#ffffff"
     bordercolor="#000000"
     borderopacity="0.25"
     inkscape:showpageshadow="2"
     inkscape:pageopacity="0.0"
     inkscape:pagecheckerboard="0"
     inkscape:deskcolor="#d1d1d1"
     inkscape:zoom="2.0000001"
     inkscape:cx="-141.25"
     inkscape:cy="305.74999"
     inkscape:window-width="2560"
     inkscape:window-height="1411"
     inkscape:window-x="-9"
     inkscape:window-y="-9"
     inkscape:window-maximized="1"
     inkscape:current-layer="svg9309" />
  <rect
     style="fill:#c87137;fill-opacity:1;stroke:none"
     id="rect50"
     width="35.5"
     height="25.625"
     x="8.8125"
     y="0.0625" />
  <rect
     style="fill:#d38d5f;fill-opacity:1;stroke:none;stroke-width:0.895391"
     id="rect51"
     width="24.9375"
     height="5.8125"
     x="23.9375"
     y="25.46875" />
  <rect
     style="fill:#b3b3b3;fill-opacity:1;stroke:none;stroke-width:1.77647"
     id="rect49"
     width="48.147747"
     height="20.875"
     x="0.1022525"
     y="492.125" />
  <rect
     style="fill:#666666;fill-opacity:1;stroke:none;stroke-width:0.259795"
     id="rect49-9"
     width="5.6329517"
     height="3.8160489"
     x="54.393475"
     y="493.25995" />
  <rect
     style="fill:#666666;fill-opacity:1;stroke:none;stroke-width:1.06482"
     id="rect49-8"
     width="48.147747"
     height="7.5"
     x="0.125"
     y="493.25" />
  <rect
     style="fill:#cccccc;fill-opacity:1;stroke:none;stroke-width:1.02795"
     id="rect49-8-8"
     width="48.147747"
     height="6.9895921"
     x="0.11440741"
     y="505.89246" />
  <rect
     style="fill:#cccccc;fill-opacity:1;stroke:none;stroke-width:0.945023"
     id="rect46"
     width="59.861008"
     height="127.01144"
     x="0.17677669"
     y="32.441124" />
  <rect
     style="fill:#cccccc;fill-opacity:1;stroke:none;stroke-width:0.968705"
     id="rect45"
     width="58.165665"
     height="332.63672"
     x="1.9005449"
     y="160.24295" />
  <rect
     style="fill:#666666;fill-opacity:1;stroke:none;stroke-width:0.238207"
     id="rect45-8"
     width="3.4156649"
     height="342.5206"
     x="0.031250119"
     y="150.875" />
  <rect
     style="fill:#b3b3b3;fill-opacity:1;stroke:none;stroke-width:0.250401"
     id="rect45-7-6"
     width="4.1287827"
     height="313.11737"
     x="3.6143692"
     y="178.82858" />
  <rect
     style="fill:#999999;fill-opacity:1;stroke:none;stroke-width:0.116887"
     id="rect46-7"
     width="31.986008"
     height="3.6364367"
     x="13.93436"
     y="144.45581" />
  <rect
     style="fill:#333333;fill-opacity:1;stroke:none;stroke-width:0.226437"
     id="rect46-7-3"
     width="46.528572"
     height="9.3816795"
     x="13.563262"
     y="164.62221" />
  <rect
     style="fill:#b3b3b3;fill-opacity:1;stroke:none;stroke-width:0.176913"
     id="rect46-7-09"
     width="55.236008"
     height="4.8239365"
     x="3.625"
     y="175.75" />
  <rect
     style="fill:#999999;fill-opacity:1;stroke:none;stroke-width:0.0692996"
     id="rect46-7-0"
     width="2.6410763"
     height="15.480475"
     x="13.96101"
     y="147.4584" />
  <rect
     style="fill:#1a1a1a;fill-opacity:1;stroke:none;stroke-width:0.420179"
     id="rect45-7-3"
     width="36.173332"
     height="100.63206"
     x="5.0824223"
     y="42.860912" />
  <rect
     style="fill:#1a1a1a;fill-opacity:1;stroke:none;stroke-width:0.0634104"
     id="rect45-7-3-0"
     width="12.872562"
     height="6.4404106"
     x="47.117901"
     y="115.86493" />
  <rect
     style="fill:#1a1a1a;fill-opacity:1;stroke:none;stroke-width:0.0634104"
     id="rect45-7-3-0-6"
     width="12.872562"
     height="6.4404106"
     x="47.121319"
     y="101.62043" />
  <rect
     style="fill:#1a1a1a;fill-opacity:1;stroke:none;stroke-width:0.0634104"
     id="rect45-7-3-0-0"
     width="12.872562"
     height="6.4404106"
     x="47.029438"
     y="87.665474" />
  <rect
     style="fill:#1a1a1a;fill-opacity:1;stroke:none;stroke-width:0.0634104"
     id="rect45-7-3-0-1"
     width="12.872562"
     height="6.4404106"
     x="47.121319"
     y="73.299805" />
  <rect
     style="fill:#1a1a1a;fill-opacity:1;stroke:none;stroke-width:0.0634104"
     id="rect45-7-3-0-9"
     width="12.872562"
     height="6.4404106"
     x="46.977474"
     y="59.06237" />
  <rect
     style="fill:#1a1a1a;fill-opacity:1;stroke:none;stroke-width:0.0634104"
     id="rect45-7-3-0-4"
     width="12.872562"
     height="6.4404106"
     x="46.944542"
     y="130" />
  <rect
     style="fill:#1a1a1a;fill-opacity:1;stroke:none;stroke-width:0.0634104"
     id="rect45-7-3-0-43"
     width="12.872562"
     height="6.4404106"
     x="47.060661"
     y="144.25305" />
  <rect
     style="fill:#a05a2c;fill-opacity:1;stroke:none;stroke-width:0.945237"
     id="rect52"
     width="33.452351"
     height="6.4001265"
     x="9.6519661"
     y="6.4375" />
  <rect
     style="fill:#a05a2c;fill-opacity:1;stroke:none;stroke-width:0.622426"
     id="rect52-7"
     width="33.452351"
     height="2.7751265"
     x="9.75"
     y="18.875" />
  <rect
     style="fill:#c87137;fill-opacity:1;stroke:none;stroke-width:0.714812"
     id="rect52-0"
     width="33.452351"
     height="3.6600873"
     x="9.0502529"
     y="12.684582" />
  <rect
     style="fill:#b3b3b3;fill-opacity:1;stroke:none;stroke-width:0.876799"
     id="rect47"
     width="24"
     height="7"
     x="0.1875"
     y="25.5625" />
  <g
     fill="#020201"
     id="g60">
    <path
       d="m 48.03,503.15 -0.05,-9.6 H 45.34 42.7 l -0.1,6.22 c -0.05,3.43 -0.1,6.24 -0.12,6.24 -0.19,0.17 -2.74,0.29 -7.96,0.39 l -6.31,0.1 -0.05,1.93 -0.05,1.93 -1.23,-0.05 -1.23,-0.05 v -1.88 -1.88 l -3.97,-0.09 c -4.82,-0.1 -4.64,-0.02 -4.64,-2.32 v -1.43 h -0.6 c -0.32,0 -0.6,0.05 -0.6,0.14 -0.02,1.81 -0.22,3.89 -0.39,3.99 -0.12,0.07 -0.44,0.14 -0.73,0.14 h -0.53 l -0.1,-2.16 c -0.07,-1.21 -0.12,-4.23 -0.12,-6.73 v -4.57 H 8.11 c -5.52,0 -5.88,-0.02 -6.26,-0.32 L 1.44,492.83 V 333.8 174.77 l 0.41,-0.44 c 0.41,-0.43 0.49,-0.44 2.35,-0.44 h 1.93 v -5.88 -5.88 H 3.74 1.35 v -0.94 -0.94 H 0.67 -0.01 v -1.02 -1.02 h 6.05 6.05 v -6.56 -6.56 L 7.96,145.06 3.82,145.01 3.84,93.86 C 3.86,65.73 3.91,42.5 3.98,42.26 c 0.09,-0.34 0.3312706,-0.493816 0.6412706,-0.493816 0.29,0 0.351875,-0.176669 0.3187294,-0.276184 -0.1611629,-0.483866 5.877165,-6.228213 6.487165,-6.228213 0.49,0 -1.27301,4.347883 -3.6594951,5.654427 C 7.4869822,41.069884 7.01,41.34 6.78,41.58 l -0.36,0.39 h 17.91 17.93 v -2.81 -2.81 h -14.9 c -9.77,0 -14.95,0.05 -15.02,0.17 -0.05,0.09 -0.26,0.17 -0.44,0.17 -0.17,0 -0.32,0.09 -0.32,0.2 0,0.44 -0.9,1.16 -1.48,1.16 -0.51,0 -0.56,-0.03 -0.56,-0.55 0,-0.6 0.880156,-1.6875 1.340156,-1.6875 0.15,0 0.309219,-0.09188 0.389219,-0.301875 L 11.33,35.23 27.18,35.18 c 8.73,-0.02 16.11,0 16.4,0.05 l 0.56,0.1 0.03,53.64 0.05,53.64 1.52,0.05 c 1.67,0.05 1.93,0.17 2.01,0.85 l 0.05,0.46 6.1,0.05 6.09,0.03 v 0.75 0.73 l -2.16,0.1 c -1.21,0.07 -3.49,0.12 -5.1,0.12 H 49.8 l -0.07,0.78 c -0.03,0.43 -0.03,1.09 0,1.45 l 0.07,0.66 h 5.1 5.1 v 0.94 0.94 h -5.97 -5.97 l -0.09,-0.39 c -0.05,-0.2 -0.1,-1.18 -0.14,-2.16 -0.03,-0.99 -0.05,0.9 -0.03,4.18 v 5.97 l 6.1,0.05 6.09,0.03 v 0.92 0.9 l -1.4,0.1 c -0.78,0.07 -3.49,0.12 -6.03,0.12 h -4.62 l -0.1,2.86 c -0.09,2.63 -0.72,7.16 -1.02,7.48 -0.07,0.05 -0.49,0.14 -0.97,0.19 L 45,170.86 v -0.68 c 0,-0.72 0.46,-4.55 0.61,-5.03 0.09,-0.29 -0.75,-0.31 -15.77,-0.31 H 13.97 v 4.43 4.43 H 34 54.03 v -2.85 c 0,-1.59 0.05,-3.27 0.1,-3.75 l 0.12,-0.9 h 2.86 2.88 v 0.85 c 0,0.48 -0.05,0.87 -0.12,0.87 -0.09,0.02 -0.94,0.07 -1.93,0.14 l -1.79,0.1 v 2.81 2.81 l 1.88,0.1 c 1.04,0.07 1.89,0.12 1.93,0.14 0.02,0 0.03,71.88 0.03,159.73 v 159.72 h -1.11 -1.09 l -0.44,1.38 c -0.24,0.75 -0.43,1.43 -0.43,1.53 0,0.09 0.68,0.15 1.53,0.15 h 1.53 v 0.94 0.94 h -2.61 c -1.81,0 -2.68,-0.07 -2.81,-0.2 -0.14,-0.14 -0.2,-0.87 -0.2,-2.2 0,-1.11 -0.05,-2.11 -0.1,-2.27 -0.15,-0.41 -3.9,-0.41 -4.06,0 -0.05,0.15 -0.1,4.48 -0.1,9.63 v 9.36 h -1.02 -1.02 z m -8.4,-4.23 v -5.37 H 29.32 19.01 l -0.05,5.2 c -0.02,2.86 0,5.28 0.05,5.4 0.05,0.19 2.18,0.22 10.35,0.19 l 10.28,-0.05 v -5.37 z m -22.59,-2.23 v -3.07 l -0.55,0.05 -0.56,0.05 -0.05,2.81 c -0.02,1.53 0,2.9 0.03,3.02 0.05,0.12 0.32,0.22 0.61,0.22 h 0.51 v -3.09 z M 58.6,333.85 c 0.02,-116.51 -0.02,-157.53 -0.15,-157.7 -0.17,-0.2 -4.69,-0.24 -27.49,-0.2 L 3.67,176 3.62,333.72 3.59,491.42 31.07,491.39 58.56,491.34 58.61,333.86 Z M 11.08,163.12 v -2.9 H 9.8 8.52 v 2.9 2.9 h 1.28 1.28 z m 34.74,-9.41 -0.05,-9.09 -13.64,-0.05 c -7.5,-0.03 -14.66,0 -15.89,0.05 l -2.27,0.12 v 9.02 9.02 h 15.94 15.94 z m -33.65,-10.79 0.27,-0.43 h 14.4 14.4 V 92.8 43.11 H 23.51 5.78 v 50.11 50.11 h 3.05 3.05 l 0.27,-0.43 z"
       id="path1"
       sodipodi:nodetypes="cccccccccccccccscsccsccscscccccscccccccccccccccccccssssccccccscssssscccccccccccccccscccccccccccccccccccscccccscscccccsccccscccccccsccccsscccsssccsccccccccccccccccccccscccccccccccccccccccccccccccccccccccccccccccccc" />
    <path
       d="M7.26 481.50 c-0.82 -1.72 -1.01 -2.91 -0.92 -5.71 0.07 -2.06 0.15 -2.56 0.61 -3.99 l0.55 -1.64 0 -10.28 0 -10.28 -0.51 -1.57 c-1.16 -3.63 -1.14 -6.85 0.07 -10.33 l0.44 -1.30 0 -10.33 0 -10.33 -0.49 -1.50 c-1.18 -3.51 -1.16 -6.87 0.05 -10.21 l0.44 -1.21 0 -10.31 0 -10.30 -0.43 -1.26 c-1.24 -3.66 -1.24 -6.95 -0.02 -10.55 l0.44 -1.28 0 -10.16 0 -10.18 -0.49 -1.53 c-1.18 -3.55 -1.14 -7.11 0.07 -10.36 l0.43 -1.11 0 -10.43 0 -10.41 -0.49 -1.47 c-1.18 -3.43 -1.16 -6.92 0.05 -10.14 l0.44 -1.16 0 -10.43 0 -10.43 -0.43 -1.26 c-1.24 -3.68 -1.24 -7.14 0 -10.48 l0.43 -1.11 0 -10.69 0 -10.67 -0.51 -1.47 c-1.09 -3.22 -1.14 -6.38 -0.10 -9.48 l0.61 -1.82 0 -10.41 0 -10.43 -0.51 -1.52 c-1.23 -3.61 -1.14 -6.48 0.36 -10.64 l0.38 -1.07 0.78 0.05 0.78 0.05 0.05 0.78 c0.03 0.55 -0.09 1.13 -0.38 1.84 -1.14 2.83 -1.21 4.81 -0.24 7.43 l0.56 1.53 0.05 11.66 0.03 11.68 -0.63 1.79 c-0.58 1.65 -0.63 1.96 -0.63 3.60 0 1.64 0.05 1.94 0.63 3.58 l0.63 1.81 0 11.74 c-0.02 10.14 -0.05 11.86 -0.27 12.44 -0.89 2.32 -0.99 2.73 -0.99 4.52 0 1.64 0.05 1.94 0.63 3.61 l0.63 1.81 0 11.49 0 11.47 -0.63 1.70 c-0.58 1.59 -0.63 1.84 -0.63 3.58 0 1.72 0.05 1.99 0.58 3.41 l0.60 1.53 0.03 11.66 0.05 11.68 -0.63 1.79 c-0.60 1.67 -0.65 1.94 -0.63 3.68 0 1.72 0.05 2.01 0.58 3.41 l0.60 1.53 0.03 11.63 0.05 11.63 -0.49 1.24 c-1.09 2.76 -1.13 4.76 -0.12 7.67 l0.61 1.77 0 11.32 0 11.32 -0.63 1.81 c-0.60 1.67 -0.65 1.91 -0.63 3.75 0 1.84 0.03 2.06 0.63 3.66 l0.63 1.70 0 11.37 0 11.39 -0.63 1.82 c-0.58 1.69 -0.63 1.99 -0.63 3.72 -0.02 1.74 0.03 2.01 0.63 3.70 l0.63 1.81 0 11.34 0 11.35 -0.51 1.38 c-0.61 1.65 -1.04 3.95 -0.92 4.88 0.22 1.72 0.49 2.95 0.78 3.61 0.17 0.41 0.31 0.97 0.31 1.24 0 0.44 -0.05 0.49 -0.60 0.49 -0.56 0 -0.61 -0.05 -1.18 -1.23z"
       id="path6" />
    <path
       d="M41.93 154.96 l0 -5.13 0.77 0 0.77 0 -0.03 5.08 -0.05 5.06 -0.72 0.05 -0.73 0.05 0 -5.11z"
       id="path39" />
    <path
       d="M48.03 133.26 c-0.05 -1.81 -0.07 -3.34 -0.02 -3.41 0.03 -0.09 2.74 -0.14 6.03 -0.14 l5.95 0 0 0.85 0 0.85 -5.10 0 -5.08 0 -0.12 1.36 c-0.07 0.75 -0.09 1.43 -0.02 1.53 0.07 0.10 1.86 0.17 4.94 0.17 2.66 0 4.94 0.05 5.10 0.10 0.20 0.09 0.27 0.34 0.27 1.02 l0 0.92 -5.95 0 -5.93 0 -0.09 -3.27z"
       id="path52" />
    <path
       d="M48.07 119.06 l0 -3.49 5.97 0 5.97 0 0 0.85 0 0.85 -5.10 0 -5.10 0 -0.07 0.82 c-0.03 0.44 -0.03 1.21 0 1.70 l0.07 0.89 5.10 0 5.10 0 0 0.94 0 0.94 -5.97 0 -5.97 0 0 -3.49z"
       id="path53" />
    <path
       d="M48.07 104.83 l0 -3.41 5.97 0 5.97 0 0 0.66 c0 0.49 -0.09 0.70 -0.29 0.77 -0.17 0.05 -2.47 0.10 -5.10 0.14 l-4.81 0.05 -0.09 0.95 c-0.05 0.53 -0.05 1.31 0 1.76 l0.10 0.78 5.08 0 5.10 0 0 0.85 0 0.85 -5.97 0 -5.97 0 0 -3.41z"
       id="path54" />
    <path
       d="M48.07 90.85 l0 -3.41 5.97 0 5.97 0 0 0.75 0 0.73 -5.11 0.14 -5.11 0.12 0 1.52 0 1.52 2.78 0 c1.53 0 3.84 0.05 5.11 0.12 l2.34 0.10 0 0.80 0 0.80 -2.16 0.10 c-1.21 0.07 -3.89 0.12 -5.97 0.12 l-3.80 0 0 -3.41z"
       id="path55" />
    <path
       d="M48.07 76.53 l0 -3.24 5.97 0 5.97 0 0 0.66 c0 0.44 -0.09 0.70 -0.27 0.77 -0.15 0.05 -2.05 0.10 -4.21 0.10 -2.18 0 -4.36 0.05 -4.84 0.10 l-0.90 0.12 0 1.50 0 1.52 5.11 0 5.11 0 0 0.85 0 0.85 -5.97 0 -5.97 0 0 -3.24z"
       id="path56" />
    <path
       d="M48.07 62.47 l0 -3.32 3.55 -0.03 c3.51 -0.05 3.53 -0.05 3.58 -0.43 0.05 -0.39 0.10 -0.39 2.44 -0.39 l2.37 0 0 0.94 0 0.94 -1.53 0 c-1.41 0 -1.53 0.02 -1.53 0.34 0 0.32 -0.12 0.34 -3.56 0.34 l-3.56 0 -0.07 0.82 c-0.02 0.44 -0.03 1.16 0 1.62 l0.05 0.80 5.11 0 5.10 0 0 0.85 0 0.85 -5.97 0 -5.97 0 0 -3.32z"
       id="path57" />
    <path
       d="M48.03 37.04 l-0.05 -4.57 -11.76 0 c-6.46 0 -11.97 -0.02 -12.22 -0.05 l-0.48 -0.03 -0.03 -3.27 -0.05 -3.29 -1.70 -0.05 c-2.34 -0.07 -2.47 -0.02 -2.47 0.82 l0 0.68 -7.57 0 c-7.41 0 -7.57 0 -7.65 -0.34 -0.09 -0.32 -0.24 -0.34 -2.06 -0.34 l-1.98 0 0 -1.02 0 -1.02 3.87 -0.03 3.89 -0.05 0.05 -12.22 0.03 -12.24 0.94 0 0.94 0 0.03 8.40 c0.02 4.60 0.03 10.31 0.03 12.65 l0.02 4.26 3.72 0.05 3.70 0.03 0 -0.55 c0 -1.02 -0.07 -1.01 4.19 -0.95 l3.90 0.05 0.15 3.20 0.15 3.19 5.42 0 5.44 0 0 -2.11 c0 -1.16 0.05 -2.23 0.10 -2.39 0.09 -0.22 0.44 -0.27 2.13 -0.27 l2.03 0 0 -0.58 c0 -0.66 0.19 -0.78 1.30 -0.78 l0.75 0 0 -12.10 0 -12.10 0.94 0 0.94 0 0 8.57 c0 8.23 0.12 15.14 0.26 15.60 0.05 0.15 0.75 0.20 2.69 0.20 1.81 0 2.68 0.07 2.81 0.20 0.15 0.15 0.20 1.35 0.20 4.35 l0 4.14 4.69 0 4.69 0 0 0.92 c0 0.89 -0.02 0.92 -0.53 1.02 -0.29 0.05 -2.56 0.10 -5.03 0.10 l-4.50 0 0 2.30 0 2.30 4.31 0.02 c2.35 0.02 4.62 0.02 5.03 -0.02 l0.72 -0.03 0 0.95 0 0.95 -5.97 0 -5.97 0 -0.03 -4.55z m0.55 -8.66 l0 -2.13 -2.97 0 -2.98 0 -0.05 0.56 -0.05 0.55 -2.05 0.09 -2.05 0.09 -0.05 1.26 c-0.03 0.70 -0.02 1.36 0.03 1.50 0.07 0.17 1.07 0.22 5.13 0.22 l5.03 0 0 -2.13z"
       id="path58" />
    <path
       d="M13.01 16.09 c-0.27 -0.07 -0.41 -0.26 -0.49 -0.66 -0.12 -0.72 0.05 -9.80 0.19 -9.95 0.15 -0.15 25.99 -0.20 26.88 -0.05 l0.73 0.14 0.05 5.23 0.03 5.23 -12.65 0 c-6.97 0 -13.04 0.03 -13.52 0.07 -0.46 0.05 -1.02 0.03 -1.23 0z m25.91 -1.72 c0.05 -0.17 0.07 -1.91 0.05 -3.89 l-0.02 -3.58 -12.44 0 -12.44 0 -0.05 3.66 c-0.02 2.01 0 3.75 0.03 3.87 0.07 0.17 2.59 0.22 12.44 0.22 11.63 0 12.36 -0.02 12.43 -0.29z"
       id="path60" />
  </g>
  <rect
     style="fill:#f2f2f2"
     id="rect9311-5"
     width="5.0823298"
     height="5.038136"
     x="14.9375"
     y="91.03125" />
  <rect
     style="fill:#1a1a1a;fill-opacity:1;stroke:none;stroke-width:0.0634104"
     id="rect45-7-3-0-8"
     width="12.872562"
     height="6.4404106"
     x="1.0000001"
     y="144.625" />
  <rect
     style="fill:#f2f2f2"
     id="rect9311-2"
     width="5.0823298"
     height="5.038136"
     x="15.125"
     y="82.0625" />
  <g
     fill="#705b38"
     id="g4554">
    <path
       d="M55.40 148.99 l-1.28 -0.10 0 -0.51 c-0.02 -0.34 -0.10 -0.53 -0.31 -0.56 -0.38 -0.07 -0.41 -1.06 -0.05 -1.06 0.17 0 0.27 -0.24 0.31 -0.72 l0.05 -0.73 2.01 -0.05 c1.93 -0.05 1.99 -0.05 1.99 0.29 0 0.29 -0.10 0.36 -0.51 0.36 l-0.51 0 0 1.28 0 1.28 0.94 0 c0.68 0 0.94 0.07 0.94 0.24 0 0.44 -0.75 0.49 -3.58 0.29z"
       id="path4530" />
    <path
       d="M55.28 134.88 l-1.24 -0.07 0 -0.58 c0 -0.41 -0.09 -0.60 -0.26 -0.60 -0.17 0 -0.26 -0.17 -0.26 -0.51 0 -0.34 0.09 -0.51 0.26 -0.51 0.19 0 0.26 -0.20 0.26 -0.77 l0 -0.77 1.53 0 1.53 0 0 1.62 0 1.62 1.19 0 c1.07 0 1.19 0.03 1.19 0.34 0 0.32 -0.10 0.34 -1.48 0.31 -0.84 -0.02 -2.06 -0.07 -2.73 -0.09z"
       id="path4531" />
    <path
       d="M58.13 131.35 c0 -0.24 0.49 -0.44 1.16 -0.44 0.26 0 0.38 0.10 0.38 0.34 0 0.29 -0.12 0.34 -0.77 0.34 -0.55 0 -0.77 -0.07 -0.77 -0.24z"
       id="path4532" />
    <path
       d="M54.15 120.90 c-0.07 -0.05 -0.12 -0.41 -0.12 -0.77 0 -0.46 -0.07 -0.65 -0.26 -0.65 -0.17 0 -0.26 -0.19 -0.26 -0.60 0 -0.41 0.09 -0.60 0.26 -0.60 0.17 0 0.26 -0.17 0.26 -0.58 0 -0.32 0.05 -0.63 0.14 -0.66 0.07 -0.05 1.33 -0.14 2.81 -0.20 2.66 -0.14 2.68 -0.14 2.68 0.24 0 0.34 -0.09 0.36 -1.28 0.36 l-1.28 0 0 1.79 0 1.79 -1.41 0 c-0.78 0 -1.48 -0.05 -1.53 -0.12z"
       id="path4533" />
    <path
       d="M55.40 106.89 l-1.28 -0.10 -0.05 -0.72 c-0.03 -0.49 -0.14 -0.73 -0.31 -0.73 -0.15 0 -0.24 -0.19 -0.24 -0.58 0 -0.43 0.09 -0.60 0.34 -0.66 0.27 -0.07 0.32 -0.20 0.29 -0.75 l-0.03 -0.65 1.50 -0.05 1.48 -0.05 0 1.89 0 1.88 1.28 0 c1.16 0 1.28 0.03 1.28 0.34 0 0.32 -0.10 0.34 -1.48 0.31 -0.84 -0.02 -2.08 -0.07 -2.78 -0.12z"
       id="path4534" />
    <path
       d="M54.15 92.61 c-0.07 -0.05 -0.12 -0.41 -0.12 -0.77 0 -0.46 -0.07 -0.65 -0.26 -0.65 -0.41 0 -0.34 -0.95 0.09 -1.07 0.24 -0.07 0.31 -0.19 0.26 -0.48 -0.17 -0.90 0 -1.01 1.55 -1.01 l1.43 0 0 2.05 0 2.05 -1.41 0 c-0.78 0 -1.48 -0.05 -1.53 -0.12z"
       id="path4535" />
    <path
       d="M54.20 78 c0 -0.60 -0.17 -0.95 -0.44 -0.95 -0.38 0 -0.31 -0.99 0.07 -1.06 0.22 -0.03 0.29 -0.22 0.29 -0.73 l0 -0.68 1.50 -0.05 1.48 -0.05 0 1.98 0 1.96 -1.45 0 c-1.41 0 -1.45 -0.02 -1.45 -0.41z"
       id="path4536" />
    <path
       d="M58.30 74.76 c0 -0.27 0.55 -0.44 1.02 -0.32 0.63 0.17 0.39 0.56 -0.34 0.56 -0.46 0 -0.68 -0.07 -0.68 -0.24z"
       id="path4537" />
    <path
       d="M55.28 64.48 l-1.24 -0.07 0 -0.68 c0 -0.44 -0.09 -0.72 -0.26 -0.77 -0.14 -0.07 -0.26 -0.29 -0.26 -0.51 0 -0.26 0.10 -0.41 0.26 -0.41 0.19 0 0.26 -0.20 0.26 -0.77 l0 -0.77 1.18 0 c1.02 0 1.18 -0.03 1.26 -0.34 0.05 -0.19 0.22 -0.34 0.38 -0.34 0.26 0 0.27 0.14 0.17 1.19 -0.07 0.65 -0.07 1.57 0 2.05 l0.12 0.85 1.18 0 c1.06 0 1.18 0.03 1.18 0.34 0 0.32 -0.10 0.34 -1.48 0.31 -0.84 -0.02 -2.06 -0.07 -2.73 -0.09z"
       id="path4538" />
  </g>
  <g
     fill="#9c8761"
     id="g6651">
    <path
       d="M56.59 147.20 l0 -1.76 0.78 -0.12 c0.44 -0.05 1.14 -0.10 1.57 -0.10 l0.77 0 -0.12 0.53 c-0.05 0.29 -0.10 1.14 -0.10 1.88 l0 1.35 -1.45 0 -1.45 0 0 -1.77z"
       id="path6630" />
    <path
       d="M57.84 134.88 l-1.24 -0.07 0 -1.86 0 -1.88 1.45 0 1.45 0 0 1.43 c0 0.78 0.05 1.67 0.10 1.96 0.10 0.44 0.07 0.53 -0.20 0.49 -0.19 -0.02 -0.89 -0.07 -1.55 -0.09z"
       id="path6631" />
    <path
       d="M53.52 133.04 c0 -0.24 0.10 -0.43 0.22 -0.43 0.34 0 0.43 0.15 0.34 0.53 -0.14 0.48 -0.56 0.41 -0.56 -0.10z"
       id="path6632" />
    <path
       d="M56.59 118.98 l0 -2.05 1.45 0 1.45 0 0 1.52 c0 0.84 0.05 1.76 0.10 2.05 l0.12 0.53 -1.57 0 -1.55 0 0 -2.05z"
       id="path6633" />
    <path
       d="M56.59 104.74 l0 -2.13 1.50 0 1.48 0 0 2.13 0 2.13 -1.48 0 -1.50 0 0 -2.13z"
       id="path6634" />
    <path
       d="M56.59 90.68 l0 -2.05 1.45 0 1.45 0 0 1.52 c0 0.84 0.05 1.76 0.10 2.05 l0.12 0.53 -1.57 0 -1.55 0 0 -2.05z"
       id="path6635" />
    <path
       d="M56.59 76.45 l0 -1.96 1.55 0 1.57 0 -0.12 0.53 c-0.05 0.29 -0.10 1.18 -0.10 1.96 l0 1.43 -1.45 0 -1.45 0 0 -1.96z"
       id="path6636" />
    <path
       d="M56.59 62.13 l0 -2.30 1.45 0 1.45 0 0 2.30 0 2.30 -1.45 0 -1.45 0 0 -2.30z"
       id="path6637" />
  </g>
  <g
     fill="#b7ae83"
     id="g8079">
    <path
       d="M59.01 147.15 c0.05 -1.59 0.09 -1.84 0.36 -1.89 0.26 -0.05 0.29 0.12 0.29 1.82 0 1.79 -0.02 1.89 -0.34 1.89 -0.34 0 -0.36 -0.09 -0.31 -1.82z"
       id="path8067" />
    <path
       d="M58.98 132.95 c0 -1.76 0.02 -1.88 0.34 -1.88 0.32 0 0.34 0.12 0.34 1.88 0 1.76 -0.02 1.88 -0.34 1.88 -0.32 0 -0.34 -0.12 -0.34 -1.88z"
       id="path8069" />
    <path
       d="M59.10 120.90 c-0.07 -0.05 -0.12 -0.97 -0.12 -2.05 0 -1.81 0.02 -1.93 0.34 -1.93 0.32 0 0.34 0.12 0.34 2.05 0 1.59 -0.05 2.05 -0.22 2.05 -0.14 0 -0.29 -0.05 -0.34 -0.12z"
       id="path8070" />
    <path
       d="M59.05 106.65 c-0.03 -0.12 -0.05 -1.06 -0.03 -2.10 0.05 -1.60 0.09 -1.86 0.36 -1.91 0.26 -0.05 0.29 0.14 0.29 2.08 0 1.82 -0.03 2.15 -0.26 2.15 -0.15 0 -0.31 -0.10 -0.36 -0.22z"
       id="path8071" />
    <path
       d="M59.10 92.61 c-0.07 -0.05 -0.12 -0.97 -0.12 -2.05 0 -1.81 0.02 -1.93 0.34 -1.93 0.32 0 0.34 0.12 0.34 2.05 0 1.59 -0.05 2.05 -0.22 2.05 -0.14 0 -0.29 -0.05 -0.34 -0.12z"
       id="path8072" />
    <path
       d="M59.01 76.50 l0.05 -1.93 0.48 -0.05 c0.38 -0.05 0.46 0.02 0.46 0.29 0 0.20 -0.07 0.36 -0.17 0.36 -0.10 0 -0.17 0.65 -0.17 1.62 0 1.52 -0.02 1.62 -0.34 1.62 -0.34 0 -0.36 -0.09 -0.31 -1.91z"
       id="path8073" />
    <path
       d="M58.98 62.13 c0 -2.18 0.02 -2.30 0.34 -2.30 0.32 0 0.34 0.12 0.34 2.30 0 2.18 -0.02 2.30 -0.34 2.30 -0.32 0 -0.34 -0.12 -0.34 -2.30z"
       id="path8074" />
  </g>
  <g
     fill="#f7e03c"
     id="g9172"
     style="fill:#00aad4">
    <path
       d="m 23.659029,42.1 -18.3199998,-0.09 3.07,-2.83 c 1.6899998,-1.55 3.2199998,-2.91 3.4299998,-3.02 0.27,-0.15 4.38,-0.2 15.38,-0.2 h 15.02 v 1.41 c 0,0.77 0.02,2.16 0.03,3.09 0.02,0.97 -0.03,1.7 -0.12,1.7 -0.1,0.02 -8.4,-0.02 -18.48,-0.07 z"
       id="path9171"
       style="fill:#00aad4" />
  </g>
  <g
     fill="#bebba3"
     id="g9185">
    <path
       d="M59.15 147.10 l0 -1.88 0.43 0 0.43 0 0 1.88 0 1.88 -0.43 0 -0.43 0 0 -1.88z"
       id="path9177" />
    <path
       d="M59.15 132.95 l0 -1.88 0.43 0 0.43 0 0 1.88 0 1.88 -0.43 0 -0.43 0 0 -1.88z"
       id="path9179" />
    <path
       d="M59.15 118.98 l0 -2.05 0.43 0 0.43 0 0 2.05 0 2.05 -0.43 0 -0.43 0 0 -2.05z"
       id="path9180" />
    <path
       d="M59.15 104.74 l0 -2.13 0.43 0 0.43 0 0 2.13 0 2.13 -0.43 0 -0.43 0 0 -2.13z"
       id="path9181" />
    <path
       d="M59.15 90.68 l0 -2.05 0.43 0 0.43 0 0 2.05 0 2.05 -0.43 0 -0.43 0 0 -2.05z"
       id="path9182" />
    <path
       d="M59.15 76.53 l0 -1.88 0.43 0 0.43 0 0 1.88 0 1.88 -0.43 0 -0.43 0 0 -1.88z"
       id="path9183" />
    <path
       d="M59.15 62.13 l0 -2.30 0.43 0 0.43 0 0 2.30 0 2.30 -0.43 0 -0.43 0 0 -2.30z"
       id="path9184" />
  </g>
  <rect
     style="fill:#f2f2f2"
     id="rect9311-85"
     width="5.0823298"
     height="5.038136"
     x="28.1875"
     y="64.0625" />
  <rect
     style="fill:#f2f2f2"
     id="rect9311-21"
     width="5.0823298"
     height="5.038136"
     x="28.15625"
     y="54.9375" />
  <rect
     style="fill:#cccccc;fill-opacity:0;stroke:none"
     id="rect53"
     width="33.25"
     height="3.375"
     x="12.9375"
     y="144.1875" />
  <rect
     style="fill:#f2f2f2"
     id="rect9311-1"
     width="5.0823298"
     height="5.038136"
     x="15"
     y="100" />
  <rect
     style="fill:#f2f2f2"
     id="rect9311-11"
     width="5.0823298"
     height="5.038136"
     x="15"
     y="109" />
  <rect
     style="fill:#f2f2f2;stroke:#000000;stroke-opacity:1"
     id="rect9311-3"
     width="5.0823298"
     height="5.038136"
     x="15.15625"
     y="135.84375" />
  <rect
     style="fill:#f2f2f2;stroke:#000000;stroke-opacity:1"
     id="rect9311-3-82"
     width="5.0823298"
     height="5.038136"
     x="15.201903"
     y="117.49002" />
  <rect
     style="fill:#f2f2f2;stroke:#000000;stroke-opacity:1"
     id="rect9311-3-82-8"
     width="5.0823298"
     height="5.038136"
     x="15.135184"
     y="126.50435" />
  <rect
     style="fill:#f2f2f2;stroke:#000000;stroke-opacity:1"
     id="rect9311-3-82-2"
     width="5.0823298"
     height="5.038136"
     x="15.251301"
     y="109.10225" />
  <rect
     style="fill:#f2f2f2;stroke:#000000;stroke-opacity:1"
     id="rect9311-3-82-5"
     width="5.0823298"
     height="5.038136"
     x="15.19064"
     y="99.83709" />
  <rect
     style="fill:#f2f2f2;stroke:#000000;stroke-opacity:1"
     id="rect9311-3-82-1"
     width="5.0823298"
     height="5.038136"
     x="15.118718"
     y="90.925476" />
  <rect
     style="fill:#f2f2f2;stroke:#000000;stroke-opacity:1"
     id="rect9311-3-82-11"
     width="5.0823298"
     height="5.038136"
     x="15.118718"
     y="81.969673" />
  <rect
     style="fill:#f2f2f2;stroke:#000000;stroke-opacity:1"
     id="rect9311-3-82-27"
     width="5.0823298"
     height="5.038136"
     x="15.013865"
     y="72.94194" />
  <rect
     style="fill:#f2f2f2;stroke:#000000;stroke-opacity:1"
     id="rect9311-3-82-14"
     width="5.0823298"
     height="5.038136"
     x="15.03033"
     y="63.897747" />
  <rect
     style="fill:#f2f2f2;stroke:#000000;stroke-opacity:1"
     id="rect9311-3-82-14-6"
     width="5.0823298"
     height="5.038136"
     x="14.837088"
     y="54.765163" />
  <rect
     style="fill:#f2f2f2;stroke:#000000;stroke-opacity:1"
     id="rect9311-3-82-21"
     width="5.0823298"
     height="5.038136"
     x="28.334486"
     y="54.881283" />
  <rect
     style="fill:#f2f2f2;stroke:#000000;stroke-opacity:1"
     id="rect9311-3-82-85"
     width="5.0823298"
     height="5.038136"
     x="28.527729"
     y="64.146446" />
  <rect
     style="fill:#f2f2f2;stroke:#000000;stroke-opacity:1"
     id="rect9311-3-82-85-2"
     width="5.0823298"
     height="5.038136"
     x="28.46875"
     y="72.90625" />
  <rect
     style="fill:#f2f2f2;stroke:#000000;stroke-opacity:1"
     id="rect9311-3-82-85-5"
     width="5.0823298"
     height="5.038136"
     x="28.625"
     y="82.1875" />
  <rect
     style="fill:#f2f2f2;stroke:#000000;stroke-opacity:1"
     id="rect9311-3-82-85-3"
     width="5.0823298"
     height="5.038136"
     x="28.625"
     y="91" />
  <rect
     style="fill:#f2f2f2;stroke:#000000;stroke-opacity:1"
     id="rect9311-3-82-85-7"
     width="5.0823298"
     height="5.038136"
     x="28.25"
     y="99.875" />
  <rect
     style="fill:#f2f2f2;stroke:#000000;stroke-opacity:1"
     id="rect9311-3-82-85-38"
     width="5.0823298"
     height="5.038136"
     x="27.9375"
     y="109.25" />
  <rect
     style="fill:#f2f2f2;stroke:#000000;stroke-opacity:1"
     id="rect9311-3-82-85-8"
     width="5.0823298"
     height="5.038136"
     x="27.6875"
     y="117.375" />
  <rect
     style="fill:#f2f2f2;stroke:#000000;stroke-opacity:1"
     id="rect9311-3-82-85-0"
     width="5.0823298"
     height="5.038136"
     x="27.625"
     y="126.1875" />
  <rect
     style="fill:#f2f2f2;stroke:#000000;stroke-opacity:1"
     id="rect9311-3-82-85-81"
     width="5.0823298"
     height="5.038136"
     x="27.5"
     y="135.625" />
  <rect
     style="fill:none"
     id="rect1"
     width="15.556349"
     height="13.169864"
     x="63.197666"
     y="198.07829" />
  <g
     inkscape:groupmode="layer"
     id="layer1"
     inkscape:label="Pin"
     style="display:inline">
    <circle
       style="display:none;fill:#000000;fill-opacity:1;stroke:none"
       id="path40"
       cx="19.710602"
       cy="191.00722"
       r="2.6737475" />
    <g
       id="g43">
      <rect
         style="display:inline;fill:#ff7f2a;fill-opacity:1;stroke:none;stroke-width:0.98773"
         id="rect42"
         width="16.24136"
         height="10.606602"
         x="11.645165"
         y="185.8365" />
      <rect
         style="fill:#ff9955;fill-opacity:1;stroke:none;stroke-width:0.989771"
         id="rect43"
         width="1.5909903"
         height="8.7671814"
         x="18.915106"
         y="186.52687" />
      <circle
         style="fill:#000000;fill-opacity:1;stroke:none;stroke-width:1.25"
         id="path43"
         cx="19.721651"
         cy="190.88568"
         r="2.1544659" />
      <path
         d="m 17.47,216.9 c -3.51,-0.66 -6.39,-3.19 -7.41,-6.55 -0.41,-1.3 -0.46,-4.4 -0.1,-5.73 0.6,-2.28 2.42,-4.67 4.28,-5.64 1.47,-0.77 1.26,-0.92 -1.19,-0.92 -1.18,0 -2.13,-0.02 -2.15,-0.03 0,-0.03 -0.05,-2.81 -0.09,-6.19 -0.07,-4.06 0.110625,-5.95063 0.09,-6.61 l -0.0053,-0.46781 L 19.9,184.8 l 8.83,0.05 v 6.56 6.56 l -2.08,0.05 c -1.16,0.02 -2.1,0.1 -2.1,0.17 0,0.07 0.36,0.31 0.8,0.55 1.91,1.01 3.68,3.2 4.35,5.37 0.49,1.57 0.53,4.6 0.07,6.14 -0.95,3.24 -3.41,5.66 -6.55,6.48 -1.55,0.39 -4.11,0.48 -5.74,0.17 z m 4.84,-1.98 c 3.72,-1.19 6.49,-5.28 5.85,-8.63 -0.46,-2.34 -2.23,-4.79 -4.24,-5.88 -2.59,-1.41 -6.02,-1.28 -8.57,0.38 -1.93,1.24 -3.49,3.7 -3.68,5.81 -0.32,3.41 2.01,6.85 5.51,8.16 1.74,0.65 3.43,0.7 5.15,0.15 z m 0.53,-17.57 v -0.48 H 19.77 16.7 v 0.48 0.46 h 3.07 3.07 z m -9.03,-1.48 c 0,-0.48 0.340408,-0.56734 1.390408,-0.63734 0.58,-0.05 2.939592,0.0273 5.649592,0.0773 l 4.89,0.09 v 0.48 c 0,0.46 0.05,0.49 0.68,0.49 h 0.68 l -0.03,-4.89 -0.05,-4.91 -7.19,-0.05 -7.21,-0.03 v 4.94 4.94 h 0.6 c 0.55,0 0.6,-0.05 0.6,-0.49 z"
         id="path35"
         sodipodi:nodetypes="ccccscccccccccscccccccccccccccccccccccccccsscccccccscc" />
    </g>
    <g
       id="g43-7"
       style="display:inline"
       transform="translate(0.40800786,33.752605)">
      <rect
         style="display:inline;fill:#ff7f2a;fill-opacity:1;stroke:none;stroke-width:0.98773"
         id="rect42-7"
         width="16.24136"
         height="10.606602"
         x="11.645165"
         y="185.8365" />
      <rect
         style="fill:#ff9955;fill-opacity:1;stroke:none;stroke-width:0.989771"
         id="rect43-9"
         width="1.5909903"
         height="8.7671814"
         x="18.915106"
         y="186.52687" />
      <circle
         style="fill:#000000;fill-opacity:1;stroke:none;stroke-width:1.25"
         id="path43-3"
         cx="19.721651"
         cy="190.88568"
         r="2.1544659" />
      <path
         d="m 17.47,216.9 c -3.51,-0.66 -6.39,-3.19 -7.41,-6.55 -0.41,-1.3 -0.46,-4.4 -0.1,-5.73 0.6,-2.28 2.42,-4.67 4.28,-5.64 1.47,-0.77 1.26,-0.92 -1.19,-0.92 -1.18,0 -2.13,-0.02 -2.15,-0.03 0,-0.03 -0.05,-2.81 -0.09,-6.19 -0.07,-4.06 0.110625,-5.95063 0.09,-6.61 l -0.0053,-0.46781 9.0053,0.0378 8.83,0.05 v 6.56 6.56 l -2.08,0.05 c -1.16,0.02 -2.1,0.1 -2.1,0.17 0,0.07 0.36,0.31 0.8,0.55 1.91,1.01 3.68,3.2 4.35,5.37 0.49,1.57 0.53,4.6 0.07,6.14 -0.95,3.24 -3.41,5.66 -6.55,6.48 -1.55,0.39 -4.11,0.48 -5.74,0.17 z m 4.84,-1.98 c 3.72,-1.19 6.49,-5.28 5.85,-8.63 -0.46,-2.34 -2.23,-4.79 -4.24,-5.88 -2.59,-1.41 -6.02,-1.28 -8.57,0.38 -1.93,1.24 -3.49,3.7 -3.68,5.81 -0.32,3.41 2.01,6.85 5.51,8.16 1.74,0.65 3.43,0.7 5.15,0.15 z m 0.53,-17.57 v -0.48 H 19.77 16.7 v 0.48 0.46 h 3.07 3.07 z m -9.03,-1.48 c 0,-0.48 0.340408,-0.56734 1.390408,-0.63734 0.58,-0.05 2.939592,0.0273 5.649592,0.0773 l 4.89,0.09 v 0.48 c 0,0.46 0.05,0.49 0.68,0.49 h 0.68 l -0.03,-4.89 -0.05,-4.91 -7.19,-0.05 -7.21,-0.03 v 4.94 4.94 h 0.6 c 0.55,0 0.6,-0.05 0.6,-0.49 z"
         id="path35-1"
         sodipodi:nodetypes="ccccscccccccccscccccccccccccccccccccccccccsscccccccscc" />
    </g>
    <g
       id="g43-7-6"
       style="display:inline"
       transform="translate(0.78148361,68.112805)">
      <rect
         style="display:inline;fill:#ff7f2a;fill-opacity:1;stroke:none;stroke-width:0.98773"
         id="rect42-7-0"
         width="16.24136"
         height="10.606602"
         x="11.645165"
         y="185.8365" />
      <rect
         style="fill:#ff9955;fill-opacity:1;stroke:none;stroke-width:0.989771"
         id="rect43-9-2"
         width="1.5909903"
         height="8.7671814"
         x="18.915106"
         y="186.52687" />
      <circle
         style="fill:#000000;fill-opacity:1;stroke:none;stroke-width:1.25"
         id="path43-3-4"
         cx="19.721651"
         cy="190.88568"
         r="2.1544659" />
      <path
         d="m 17.47,216.9 c -3.51,-0.66 -6.39,-3.19 -7.41,-6.55 -0.41,-1.3 -0.46,-4.4 -0.1,-5.73 0.6,-2.28 2.42,-4.67 4.28,-5.64 1.47,-0.77 1.26,-0.92 -1.19,-0.92 -1.18,0 -2.13,-0.02 -2.15,-0.03 0,-0.03 -0.05,-2.81 -0.09,-6.19 -0.07,-4.06 0.110625,-5.95063 0.09,-6.61 l -0.0053,-0.46781 9.0053,0.0378 8.83,0.05 v 6.56 6.56 l -2.08,0.05 c -1.16,0.02 -2.1,0.1 -2.1,0.17 0,0.07 0.36,0.31 0.8,0.55 1.91,1.01 3.68,3.2 4.35,5.37 0.49,1.57 0.53,4.6 0.07,6.14 -0.95,3.24 -3.41,5.66 -6.55,6.48 -1.55,0.39 -4.11,0.48 -5.74,0.17 z m 4.84,-1.98 c 3.72,-1.19 6.49,-5.28 5.85,-8.63 -0.46,-2.34 -2.23,-4.79 -4.24,-5.88 -2.59,-1.41 -6.02,-1.28 -8.57,0.38 -1.93,1.24 -3.49,3.7 -3.68,5.81 -0.32,3.41 2.01,6.85 5.51,8.16 1.74,0.65 3.43,0.7 5.15,0.15 z m 0.53,-17.57 v -0.48 H 19.77 16.7 v 0.48 0.46 h 3.07 3.07 z m -9.03,-1.48 c 0,-0.48 0.340408,-0.56734 1.390408,-0.63734 0.58,-0.05 2.939592,0.0273 5.649592,0.0773 l 4.89,0.09 v 0.48 c 0,0.46 0.05,0.49 0.68,0.49 h 0.68 l -0.03,-4.89 -0.05,-4.91 -7.19,-0.05 -7.21,-0.03 v 4.94 4.94 h 0.6 c 0.55,0 0.6,-0.05 0.6,-0.49 z"
         id="path35-1-8"
         sodipodi:nodetypes="ccccscccccccccscccccccccccccccccccccccccccsscccccccscc" />
    </g>
    <g
       id="g43-7-6-3"
       style="display:inline"
       transform="translate(0.7814836,101.8628)">
      <rect
         style="display:inline;fill:#ff7f2a;fill-opacity:1;stroke:none;stroke-width:0.98773"
         id="rect42-7-0-8"
         width="16.24136"
         height="10.606602"
         x="11.645165"
         y="185.8365" />
      <rect
         style="fill:#ff9955;fill-opacity:1;stroke:none;stroke-width:0.989771"
         id="rect43-9-2-9"
         width="1.5909903"
         height="8.7671814"
         x="18.915106"
         y="186.52687" />
      <circle
         style="fill:#000000;fill-opacity:1;stroke:none;stroke-width:1.25"
         id="path43-3-4-3"
         cx="19.721651"
         cy="190.88568"
         r="2.1544659" />
      <path
         d="m 17.47,216.9 c -3.51,-0.66 -6.39,-3.19 -7.41,-6.55 -0.41,-1.3 -0.46,-4.4 -0.1,-5.73 0.6,-2.28 2.42,-4.67 4.28,-5.64 1.47,-0.77 1.26,-0.92 -1.19,-0.92 -1.18,0 -2.13,-0.02 -2.15,-0.03 0,-0.03 -0.05,-2.81 -0.09,-6.19 -0.07,-4.06 0.110625,-5.95063 0.09,-6.61 l -0.0053,-0.46781 9.0053,0.0378 8.83,0.05 v 6.56 6.56 l -2.08,0.05 c -1.16,0.02 -2.1,0.1 -2.1,0.17 0,0.07 0.36,0.31 0.8,0.55 1.91,1.01 3.68,3.2 4.35,5.37 0.49,1.57 0.53,4.6 0.07,6.14 -0.95,3.24 -3.41,5.66 -6.55,6.48 -1.55,0.39 -4.11,0.48 -5.74,0.17 z m 4.84,-1.98 c 3.72,-1.19 6.49,-5.28 5.85,-8.63 -0.46,-2.34 -2.23,-4.79 -4.24,-5.88 -2.59,-1.41 -6.02,-1.28 -8.57,0.38 -1.93,1.24 -3.49,3.7 -3.68,5.81 -0.32,3.41 2.01,6.85 5.51,8.16 1.74,0.65 3.43,0.7 5.15,0.15 z m 0.53,-17.57 v -0.48 H 19.77 16.7 v 0.48 0.46 h 3.07 3.07 z m -9.03,-1.48 c 0,-0.48 0.340408,-0.56734 1.390408,-0.63734 0.58,-0.05 2.939592,0.0273 5.649592,0.0773 l 4.89,0.09 v 0.48 c 0,0.46 0.05,0.49 0.68,0.49 h 0.68 l -0.03,-4.89 -0.05,-4.91 -7.19,-0.05 -7.21,-0.03 v 4.94 4.94 h 0.6 c 0.55,0 0.6,-0.05 0.6,-0.49 z"
         id="path35-1-8-4"
         sodipodi:nodetypes="ccccscccccccccscccccccccccccccccccccccccccsscccccccscc" />
    </g>
    <g
       id="g43-7-6-3-1"
       style="display:inline"
       transform="translate(23.343984,101.98781)">
      <rect
         style="display:inline;fill:#ff7f2a;fill-opacity:1;stroke:none;stroke-width:0.98773"
         id="rect42-7-0-8-6"
         width="16.24136"
         height="10.606602"
         x="11.645165"
         y="185.8365" />
      <rect
         style="fill:#ff9955;fill-opacity:1;stroke:none;stroke-width:0.989771"
         id="rect43-9-2-9-5"
         width="1.5909903"
         height="8.7671814"
         x="18.915106"
         y="186.52687" />
      <circle
         style="fill:#000000;fill-opacity:1;stroke:none;stroke-width:1.25"
         id="path43-3-4-3-7"
         cx="19.721651"
         cy="190.88568"
         r="2.1544659" />
      <path
         d="m 17.47,216.9 c -3.51,-0.66 -6.39,-3.19 -7.41,-6.55 -0.41,-1.3 -0.46,-4.4 -0.1,-5.73 0.6,-2.28 2.42,-4.67 4.28,-5.64 1.47,-0.77 1.26,-0.92 -1.19,-0.92 -1.18,0 -2.13,-0.02 -2.15,-0.03 0,-0.03 -0.05,-2.81 -0.09,-6.19 -0.07,-4.06 0.110625,-5.95063 0.09,-6.61 l -0.0053,-0.46781 9.0053,0.0378 8.83,0.05 v 6.56 6.56 l -2.08,0.05 c -1.16,0.02 -2.1,0.1 -2.1,0.17 0,0.07 0.36,0.31 0.8,0.55 1.91,1.01 3.68,3.2 4.35,5.37 0.49,1.57 0.53,4.6 0.07,6.14 -0.95,3.24 -3.41,5.66 -6.55,6.48 -1.55,0.39 -4.11,0.48 -5.74,0.17 z m 4.84,-1.98 c 3.72,-1.19 6.49,-5.28 5.85,-8.63 -0.46,-2.34 -2.23,-4.79 -4.24,-5.88 -2.59,-1.41 -6.02,-1.28 -8.57,0.38 -1.93,1.24 -3.49,3.7 -3.68,5.81 -0.32,3.41 2.01,6.85 5.51,8.16 1.74,0.65 3.43,0.7 5.15,0.15 z m 0.53,-17.57 v -0.48 H 19.77 16.7 v 0.48 0.46 h 3.07 3.07 z m -9.03,-1.48 c 0,-0.48 0.340408,-0.56734 1.390408,-0.63734 0.58,-0.05 2.939592,0.0273 5.649592,0.0773 l 4.89,0.09 v 0.48 c 0,0.46 0.05,0.49 0.68,0.49 h 0.68 l -0.03,-4.89 -0.05,-4.91 -7.19,-0.05 -7.21,-0.03 v 4.94 4.94 h 0.6 c 0.55,0 0.6,-0.05 0.6,-0.49 z"
         id="path35-1-8-4-5"
         sodipodi:nodetypes="ccccscccccccccscccccccccccccccccccccccccccsscccccccscc" />
    </g>
    <g
       id="g43-7-6-3-12"
       style="display:inline"
       transform="translate(23.343984,135.61281)">
      <rect
         style="display:inline;fill:#ff7f2a;fill-opacity:1;stroke:none;stroke-width:0.98773"
         id="rect42-7-0-8-0"
         width="16.24136"
         height="10.606602"
         x="11.645165"
         y="185.8365" />
      <rect
         style="fill:#ff9955;fill-opacity:1;stroke:none;stroke-width:0.989771"
         id="rect43-9-2-9-0"
         width="1.5909903"
         height="8.7671814"
         x="18.915106"
         y="186.52687" />
      <circle
         style="fill:#000000;fill-opacity:1;stroke:none;stroke-width:1.25"
         id="path43-3-4-3-1"
         cx="19.721651"
         cy="190.88568"
         r="2.1544659" />
      <path
         d="m 17.47,216.9 c -3.51,-0.66 -6.39,-3.19 -7.41,-6.55 -0.41,-1.3 -0.46,-4.4 -0.1,-5.73 0.6,-2.28 2.42,-4.67 4.28,-5.64 1.47,-0.77 1.26,-0.92 -1.19,-0.92 -1.18,0 -2.13,-0.02 -2.15,-0.03 0,-0.03 -0.05,-2.81 -0.09,-6.19 -0.07,-4.06 0.110625,-5.95063 0.09,-6.61 l -0.0053,-0.46781 9.0053,0.0378 8.83,0.05 v 6.56 6.56 l -2.08,0.05 c -1.16,0.02 -2.1,0.1 -2.1,0.17 0,0.07 0.36,0.31 0.8,0.55 1.91,1.01 3.68,3.2 4.35,5.37 0.49,1.57 0.53,4.6 0.07,6.14 -0.95,3.24 -3.41,5.66 -6.55,6.48 -1.55,0.39 -4.11,0.48 -5.74,0.17 z m 4.84,-1.98 c 3.72,-1.19 6.49,-5.28 5.85,-8.63 -0.46,-2.34 -2.23,-4.79 -4.24,-5.88 -2.59,-1.41 -6.02,-1.28 -8.57,0.38 -1.93,1.24 -3.49,3.7 -3.68,5.81 -0.32,3.41 2.01,6.85 5.51,8.16 1.74,0.65 3.43,0.7 5.15,0.15 z m 0.53,-17.57 v -0.48 H 19.77 16.7 v 0.48 0.46 h 3.07 3.07 z m -9.03,-1.48 c 0,-0.48 0.340408,-0.56734 1.390408,-0.63734 0.58,-0.05 2.939592,0.0273 5.649592,0.0773 l 4.89,0.09 v 0.48 c 0,0.46 0.05,0.49 0.68,0.49 h 0.68 l -0.03,-4.89 -0.05,-4.91 -7.19,-0.05 -7.21,-0.03 v 4.94 4.94 h 0.6 c 0.55,0 0.6,-0.05 0.6,-0.49 z"
         id="path35-1-8-4-4"
         sodipodi:nodetypes="ccccscccccccccscccccccccccccccccccccccccccsscccccccscc" />
    </g>
    <g
       id="g43-7-6-3-0"
       style="display:inline"
       transform="translate(23.656484,169.05031)">
      <rect
         style="display:inline;fill:#ff7f2a;fill-opacity:1;stroke:none;stroke-width:0.98773"
         id="rect42-7-0-8-7"
         width="16.24136"
         height="10.606602"
         x="11.645165"
         y="185.8365" />
      <rect
         style="fill:#ff9955;fill-opacity:1;stroke:none;stroke-width:0.989771"
         id="rect43-9-2-9-1"
         width="1.5909903"
         height="8.7671814"
         x="18.915106"
         y="186.52687" />
      <circle
         style="fill:#000000;fill-opacity:1;stroke:none;stroke-width:1.25"
         id="path43-3-4-3-77"
         cx="19.721651"
         cy="190.88568"
         r="2.1544659" />
      <path
         d="m 17.47,216.9 c -3.51,-0.66 -6.39,-3.19 -7.41,-6.55 -0.41,-1.3 -0.46,-4.4 -0.1,-5.73 0.6,-2.28 2.42,-4.67 4.28,-5.64 1.47,-0.77 1.26,-0.92 -1.19,-0.92 -1.18,0 -2.13,-0.02 -2.15,-0.03 0,-0.03 -0.05,-2.81 -0.09,-6.19 -0.07,-4.06 0.110625,-5.95063 0.09,-6.61 l -0.0053,-0.46781 9.0053,0.0378 8.83,0.05 v 6.56 6.56 l -2.08,0.05 c -1.16,0.02 -2.1,0.1 -2.1,0.17 0,0.07 0.36,0.31 0.8,0.55 1.91,1.01 3.68,3.2 4.35,5.37 0.49,1.57 0.53,4.6 0.07,6.14 -0.95,3.24 -3.41,5.66 -6.55,6.48 -1.55,0.39 -4.11,0.48 -5.74,0.17 z m 4.84,-1.98 c 3.72,-1.19 6.49,-5.28 5.85,-8.63 -0.46,-2.34 -2.23,-4.79 -4.24,-5.88 -2.59,-1.41 -6.02,-1.28 -8.57,0.38 -1.93,1.24 -3.49,3.7 -3.68,5.81 -0.32,3.41 2.01,6.85 5.51,8.16 1.74,0.65 3.43,0.7 5.15,0.15 z m 0.53,-17.57 v -0.48 H 19.77 16.7 v 0.48 0.46 h 3.07 3.07 z m -9.03,-1.48 c 0,-0.48 0.340408,-0.56734 1.390408,-0.63734 0.58,-0.05 2.939592,0.0273 5.649592,0.0773 l 4.89,0.09 v 0.48 c 0,0.46 0.05,0.49 0.68,0.49 h 0.68 l -0.03,-4.89 -0.05,-4.91 -7.19,-0.05 -7.21,-0.03 v 4.94 4.94 h 0.6 c 0.55,0 0.6,-0.05 0.6,-0.49 z"
         id="path35-1-8-4-7"
         sodipodi:nodetypes="ccccscccccccccscccccccccccccccccccccccccccsscccccccscc" />
    </g>
    <g
       id="g43-7-6-3-3"
       style="display:inline"
       transform="translate(23.968984,202.48781)">
      <rect
         style="display:inline;fill:#ff7f2a;fill-opacity:1;stroke:none;stroke-width:0.98773"
         id="rect42-7-0-8-3"
         width="16.24136"
         height="10.606602"
         x="11.645165"
         y="185.8365" />
      <rect
         style="fill:#ff9955;fill-opacity:1;stroke:none;stroke-width:0.989771"
         id="rect43-9-2-9-59"
         width="1.5909903"
         height="8.7671814"
         x="18.915106"
         y="186.52687" />
      <circle
         style="fill:#000000;fill-opacity:1;stroke:none;stroke-width:1.25"
         id="path43-3-4-3-9"
         cx="19.721651"
         cy="190.88568"
         r="2.1544659" />
      <path
         d="m 17.47,216.9 c -3.51,-0.66 -6.39,-3.19 -7.41,-6.55 -0.41,-1.3 -0.46,-4.4 -0.1,-5.73 0.6,-2.28 2.42,-4.67 4.28,-5.64 1.47,-0.77 1.26,-0.92 -1.19,-0.92 -1.18,0 -2.13,-0.02 -2.15,-0.03 0,-0.03 -0.05,-2.81 -0.09,-6.19 -0.07,-4.06 0.110625,-5.95063 0.09,-6.61 l -0.0053,-0.46781 9.0053,0.0378 8.83,0.05 v 6.56 6.56 l -2.08,0.05 c -1.16,0.02 -2.1,0.1 -2.1,0.17 0,0.07 0.36,0.31 0.8,0.55 1.91,1.01 3.68,3.2 4.35,5.37 0.49,1.57 0.53,4.6 0.07,6.14 -0.95,3.24 -3.41,5.66 -6.55,6.48 -1.55,0.39 -4.11,0.48 -5.74,0.17 z m 4.84,-1.98 c 3.72,-1.19 6.49,-5.28 5.85,-8.63 -0.46,-2.34 -2.23,-4.79 -4.24,-5.88 -2.59,-1.41 -6.02,-1.28 -8.57,0.38 -1.93,1.24 -3.49,3.7 -3.68,5.81 -0.32,3.41 2.01,6.85 5.51,8.16 1.74,0.65 3.43,0.7 5.15,0.15 z m 0.53,-17.57 v -0.48 H 19.77 16.7 v 0.48 0.46 h 3.07 3.07 z m -9.03,-1.48 c 0,-0.48 0.340408,-0.56734 1.390408,-0.63734 0.58,-0.05 2.939592,0.0273 5.649592,0.0773 l 4.89,0.09 v 0.48 c 0,0.46 0.05,0.49 0.68,0.49 h 0.68 l -0.03,-4.89 -0.05,-4.91 -7.19,-0.05 -7.21,-0.03 v 4.94 4.94 h 0.6 c 0.55,0 0.6,-0.05 0.6,-0.49 z"
         id="path35-1-8-4-8"
         sodipodi:nodetypes="ccccscccccccccscccccccccccccccccccccccccccsscccccccscc" />
    </g>
    <g
       id="g43-7-6-3-80"
       style="display:inline"
       transform="translate(23.031484,270.42531)">
      <rect
         style="display:inline;fill:#ff7f2a;fill-opacity:1;stroke:none;stroke-width:0.98773"
         id="rect42-7-0-8-1"
         width="16.24136"
         height="10.606602"
         x="11.645165"
         y="185.8365" />
      <rect
         style="fill:#ff9955;fill-opacity:1;stroke:none;stroke-width:0.989771"
         id="rect43-9-2-9-2"
         width="1.5909903"
         height="8.7671814"
         x="18.915106"
         y="186.52687" />
      <circle
         style="fill:#000000;fill-opacity:1;stroke:none;stroke-width:1.25"
         id="path43-3-4-3-5"
         cx="19.721651"
         cy="190.88568"
         r="2.1544659" />
      <path
         d="m 17.47,216.9 c -3.51,-0.66 -6.39,-3.19 -7.41,-6.55 -0.41,-1.3 -0.46,-4.4 -0.1,-5.73 0.6,-2.28 2.42,-4.67 4.28,-5.64 1.47,-0.77 1.26,-0.92 -1.19,-0.92 -1.18,0 -2.13,-0.02 -2.15,-0.03 0,-0.03 -0.05,-2.81 -0.09,-6.19 -0.07,-4.06 0.110625,-5.95063 0.09,-6.61 l -0.0053,-0.46781 9.0053,0.0378 8.83,0.05 v 6.56 6.56 l -2.08,0.05 c -1.16,0.02 -2.1,0.1 -2.1,0.17 0,0.07 0.36,0.31 0.8,0.55 1.91,1.01 3.68,3.2 4.35,5.37 0.49,1.57 0.53,4.6 0.07,6.14 -0.95,3.24 -3.41,5.66 -6.55,6.48 -1.55,0.39 -4.11,0.48 -5.74,0.17 z m 4.84,-1.98 c 3.72,-1.19 6.49,-5.28 5.85,-8.63 -0.46,-2.34 -2.23,-4.79 -4.24,-5.88 -2.59,-1.41 -6.02,-1.28 -8.57,0.38 -1.93,1.24 -3.49,3.7 -3.68,5.81 -0.32,3.41 2.01,6.85 5.51,8.16 1.74,0.65 3.43,0.7 5.15,0.15 z m 0.53,-17.57 v -0.48 H 19.77 16.7 v 0.48 0.46 h 3.07 3.07 z m -9.03,-1.48 c 0,-0.48 0.340408,-0.56734 1.390408,-0.63734 0.58,-0.05 2.939592,0.0273 5.649592,0.0773 l 4.89,0.09 v 0.48 c 0,0.46 0.05,0.49 0.68,0.49 h 0.68 l -0.03,-4.89 -0.05,-4.91 -7.19,-0.05 -7.21,-0.03 v 4.94 4.94 h 0.6 c 0.55,0 0.6,-0.05 0.6,-0.49 z"
         id="path35-1-8-4-09"
         sodipodi:nodetypes="ccccscccccccccscccccccccccccccccccccccccccsscccccccscc" />
    </g>
    <g
       id="g43-7-6-3-8"
       style="display:inline"
       transform="translate(23.218984,236.23781)">
      <rect
         style="display:inline;fill:#ff7f2a;fill-opacity:1;stroke:none;stroke-width:0.98773"
         id="rect42-7-0-8-2"
         width="16.24136"
         height="10.606602"
         x="11.645165"
         y="185.8365" />
      <rect
         style="fill:#ff9955;fill-opacity:1;stroke:none;stroke-width:0.989771"
         id="rect43-9-2-9-6"
         width="1.5909903"
         height="8.7671814"
         x="18.915106"
         y="186.52687" />
      <circle
         style="fill:#000000;fill-opacity:1;stroke:none;stroke-width:1.25"
         id="path43-3-4-3-6"
         cx="19.721651"
         cy="190.88568"
         r="2.1544659" />
      <path
         d="m 17.47,216.9 c -3.51,-0.66 -6.39,-3.19 -7.41,-6.55 -0.41,-1.3 -0.46,-4.4 -0.1,-5.73 0.6,-2.28 2.42,-4.67 4.28,-5.64 1.47,-0.77 1.26,-0.92 -1.19,-0.92 -1.18,0 -2.13,-0.02 -2.15,-0.03 0,-0.03 -0.05,-2.81 -0.09,-6.19 -0.07,-4.06 0.110625,-5.95063 0.09,-6.61 l -0.0053,-0.46781 9.0053,0.0378 8.83,0.05 v 6.56 6.56 l -2.08,0.05 c -1.16,0.02 -2.1,0.1 -2.1,0.17 0,0.07 0.36,0.31 0.8,0.55 1.91,1.01 3.68,3.2 4.35,5.37 0.49,1.57 0.53,4.6 0.07,6.14 -0.95,3.24 -3.41,5.66 -6.55,6.48 -1.55,0.39 -4.11,0.48 -5.74,0.17 z m 4.84,-1.98 c 3.72,-1.19 6.49,-5.28 5.85,-8.63 -0.46,-2.34 -2.23,-4.79 -4.24,-5.88 -2.59,-1.41 -6.02,-1.28 -8.57,0.38 -1.93,1.24 -3.49,3.7 -3.68,5.81 -0.32,3.41 2.01,6.85 5.51,8.16 1.74,0.65 3.43,0.7 5.15,0.15 z m 0.53,-17.57 v -0.48 H 19.77 16.7 v 0.48 0.46 h 3.07 3.07 z m -9.03,-1.48 c 0,-0.48 0.340408,-0.56734 1.390408,-0.63734 0.58,-0.05 2.939592,0.0273 5.649592,0.0773 l 4.89,0.09 v 0.48 c 0,0.46 0.05,0.49 0.68,0.49 h 0.68 l -0.03,-4.89 -0.05,-4.91 -7.19,-0.05 -7.21,-0.03 v 4.94 4.94 h 0.6 c 0.55,0 0.6,-0.05 0.6,-0.49 z"
         id="path35-1-8-4-0"
         sodipodi:nodetypes="ccccscccccccccscccccccccccccccccccccccccccsscccccccscc" />
    </g>
    <g
       id="g43-7-6-6"
       style="display:inline"
       transform="translate(0.8439836,135.3628)">
      <rect
         style="display:inline;fill:#ff7f2a;fill-opacity:1;stroke:none;stroke-width:0.98773"
         id="rect42-7-0-0"
         width="16.24136"
         height="10.606602"
         x="11.645165"
         y="185.8365" />
      <rect
         style="fill:#ff9955;fill-opacity:1;stroke:none;stroke-width:0.989771"
         id="rect43-9-2-6"
         width="1.5909903"
         height="8.7671814"
         x="18.915106"
         y="186.52687" />
      <circle
         style="fill:#000000;fill-opacity:1;stroke:none;stroke-width:1.25"
         id="path43-3-4-6"
         cx="19.721651"
         cy="190.88568"
         r="2.1544659" />
      <path
         d="m 17.47,216.9 c -3.51,-0.66 -6.39,-3.19 -7.41,-6.55 -0.41,-1.3 -0.46,-4.4 -0.1,-5.73 0.6,-2.28 2.42,-4.67 4.28,-5.64 1.47,-0.77 1.26,-0.92 -1.19,-0.92 -1.18,0 -2.13,-0.02 -2.15,-0.03 0,-0.03 -0.05,-2.81 -0.09,-6.19 -0.07,-4.06 0.110625,-5.95063 0.09,-6.61 l -0.0053,-0.46781 9.0053,0.0378 8.83,0.05 v 6.56 6.56 l -2.08,0.05 c -1.16,0.02 -2.1,0.1 -2.1,0.17 0,0.07 0.36,0.31 0.8,0.55 1.91,1.01 3.68,3.2 4.35,5.37 0.49,1.57 0.53,4.6 0.07,6.14 -0.95,3.24 -3.41,5.66 -6.55,6.48 -1.55,0.39 -4.11,0.48 -5.74,0.17 z m 4.84,-1.98 c 3.72,-1.19 6.49,-5.28 5.85,-8.63 -0.46,-2.34 -2.23,-4.79 -4.24,-5.88 -2.59,-1.41 -6.02,-1.28 -8.57,0.38 -1.93,1.24 -3.49,3.7 -3.68,5.81 -0.32,3.41 2.01,6.85 5.51,8.16 1.74,0.65 3.43,0.7 5.15,0.15 z m 0.53,-17.57 v -0.48 H 19.77 16.7 v 0.48 0.46 h 3.07 3.07 z m -9.03,-1.48 c 0,-0.48 0.340408,-0.56734 1.390408,-0.63734 0.58,-0.05 2.939592,0.0273 5.649592,0.0773 l 4.89,0.09 v 0.48 c 0,0.46 0.05,0.49 0.68,0.49 h 0.68 l -0.03,-4.89 -0.05,-4.91 -7.19,-0.05 -7.21,-0.03 v 4.94 4.94 h 0.6 c 0.55,0 0.6,-0.05 0.6,-0.49 z"
         id="path35-1-8-1"
         sodipodi:nodetypes="ccccscccccccccscccccccccccccccccccccccccccsscccccccscc" />
    </g>
    <g
       id="g43-7-6-4"
       style="display:inline"
       transform="translate(0.5314836,169.1128)">
      <rect
         style="display:inline;fill:#ff7f2a;fill-opacity:1;stroke:none;stroke-width:0.98773"
         id="rect42-7-0-9"
         width="16.24136"
         height="10.606602"
         x="11.645165"
         y="185.8365" />
      <rect
         style="fill:#ff9955;fill-opacity:1;stroke:none;stroke-width:0.989771"
         id="rect43-9-2-63"
         width="1.5909903"
         height="8.7671814"
         x="18.915106"
         y="186.52687" />
      <circle
         style="fill:#000000;fill-opacity:1;stroke:none;stroke-width:1.25"
         id="path43-3-4-7"
         cx="19.721651"
         cy="190.88568"
         r="2.1544659" />
      <path
         d="m 17.47,216.9 c -3.51,-0.66 -6.39,-3.19 -7.41,-6.55 -0.41,-1.3 -0.46,-4.4 -0.1,-5.73 0.6,-2.28 2.42,-4.67 4.28,-5.64 1.47,-0.77 1.26,-0.92 -1.19,-0.92 -1.18,0 -2.13,-0.02 -2.15,-0.03 0,-0.03 -0.05,-2.81 -0.09,-6.19 -0.07,-4.06 0.110625,-5.95063 0.09,-6.61 l -0.0053,-0.46781 9.0053,0.0378 8.83,0.05 v 6.56 6.56 l -2.08,0.05 c -1.16,0.02 -2.1,0.1 -2.1,0.17 0,0.07 0.36,0.31 0.8,0.55 1.91,1.01 3.68,3.2 4.35,5.37 0.49,1.57 0.53,4.6 0.07,6.14 -0.95,3.24 -3.41,5.66 -6.55,6.48 -1.55,0.39 -4.11,0.48 -5.74,0.17 z m 4.84,-1.98 c 3.72,-1.19 6.49,-5.28 5.85,-8.63 -0.46,-2.34 -2.23,-4.79 -4.24,-5.88 -2.59,-1.41 -6.02,-1.28 -8.57,0.38 -1.93,1.24 -3.49,3.7 -3.68,5.81 -0.32,3.41 2.01,6.85 5.51,8.16 1.74,0.65 3.43,0.7 5.15,0.15 z m 0.53,-17.57 v -0.48 H 19.77 16.7 v 0.48 0.46 h 3.07 3.07 z m -9.03,-1.48 c 0,-0.48 0.340408,-0.56734 1.390408,-0.63734 0.58,-0.05 2.939592,0.0273 5.649592,0.0773 l 4.89,0.09 v 0.48 c 0,0.46 0.05,0.49 0.68,0.49 h 0.68 l -0.03,-4.89 -0.05,-4.91 -7.19,-0.05 -7.21,-0.03 v 4.94 4.94 h 0.6 c 0.55,0 0.6,-0.05 0.6,-0.49 z"
         id="path35-1-8-8"
         sodipodi:nodetypes="ccccscccccccccscccccccccccccccccccccccccccsscccccccscc" />
    </g>
    <g
       id="g43-7-6-2"
       style="display:inline"
       transform="translate(0.258736,202.32619)">
      <rect
         style="display:inline;fill:#ff7f2a;fill-opacity:1;stroke:none;stroke-width:0.98773"
         id="rect42-7-0-91"
         width="16.24136"
         height="10.606602"
         x="11.645165"
         y="185.8365" />
      <rect
         style="fill:#ff9955;fill-opacity:1;stroke:none;stroke-width:0.989771"
         id="rect43-9-2-3"
         width="1.5909903"
         height="8.7671814"
         x="18.915106"
         y="186.52687" />
      <circle
         style="fill:#000000;fill-opacity:1;stroke:none;stroke-width:1.25"
         id="path43-3-4-5"
         cx="19.721651"
         cy="190.88568"
         r="2.1544659" />
      <path
         d="m 17.47,216.9 c -3.51,-0.66 -6.39,-3.19 -7.41,-6.55 -0.41,-1.3 -0.46,-4.4 -0.1,-5.73 0.6,-2.28 2.42,-4.67 4.28,-5.64 1.47,-0.77 1.26,-0.92 -1.19,-0.92 -1.18,0 -2.13,-0.02 -2.15,-0.03 0,-0.03 -0.05,-2.81 -0.09,-6.19 -0.07,-4.06 0.110625,-5.95063 0.09,-6.61 l -0.0053,-0.46781 9.0053,0.0378 8.83,0.05 v 6.56 6.56 l -2.08,0.05 c -1.16,0.02 -2.1,0.1 -2.1,0.17 0,0.07 0.36,0.31 0.8,0.55 1.91,1.01 3.68,3.2 4.35,5.37 0.49,1.57 0.53,4.6 0.07,6.14 -0.95,3.24 -3.41,5.66 -6.55,6.48 -1.55,0.39 -4.11,0.48 -5.74,0.17 z m 4.84,-1.98 c 3.72,-1.19 6.49,-5.28 5.85,-8.63 -0.46,-2.34 -2.23,-4.79 -4.24,-5.88 -2.59,-1.41 -6.02,-1.28 -8.57,0.38 -1.93,1.24 -3.49,3.7 -3.68,5.81 -0.32,3.41 2.01,6.85 5.51,8.16 1.74,0.65 3.43,0.7 5.15,0.15 z m 0.53,-17.57 v -0.48 H 19.77 16.7 v 0.48 0.46 h 3.07 3.07 z m -9.03,-1.48 c 0,-0.48 0.340408,-0.56734 1.390408,-0.63734 0.58,-0.05 2.939592,0.0273 5.649592,0.0773 l 4.89,0.09 v 0.48 c 0,0.46 0.05,0.49 0.68,0.49 h 0.68 l -0.03,-4.89 -0.05,-4.91 -7.19,-0.05 -7.21,-0.03 v 4.94 4.94 h 0.6 c 0.55,0 0.6,-0.05 0.6,-0.49 z"
         id="path35-1-8-9"
         sodipodi:nodetypes="ccccscccccccccscccccccccccccccccccccccccccsscccccccscc" />
    </g>
    <g
       id="g43-7-6-40"
       style="display:inline"
       transform="translate(0.4752652,236.13869)">
      <rect
         style="display:inline;fill:#ff7f2a;fill-opacity:1;stroke:none;stroke-width:0.98773"
         id="rect42-7-0-7"
         width="16.24136"
         height="10.606602"
         x="11.645165"
         y="185.8365" />
      <rect
         style="fill:#ff9955;fill-opacity:1;stroke:none;stroke-width:0.989771"
         id="rect43-9-2-636"
         width="1.5909903"
         height="8.7671814"
         x="18.915106"
         y="186.52687" />
      <circle
         style="fill:#000000;fill-opacity:1;stroke:none;stroke-width:1.25"
         id="path43-3-4-1"
         cx="19.721651"
         cy="190.88568"
         r="2.1544659" />
      <path
         d="m 17.47,216.9 c -3.51,-0.66 -6.39,-3.19 -7.41,-6.55 -0.41,-1.3 -0.46,-4.4 -0.1,-5.73 0.6,-2.28 2.42,-4.67 4.28,-5.64 1.47,-0.77 1.26,-0.92 -1.19,-0.92 -1.18,0 -2.13,-0.02 -2.15,-0.03 0,-0.03 -0.05,-2.81 -0.09,-6.19 -0.07,-4.06 0.110625,-5.95063 0.09,-6.61 l -0.0053,-0.46781 9.0053,0.0378 8.83,0.05 v 6.56 6.56 l -2.08,0.05 c -1.16,0.02 -2.1,0.1 -2.1,0.17 0,0.07 0.36,0.31 0.8,0.55 1.91,1.01 3.68,3.2 4.35,5.37 0.49,1.57 0.53,4.6 0.07,6.14 -0.95,3.24 -3.41,5.66 -6.55,6.48 -1.55,0.39 -4.11,0.48 -5.74,0.17 z m 4.84,-1.98 c 3.72,-1.19 6.49,-5.28 5.85,-8.63 -0.46,-2.34 -2.23,-4.79 -4.24,-5.88 -2.59,-1.41 -6.02,-1.28 -8.57,0.38 -1.93,1.24 -3.49,3.7 -3.68,5.81 -0.32,3.41 2.01,6.85 5.51,8.16 1.74,0.65 3.43,0.7 5.15,0.15 z m 0.53,-17.57 v -0.48 H 19.77 16.7 v 0.48 0.46 h 3.07 3.07 z m -9.03,-1.48 c 0,-0.48 0.340408,-0.56734 1.390408,-0.63734 0.58,-0.05 2.939592,0.0273 5.649592,0.0773 l 4.89,0.09 v 0.48 c 0,0.46 0.05,0.49 0.68,0.49 h 0.68 l -0.03,-4.89 -0.05,-4.91 -7.19,-0.05 -7.21,-0.03 v 4.94 4.94 h 0.6 c 0.55,0 0.6,-0.05 0.6,-0.49 z"
         id="path35-1-8-5"
         sodipodi:nodetypes="ccccscccccccccscccccccccccccccccccccccccccsscccccccscc" />
    </g>
    <g
       id="g43-7-6-20"
       style="display:inline"
       transform="translate(0.603406,270.08377)">
      <rect
         style="display:inline;fill:#ff7f2a;fill-opacity:1;stroke:none;stroke-width:0.98773"
         id="rect42-7-0-97"
         width="16.24136"
         height="10.606602"
         x="11.645165"
         y="185.8365" />
      <rect
         style="fill:#ff9955;fill-opacity:1;stroke:none;stroke-width:0.989771"
         id="rect43-9-2-37"
         width="1.5909903"
         height="8.7671814"
         x="18.915106"
         y="186.52687" />
      <circle
         style="fill:#000000;fill-opacity:1;stroke:none;stroke-width:1.25"
         id="path43-3-4-2"
         cx="19.721651"
         cy="190.88568"
         r="2.1544659" />
      <path
         d="m 17.47,216.9 c -3.51,-0.66 -6.39,-3.19 -7.41,-6.55 -0.41,-1.3 -0.46,-4.4 -0.1,-5.73 0.6,-2.28 2.42,-4.67 4.28,-5.64 1.47,-0.77 1.26,-0.92 -1.19,-0.92 -1.18,0 -2.13,-0.02 -2.15,-0.03 0,-0.03 -0.05,-2.81 -0.09,-6.19 -0.07,-4.06 0.110625,-5.95063 0.09,-6.61 l -0.0053,-0.46781 9.0053,0.0378 8.83,0.05 v 6.56 6.56 l -2.08,0.05 c -1.16,0.02 -2.1,0.1 -2.1,0.17 0,0.07 0.36,0.31 0.8,0.55 1.91,1.01 3.68,3.2 4.35,5.37 0.49,1.57 0.53,4.6 0.07,6.14 -0.95,3.24 -3.41,5.66 -6.55,6.48 -1.55,0.39 -4.11,0.48 -5.74,0.17 z m 4.84,-1.98 c 3.72,-1.19 6.49,-5.28 5.85,-8.63 -0.46,-2.34 -2.23,-4.79 -4.24,-5.88 -2.59,-1.41 -6.02,-1.28 -8.57,0.38 -1.93,1.24 -3.49,3.7 -3.68,5.81 -0.32,3.41 2.01,6.85 5.51,8.16 1.74,0.65 3.43,0.7 5.15,0.15 z m 0.53,-17.57 v -0.48 H 19.77 16.7 v 0.48 0.46 h 3.07 3.07 z m -9.03,-1.48 c 0,-0.48 0.340408,-0.56734 1.390408,-0.63734 0.58,-0.05 2.939592,0.0273 5.649592,0.0773 l 4.89,0.09 v 0.48 c 0,0.46 0.05,0.49 0.68,0.49 h 0.68 l -0.03,-4.89 -0.05,-4.91 -7.19,-0.05 -7.21,-0.03 v 4.94 4.94 h 0.6 c 0.55,0 0.6,-0.05 0.6,-0.49 z"
         id="path35-1-8-6"
         sodipodi:nodetypes="ccccscccccccccscccccccccccccccccccccccccccsscccccccscc" />
    </g>
    <g
       id="g43-1"
       style="display:inline"
       transform="translate(23.16994,0.07664474)">
      <rect
         style="display:inline;fill:#ff7f2a;fill-opacity:1;stroke:none;stroke-width:0.98773"
         id="rect42-3"
         width="16.24136"
         height="10.606602"
         x="11.645165"
         y="185.8365" />
      <rect
         style="fill:#ff9955;fill-opacity:1;stroke:none;stroke-width:0.989771"
         id="rect43-8"
         width="1.5909903"
         height="8.7671814"
         x="18.915106"
         y="186.52687" />
      <circle
         style="fill:#000000;fill-opacity:1;stroke:none;stroke-width:1.25"
         id="path43-7"
         cx="19.721651"
         cy="190.88568"
         r="2.1544659" />
      <path
         d="m 17.47,216.9 c -3.51,-0.66 -6.39,-3.19 -7.41,-6.55 -0.41,-1.3 -0.46,-4.4 -0.1,-5.73 0.6,-2.28 2.42,-4.67 4.28,-5.64 1.47,-0.77 1.26,-0.92 -1.19,-0.92 -1.18,0 -2.13,-0.02 -2.15,-0.03 0,-0.03 -0.05,-2.81 -0.09,-6.19 -0.07,-4.06 0.110625,-5.95063 0.09,-6.61 l -0.0053,-0.46781 9.0053,0.0378 8.83,0.05 v 6.56 6.56 l -2.08,0.05 c -1.16,0.02 -2.1,0.1 -2.1,0.17 0,0.07 0.36,0.31 0.8,0.55 1.91,1.01 3.68,3.2 4.35,5.37 0.49,1.57 0.53,4.6 0.07,6.14 -0.95,3.24 -3.41,5.66 -6.55,6.48 -1.55,0.39 -4.11,0.48 -5.74,0.17 z m 4.84,-1.98 c 3.72,-1.19 6.49,-5.28 5.85,-8.63 -0.46,-2.34 -2.23,-4.79 -4.24,-5.88 -2.59,-1.41 -6.02,-1.28 -8.57,0.38 -1.93,1.24 -3.49,3.7 -3.68,5.81 -0.32,3.41 2.01,6.85 5.51,8.16 1.74,0.65 3.43,0.7 5.15,0.15 z m 0.53,-17.57 v -0.48 H 19.77 16.7 v 0.48 0.46 h 3.07 3.07 z m -9.03,-1.48 c 0,-0.48 0.340408,-0.56734 1.390408,-0.63734 0.58,-0.05 2.939592,0.0273 5.649592,0.0773 l 4.89,0.09 v 0.48 c 0,0.46 0.05,0.49 0.68,0.49 h 0.68 l -0.03,-4.89 -0.05,-4.91 -7.19,-0.05 -7.21,-0.03 v 4.94 4.94 h 0.6 c 0.55,0 0.6,-0.05 0.6,-0.49 z"
         id="path35-4"
         sodipodi:nodetypes="ccccscccccccccscccccccccccccccccccccccccccsscccccccscc" />
    </g>
  </g>
  <g
     id="g43-8"
     style="display:inline"
     transform="translate(23.21562,33.7248)">
    <rect
       style="display:inline;fill:#ff7f2a;fill-opacity:1;stroke:none;stroke-width:0.98773"
       id="rect42-6"
       width="16.24136"
       height="10.606602"
       x="11.645165"
       y="185.8365" />
    <rect
       style="fill:#ff9955;fill-opacity:1;stroke:none;stroke-width:0.989771"
       id="rect43-5"
       width="1.5909903"
       height="8.7671814"
       x="18.915106"
       y="186.52687" />
    <circle
       style="fill:#000000;fill-opacity:1;stroke:none;stroke-width:1.25"
       id="path43-0"
       cx="19.721651"
       cy="190.88568"
       r="2.1544659" />
    <path
       d="m 17.47,216.9 c -3.51,-0.66 -6.39,-3.19 -7.41,-6.55 -0.41,-1.3 -0.46,-4.4 -0.1,-5.73 0.6,-2.28 2.42,-4.67 4.28,-5.64 1.47,-0.77 1.26,-0.92 -1.19,-0.92 -1.18,0 -2.13,-0.02 -2.15,-0.03 0,-0.03 -0.05,-2.81 -0.09,-6.19 -0.07,-4.06 0.110625,-5.95063 0.09,-6.61 l -0.0053,-0.46781 9.0053,0.0378 8.83,0.05 v 6.56 6.56 l -2.08,0.05 c -1.16,0.02 -2.1,0.1 -2.1,0.17 0,0.07 0.36,0.31 0.8,0.55 1.91,1.01 3.68,3.2 4.35,5.37 0.49,1.57 0.53,4.6 0.07,6.14 -0.95,3.24 -3.41,5.66 -6.55,6.48 -1.55,0.39 -4.11,0.48 -5.74,0.17 z m 4.84,-1.98 c 3.72,-1.19 6.49,-5.28 5.85,-8.63 -0.46,-2.34 -2.23,-4.79 -4.24,-5.88 -2.59,-1.41 -6.02,-1.28 -8.57,0.38 -1.93,1.24 -3.49,3.7 -3.68,5.81 -0.32,3.41 2.01,6.85 5.51,8.16 1.74,0.65 3.43,0.7 5.15,0.15 z m 0.53,-17.57 v -0.48 H 19.77 16.7 v 0.48 0.46 h 3.07 3.07 z m -9.03,-1.48 c 0,-0.48 0.340408,-0.56734 1.390408,-0.63734 0.58,-0.05 2.939592,0.0273 5.649592,0.0773 l 4.89,0.09 v 0.48 c 0,0.46 0.05,0.49 0.68,0.49 h 0.68 l -0.03,-4.89 -0.05,-4.91 -7.19,-0.05 -7.21,-0.03 v 4.94 4.94 h 0.6 c 0.55,0 0.6,-0.05 0.6,-0.49 z"
       id="path35-2"
       sodipodi:nodetypes="ccccscccccccccscccccccccccccccccccccccccccsscccccccscc" />
  </g>
  <g
     id="g43-7-5"
     style="display:inline"
     transform="translate(23.281484,68.237805)">
    <rect
       style="display:inline;fill:#ff7f2a;fill-opacity:1;stroke:none;stroke-width:0.98773"
       id="rect42-7-09"
       width="16.24136"
       height="10.606602"
       x="11.645165"
       y="185.8365" />
    <rect
       style="fill:#ff9955;fill-opacity:1;stroke:none;stroke-width:0.989771"
       id="rect43-9-0"
       width="1.5909903"
       height="8.7671814"
       x="18.915106"
       y="186.52687" />
    <circle
       style="fill:#000000;fill-opacity:1;stroke:none;stroke-width:1.25"
       id="path43-3-0"
       cx="19.721651"
       cy="190.88568"
       r="2.1544659" />
    <path
       d="m 17.47,216.9 c -3.51,-0.66 -6.39,-3.19 -7.41,-6.55 -0.41,-1.3 -0.46,-4.4 -0.1,-5.73 0.6,-2.28 2.42,-4.67 4.28,-5.64 1.47,-0.77 1.26,-0.92 -1.19,-0.92 -1.18,0 -2.13,-0.02 -2.15,-0.03 0,-0.03 -0.05,-2.81 -0.09,-6.19 -0.07,-4.06 0.110625,-5.95063 0.09,-6.61 l -0.0053,-0.46781 9.0053,0.0378 8.83,0.05 v 6.56 6.56 l -2.08,0.05 c -1.16,0.02 -2.1,0.1 -2.1,0.17 0,0.07 0.36,0.31 0.8,0.55 1.91,1.01 3.68,3.2 4.35,5.37 0.49,1.57 0.53,4.6 0.07,6.14 -0.95,3.24 -3.41,5.66 -6.55,6.48 -1.55,0.39 -4.11,0.48 -5.74,0.17 z m 4.84,-1.98 c 3.72,-1.19 6.49,-5.28 5.85,-8.63 -0.46,-2.34 -2.23,-4.79 -4.24,-5.88 -2.59,-1.41 -6.02,-1.28 -8.57,0.38 -1.93,1.24 -3.49,3.7 -3.68,5.81 -0.32,3.41 2.01,6.85 5.51,8.16 1.74,0.65 3.43,0.7 5.15,0.15 z m 0.53,-17.57 v -0.48 H 19.77 16.7 v 0.48 0.46 h 3.07 3.07 z m -9.03,-1.48 c 0,-0.48 0.340408,-0.56734 1.390408,-0.63734 0.58,-0.05 2.939592,0.0273 5.649592,0.0773 l 4.89,0.09 v 0.48 c 0,0.46 0.05,0.49 0.68,0.49 h 0.68 l -0.03,-4.89 -0.05,-4.91 -7.19,-0.05 -7.21,-0.03 v 4.94 4.94 h 0.6 c 0.55,0 0.6,-0.05 0.6,-0.49 z"
       id="path35-1-6"
       sodipodi:nodetypes="ccccscccccccccscccccccccccccccccccccccccccsscccccccscc" />
  </g>
  <rect
     style="fill:#00aad4;fill-opacity:1;stroke:none"
     id="rect44"
     width="7.3804269"
     height="4.6845822"
     x="4.7729707"
     y="145.04527" />
  <text
     xml:space="preserve"
     style="font-style:normal;font-variant:normal;font-weight:normal;font-stretch:normal;font-size:11.2178px;font-family:'Gill Sans MT';-inkscape-font-specification:'Gill Sans MT';writing-mode:lr-tb;direction:ltr;mix-blend-mode:normal;fill:#00aad4;fill-opacity:0;stroke:#30a5e6;stroke-width:0.439365;stroke-dasharray:none;stroke-opacity:0.99435"
     x="14.658835"
     y="55.709267"
     id="text53"
     transform="scale(1.0915302,0.91614506)"><tspan
       sodipodi:role="line"
       id="tspan53"
       x="14.658835"
       y="55.709267"
       style="font-style:normal;font-variant:normal;font-weight:normal;font-stretch:normal;font-family:'Gill Sans MT';-inkscape-font-specification:'Gill Sans MT';fill:#00aad4;fill-opacity:0;stroke:#30a5e6;stroke-width:0.439365;stroke-dasharray:none;stroke-opacity:0.99435">DI8</tspan></text>
</svg>
