<?xml version="1.0" encoding="UTF-8" standalone="no"?>
<svg
   version="1.0"
   width="265px"
   height="839px"
   viewBox="0 0 265 839"
   preserveAspectRatio="xMidYMid meet"
   id="svg1762"
   sodipodi:docname="plc_template.svg"
   inkscape:version="1.4.4 (dcaf3e7, 2026-05-05)"
   xml:space="preserve"
   xmlns:inkscape="http://www.inkscape.org/namespaces/inkscape"
   xmlns:sodipodi="http://sodipodi.sourceforge.net/DTD/sodipodi-0.dtd"
   xmlns="http://www.w3.org/2000/svg"
   xmlns:svg="http://www.w3.org/2000/svg"><defs
     id="defs1762" /><sodipodi:namedview
     id="namedview1762"
     pagecolor="#ffffff"
     bordercolor="#000000"
     borderopacity="0.25"
     inkscape:showpageshadow="2"
     inkscape:pageopacity="0.0"
     inkscape:pagecheckerboard="0"
     inkscape:deskcolor="#d1d1d1"
     showgrid="false"
     inkscape:zoom="0.70710678"
     inkscape:cx="120.91526"
     inkscape:cy="587.60573"
     inkscape:window-width="2560"
     inkscape:window-height="1411"
     inkscape:window-x="-9"
     inkscape:window-y="-9"
     inkscape:window-maximized="1"
     inkscape:current-layer="svg1762" /><rect
     style="fill:#000000;fill-opacity:1;stroke:none;stroke-width:2.78755;stroke-dasharray:none;stroke-opacity:1"
     id="rect2"
     width="97.75"
     height="49.75"
     x="107.875"
     y="22" /><rect
     style="fill:#000000;fill-opacity:1;stroke:none;stroke-width:17.4605;stroke-dasharray:none;stroke-opacity:1"
     id="rect2-1"
     width="264.96576"
     height="720.08722"
     x="0.010933688"
     y="84.998123" /><rect
     style="fill:#000000;fill-opacity:1;stroke:none;stroke-width:3.30273;stroke-dasharray:none;stroke-opacity:1"
     id="rect2-32"
     width="95.982231"
     height="71.125"
     x="115.125"
     y="14" /><rect
     style="fill:#cccccc;stroke-width:0.254945;stroke-opacity:0.948718;fill-opacity:1"
     id="rect1"
     width="103.5"
     height="349.75864"
     x="105"
     y="326.24136" /><rect
     style="fill:#1a1a1a;stroke-width:0.5;stroke-opacity:0.948718"
     id="rect4"
     width="106"
     height="235.5"
     x="145.5"
     y="87" /><g
     fill="#081003"
     id="g53"><path
       d="M159.97 765.69 c-0.18 -0.14 -0.32 -0.78 -0.32 -1.38 0 -0.74 0.28 -1.06 0.92 -1.06 0.51 0 0.92 0.23 0.92 0.46 0 0.32 7.82 0.46 22.54 0.46 14.72 0 22.54 -0.14 22.54 -0.46 0 -0.23 0.28 -0.46 0.64 -0.46 0.83 0 1.24 1.61 0.60 2.25 -0.55 0.55 -47.30 0.74 -47.85 0.18z"
       id="path28" /><path
       d="M159.64 750.37 c0 -10.72 0.05 -11.04 0.92 -11.04 0.87 0 0.92 0.32 0.92 11.04 0 10.72 -0.05 11.04 -0.92 11.04 -0.87 0 -0.92 -0.32 -0.92 -11.04z"
       id="path29" /><path
       d="M185.73 755.11 l-3.13 -0.18 0.14 -5.38 0.14 -5.38 6.12 -0.14 6.12 -0.14 -0.14 5.66 -0.14 5.66 -2.99 0.05 c-1.66 0 -4.42 -0.05 -6.12 -0.14z m7.41 -5.52 c0.14 -3.45 0.05 -3.82 -0.69 -3.82 -0.74 0 -0.83 0.37 -0.69 3.36 0.18 3.13 0.14 3.40 -0.92 3.91 -1.01 0.51 -0.97 0.51 0.55 0.41 l1.61 -0.09 0.14 -3.77z m-7.59 3.22 c-0.32 -0.09 -0.60 -0.55 -0.60 -0.97 0 -0.64 -0.09 -0.69 -0.41 -0.09 -0.55 0.83 -0.23 1.38 0.78 1.33 0.51 0 0.55 -0.14 0.23 -0.28z m4.46 -3.36 c0 -1.79 -0.05 -1.84 -1.61 -1.84 -1.56 0 -1.61 0.05 -1.61 1.84 0 1.79 0.05 1.84 1.61 1.84 1.56 0 1.61 -0.05 1.61 -1.84z"
       id="path30" /><path
       d="M206.57 739.10 c0 -3.86 0.14 -4.83 0.64 -4.83 0.83 0 1.15 1.75 1.01 5.29 -0.18 4.19 -0.23 4.37 -0.97 4.37 -0.55 0 -0.69 -0.83 -0.69 -4.83z"
       id="path31" /><path
       d="M159.64 728.06 c0 -9.57 0.05 -9.89 0.92 -9.89 0.87 0 0.92 0.32 0.92 9.89 0 9.57 -0.05 9.89 -0.92 9.89 -0.87 0 -0.92 -0.32 -0.92 -9.89z"
       id="path32" /><path
       d="M182.51 730.73 c-0.41 -0.37 -0.41 -9.02 -0.05 -9.98 0.23 -0.64 1.24 -0.74 6.44 -0.74 l6.16 0 0 5.52 0 5.52 -6.12 0 c-3.40 0 -6.30 -0.14 -6.44 -0.32z m10.72 -5.20 c0 -3.68 -0.28 -4.37 -1.56 -3.86 -0.55 0.23 -0.60 0.46 -0.23 1.15 0.23 0.51 0.41 1.98 0.32 3.31 l-0.14 2.39 -3.22 0 c-2.99 0 -3.17 -0.05 -3.50 -1.15 -0.32 -1.06 -0.32 -1.06 -0.37 0.32 l-0.05 1.47 3.82 0.14 c2.07 0.09 4.05 0.05 4.37 -0.05 0.37 -0.09 0.55 -1.24 0.55 -3.73z m-3.31 -0.09 c-0.14 -1.33 -0.32 -1.52 -1.61 -1.66 -1.47 -0.14 -1.52 -0.09 -1.52 1.47 0 1.61 0.05 1.66 1.66 1.66 1.56 0 1.61 -0.05 1.47 -1.47z m-4.88 -3.31 c-0.41 -0.74 -0.87 0.74 -0.60 1.93 l0.23 1.24 0.28 -1.38 c0.18 -0.74 0.18 -1.56 0.09 -1.79z"
       id="path33" /><path
       d="M206.57 712.42 c0 -1.52 0.18 -2.07 0.69 -2.07 0.64 0 0.83 0.41 0.83 2.07 0 1.66 -0.18 2.07 -0.83 2.07 -0.51 0 -0.69 -0.55 -0.69 -2.07z"
       id="path34" /><path
       d="M159.64 699.77 c0 -10.72 0.05 -11.04 0.92 -11.04 0.87 0 0.92 0.32 0.92 11.04 0 10.72 -0.05 11.04 -0.92 11.04 -0.87 0 -0.92 -0.32 -0.92 -11.04z"
       id="path35" /><path
       d="M182.65 701.61 l0 -5.57 6.12 0.14 6.07 0.14 0 5.29 0 5.29 -6.07 0.14 -6.12 0.14 0 -5.57z m10.58 0 l0 -3.68 -1.24 0 c-0.97 0 -1.10 0.14 -0.69 0.55 0.74 0.74 0.74 5.52 0 6.26 -0.41 0.41 -0.28 0.55 0.69 0.55 l1.24 0 0 -3.68z m-3.31 0.14 c0.14 -1.47 0.09 -1.52 -1.47 -1.52 -1.52 0 -1.66 0.14 -1.66 1.29 0 1.66 0.37 2.02 1.84 1.84 0.92 -0.09 1.20 -0.41 1.29 -1.61z"
       id="path36" /><path
       d="M159.74 686.33 c0.09 -0.69 0.51 -1.10 1.20 -1.20 0.92 -0.14 1.06 0 0.92 0.92 -0.09 0.69 -0.51 1.10 -1.20 1.20 -0.92 0.14 -1.06 0 -0.92 -0.92z"
       id="path37" /><path
       d="M168.85 685.96 c0 -0.74 0.32 -0.92 1.61 -0.92 1.29 0 1.61 0.18 1.61 0.92 0 0.74 -0.32 0.92 -1.61 0.92 -1.29 0 -1.61 -0.18 -1.61 -0.92z"
       id="path38" /><path
       d="M173.91 685.96 c0 -0.92 0.23 -0.92 16.88 -0.83 15.69 0.14 16.93 0.18 17.07 0.97 0.14 0.74 -0.92 0.78 -16.88 0.78 -16.79 0 -17.07 0 -17.07 -0.92z"
       id="path39" /><path
       d="M20.93 153.43 l-1.15 -1.10 0 -15.83 c0 -15.41 0.05 -15.83 0.97 -16.70 0.83 -0.74 1.79 -0.87 9.06 -0.87 8.88 -0.09 9.75 0 9.75 0.97 0 0.51 -1.47 0.64 -7.96 0.64 -6.44 0 -8.14 0.14 -8.97 0.74 -1.01 0.69 -1.01 0.74 -1.01 15.32 0 13.57 0.05 14.68 0.83 15.37 0.69 0.64 1.93 0.78 7.36 0.78 6.21 0 6.53 0.05 6.53 0.92 0 0.87 -0.32 0.92 -7.13 0.92 -6.99 0 -7.18 -0.05 -8.28 -1.15z"
       id="path40" /><path
       d="M168.85 137.33 c0 -2.62 0.14 -3.45 0.64 -3.45 0.78 0 1.10 1.38 0.92 3.91 -0.05 1.01 -0.14 2.12 -0.14 2.44 -0.05 0.28 -0.37 0.55 -0.74 0.55 -0.55 0 -0.69 -0.69 -0.69 -3.45z"
       id="path42" /><path
       d="M254.42 130.48 c0 -0.78 1.93 -1.29 3.45 -0.92 2.12 0.51 1.38 1.56 -1.15 1.56 -1.66 0 -2.30 -0.18 -2.30 -0.64z"
       id="path45" /><path
       d="M168.85 125.97 c0 -3.77 -0.37 -4.97 -1.43 -4.97 -0.55 0 -0.87 -0.32 -0.87 -0.92 0 -1.24 1.89 -1.24 3.04 0.05 0.64 0.74 0.87 1.75 0.97 3.91 0.09 3.50 -0.23 4.78 -1.06 4.78 -0.46 0 -0.64 -0.74 -0.64 -2.85z"
       id="path46" /><path
       d="M42.33 119.89 c0 -0.74 1.43 -1.10 5.01 -1.20 3.17 -0.09 5.11 0.37 5.11 1.20 0 0.51 -1.01 0.64 -5.06 0.64 -4.05 0 -5.06 -0.14 -5.06 -0.64z"
       id="path47" /><path
       d="M70.39 119.89 c0 -0.74 1.15 -1.10 2.44 -0.83 1.47 0.37 0.87 1.47 -0.83 1.47 -1.10 0 -1.61 -0.23 -1.61 -0.64z"
       id="path48" /><path
       d="M78.67 119.89 c0 -0.78 1.70 -1.24 3.13 -0.87 1.89 0.46 1.20 1.52 -1.06 1.52 -1.47 0 -2.07 -0.18 -2.07 -0.64z"
       id="path49" /><path
       d="M86.03 119.89 c0 -0.78 1.70 -1.24 3.13 -0.87 1.89 0.46 1.20 1.52 -1.06 1.52 -1.47 0 -2.07 -0.18 -2.07 -0.64z"
       id="path50" /><path
       d="M92.01 119.89 c0 -0.97 1.24 -1.10 13.43 -1.15 11.78 -0.09 13.71 0.09 13.71 1.15 0 0.55 -2.30 0.64 -13.57 0.64 -11.27 0 -13.57 -0.09 -13.57 -0.64z"
       id="path51" /><path
       d="M121.92 119.85 c0 -0.97 2.07 -1.15 10.35 -0.97 9.06 0.18 8.51 0.14 8.51 0.97 0 0.60 -1.33 0.69 -9.43 0.69 -7.96 0 -9.43 -0.09 -9.43 -0.69z"
       id="path52" /><path
       d="M155.04 119.85 c0 -0.37 0.05 -0.69 0.14 -0.69 4.83 -0.74 8.60 -0.41 8.60 0.69 0 0.55 -0.87 0.69 -4.37 0.69 -3.59 0 -4.37 -0.14 -4.37 -0.69z"
       id="path53" /></g><g
     fill="#091e03"
     id="g73"><path
       d="M159.87 764.54 c-0.18 -0.83 -0.05 -7.55 0.18 -10.35 0.05 -0.32 0.37 -0.60 0.74 -0.60 0.55 0 0.69 0.83 0.69 4.55 0 2.48 0.14 5.20 0.28 5.98 0.28 1.24 0.18 1.43 -0.69 1.43 -0.60 0 -1.01 -0.37 -1.20 -1.01z"
       id="path54" /><path
       d="M181.04 760.54 l-5.98 -0.28 -0.14 -2.39 -0.14 -2.44 -2.02 0 -2.02 0 -0.14 2.44 -0.14 2.39 -3.40 0.14 c-2.44 0.09 -3.54 -0.05 -3.77 -0.46 -0.46 -0.69 -0.55 -17.53 -0.14 -19.64 l0.32 -1.47 3.50 0.14 3.50 0.14 0.14 2.21 0.14 2.16 2.07 0 2.02 0 0 -1.79 c0 -3.50 -1.20 -3.27 16.15 -3.27 l15.60 0 0 2.58 c0 2.48 -0.14 2.76 -2.07 4.83 -1.66 1.79 -2.07 2.53 -2.07 3.86 0 1.33 0.41 2.07 2.07 3.86 1.89 2.02 2.07 2.39 2.07 4.60 l0 2.35 -6.76 0 c-3.77 0 -8.14 0.09 -9.80 0.18 -1.66 0.09 -5.66 0 -8.97 -0.14z m12.56 -11 l0.14 -4.28 -4.74 0.14 -4.74 0.14 -0.14 4 -0.14 4 3.13 0.18 c1.70 0.09 3.86 0.14 4.74 0.14 l1.61 -0.05 0.14 -4.28z"
       id="path56" /><path
       d="M185.41 751.75 c0 -0.83 0.32 -0.92 2.99 -0.92 2.67 0 2.99 0.09 2.99 0.92 0 0.83 -0.32 0.92 -2.99 0.92 -2.67 0 -2.99 -0.09 -2.99 -0.92z"
       id="path57" /><path
       d="M185.41 747.15 c0 -0.83 0.32 -0.92 2.99 -0.92 2.67 0 2.99 0.09 2.99 0.92 0 0.83 -0.32 0.92 -2.99 0.92 -2.67 0 -2.99 -0.09 -2.99 -0.92z"
       id="path58" /><path
       d="M159.92 741.08 c-0.64 -2.48 -0.09 -5.89 0.92 -5.89 0.51 0 0.64 0.83 0.64 3.45 0 2.62 -0.14 3.45 -0.64 3.45 -0.32 0 -0.74 -0.46 -0.92 -1.01z"
       id="path59" /><path
       d="M174.96 734.18 l-0.37 -2.44 -1.84 0 -1.84 0 -0.14 2.21 -0.14 2.21 -3.77 -0.14 -3.77 -0.14 0 -10.35 0 -10.35 3.68 0 3.68 0 0.14 2.21 0.14 2.16 2.02 0 2.02 0 0.14 -2.39 0.14 -2.44 15.78 -0.14 15.73 -0.09 0 2.76 c0 2.39 -0.14 2.81 -1.15 3.50 -1.61 1.06 -2.99 3.45 -2.99 5.20 0 1.10 0.46 1.93 2.07 3.45 1.98 1.93 2.07 2.16 2.07 4.60 l0 2.58 -15.60 0 -15.60 0 -0.41 -2.39z m18.72 -8.65 l0 -4.14 -4.83 0 c-2.67 0 -4.83 0.14 -4.88 0.37 -0.28 3.17 -0.37 7.18 -0.14 7.50 0.14 0.23 2.39 0.41 5.06 0.41 l4.78 0 0 -4.14z"
       id="path60" /><path
       d="M185.41 723.23 c0 -0.87 0.23 -0.97 2.85 -0.83 2.30 0.09 2.90 0.28 3.04 0.97 0.14 0.69 -0.23 0.78 -2.85 0.78 -2.76 0 -3.04 -0.09 -3.04 -0.92z"
       id="path61" /><path
       d="M159.92 719.92 c-0.37 -1.38 -0.37 -9.48 0 -10.81 0.18 -0.60 0.60 -1.06 0.92 -1.06 0.51 0 0.64 1.24 0.64 6.44 0 5.20 -0.14 6.44 -0.64 6.44 -0.32 0 -0.74 -0.46 -0.92 -1.01z"
       id="path62" /><path
       d="M175.06 710.12 l-0.28 -2.53 -2.02 0 -2.02 0 -0.14 2.21 -0.14 2.16 -3.68 0 -3.68 0 0 -10.58 0 -10.58 3.68 0 3.68 0 0.14 2.21 0.14 2.16 2.02 0 2.02 0 0.14 -2.39 0.14 -2.44 15.55 -0.14 15.50 -0.09 0 2.81 c0 2.67 -0.09 2.94 -1.84 4.83 -1.52 1.66 -1.84 2.35 -1.84 3.86 0 1.61 0.28 2.12 2.12 3.86 2.02 1.93 2.07 2.07 1.93 4.46 l-0.14 2.48 -15.46 0.14 -15.50 0.09 -0.32 -2.53z m18.40 -8.51 l0 -3.91 -4.69 -0.14 -4.74 -0.14 0 4.19 0 4.19 4.74 -0.14 4.69 -0.14 0 -3.91z"
       id="path63" /><path
       d="M185.73 704.55 c-0.18 -0.18 -0.32 -0.60 -0.32 -0.97 0 -0.41 0.83 -0.60 3.04 -0.60 2.62 0 2.99 0.09 2.85 0.83 -0.09 0.60 -0.69 0.83 -2.67 0.92 -1.43 0.09 -2.71 0 -2.90 -0.18z"
       id="path64" /><path
       d="M185.41 699.58 c0 -0.92 0.55 -1.20 1.75 -0.87 1.52 0.37 1.24 1.52 -0.37 1.52 -0.87 0 -1.38 -0.23 -1.38 -0.64z"
       id="path65" /><path
       d="M159.92 696.78 c-0.37 -1.52 0.14 -3.45 0.92 -3.45 0.46 0 0.64 0.64 0.64 2.30 0 2.53 -1.06 3.27 -1.56 1.15z"
       id="path66" /><path
       d="M38.65 153.20 c0 -0.78 0.32 -0.92 1.84 -0.92 1.52 0 1.84 0.14 1.84 0.92 0 0.78 -0.32 0.92 -1.84 0.92 -1.52 0 -1.84 -0.14 -1.84 -0.92z"
       id="path70" /></g><g
     fill="#1f4506"
     id="g516"><path
       d="M160.43 765.23 c-0.18 -0.14 -0.32 -17.67 -0.32 -38.88 0 -38.23 0 -38.55 0.92 -38.55 0.92 0 0.92 0.32 0.92 37.96 l0 37.96 22.08 0 22.08 0 0 -1.38 0 -1.38 -15.60 0 -15.55 0 -0.32 -1.43 c-0.14 -0.78 -0.28 -1.93 -0.28 -2.53 0 -0.97 -0.23 -1.10 -1.56 -1.10 l-1.61 0 -0.14 2.44 -0.14 2.39 -3.91 0 -3.91 0 -0.14 -1.93 c-0.09 -1.47 0 -1.98 0.51 -1.98 0.37 0 0.83 0.51 0.97 1.20 0.28 1.06 0.46 1.15 2.48 1.01 l2.16 -0.14 0.14 -2.39 0.14 -2.44 3.40 0 3.40 0 0.14 2.44 0.14 2.39 6.21 0.23 c3.40 0.14 9.89 0.18 14.40 0.09 7.91 -0.14 8.14 -0.18 8.14 -1.10 0 -0.55 -0.92 -1.98 -2.07 -3.17 -2.02 -2.16 -2.07 -2.30 -2.07 -5.24 0 -2.94 0.05 -3.08 2.07 -5.24 1.38 -1.47 2.07 -2.62 2.07 -3.45 l0 -1.20 -14.26 0 -14.26 0 -0.28 1.15 c-0.51 2.02 -1.56 1.38 -1.56 -0.92 l0 -2.07 15.64 0 c10.12 0 15.64 -0.18 15.64 -0.46 0 -0.28 -5.52 -0.46 -15.60 -0.46 l-15.64 0 -0.14 -2.39 -0.14 -2.44 -1.70 -0.14 -1.70 -0.14 -0.14 2.21 -0.14 2.21 -3.96 0.14 c-4.83 0.14 -4.55 0.74 -4.55 -8.97 0 -6.72 0.05 -7.04 0.92 -7.04 0.83 0 0.92 0.37 1.01 7.04 l0.14 6.99 2.39 0.14 2.39 0.14 0.14 -2.21 0.14 -2.21 3.22 0 3.22 0 0.37 2.44 0.41 2.39 14.22 0 14.22 0 0 -1.20 c0 -0.78 -0.69 -1.84 -2.07 -3.22 -2.02 -1.93 -2.07 -2.07 -2.07 -4.83 0 -3.13 0.97 -5.24 2.99 -6.58 0.78 -0.51 1.15 -1.20 1.15 -2.12 l0 -1.38 -14.31 0 c-13.89 0 -14.31 0.05 -14.54 0.92 -0.46 1.70 -1.52 1.06 -1.52 -0.92 l0 -1.84 15.64 0 c9.98 0 15.64 -0.18 15.64 -0.46 0 -0.28 -5.70 -0.51 -15.50 -0.55 l-15.55 -0.14 -0.23 -2.30 c-0.23 -2.25 -0.23 -2.30 -1.93 -2.44 l-1.70 -0.14 -0.14 2.21 -0.14 2.21 -3.86 0.14 c-2.81 0.09 -4 -0.05 -4.23 -0.46 -0.46 -0.69 -0.55 -20.15 -0.14 -21.26 0.23 -0.60 1.01 -0.74 3.82 -0.74 2.16 0 3.77 0.23 4.09 0.55 0.32 0.32 0.55 1.43 0.55 2.53 0 1.93 0.05 1.98 1.56 1.98 l1.52 0 0.32 -2.76 0.32 -2.76 15.60 0 15.64 0 0 -1.15 c0 -0.83 -0.23 -1.15 -0.92 -1.15 -0.64 0 -0.92 -0.32 -0.92 -0.97 0 -0.78 0.23 -0.92 1.75 -0.78 l1.70 0.14 0 39.80 0 39.80 -23.51 0.14 c-12.93 0.05 -23.65 -0.05 -23.79 -0.23z m45.68 -15.64 l-0.05 -4.97 -1.56 1.70 c-2.12 2.30 -2.16 4.28 -0.18 6.58 0.78 0.87 1.52 1.61 1.61 1.61 0.09 0 0.18 -2.21 0.18 -4.92z m0 -24.15 l0 -4.69 -1.61 1.56 c-2.16 2.12 -2.25 4.37 -0.18 6.39 0.78 0.78 1.47 1.43 1.61 1.43 0.09 0 0.18 -2.12 0.18 -4.69z m-1.01 -15.46 c0.14 -0.83 -0.41 -1.66 -1.93 -3.13 l-2.12 -2.02 0 -3.22 c0 -3.13 0.05 -3.31 1.84 -5.24 1.33 -1.43 1.84 -2.39 1.84 -3.45 l0 -1.43 -14.12 0.09 -14.17 0.14 -0.14 2.39 c-0.14 2.07 -0.28 2.39 -1.29 2.62 -0.64 0.18 -2.16 0.18 -3.40 0 l-2.25 -0.28 -0.14 -2.16 -0.14 -2.12 -2.30 0 -2.30 0 0 9.20 0 9.20 2.30 0 2.30 0 0.14 -2.16 0.14 -2.21 3.40 0 3.40 0 0.28 2.53 0.32 2.53 14.12 -0.09 14.08 -0.14 0.14 -1.06z m1.01 -8.70 l-0.05 -4.97 -1.56 1.70 c-2.16 2.35 -2.21 4.51 -0.14 6.67 0.83 0.83 1.52 1.52 1.61 1.52 0.09 0 0.14 -2.21 0.14 -4.92z"
       id="path505" /><path
       d="M185.41 701.61 l0 -2.76 2.99 0 2.99 0 0 2.76 0 2.76 -2.99 0 -2.99 0 0 -2.76z m4.14 0 c0 -0.69 -0.32 -0.92 -1.15 -0.92 -0.83 0 -1.15 0.23 -1.15 0.92 0 0.69 0.32 0.92 1.15 0.92 0.83 0 1.15 -0.23 1.15 -0.92z"
       id="path506" /><path
       d="M162.40 749.22 c0 -4.97 0.05 -5.29 0.92 -5.29 0.87 0 0.92 0.32 0.92 5.29 0 4.97 -0.05 5.29 -0.92 5.29 -0.87 0 -0.92 -0.32 -0.92 -5.29z"
       id="path507" /><path
       d="M185.41 749.45 c0 -2.44 0.09 -2.76 0.92 -2.76 0.83 0 0.92 0.32 0.92 2.76 0 2.44 -0.09 2.76 -0.92 2.76 -0.83 0 -0.92 -0.32 -0.92 -2.76z"
       id="path508" /><path
       d="M189.55 749.45 c0 -2.44 0.09 -2.76 0.92 -2.76 0.83 0 0.92 0.32 0.92 2.76 0 2.44 -0.09 2.76 -0.92 2.76 -0.83 0 -0.92 -0.32 -0.92 -2.76z"
       id="path509" /><path
       d="M169.21 742.69 l-0.14 -2.21 -2.12 -0.14 c-2.12 -0.14 -2.16 -0.14 -2.44 1.52 -0.18 0.97 -0.60 1.61 -0.97 1.61 -0.51 0 -0.69 -0.64 -0.69 -2.53 l0 -2.53 3.91 0 3.91 0 0 1.29 c0 0.69 0.14 1.75 0.32 2.35 0.28 1.01 0.41 1.06 2.71 0.78 2.44 -0.28 2.48 -0.28 2.48 0.87 0 1.10 -0.09 1.15 -3.40 1.15 l-3.45 0 -0.14 -2.16z"
       id="path510" /><path
       d="M185.41 725.53 c0 -2.44 0.09 -2.76 0.92 -2.76 0.78 0 0.92 0.32 0.92 1.84 0 1.66 0.14 1.84 1.15 1.84 1.06 0 1.15 -0.18 1.15 -1.84 0 -1.52 0.14 -1.84 0.92 -1.84 0.83 0 0.92 0.32 0.92 2.76 l0 2.76 -2.99 0 -2.99 0 0 -2.76z"
       id="path511" /><path
       d="M169.21 718.77 l-0.14 -2.21 -2.30 0 -2.30 0 -0.14 1.75 c-0.14 1.33 -0.32 1.70 -1.06 1.70 -0.83 0 -0.92 -0.28 -0.78 -2.62 l0.14 -2.67 4.14 0 4.14 0 0.14 2.21 0.14 2.16 2.53 0 c2.16 0 2.48 0.09 2.48 0.92 0 0.83 -0.32 0.92 -3.40 0.92 l-3.45 0 -0.14 -2.16z"
       id="path512" /><path
       d="M183.11 686.42 c0 -0.87 0.32 -0.92 5.29 -0.92 4.97 0 5.29 0.05 5.29 0.92 0 0.87 -0.32 0.92 -5.29 0.92 -4.97 0 -5.29 -0.05 -5.29 -0.92z"
       id="path514" /><path
       d="m 28.62,154.17 c -6.26,-0.28 -6.67,-0.32 -7.5,-1.38 -0.83,-1.01 -0.87,-1.98 -0.87,-16.38 0,-14.17 0.05,-15.32 0.83,-16.01 0.78,-0.69 6.44,-0.78 68,-0.78 h 73.24 c 5.47,0 6.16,0.09 6.99,0.92 0.87,0.87 0.92,1.52 0.92,16.1 v 15.23 l -1.15,1.15 -1.1,1.1 h -64.46 c -35.47,0 -64.64,0.09 -64.92,0.23 -0.23,0.18 0.134088,-0.49735 -0.492031,-0.36478 -0.900456,0.19066 -0.170066,0.54868 -0.860066,0.54868 -0.69,0 1.520066,-1.24118 1.520066,-0.41118 0,0.64 -2.647969,0.40728 -2.967969,0.36728 -0.32,-0.05 -3.59,-0.18 -7.18,-0.32 z m 13.25,-7.18 c 0,-0.74 -0.23,-1.7 -0.46,-2.07 -0.32,-0.51 -0.46,0.14 -0.46,2.07 0,1.93 0.14,2.58 0.46,2.07 0.23,-0.37 0.46,-1.29 0.46,-2.07 z m 47.39,-2.3 v -4.83 h 1.24 1.2 l -1.06,-1.15 c -0.92,-0.97 -1.15,-1.79 -1.29,-4.46 -0.14,-2.07 -0.37,-2.99 -0.6,-2.62 -0.55,0.92 -0.51,17.9 0.05,17.9 0.28,0 0.46,-1.93 0.46,-4.83 z M 40.4,140.6 c -0.09,-0.05 -1.79,0.05 -3.82,0.18 -3.96,0.23 -3.77,0.69 0.55,1.2 1.66,0.23 2.62,0.55 2.81,1.06 0.23,0.51 0.37,0.23 0.46,-0.78 0.09,-0.87 0.09,-1.61 0,-1.66 z m 55.99,0.6 c -1.24,-0.14 -2.39,-0.23 -2.48,-0.14 -0.37,0.32 3.04,0.92 3.86,0.69 0.6,-0.18 0.09,-0.37 -1.38,-0.55 z m -35.66,0.05 c 0.46,-0.32 -0.28,-0.46 -2.53,-0.46 -2.25,0 -2.99,0.14 -2.53,0.46 0.37,0.23 1.52,0.46 2.53,0.46 1.01,0 2.16,-0.23 2.53,-0.46 z m 18.4,0 c 0.46,-0.32 -0.41,-0.46 -2.85,-0.46 -1.93,0 -3.68,0.23 -3.82,0.46 -0.37,0.6 5.75,0.6 6.67,0 z m 41.41,0 c 0.46,-0.32 -0.23,-0.46 -2.3,-0.41 -2.07,0 -2.71,0.14 -2.07,0.41 1.24,0.55 3.54,0.55 4.37,0 z m 13.3,-5.66 c 0,-3.59 -0.18,-5.29 -0.41,-4.69 -0.55,1.33 -0.55,10.95 0,10.58 0.28,-0.18 0.46,-2.62 0.41,-5.89 z m 15.55,0.83 c -0.09,-2.62 -0.46,-5.11 -0.78,-5.57 -0.46,-0.78 -0.51,-0.74 -0.28,0.28 0.14,0.64 0.28,3.27 0.28,5.89 0,3.4 0.14,4.65 0.51,4.42 0.37,-0.23 0.46,-1.75 0.28,-5.01 z m 10.67,4.88 c 0.41,-0.28 0.09,-0.46 -1.1,-0.6 -1.47,-0.18 -1.61,-0.14 -0.87,0.41 0.97,0.69 1.1,0.74 1.98,0.18 z m -33.17,-4.78 c -0.23,-5.7 -1.06,-7.91 -1.06,-2.85 0,2.81 -0.18,3.63 -1.06,4.78 l -1.06,1.43 h 1.2 c 0.74,0 1.15,0.28 1.15,0.69 0,0.37 0.23,0.69 0.51,0.69 0.37,0 0.46,-1.38 0.32,-4.74 z m -44.99,0.74 c 0,-0.55 -0.18,-1.15 -0.46,-1.29 -0.28,-0.18 -0.46,0.51 -0.46,1.7 0,1.43 0.14,1.79 0.46,1.29 0.23,-0.37 0.46,-1.15 0.46,-1.7 z m 77.52,-10.72 c 1.61,0 3.08,-0.18 3.22,-0.46 0.18,-0.28 -0.92,-0.46 -2.94,-0.46 h -3.22 l -0.14,-2.16 c -0.09,-1.29 -0.32,-2.12 -0.6,-1.98 -0.28,0.14 -0.46,3.22 -0.46,7.82 0,10.03 0.87,13.16 1.06,3.82 l 0.14,-6.58 z M 58.71,133.9 c 8.14,0 8.05,0.05 6.86,-2.53 l -0.6,-1.38 -0.05,1.52 -0.05,1.47 h -6.86 -6.9 l -0.14,-1.47 -0.14,-1.52 -0.6,1.7 c -0.51,1.38 -0.51,2.07 0,3.68 l 0.6,1.98 0.14,-1.7 0.14,-1.75 h 7.59 z m -14.58,-0.46 c 0,-0.87 -0.18,-1.93 -0.41,-2.3 -0.32,-0.46 -0.46,0.28 -0.41,2.53 0,3.31 0.78,3.08 0.83,-0.23 z m 60.73,0.23 c 0,-0.74 -0.18,-1.79 -0.41,-2.3 -0.28,-0.64 -0.41,0.09 -0.41,2.3 0,2.21 0.14,2.94 0.41,2.3 0.23,-0.51 0.41,-1.52 0.41,-2.3 z m 6.26,-0.23 c 0,-1.75 -0.05,-3.22 -0.09,-3.22 -0.05,0 -0.28,0.74 -0.55,1.61 -0.28,1.06 -0.28,2.16 0,3.22 0.28,0.87 0.51,1.61 0.55,1.61 0.05,0 0.09,-1.43 0.09,-3.22 z m -82.63,0.14 c 0,-2.21 -0.09,-2.48 -0.51,-1.66 -0.41,0.92 -0.18,4.28 0.32,4.28 0.14,0 0.23,-1.2 0.18,-2.62 z m 44.9,-4.05 c 0,-1.79 -0.09,-1.98 -0.55,-1.29 -0.32,0.41 -0.6,0.97 -0.6,1.2 0,0.37 0.87,2.16 1.06,2.16 0.05,0 0.09,-0.92 0.09,-2.07 z m 69.93,-3.63 c 0.28,-0.09 -0.28,-0.32 -1.2,-0.46 -1.06,-0.23 -2.21,-0.14 -3.22,0.32 -1.56,0.64 -1.56,0.64 1.2,0.46 1.52,-0.14 2.99,-0.28 3.22,-0.32 z M 37.37,125.58 c -0.69,-0.23 -1.66,-0.28 -2.53,0 -1.33,0.37 -1.24,0.41 1.06,0.41 2.02,0.05 2.3,-0.05 1.47,-0.41 z m 21.9,-0.05 c -0.87,-0.28 -1.7,-0.28 -2.53,0 -1.15,0.41 -0.97,0.46 1.24,0.46 2.21,0 2.39,-0.05 1.29,-0.46 z m 22.41,0.09 c -0.32,-0.55 -4.23,-0.55 -5.52,0 -0.64,0.28 0.14,0.41 2.44,0.41 2.12,0.05 3.27,-0.14 3.08,-0.41 z m 16.24,-0.09 c -0.87,-0.28 -1.7,-0.28 -2.53,0 -1.15,0.41 -0.97,0.46 1.24,0.46 2.21,0 2.39,-0.05 1.29,-0.46 z m 21.85,0.05 c -0.87,-0.28 -1.84,-0.23 -2.53,0 -0.83,0.37 -0.55,0.46 1.47,0.41 2.3,0 2.39,-0.05 1.06,-0.41 z"
       id="path515"
       sodipodi:nodetypes="ccsssssscccscsssccscscscccccccsscsccccscccccscsccscccccccccccccssccccccccsccssscscscsscsccssccssccccccccccccccscccccscscsssccssccsccscssscccccccccccscccccccsccccc" /><path
       d="M252.58 132.27 l0 -2.07 6.21 0 6.21 0 0 2.07 0 2.07 -6.21 0 -6.21 0 0 -2.07z"
       id="path516" /></g><g
     fill="#362a10"
     id="g525"><path
       d="M252.44 263.76 c-0.18 -0.14 -0.32 -0.55 -0.32 -0.92 0 -0.46 1.38 -0.60 6.44 -0.60 6.12 0 6.44 0.05 6.44 0.92 0 0.87 -0.32 0.92 -6.12 0.92 -3.40 0 -6.30 -0.14 -6.44 -0.32z"
       id="path519" /><path
       d="M252.26 241.26 c-0.14 -0.37 -0.09 -0.87 0.14 -1.01 0.23 -0.18 3.17 -0.28 6.53 -0.18 5.61 0.14 6.07 0.23 6.07 1.06 0 0.83 -0.41 0.87 -6.21 0.87 -5.24 0 -6.30 -0.14 -6.53 -0.74z"
       id="path520" /><path
       d="M252.58 219.50 l0 -1.43 6.21 0 c5.80 0 6.21 0.05 6.21 0.87 0 0.78 -0.46 0.92 -4.46 1.10 -2.48 0.14 -5.29 0.41 -6.21 0.55 -1.70 0.32 -1.75 0.32 -1.75 -1.10z"
       id="path521" /><path
       d="M252.44 200.27 c-0.18 -0.14 -0.32 -0.87 -0.32 -1.61 0 -0.97 0.23 -1.29 0.92 -1.29 0.51 0 0.92 0.32 0.92 0.69 0 0.60 0.92 0.69 5.52 0.69 5.20 0 5.52 0.05 5.52 0.92 0 0.87 -0.32 0.92 -6.12 0.92 -3.40 0 -6.30 -0.14 -6.44 -0.32z"
       id="path522" /><path
       d="M252.35 177.95 c-0.14 -0.32 -0.14 -1.01 -0.05 -1.52 0.14 -0.87 0.55 -0.92 6.39 -1.06 6.07 -0.09 6.30 -0.09 6.30 0.83 0 0.87 -0.28 0.92 -5.52 0.92 -4.60 0 -5.52 0.14 -5.52 0.69 0 0.83 -1.33 0.92 -1.61 0.14z"
       id="path523" /><path
       d="M192.31 157.85 c-0.78 -1.52 -0.60 -3.27 0.41 -3.27 0.46 0 0.97 0.41 1.10 0.92 0.23 0.83 0.60 0.92 3.63 0.92 1.84 0 3.82 -0.14 4.42 -0.28 l1.01 -0.28 -0.09 -22.82 -0.14 -22.82 -1.38 -0.37 c-1.84 -0.51 -6.53 0 -7.36 0.83 -1.29 1.29 -2.07 0.78 -2.07 -1.33 0 -3.17 0.74 -3.54 6.76 -3.54 3.96 0 5.20 0.14 5.66 0.69 0.78 0.92 0.74 50.65 -0.05 51.57 -0.41 0.46 -1.98 0.64 -5.98 0.64 -4.92 0 -5.47 -0.09 -5.93 -0.87z"
       id="path524" /><path
       d="M252.44 154.40 c-0.14 -0.37 -0.14 -0.78 0 -0.92 0.18 -0.14 3.04 -0.28 6.44 -0.28 5.80 0 6.12 0.05 6.12 0.92 0 0.87 -0.32 0.92 -6.16 0.92 -4.88 0 -6.21 -0.14 -6.39 -0.64z"
       id="path525" /></g><g
     fill="#87090c"
     id="g849" /><g
     fill="#4b4b49"
     id="g1126"><path
       d="M119.53 800.20 c-0.46 -0.09 -0.83 -0.51 -0.83 -0.87 0 -0.51 1.20 -0.64 6.67 -0.64 6.35 0 6.67 0.05 6.67 0.92 0 0.87 -0.28 0.92 -5.84 0.87 -3.27 -0.05 -6.26 -0.14 -6.67 -0.28z"
       id="path996" /><path
       d="M260.40 240.62 c0 -0.78 0.32 -0.92 2.30 -0.92 1.98 0 2.30 0.14 2.30 0.92 0 0.78 -0.32 0.92 -2.30 0.92 -1.98 0 -2.30 -0.14 -2.30 -0.92z"
       id="path1073" /><path
       d="M252.58 219.96 c0 -0.74 0.28 -0.97 1.15 -0.97 0.74 0 1.15 0.28 1.15 0.69 0 0.37 -0.18 0.69 -0.41 0.69 -0.23 0 -0.74 0.14 -1.15 0.28 -0.55 0.18 -0.74 0 -0.74 -0.69z"
       id="path1080" /><path
       d="M212.55 159.09 c0 -1.38 0.60 -2.67 1.20 -2.67 0.41 0 0.64 0.55 0.64 1.61 0 1.29 -0.18 1.61 -0.92 1.61 -0.51 0 -0.92 -0.28 -0.92 -0.55z"
       id="path1096" /></g><g
     fill="#817038"
     id="g1315"><path
       d="M252.58 284.32 c0 -0.87 0.32 -0.92 6.21 -0.92 5.89 0 6.21 0.05 6.21 0.92 0 0.87 -0.32 0.92 -6.21 0.92 -5.89 0 -6.21 -0.05 -6.21 -0.92z"
       id="path1261" /><path
       d="M253.04 262.70 c0 -0.87 0.32 -0.92 5.98 -0.92 5.66 0 5.98 0.05 5.98 0.92 0 0.87 -0.32 0.92 -5.98 0.92 -5.66 0 -5.98 -0.05 -5.98 -0.92z"
       id="path1262" /><path
       d="M252.58 240.89 l0 -1.24 4.88 0.09 c5.61 0.09 6.63 0.28 6.63 1.15 0 0.51 -0.97 0.64 -4.32 0.64 -2.35 0 -4.97 0.14 -5.75 0.28 -1.33 0.28 -1.43 0.18 -1.43 -0.92z"
       id="path1263" /><path
       d="M253.50 219.45 c0 -0.87 0.32 -0.92 5.75 -0.92 5.43 0 5.75 0.05 5.75 0.92 0 0.87 -0.32 0.92 -5.75 0.92 -5.43 0 -5.75 -0.05 -5.75 -0.92z"
       id="path1264" /><path
       d="M252.58 198.29 c0 -0.87 0.32 -0.92 6.21 -0.92 5.89 0 6.21 0.05 6.21 0.92 0 0.87 -0.32 0.92 -6.21 0.92 -5.89 0 -6.21 -0.05 -6.21 -0.92z"
       id="path1265" /><path
       d="M252.58 177.59 c0 -0.87 0.32 -0.92 6.21 -0.92 5.89 0 6.21 0.05 6.21 0.92 0 0.87 -0.32 0.92 -6.21 0.92 -5.89 0 -6.21 -0.05 -6.21 -0.92z"
       id="path1266" /><path
       d="M192.63 157.44 c-0.41 -0.51 -0.60 -6.44 -0.69 -24.06 -0.09 -20.34 -0.05 -23.42 0.60 -24.02 1.20 -1.24 9.57 -1.61 11.32 -0.51 0.23 0.14 0.41 1.06 0.41 2.07 0 1.47 -0.14 1.79 -0.87 1.79 -0.64 0 -0.97 -0.37 -1.06 -1.24 -0.14 -1.24 -0.23 -1.29 -3.45 -1.43 l-3.36 -0.14 0 6.03 0 5.98 3.45 0 3.45 0 0 3.68 c0 2.67 -0.14 3.68 -0.60 3.68 -0.41 0 -0.51 0.55 -0.41 1.84 l0.18 1.84 -2.53 0 c-3.50 0 -4 -0.28 -4 -2.12 0 -1.10 -0.23 -1.56 -0.69 -1.56 -0.55 0 -0.69 0.74 -0.69 3.82 l0 3.77 4.28 0 4.23 0 0.14 3.17 c0.09 2.25 -0.05 3.31 -0.46 3.54 -0.32 0.23 -1.89 0.41 -3.50 0.41 l-2.90 0 0.14 5.89 0.14 5.84 4.28 -0.05 c3.77 0 4.23 0.05 4.23 0.78 0 0.97 -1.20 1.24 -7.04 1.47 -3.13 0.14 -4.14 0 -4.60 -0.51z"
       id="path1267" /></g><g
     fill="#21d04b"
     id="g1473"><path
       d="M160.52 738.32 c0 -14.77 0 -32.62 -0.05 -39.70 l-0.05 -12.88 21.58 -0.09 c11.87 -0.09 22.45 0 23.56 0.14 l1.93 0.23 0 39.57 0 39.52 -23.46 0 -23.46 0 -0.05 -26.78z m9.16 18.63 l0.14 -2.44 2.99 0 c2.81 0 2.94 0.05 2.94 1.10 0 0.60 0.14 1.75 0.28 2.53 l0.32 1.43 14.40 0 14.45 0 0 -1.43 c0 -1.06 -0.51 -2.02 -1.84 -3.45 -1.75 -1.93 -1.84 -2.16 -1.84 -5.01 0 -2.85 0.09 -3.08 1.84 -5.01 1.43 -1.56 1.84 -2.35 1.84 -3.68 l0 -1.66 -14.45 0 -14.49 0 -0.14 2.44 -0.14 2.39 -3.04 0.14 c-3.36 0.14 -3.63 -0.09 -3.63 -3.22 0 -1.24 -0.09 -1.29 -2.48 -1.29 l-2.44 0 -0.28 4.28 c-0.28 4 -0.05 13.66 0.41 14.95 0.09 0.41 0.92 0.55 2.58 0.46 l2.44 -0.14 0.14 -2.39z m35.52 -23 c0 -1.43 -0.32 -2.07 -1.84 -3.50 -1.79 -1.66 -1.84 -1.79 -1.84 -4.78 0 -2.99 0.09 -3.17 1.79 -4.97 1.29 -1.29 1.84 -2.30 1.98 -3.45 l0.14 -1.61 -14.58 -0.14 -14.63 -0.09 0 2.53 0 2.53 -3.17 0 -3.22 0 -0.14 -2.16 -0.14 -2.21 -2.76 0 -2.71 0 -0.18 8.05 c-0.09 4.42 0 8.74 0.14 9.57 l0.28 1.52 2.62 -0.14 2.62 -0.14 0.14 -2.21 0.14 -2.21 3.08 0.14 3.08 0.14 0.14 2.44 0.14 2.39 14.49 0 14.45 0 0 -1.70z m0 -23.97 c0 -1.43 -0.32 -2.07 -1.84 -3.54 -1.79 -1.75 -1.84 -1.89 -1.84 -4.97 0 -3.13 0.05 -3.22 1.89 -5.06 1.56 -1.56 1.84 -2.12 1.70 -3.50 l-0.14 -1.66 -14.35 -0.14 -14.35 -0.09 -0.32 2.76 -0.32 2.76 -2.90 0 -2.94 0 0 -1.98 c0 -2.53 -0.60 -3.08 -3.27 -3.08 -1.75 0 -2.25 0.18 -2.48 0.92 -0.37 1.10 -0.14 17.80 0.28 18.45 0.14 0.28 1.38 0.41 2.76 0.32 l2.48 -0.14 0.14 -2.21 0.14 -2.21 3.08 0.14 3.08 0.14 0.14 1.84 c0.05 1.01 0.23 2.12 0.32 2.44 0.14 0.41 3.45 0.55 14.49 0.55 l14.26 0 0 -1.75z"
       id="path1470" /><path
       d="M185.87 749.45 l0 -2.76 2.48 0 c2.81 0 2.99 0.28 2.67 3.59 l-0.18 1.93 -2.48 0 -2.48 0 0 -2.76z"
       id="path1471" /><path
       d="M185.87 725.30 l0 -2.53 2.53 0 2.53 0 0 2.53 0 2.53 -2.53 0 -2.53 0 0 -2.53z"
       id="path1472" /><path
       d="M185.87 701.51 l0 -2.44 2.53 0 2.53 0 0 2.44 0 2.39 -2.53 0 -2.53 0 0 -2.39z"
       id="path1473" /></g><g
     fill="#8c7b41"
     id="g1530"><path
       d="M255.80 284.78 c0 -0.87 0.32 -0.92 4.37 -0.92 4.05 0 4.37 0.05 4.37 0.92 0 0.87 -0.32 0.92 -4.37 0.92 -4.05 0 -4.37 -0.05 -4.37 -0.92z"
       id="path1474" /><path
       d="M252.58 262.79 c0 -0.83 0.28 -0.87 4.74 -0.64 2.58 0.09 4.78 0.28 4.88 0.37 0.60 0.55 -1.01 0.87 -5.06 1.01 -4.28 0.18 -4.55 0.14 -4.55 -0.74z"
       id="path1476" /><path
       d="M263.53 263.30 c-1.24 -0.32 -1.01 -1.06 0.32 -1.06 0.74 0 1.15 0.28 1.15 0.69 0 0.69 -0.09 0.74 -1.47 0.37z"
       id="path1477" /><path
       d="M253.04 219.45 c0 -0.74 0.32 -0.92 1.61 -0.92 1.84 0 2.25 1.10 0.60 1.56 -1.75 0.46 -2.21 0.32 -2.21 -0.64z"
       id="path1478" /><path
       d="M260.40 219.22 c0 -0.51 0.55 -0.69 2.30 -0.69 1.75 0 2.30 0.18 2.30 0.69 0 0.51 -0.55 0.69 -2.30 0.69 -1.75 0 -2.30 -0.18 -2.30 -0.69z"
       id="path1479" /><path
       d="M202.06 156.33 c0.09 -0.69 0.51 -1.10 1.20 -1.20 0.92 -0.14 1.06 0 0.92 0.92 -0.09 0.69 -0.51 1.10 -1.20 1.20 -0.92 0.14 -1.06 0 -0.92 -0.92z"
       id="path1480" /><path
       d="M252.67 155.04 c0.05 -1.01 0.28 -1.38 0.92 -1.38 0.46 0 0.83 0.23 0.83 0.46 0 0.28 2.07 0.46 5.29 0.46 4.97 0 5.29 0.05 5.29 0.92 0 0.87 -0.32 0.92 -6.16 0.92 l-6.21 0 0.05 -1.38z"
       id="path1481" /><path
       d="M202.43 148.37 l0 -4.37 -1.84 0 c-2.16 0 -2.48 -0.97 -0.55 -1.70 l1.24 -0.51 -1.24 -0.05 c-0.64 -0.05 -1.33 -0.32 -1.43 -0.60 -0.18 -0.46 -0.28 -0.46 -0.28 0 -0.05 0.32 -0.74 0.55 -1.75 0.60 l-1.75 0.05 1.75 0.46 c1.93 0.51 2.35 1.75 0.55 1.75 -1.10 0 -1.15 0.09 -1.15 3.22 0 2.90 -0.09 3.22 -0.92 3.22 -0.78 0 -0.87 -0.37 -1.01 -3.54 -0.18 -4.65 -1.20 -5.20 -1.43 -0.74 -0.09 1.70 -0.14 -4 -0.18 -12.74 0 -8.74 0.05 -15.55 0.09 -15.18 0.09 0.37 0.28 1.47 0.46 2.44 0.41 2.67 1.15 1.56 1.15 -1.79 0 -2.62 0.09 -2.94 0.92 -2.94 0.83 0 0.92 0.32 0.92 2.71 0 3.68 0.23 4.19 2.12 4.19 0.87 0 1.56 -0.18 1.56 -0.46 0 -0.23 0.64 -0.46 1.38 -0.46 l1.38 0 0 -5.75 c0 -3.54 -0.18 -5.75 -0.46 -5.75 -0.23 0 -0.46 -0.41 -0.46 -0.97 0 -1.56 1.98 -0.97 2.35 0.74 0.18 0.78 0.32 7.22 0.37 14.40 0.05 11.23 -0.05 12.97 -0.64 12.97 -0.55 0 -0.69 0.60 -0.69 2.53 0 1.93 0.14 2.53 0.69 2.53 0.55 0 0.69 0.87 0.69 5.06 0 4.74 -0.05 5.06 -0.92 5.06 -0.87 0 -0.92 -0.32 -0.92 -4.37z m-1.61 -9.89 c-0.32 -0.55 -3.77 -0.55 -5.06 0 -0.64 0.28 0.05 0.41 2.21 0.41 1.98 0.05 3.04 -0.14 2.85 -0.41z m-1.61 -1.38 c0 -0.23 -0.32 -0.46 -0.69 -0.46 -0.37 0 -0.69 0.23 -0.69 0.46 0 0.28 0.32 0.46 0.69 0.46 0.37 0 0.69 -0.18 0.69 -0.46z m0.69 -5.98 c-0.14 -0.23 -1.06 -0.46 -1.98 -0.46 -1.29 0 -1.52 0.14 -1.01 0.46 0.92 0.60 3.36 0.60 2.99 0z m-0.23 -2.58 c0 -0.37 0.32 -0.64 0.69 -0.64 0.37 0 0.69 -0.18 0.69 -0.46 0 -0.23 -0.32 -0.46 -0.69 -0.46 -0.37 0 -0.69 -0.18 -0.69 -0.46 0 -0.23 -0.74 -0.46 -1.61 -0.46 -0.87 0 -1.61 0.23 -1.61 0.46 0 0.28 -0.32 0.46 -0.69 0.46 -0.37 0 -0.69 0.23 -0.69 0.46 0 0.28 0.32 0.46 0.69 0.46 0.37 0 0.69 0.28 0.69 0.64 0 0.37 0.37 0.74 0.83 0.83 1.24 0.28 2.39 -0.14 2.39 -0.83z m1.38 -4.78 c0 -0.28 -1.29 -0.46 -2.99 -0.46 -1.70 0 -2.99 0.18 -2.99 0.46 0 0.28 1.29 0.46 2.99 0.46 1.70 0 2.99 -0.18 2.99 -0.46z"
       id="path1484" /><path
       d="M147.04 132.87 c-0.46 -1.75 -0.32 -2.21 0.64 -2.21 0.74 0 0.92 0.32 0.92 1.61 0 1.84 -1.10 2.25 -1.56 0.60z"
       id="path1505" /></g><g
     fill="#9f8656"
     id="g1546"><path
       d="M252.58 284.74 c0 -0.83 0.41 -0.87 6.21 -0.87 5.61 0 6.21 0.09 6.21 0.83 0 0.69 -0.64 0.78 -6.21 0.87 -5.84 0.05 -6.21 0 -6.21 -0.83z"
       id="path1540" /><path
       d="M252.58 262.79 c0 -0.69 0.64 -0.78 6.07 -0.64 5.66 0.14 6.81 0.28 6.30 0.74 -0.09 0.09 -2.94 0.28 -6.26 0.41 -5.52 0.23 -6.12 0.18 -6.12 -0.51z"
       id="path1541" /><path
       d="M252.58 240.85 c0 -0.60 1.01 -0.69 6.21 -0.69 5.20 0 6.21 0.09 6.21 0.69 0 0.60 -1.01 0.69 -6.21 0.69 -5.20 0 -6.21 -0.09 -6.21 -0.69z"
       id="path1542" /><path
       d="M252.58 219.50 c0 -0.97 0.14 -0.97 6.21 -0.87 4.60 0.09 6.21 0.28 6.21 0.74 0 0.41 -1.24 0.55 -4.78 0.55 -2.62 0 -5.43 0.14 -6.21 0.28 -1.24 0.28 -1.43 0.18 -1.43 -0.69z"
       id="path1543" /><path
       d="M252.58 198.98 l0 -1.15 6.21 0 6.21 0 0 1.15 0 1.15 -6.21 0 -6.21 0 0 -1.15z"
       id="path1544" /><path
       d="M252.58 176.90 l0 -1.15 6.21 0 6.21 0 0 1.15 0 1.15 -6.21 0 -6.21 0 0 -1.15z"
       id="path1545" /><path
       d="M252.90 154.95 l-0.18 -1.29 6.16 0 6.12 0 0 1.10 0 1.15 -5.93 0.14 -5.93 0.14 -0.23 -1.24z"
       id="path1546" /></g><g
     fill="#b29c50"
     id="g1553"><path
       d="M194.61 149.75 l0 -7.13 3.22 0 3.22 0 0 6.44 0 6.39 -2.30 0.32 c-1.29 0.18 -2.44 0.51 -2.58 0.69 -0.14 0.23 -0.55 0.41 -0.92 0.41 -0.55 0 -0.64 -1.24 -0.64 -7.13z"
       id="path1548" /><path
       d="M195.07 136.36 c0 -1.20 0.05 -1.24 2.12 -0.92 1.20 0.14 2.58 0.28 3.13 0.28 0.97 0.05 0.92 0.05 -0.14 0.92 -0.69 0.60 -1.75 0.92 -3.08 0.92 -1.89 0 -2.02 -0.09 -2.02 -1.20z"
       id="path1549" /><path
       d="M194.79 133.65 c-0.74 -1.89 1.06 -2.53 4.83 -1.79 1.10 0.23 1.43 0.55 1.43 1.38 0 1.06 -0.14 1.10 -2.99 1.10 -2.25 0 -3.08 -0.18 -3.27 -0.69z"
       id="path1550" /><path
       d="M194.93 130.34 c-0.18 -0.14 -0.32 -0.69 -0.32 -1.15 0 -0.74 0.41 -0.83 3.45 -0.83 1.89 0 3.45 0.18 3.45 0.41 0 1.56 -0.60 1.89 -3.40 1.89 -1.61 0 -3.04 -0.14 -3.17 -0.32z"
       id="path1551" /><path
       d="M195.07 125.83 c0 -0.37 0.37 -0.69 0.83 -0.74 0.41 0 1.29 -0.09 1.93 -0.23 0.64 -0.09 1.43 0 1.79 0.23 1.15 0.74 0.05 1.43 -2.30 1.43 -1.70 0 -2.25 -0.18 -2.25 -0.69z"
       id="path1552" /><path
       d="M194.61 117.87 c0 -4.37 0.09 -5.11 0.92 -5.98 1.01 -1.06 1.75 -1.20 4.09 -0.74 l1.43 0.32 0 5.66 0 5.70 -3.22 0 -3.22 0 0 -4.97z"
       id="path1553" /></g><g
     fill="#979792"
     id="g1632"><path
       d="M117.78 800.01 c-21.12 -0.14 -55.12 -0.32 -75.54 -0.37 l-37.17 -0.05 0 -356.32 0 -356.32 95.69 0 95.69 0 0 5.98 c0 5.93 0 5.98 -1.06 5.98 -0.60 0 -2.12 0.32 -3.40 0.69 -2.90 0.87 -5.89 3.91 -6.44 6.53 -0.18 0.97 -0.37 13.34 -0.37 27.51 0 24.29 0.05 25.86 0.87 27.37 1.79 3.36 3.73 4.65 7.64 5.06 l2.53 0.23 0.14 1.79 c0.09 1.01 0.05 2.30 -0.09 2.90 l-0.28 1.06 -17.02 0 -17.02 0 0.09 71.68 0.14 71.63 22.68 0.14 22.64 0.09 0 2.99 0 2.99 -28.39 0.09 c-26.64 0.05 -46.33 0.14 -61.65 0.32 l-6.58 0.05 0 57.97 0 57.97 48.31 0 48.31 0 0 7.36 0 7.36 -47.85 0 -47.85 0 0 111.11 0 111.11 47.62 0 47.62 0 0 2.76 0 2.76 -25.76 0 -25.76 0 0 44.86 0 44.86 25.76 0 25.76 0 0.09 8.65 0.14 8.60 19.78 0.14 19.78 0.09 0 6.35 0 6.30 -45.32 0.05 c-24.94 0 -62.62 -0.14 -83.73 -0.32z m53.83 -642.35 c3.17 -2.12 3.13 -1.93 3.31 -20.80 l0.14 -17.02 -1.06 -1.70 c-0.60 -0.97 -1.84 -2.07 -3.04 -2.62 -1.93 -0.97 -2.02 -0.97 -75.77 -0.97 -70.99 0 -73.89 0.05 -75.68 0.87 -1.06 0.46 -2.39 1.56 -2.99 2.39 l-1.10 1.56 0 17.25 0 17.25 1.10 1.52 c0.60 0.87 1.75 1.98 2.53 2.44 1.38 0.83 3.59 0.87 76.23 0.87 l74.81 0 1.52 -1.06z"
       id="path1554" /><path
       d="m 214.54362,777.79875 -1.12612,0.0299 V 545.83 313.31 h 12.75913 c 7.67035,0 13.58778,-0.18 14.86263,-0.51 2.68781,-0.64 5.95992,-3.22 7.13916,-5.66 0.73304,-1.47 0.92426,-3.04 0.92426,-7.27 v -9.43 h 6.10866 6.10866 l -0.0956,246.13 -0.14874,241.44133 -22.7242,-0.0826 c -12.51478,0.05 -23.20704,-0.05 -23.80197,-0.14 z"
       id="path1572"
       sodipodi:nodetypes="ccccsccscccccccc"
       style="stroke-width:1.03072" /><path
       d="m 171.33,303.74 c -0.55,-0.41 -1.24,-1.24 -1.52,-1.79 -0.37,-0.74 -0.51,-17.48 -0.51,-60.18 0,-65.28 -0.18,-61.01 2.94,-62.52 1.33,-0.64 3.59,-0.74 16.1,-0.74 h 14.54 l 0.05,-1.01 c 0,-0.6 0,-3.27 -0.05,-5.93 l -0.05,-4.88 2.62,-0.55 c 1.79,-0.41 3.13,-1.1 4.32,-2.21 3.36,-2.99 3.27,-2.21 3.13,-32.39 l -0.14,-26.91 -1.24,-1.93 c -1.56,-2.3 -2.99,-3.31 -5.8,-4 l -2.16,-0.55 -0.14,-2.85 -0.14,-2.81 h 17.76 c 18.91,0 20.24,0.14 21.35,2.25 0.37,0.64 0.51,30.23 0.55,103.75 0,92.66 -0.05,102.92 -0.74,103.93 -0.37,0.6 -1.24,1.33 -1.89,1.61 -0.83,0.41 -10.26,0.55 -34.6,0.55 -31.01,0 -33.54,-0.09 -34.41,-0.83 z m 25.70438,-1.44188 c 1.2,-1.47 1.02562,-3.89812 -0.39438,-5.04812 -3.68,-2.9 -8.03875,2.11375 -4.72875,5.43375 0.92,0.92 2.44562,1.00625 3.63562,0.77625 0.83,-0.14 0.99626,-0.66188 1.48751,-1.16188 z M 202.58,280.995 l -0.625,-8.3875 -4.84,-0.265 c -5.38,-0.09 -7.14875,0.1125 -8.125,-0.3525 -0.41,0.69 -0.51,12.42 -0.05,15.92 l 0.28,2.39 7.18,-0.09 4.805,-0.17125 z m 0.68,-22.665 c 0.09,-2.02 0,-4.55 -0.14,-5.66 l -0.28,-1.98 -5.38,0.14 -5.38,0.14 -0.14,5.66 -0.14,5.66 5.66,-0.14 5.66,-0.14 z m 34.51,-1.7 -0.14,-5.66 h -5.29 -5.29 l -0.14,5.01 c -0.05,2.81 0,5.34 0.09,5.66 0.18,0.46 1.61,0.6 5.57,0.6 h 5.34 z m -34.51,-19.92 c 0.18,-7.18 0.6,-6.72 -5.8,-6.58 l -5.38,0.14 -0.14,5.01 c -0.05,2.81 0,5.34 0.09,5.66 0.18,0.51 1.47,0.6 5.66,0.51 l 5.43,-0.14 z m 34.37,-0.92 v -5.52 h -5.29 -5.29 l -0.14,5.01 c -0.05,2.81 0,5.34 0.09,5.66 0.18,0.51 1.43,0.6 5.43,0.51 l 5.2,-0.14 z m -34.37,-20.8 -0.14,-5.43 h -5.52 -5.52 l -0.14,5.43 -0.14,5.38 h 5.8 5.8 z m 34.6,-0.14 v -5.52 h -5.52 -5.52 v 5.52 5.52 h 5.52 5.52 z m -34.74,-20.7 v -5.29 l -5.61,-0.14 -5.66,-0.14 v 5.57 5.57 l 5.66,-0.14 5.61,-0.14 z m 34.74,0 v -5.52 h -5.52 -5.52 v 5.52 5.52 h 5.52 5.52 z"
       id="path1610"
       sodipodi:nodetypes="ccscscccccccccccccsccccsccccccccccccccccccccccccccccccccsccccccccccccccccccccccccccccccccccccccccccccccccccccccc" /><path
       d="M249.36 273.05 l0 -3.45 7.82 0 7.82 0 0 3.45 0 3.45 -7.82 0 -7.82 0 0 -3.45z"
       id="path1611" /><path
       d="M249.36 251.43 l0 -3.45 5.89 -0.09 c3.22 -0.05 6.72 -0.14 7.82 -0.18 l1.93 -0.09 0 3.63 0 3.63 -7.82 0 -7.82 0 0 -3.45z"
       id="path1612" /><path
       d="M249.36 229.80 l0 -3.45 7.82 0 7.82 0 0 3.45 0 3.45 -7.82 0 -7.82 0 0 -3.45z"
       id="path1613" /><path
       d="M249.36 208.18 l0 -3.45 7.82 0 7.82 0 0 3.45 0 3.45 -7.82 0 -7.82 0 0 -3.45z"
       id="path1614" /><path
       d="M250.42 189.69 c-0.97 -0.18 -1.06 -0.46 -1.06 -3.63 l0 -3.40 7.82 0 7.82 0 0 3.68 0 3.68 -6.76 -0.05 c-3.77 -0.05 -7.27 -0.18 -7.82 -0.28z"
       id="path1615" /><path
       d="M249.36 164.24 l0 -3.68 7.82 0 7.82 0 0 3.68 0 3.68 -7.82 0 -7.82 0 0 -3.68z"
       id="path1616" /><path
       d="M249.36 142.62 l0 -3.68 7.82 0 7.82 0 0 3.68 0 3.68 -7.82 0 -7.82 0 0 -3.68z"
       id="path1617" /><path
       d="M249.36 113.64 l0 -11.04 7.36 0 7.36 0 0.09 -2.16 c0 -1.24 0 -2.76 -0.05 -3.40 -0.05 -0.64 0.14 -1.66 0.37 -2.30 0.32 -0.74 0.46 3.86 0.46 14.45 l0.05 15.50 -7.82 0 -7.82 0 0 -11.04z"
       id="path1618" /></g><g
     fill="#fefefe"
     id="g1762"><path
       d="m 0,808.37 v -2.79 h 126.06 126.06 v -7.13 -7.13 h 3.68 3.68 v 2.71 c 0,1.52 0.14,3.08 0.28,3.5 0.37,0.92 2.58,2.07 4.09,2.07 H 265 v 5.78 1.78 H 132.5 0 Z"
       id="path1753"
       sodipodi:nodetypes="ccccccccscscccccc" /><path
       d="M35.24 153.39 c-0.55 -1.43 -0.28 -2.02 0.92 -2.02 1.75 0 3.86 -2.30 3.86 -4.28 0 -2.35 -1.47 -4 -3.63 -4 -3.82 0 -7.22 -2.07 -8.83 -5.34 -1.47 -3.08 -1.10 -7.32 0.78 -9.71 4.23 -5.34 12.56 -4.97 15.73 0.69 2.12 3.82 1.70 8.01 -1.15 11.18 l-1.70 1.84 0.87 1.47 c1.24 2.07 1.20 5.66 -0.14 7.78 -1.61 2.58 -6.03 4.19 -6.72 2.39z m3.91 -14.22 c3.04 -1.61 4.14 -6.16 2.25 -9.25 -1.20 -1.89 -4.32 -3.17 -6.67 -2.76 -2.25 0.46 -4.65 2.94 -5.06 5.29 -0.83 5.06 4.83 9.06 9.48 6.72z"
       id="path1754" /><path
       d="M87.51 140.37 l0.14 -10.54 1.43 -1.79 c2.99 -3.73 7.68 -4.83 11.96 -2.67 5.61 2.81 6.81 10.31 2.30 14.77 -3.08 3.08 -6.95 3.73 -10.58 1.79 -1.20 -0.64 -2.25 -1.15 -2.39 -1.15 -0.09 0 -0.18 2.30 -0.18 5.06 l0 5.06 -1.43 0 -1.38 0 0.14 -10.54z m12.65 -1.43 c4.23 -2.58 3.73 -8.93 -0.92 -11.18 -4.55 -2.25 -9.89 1.98 -8.88 7.13 0.83 4.23 6.03 6.39 9.80 4.05z"
       id="path1755" /><path
       d="M55.16 142.48 c-4.14 -1.56 -6.39 -4.69 -6.39 -8.88 0.05 -5.43 4 -9.39 9.43 -9.39 4.78 0 8.97 4.14 8.97 8.97 l0 1.61 -7.64 0 -7.59 0 0.28 1.06 c0.18 0.55 0.92 1.61 1.61 2.35 1.52 1.56 5.29 2.21 7.13 1.20 0.92 -0.51 1.24 -0.51 1.84 0 2.58 2.16 -3.50 4.60 -7.64 3.08z m8.79 -11.09 c0 -1.75 -3.59 -4.42 -6.03 -4.42 -1.66 0 -4.14 1.47 -5.06 2.94 -0.46 0.78 -0.87 1.56 -0.87 1.79 0 0.18 2.71 0.32 5.98 0.32 4.74 0 5.98 -0.14 5.98 -0.64z"
       id="path1756" /><path
       d="M115.52 142.39 c-5.84 -1.84 -8.33 -9.16 -4.83 -14.12 3.77 -5.38 11.82 -5.38 15.60 0 1.33 1.93 1.38 2.16 1.52 8.19 l0.18 6.16 -1.43 0 c-1.10 0 -1.43 -0.18 -1.43 -0.92 0 -1.15 -0.09 -1.15 -2.25 0 -2.48 1.24 -4.97 1.47 -7.36 0.69z m5.93 -3.22 c2.21 -1.15 3.22 -2.85 3.22 -5.43 0 -2.99 -1.29 -5.06 -3.68 -6.03 -2.35 -0.92 -2.99 -0.92 -5.38 0.14 -2.35 1.10 -3.36 2.90 -3.36 5.98 0 1.79 0.28 2.58 1.24 3.73 0.64 0.83 1.66 1.66 2.16 1.84 1.52 0.64 4.37 0.51 5.80 -0.23z"
       id="path1757" /><path
       d="M71.31 141.24 l0 -1.33 3.96 -0.14 c4.51 -0.14 5.34 -0.69 4.51 -2.99 -0.37 -1.06 -0.87 -1.38 -3.40 -2.02 -3.73 -1.01 -5.06 -2.35 -5.06 -5.24 0 -1.61 0.28 -2.39 1.33 -3.54 1.33 -1.47 1.43 -1.52 5.75 -1.66 l4.42 -0.18 0 1.43 0 1.43 -3.27 0 c-3.96 0 -5.01 0.51 -5.01 2.30 0 1.79 0.92 2.58 3.45 2.94 1.38 0.23 2.67 0.83 3.59 1.66 1.29 1.15 1.47 1.61 1.47 3.68 0 2.12 -0.18 2.53 -1.52 3.73 -1.43 1.29 -1.66 1.33 -5.84 1.33 l-4.37 0 0 -1.38z"
       id="path1758" /><path
       d="M131.76 141.43 c-0.18 -0.69 -0.18 -3.50 -0.05 -6.30 0.23 -4.60 0.37 -5.29 1.56 -6.95 3.45 -4.97 11.18 -5.34 15 -0.74 1.70 2.02 2.16 4.09 2.16 10.03 l0 5.20 -1.47 -0.14 -1.52 -0.14 -0.23 -5.75 c-0.23 -6.30 -0.60 -7.36 -2.90 -8.74 -1.89 -1.15 -3.68 -1.15 -6.07 0 -2.99 1.43 -3.45 2.67 -3.45 9.16 l0 5.57 -1.38 0 c-1.10 0 -1.43 -0.23 -1.66 -1.20z"
       id="path1759" /><path
       d="M156.47 141.89 c-2.02 -1.43 -2.35 -3.17 -2.35 -12.84 l0 -8.97 1.61 0 c1.61 0 1.61 0 1.61 2.07 l0 2.07 2.48 0 c3.36 0 3.96 0.28 3.96 1.89 l0 1.33 -3.22 0 -3.22 0 0 5.47 c0 4.19 0.14 5.57 0.64 6.03 1.01 0.78 2.76 0.37 3.27 -0.78 0.51 -1.20 2.39 -1.47 2.81 -0.41 0.32 0.87 -0.97 3.27 -2.21 4.14 -1.33 0.97 -4 0.92 -5.38 0z"
       id="path1760" /><path
       d="M152.28 80.93 c0 -1.70 0.87 -2.71 2.35 -2.71 1.15 0 1.52 0.28 2.07 1.61 0.32 0.87 0.64 1.70 0.64 1.84 0 0.14 -1.15 0.23 -2.53 0.23 -2.25 0 -2.53 -0.09 -2.53 -0.97z"
       id="path1762" /></g><rect
     style="fill:#b3b3b3;fill-opacity:1;stroke-width:0.177514;stroke-opacity:0.948718"
     id="rect6"
     width="6.4771891"
     height="712.58301"
     x="5.0979042"
     y="87.017876" /><rect
     style="fill:#b3b3b3;fill-opacity:1;stroke-width:0.0812257;stroke-opacity:0.948718"
     id="rect6-9"
     width="187.37714"
     height="5.1573124"
     x="8.8232231"
     y="87.088387" /><rect
     style="fill:#b3b3b3;fill-opacity:1;stroke-width:0.10843;stroke-opacity:0.948718"
     id="rect6-0-0"
     width="3.7271881"
     height="462.02609"
     x="215.81192"
     y="315.33609" /><rect
     style="fill:#b3b3b3;fill-opacity:1;stroke-width:0.0571251;stroke-opacity:0.948718"
     id="rect6-0-0-6"
     width="3.8020365"
     height="125.71471"
     x="168.02507"
     y="178.53125" /><rect
     style="fill:#b3b3b3;fill-opacity:1;stroke-width:0.0312176;stroke-opacity:0.948718"
     id="rect6-0-0-6-6"
     width="31.524023"
     height="4.5280056"
     x="171.29289"
     y="178.53822" /><rect
     style="fill:#b3b3b3;fill-opacity:1;stroke-width:0.0274379;stroke-opacity:0.948718"
     id="rect6-0-0-6-6-6"
     width="38.709366"
     height="2.8486271"
     x="203.73065"
     y="93.305275"
     ry="1.4243135"
     rx="0" /><rect
     style="fill:#b3b3b3;fill-opacity:1;stroke-width:0.0730298;stroke-opacity:0.948718"
     id="rect6-0-0-6-3"
     width="3.7271881"
     height="209.58897"
     x="238.66127"
     y="94.679298" /><rect
     style="fill:#b3b3b3;fill-opacity:1;stroke-width:0.00848418;stroke-opacity:0.948718"
     id="rect6-0-0-6-3-1"
     width="3.7271881"
     height="2.828712"
     x="203.70256"
     y="93.298073" /><rect
     style="fill:#b3b3b3;fill-opacity:1;stroke-width:0.121551;stroke-opacity:0.948718"
     id="rect6-5"
     width="9.9771891"
     height="216.90114"
     x="115.48023"
     y="458.78235" /><rect
     style="fill:#000000;stroke-width:0.5;stroke-opacity:0.948718"
     id="rect3"
     width="11.490485"
     height="11.402097"
     x="191.53755"
     y="188.53235" /><rect
     style="fill:#000000;stroke-width:0.5;stroke-opacity:0.948718"
     id="rect3-9"
     width="11.490485"
     height="11.402097"
     x="226.54381"
     y="188.52513" /><rect
     style="fill:#000000;stroke-width:0.5;stroke-opacity:0.948718"
     id="rect3-8"
     width="11.490485"
     height="11.402097"
     x="191.76427"
     y="209.43503" /><rect
     style="fill:#000000;stroke-width:0.5;stroke-opacity:0.948718"
     id="rect3-2"
     width="11.490485"
     height="11.402097"
     x="226.53775"
     y="209.08839" /><rect
     style="fill:#000000;stroke-width:0.5;stroke-opacity:0.948718"
     id="rect3-5"
     width="11.490485"
     height="11.402097"
     x="191.84746"
     y="229.9151" /><rect
     style="fill:#000000;stroke-width:0.5;stroke-opacity:0.948718"
     id="rect3-1"
     width="11.490485"
     height="11.402097"
     x="226.48555"
     y="230.06065" /><rect
     style="fill:#333333;stroke-width:0.163051;stroke-opacity:0.948718"
     id="rect2-3"
     width="7.0779586"
     height="53.696106"
     x="198.03671"
     y="18.435808" /><rect
     style="fill:#1a1a1a;stroke-width:0.545109;stroke-opacity:0.948718"
     id="rect2-3-6"
     width="88.827957"
     height="47.821106"
     x="108.875"
     y="22.875" /><rect
     style="fill:#333333;stroke-width:0.1677;stroke-opacity:0.948718"
     id="rect2-3-4"
     width="87.952957"
     height="4.571106"
     x="117.25"
     y="15.875" /><rect
     style="fill:#333333;stroke-width:0.119613;stroke-opacity:0.948718"
     id="rect2-3-4-0"
     width="81.640457"
     height="2.5052419"
     x="115.93046"
     y="71.456108" /><rect
     style="fill:#000000;stroke-width:0.5;stroke-opacity:0.948718"
     id="rect3-11"
     width="11.490485"
     height="11.402097"
     x="226.8418"
     y="250.93764" /><rect
     style="fill:#000000;stroke-width:0.5;stroke-opacity:0.948718"
     id="rect3-27"
     width="11.490485"
     height="11.402097"
     x="191.74336"
     y="250.97227" /><rect
     style="fill:#000000;stroke-width:0.736708;stroke-opacity:0.948718"
     id="rect3-14"
     width="14.849242"
     height="19.154434"
     x="188.5979"
     y="271.77988" /><rect
     style="fill:#87090c;fill-opacity:1;stroke-width:0.5;stroke-opacity:0.948718"
     id="rect5"
     width="10.46875"
     height="6.53125"
     x="176.125"
     y="76" /><rect
     style="fill:#979792;fill-opacity:1;stroke-width:0.51711;stroke-opacity:0.948718"
     id="rect7"
     width="3.8670657"
     height="216.78125"
     x="112.56755"
     y="458.76385" /><rect
     style="fill:#b3b3b3;fill-opacity:1;stroke-width:0.0847303;stroke-opacity:0.948718"
     id="rect6-5-2"
     width="9.9771891"
     height="105.39548"
     x="114.91268"
     y="328.00897" /><rect
     style="fill:#979792;fill-opacity:1;stroke-width:0.360465;stroke-opacity:0.948718"
     id="rect7-8"
     width="3.8670657"
     height="105.33722"
     x="112"
     y="328" /><g
     id="g2-1"
     transform="translate(-167.75,127.5)"><path
       d="m 309.73,442.41 -36.48,-0.09 V 383.66 325 h 51.53 51.53 v 58.84 58.84 l -15.04,-0.05 c -8.33,-0.05 -31.51,-0.14 -51.53,-0.23 z m 60.04,-24.11 0.09,-17.39 h -4.83 -4.83 v 3.22 3.50146 l -5.61,-0.004 -5.66,-0.0478 -0.14,10.72 -0.09,10.67 H 338.35 328 v -5.06 c 0,-2.76 -0.14,-5.06 -0.32,-5.06 -0.23,0 -3.04,-0.05 -6.35,-0.09 l -5.98,-0.05 -0.14,5.11 -0.14,5.15 h -12.61 -12.65 v -45.09 -45.09 h 12.65 12.65 v 5.06 5.06 h 6.44 6.44 v -5.06 -5.06 h 10.35 10.35 v 10.58 10.58 h 5.75 6.03594 l -0.0241,3.59 -0.0319,3.54 4.74,-0.0158 4.69,-0.047 v -17.04717 c 0,-9.57 -0.18,-17.67 -0.37,-17.99 -0.32,-0.46 -9.57,-0.55 -44.76,-0.46 l -44.35,0.14 -0.14,52.13 -0.09,52.08 44.72,-0.09 44.76,-0.14 0.14,-17.34 z m -61.19,2.53 0.14,-1.52 h -5.98 -6.03 v 1.61 1.66 l 5.89,-0.14 5.84,-0.14 z m 11.82,-36.81 v -28.2 h -11.82 c -11.55,0 -11.87,0.05 -11.87,0.92 0,0.87 0.32,0.92 8.97,0.92 h 8.97 v 3.45 3.45 l -8.83,0.09 c -8.83,0.14 -8.88,0.14 -9.02,1.2 l -0.14,1.01 h 8.97 9.02 v 3.45 3.45 h -9.02 -8.97 l 0.14,1.06 c 0.14,1.01 0.18,1.01 9.02,1.15 l 8.83,0.09 v 3.45 3.45 h -8.97 c -8.56,0 -8.97,0.05 -8.97,0.87 0,0.74 0.46,0.92 2.9,1.2 1.56,0.14 5.57,0.23 8.83,0.14 l 5.98,-0.14 0.14,3.59 0.14,3.54 h -9.02 c -8.65,0 -8.97,0.05 -8.97,0.92 0,0.87 0.32,0.92 8.97,0.92 h 8.97 v 3.68 3.68 h -8.97 c -8.65,0 -8.97,0.05 -8.97,0.92 0,0.87 0.32,0.92 8.97,0.92 h 8.97 v 3.45 3.45 h -8.97 -8.97 v 1.15 1.15 l 11.82,-0.09 11.82,-0.14 0.05,-28.16 z m -11.82,-36.81 0.14,-1.52 h -5.98 -6.03 v 1.61 1.66 l 5.89,-0.14 5.84,-0.14 z"
       id="path8-1-2"
       sodipodi:nodetypes="cccccccccccccccccccccccssccccccccccccccccccccccccccsccccccccccccccccccccssscccccccccccccccccsscccccssscccssscccccccccccccccccccc" /><path
       d="m 295.99,423.01 c -0.05,-0.37 -0.05,-1.1 -0.05,-1.61 0,-2.99 -0.6,-2.76 6.99,-2.76 h 6.9 v 2.53 2.53 h -6.9 c -5.8,0 -6.9,-0.09 -6.95,-0.69 z"
       id="path759-1-3" /><path
       d="m 295.67,411.51 0.05,-2.07 9.02,-0.09 9.02,-0.14 0.14,-2.39 0.14,-2.44 h -8.93 -8.97 L 295.96,403 c -0.14,-0.74 -0.09,-1.56 0.09,-1.79 0.14,-0.28 3.96,-0.51 8.97,-0.6 l 8.74,-0.14 v -2.53 -2.53 l -8.93,-0.09 -8.97,-0.09 0.05,-1.38 c 0.05,-0.78 0.09,-1.61 0.09,-1.89 0.05,-0.28 3.36,-0.46 9.02,-0.46 h 8.97 v -2.53 -2.53 h -9.2 -9.2 v -2.07 -2.07 h 9.2 9.2 v -2.53 -2.53 l -9.06,-0.09 -9.11,-0.14 -0.05,-1.93 -0.05,-1.98 h 9.11 9.16 v -2.53 -2.53 h -8.97 c -9.8,0 -9.06,0.18 -9.06,-2.53 0,-0.37 0,-0.87 0.05,-1.15 0.05,-0.28 3.4,-0.46 9.06,-0.46 h 8.97 l -0.14,-2.39 -0.14,-2.44 -9.02,-0.14 -9.06,-0.09 0.05,-1.84 0.05,-1.84 8.28,-0.05 c 4.6,0 9.57,-0.09 11.09,-0.18 1.52,-0.09 3.63,-0.05 4.74,0.09 l 1.93,0.28 v 29.12 29.17 H 308.71 295.6 l 0.09,-2.07 z"
       id="path762-1-3"
       style="fill:#313231;fill-opacity:1" /><path
       d="m 295.81,347.7 c 0.09,-1.33 0.18,-2.53 0.18,-2.67 0.05,-0.14 3.17,-0.28 6.95,-0.32 l 6.9,-0.09 v 2.71 2.76 h -7.09 -7.09 l 0.14,-2.39 z"
       id="path767-5-4" /><rect
       style="fill:#313231;fill-opacity:1;stroke-width:0.5;stroke-opacity:0.948718"
       id="rect8-7-1"
       width="4.75"
       height="16.75"
       x="340.78998"
       y="343.62" /><rect
       style="fill:#313231;fill-opacity:1;stroke-width:0.5;stroke-opacity:0.948718"
       id="rect8-6-6-1"
       width="4.75"
       height="16.75"
       x="341.53998"
       y="407.495" /><rect
       style="fill:#f9f9f9;fill-opacity:1;stroke:#000000;stroke-width:2.83113;stroke-dasharray:none;stroke-opacity:1"
       id="rect9-1-3"
       width="14.315524"
       height="16.790398"
       x="351.94144"
       y="340.39517" /><rect
       style="fill:#f9f9f9;fill-opacity:1;stroke:#000000;stroke-width:2.83113;stroke-dasharray:none;stroke-opacity:1"
       id="rect9-8-4-8"
       width="14.315524"
       height="16.790398"
       x="352.19299"
       y="410.88748"
       inkscape:transform-center-y="-26.251339" /></g><g
     id="g2-1-4"
     transform="translate(-167.625,239.25)"><path
       d="m 309.73,442.41 -36.48,-0.09 V 383.66 325 h 51.53 51.53 v 58.84 58.84 l -15.04,-0.05 c -8.33,-0.05 -31.51,-0.14 -51.53,-0.23 z m 60.04,-24.11 0.09,-17.39 h -4.83 -4.83 v 3.22 3.50146 l -5.61,-0.004 -5.66,-0.0478 -0.14,10.72 -0.09,10.67 H 338.35 328 v -5.06 c 0,-2.76 -0.14,-5.06 -0.32,-5.06 -0.23,0 -3.04,-0.05 -6.35,-0.09 l -5.98,-0.05 -0.14,5.11 -0.14,5.15 h -12.61 -12.65 v -45.09 -45.09 h 12.65 12.65 v 5.06 5.06 h 6.44 6.44 v -5.06 -5.06 h 10.35 10.35 v 10.58 10.58 h 5.75 6.03594 l -0.0241,3.59 -0.0319,3.54 4.74,-0.0158 4.69,-0.047 v -17.04717 c 0,-9.57 -0.18,-17.67 -0.37,-17.99 -0.32,-0.46 -9.57,-0.55 -44.76,-0.46 l -44.35,0.14 -0.14,52.13 -0.09,52.08 44.72,-0.09 44.76,-0.14 0.14,-17.34 z m -61.19,2.53 0.14,-1.52 h -5.98 -6.03 v 1.61 1.66 l 5.89,-0.14 5.84,-0.14 z m 11.82,-36.81 v -28.2 h -11.82 c -11.55,0 -11.87,0.05 -11.87,0.92 0,0.87 0.32,0.92 8.97,0.92 h 8.97 v 3.45 3.45 l -8.83,0.09 c -8.83,0.14 -8.88,0.14 -9.02,1.2 l -0.14,1.01 h 8.97 9.02 v 3.45 3.45 h -9.02 -8.97 l 0.14,1.06 c 0.14,1.01 0.18,1.01 9.02,1.15 l 8.83,0.09 v 3.45 3.45 h -8.97 c -8.56,0 -8.97,0.05 -8.97,0.87 0,0.74 0.46,0.92 2.9,1.2 1.56,0.14 5.57,0.23 8.83,0.14 l 5.98,-0.14 0.14,3.59 0.14,3.54 h -9.02 c -8.65,0 -8.97,0.05 -8.97,0.92 0,0.87 0.32,0.92 8.97,0.92 h 8.97 v 3.68 3.68 h -8.97 c -8.65,0 -8.97,0.05 -8.97,0.92 0,0.87 0.32,0.92 8.97,0.92 h 8.97 v 3.45 3.45 h -8.97 -8.97 v 1.15 1.15 l 11.82,-0.09 11.82,-0.14 0.05,-28.16 z m -11.82,-36.81 0.14,-1.52 h -5.98 -6.03 v 1.61 1.66 l 5.89,-0.14 5.84,-0.14 z"
       id="path8-1-2-2"
       sodipodi:nodetypes="cccccccccccccccccccccccssccccccccccccccccccccccccccsccccccccccccccccccccssscccccccccccccccccsscccccssscccssscccccccccccccccccccc" /><path
       d="m 295.99,423.01 c -0.05,-0.37 -0.05,-1.1 -0.05,-1.61 0,-2.99 -0.6,-2.76 6.99,-2.76 h 6.9 v 2.53 2.53 h -6.9 c -5.8,0 -6.9,-0.09 -6.95,-0.69 z"
       id="path759-1-3-7" /><path
       d="m 295.67,411.51 0.05,-2.07 9.02,-0.09 9.02,-0.14 0.14,-2.39 0.14,-2.44 h -8.93 -8.97 L 295.96,403 c -0.14,-0.74 -0.09,-1.56 0.09,-1.79 0.14,-0.28 3.96,-0.51 8.97,-0.6 l 8.74,-0.14 v -2.53 -2.53 l -8.93,-0.09 -8.97,-0.09 0.05,-1.38 c 0.05,-0.78 0.09,-1.61 0.09,-1.89 0.05,-0.28 3.36,-0.46 9.02,-0.46 h 8.97 v -2.53 -2.53 h -9.2 -9.2 v -2.07 -2.07 h 9.2 9.2 v -2.53 -2.53 l -9.06,-0.09 -9.11,-0.14 -0.05,-1.93 -0.05,-1.98 h 9.11 9.16 v -2.53 -2.53 h -8.97 c -9.8,0 -9.06,0.18 -9.06,-2.53 0,-0.37 0,-0.87 0.05,-1.15 0.05,-0.28 3.4,-0.46 9.06,-0.46 h 8.97 l -0.14,-2.39 -0.14,-2.44 -9.02,-0.14 -9.06,-0.09 0.05,-1.84 0.05,-1.84 8.28,-0.05 c 4.6,0 9.57,-0.09 11.09,-0.18 1.52,-0.09 3.63,-0.05 4.74,0.09 l 1.93,0.28 v 29.12 29.17 H 308.71 295.6 l 0.09,-2.07 z"
       id="path762-1-3-7"
       style="fill:#313231;fill-opacity:1" /><path
       d="m 295.81,347.7 c 0.09,-1.33 0.18,-2.53 0.18,-2.67 0.05,-0.14 3.17,-0.28 6.95,-0.32 l 6.9,-0.09 v 2.71 2.76 h -7.09 -7.09 l 0.14,-2.39 z"
       id="path767-5-4-9" /><rect
       style="fill:#313231;fill-opacity:1;stroke-width:0.5;stroke-opacity:0.948718"
       id="rect8-7-1-3"
       width="4.75"
       height="16.75"
       x="340.78998"
       y="343.62" /><rect
       style="fill:#313231;fill-opacity:1;stroke-width:0.5;stroke-opacity:0.948718"
       id="rect8-6-6-1-1"
       width="4.75"
       height="16.75"
       x="341.53998"
       y="407.495" /><rect
       style="fill:#f9f9f9;fill-opacity:1;stroke:#000000;stroke-width:2.83113;stroke-dasharray:none;stroke-opacity:1"
       id="rect9-1-3-9"
       width="14.315524"
       height="16.790398"
       x="351.94144"
       y="340.39517" /><rect
       style="fill:#f9f9f9;fill-opacity:1;stroke:#000000;stroke-width:2.83113;stroke-dasharray:none;stroke-opacity:1"
       id="rect9-8-4-8-8"
       width="14.315524"
       height="16.790398"
       x="352.19299"
       y="410.88748"
       inkscape:transform-center-y="-26.251339" /></g><g
     id="g2-8"
     transform="translate(-167.6385,-3.4350296)"><path
       d="m 309.73,442.41 -36.48,-0.09 V 383.66 325 h 51.53 51.53 v 58.84 58.84 l -15.04,-0.05 c -8.33,-0.05 -31.51,-0.14 -51.53,-0.23 z m 60.04,-24.11 0.09,-17.39 h -4.83 -4.83 v 3.22 3.50146 l -5.61,-0.004 -5.66,-0.0478 -0.14,10.72 -0.09,10.67 H 338.35 328 v -5.06 c 0,-2.76 -0.14,-5.06 -0.32,-5.06 -0.23,0 -3.04,-0.05 -6.35,-0.09 l -5.98,-0.05 -0.14,5.11 -0.14,5.15 h -12.61 -12.65 v -45.09 -45.09 h 12.65 12.65 v 5.06 5.06 h 6.44 6.44 v -5.06 -5.06 h 10.35 10.35 v 10.58 10.58 h 5.75 6.03594 l -0.0241,3.59 -0.0319,3.54 4.74,-0.0158 4.69,-0.047 v -17.04717 c 0,-9.57 -0.18,-17.67 -0.37,-17.99 -0.32,-0.46 -9.57,-0.55 -44.76,-0.46 l -44.35,0.14 -0.14,52.13 -0.09,52.08 44.72,-0.09 44.76,-0.14 0.14,-17.34 z m -61.19,2.53 0.14,-1.52 h -5.98 -6.03 v 1.61 1.66 l 5.89,-0.14 5.84,-0.14 z m 11.82,-36.81 v -28.2 h -11.82 c -11.55,0 -11.87,0.05 -11.87,0.92 0,0.87 0.32,0.92 8.97,0.92 h 8.97 v 3.45 3.45 l -8.83,0.09 c -8.83,0.14 -8.88,0.14 -9.02,1.2 l -0.14,1.01 h 8.97 9.02 v 3.45 3.45 h -9.02 -8.97 l 0.14,1.06 c 0.14,1.01 0.18,1.01 9.02,1.15 l 8.83,0.09 v 3.45 3.45 h -8.97 c -8.56,0 -8.97,0.05 -8.97,0.87 0,0.74 0.46,0.92 2.9,1.2 1.56,0.14 5.57,0.23 8.83,0.14 l 5.98,-0.14 0.14,3.59 0.14,3.54 h -9.02 c -8.65,0 -8.97,0.05 -8.97,0.92 0,0.87 0.32,0.92 8.97,0.92 h 8.97 v 3.68 3.68 h -8.97 c -8.65,0 -8.97,0.05 -8.97,0.92 0,0.87 0.32,0.92 8.97,0.92 h 8.97 v 3.45 3.45 h -8.97 -8.97 v 1.15 1.15 l 11.82,-0.09 11.82,-0.14 0.05,-28.16 z m -11.82,-36.81 0.14,-1.52 h -5.98 -6.03 v 1.61 1.66 l 5.89,-0.14 5.84,-0.14 z"
       id="path8-1-5"
       sodipodi:nodetypes="cccccccccccccccccccccccssccccccccccccccccccccccccccsccccccccccccccccccccssscccccccccccccccccsscccccssscccssscccccccccccccccccccc" /><path
       d="m 295.99,423.01 c -0.05,-0.37 -0.05,-1.1 -0.05,-1.61 0,-2.99 -0.6,-2.76 6.99,-2.76 h 6.9 v 2.53 2.53 h -6.9 c -5.8,0 -6.9,-0.09 -6.95,-0.69 z"
       id="path759-1-7" /><path
       d="m 295.67,411.51 0.05,-2.07 9.02,-0.09 9.02,-0.14 0.14,-2.39 0.14,-2.44 h -8.93 -8.97 L 295.96,403 c -0.14,-0.74 -0.09,-1.56 0.09,-1.79 0.14,-0.28 3.96,-0.51 8.97,-0.6 l 8.74,-0.14 v -2.53 -2.53 l -8.93,-0.09 -8.97,-0.09 0.05,-1.38 c 0.05,-0.78 0.09,-1.61 0.09,-1.89 0.05,-0.28 3.36,-0.46 9.02,-0.46 h 8.97 v -2.53 -2.53 h -9.2 -9.2 v -2.07 -2.07 h 9.2 9.2 v -2.53 -2.53 l -9.06,-0.09 -9.11,-0.14 -0.05,-1.93 -0.05,-1.98 h 9.11 9.16 v -2.53 -2.53 h -8.97 c -9.8,0 -9.06,0.18 -9.06,-2.53 0,-0.37 0,-0.87 0.05,-1.15 0.05,-0.28 3.4,-0.46 9.06,-0.46 h 8.97 l -0.14,-2.39 -0.14,-2.44 -9.02,-0.14 -9.06,-0.09 0.05,-1.84 0.05,-1.84 8.28,-0.05 c 4.6,0 9.57,-0.09 11.09,-0.18 1.52,-0.09 3.63,-0.05 4.74,0.09 l 1.93,0.28 v 29.12 29.17 H 308.71 295.6 l 0.09,-2.07 z"
       id="path762-1-6"
       style="fill:#313231;fill-opacity:1" /><path
       d="m 295.81,347.7 c 0.09,-1.33 0.18,-2.53 0.18,-2.67 0.05,-0.14 3.17,-0.28 6.95,-0.32 l 6.9,-0.09 v 2.71 2.76 h -7.09 -7.09 l 0.14,-2.39 z"
       id="path767-5-1" /><rect
       style="fill:#313231;fill-opacity:1;stroke-width:0.5;stroke-opacity:0.948718"
       id="rect8-7-8"
       width="4.75"
       height="16.75"
       x="340.78998"
       y="343.62" /><rect
       style="fill:#313231;fill-opacity:1;stroke-width:0.5;stroke-opacity:0.948718"
       id="rect8-6-6-9"
       width="4.75"
       height="16.75"
       x="341.53998"
       y="407.495" /><rect
       style="fill:#f9f9f9;fill-opacity:1;stroke:#000000;stroke-width:2.83113;stroke-dasharray:none;stroke-opacity:1"
       id="rect9-1-2"
       width="14.315524"
       height="16.790398"
       x="351.94144"
       y="340.39517" /><rect
       style="fill:#f9f9f9;fill-opacity:1;stroke:#000000;stroke-width:2.83113;stroke-dasharray:none;stroke-opacity:1"
       id="rect9-8-4-7"
       width="14.315524"
       height="16.790398"
       x="352.19299"
       y="410.88748"
       inkscape:transform-center-y="-26.251339" /></g><rect
     style="fill:none;fill-opacity:1;stroke:#6e6607;stroke-width:1.78253;stroke-dasharray:none;stroke-opacity:1"
     id="rect8"
     width="23.317472"
     height="63.817471"
     x="187.66159"
     y="100.72121"
     ry="8.770668" /></svg>
