<svg xmlns="http://www.w3.org/2000/svg" xmlns:xlink="http://www.w3.org/1999/xlink" viewBox="0 0 60 513"><style>.B{fill:#ff7f2a}.C{fill:#f95}.D{fill:#b3b3b3}.E{fill:#999}.F{fill:#1a1a1a}.G{fill:#f2f2f2}</style><path fill="#c87137" d="M8.8 0h35.5v25.7H8.8z"/><path d="M.1 492.1h48.2V513H0z" class="D"/><path fill="#666" d="M54.4 493.3H60v3.8h-5.6zm-54.3 0h48.2v7.4H0z"/><path fill="#ccc" d="M.1 505.9h48.2v7H0zm0-473.5h48v127H0z"/><path d="M48 40.4h12v119.9H48z" class="D"/><path fill="#666" d="M48.2 34H60v6.4H48.2z"/><path fill="#ccc" d="M1.9 160.2h58.2V493H1.9z"/><path fill="#666" d="M0 158.6h3.4v334.8H0z"/><path d="M3.6 178.8h6V492h-6z" class="D"/><path d="M14 144.5h32v3.6H14z" class="E"/><path d="M13.6 164.6H60v9.4H13.6z" class="F"/><path d="M3.6 175.8H59v8H3.6z" class="D"/><path d="M14 147.5h2.6v15.4H14z" class="E"/><path d="M55.3 167.3H60v6.9h-4.6z" class="D"/><path d="M5 42.9h36.3v100.6H5z" class="F"/><path d="M41 36.2h1.7v7.1H41z"/><path d="M47.1 115.9H60v6.4H47zm0-14.3H60v6.5H47zm0-14h12.8v6.5H47zm0-14.3H60v6.4H47zM47 59.1h12.9v6.4h-13zm0 70.9h12.8v6.4H47zm0 14.3h13v6.4H47z" class="F"/><path fill="#a05a2c" d="M9.7 5.5H43v9.7H9.7zm0 13.4h33.5v7.3H9.8z"/><path fill="#d38d5f" d="M9.6.8h33.5v1.4H9.6z"/><path fill="#c87137" d="M9 12.7h33.5v3.6H9.1z"/><path d="M.2 25.6h48.6v7H.2z" class="D"/><path fill="#784421" d="M24 25.5h13.3v5.8H23.9z"/><g fill="#020201"><path d="M48 503.2v-9.7h-5.3l-.1 6.3-.1 6.2q-.2.3-8 .4l-6.3.1v3.9l-2.5-.1v-3.8h-4c-4.8-.2-4.7-.1-4.7-2.4v-1.4h-.6l-.6.1c0 1.8-.2 3.9-.3 4l-.8.1h-.5l-.1-2.1-.1-6.8v-4.5H8c-5.5 0-5.9 0-6.2-.4l-.5-.3v-318l.4-.5c.5-.4.5-.4 2.4-.4h2V162H1.2v-1.8H0v-2h12V145H3.9V93.8L4 44.4v-2.6l.7-.7c.4-.3 6.2-5.8 6.8-5.8s-1.2 4.3-3.6 5.6c-.3.2-.1.8-.3 1l-.7.3 17.5-.2h18v-5.7h-15l-15 .2-.4.2q-.3 0-.3.2c0 .4-1 1.1-1.5 1.1q-.7.1-.6-.5c0-.6 1-1.7 1.4-1.7q.2 0 .4-.3v-.3h32.3l.5.1V89l.1 53.6h1.5c1.7.1 2 .2 2 1l.1.4h12.1v1.5l-2 .1-5.2.1h-2.9v2.9H60v2H48v-.5l-.2-2.1V158h6.1l6 .1v1.8l-1.3.1-6 .1h-4.7v2.9c-.2 2.6-.8 7.2-1 7.5l-1 .2H45v-.6l.6-5c.1-.3-.7-.4-15.8-.4H14v8.9h40v-2.9l.1-3.7.2-.9H60v.8l-.1 1h-2l-1.7.2v5.6H58l2 .2v319.5h-2.2l-.4 1.3-.5 1.6 1.6.1H60v2h-2.6q-2.7 0-2.8-.3-.3-.2-.2-2.2l-.1-2.3c-.2-.4-4-.4-4.1 0l-.1 9.7v9.3h-2zm-8.4-4.3v-5.4H19v10.6c0 .2 2.2.3 10.4.2h10.2zM17 496.7v-3H16v5.8q0 .3.6.3h.5zm41.6-162.8-.1-157.7c-.2-.2-4.7-.3-27.5-.2H3.7v157.7l-.1 157.7h55zM11.1 163v-2.9H8.5v5.8h2.6zm34.7-9.4v-9l-13.7-.1H16.2l-2.2.1v18h31.9zM12.2 143l.2-.4h28.8V43H5.8v100.2h6z"/><path fill="#88958e" d="M9.3 481.5c-.9-1.7-1-3-1-5.7.1-2 .2-2.6.6-4l.6-1.6v-20.6L9 448a15 15 0 0 1 0-10.3l.5-1.3v-20.7l-.5-1.5A15 15 0 0 1 9 404l.5-1.2v-20.6l-.4-1.2q-2-5.4 0-10.6l.4-1.3v-20.3l-.5-1.6A15 15 0 0 1 9 337l.5-1.1v-20.9l-.5-1.4q-1.8-5.3 0-10.2l.5-1.1v-20.9l-.4-1.3a15 15 0 0 1 0-10.4l.4-1.1V247l-.5-1.5q-1.6-4.8-.1-9.4l.6-1.9v-20.8L9 212c-1.2-3.6-1.1-6.5.4-10.7l.3-1h1.6v.8q0 .9-.3 1.9a9 9 0 0 0-.3 7.4l.6 1.5v23.4l-.6 1.8c-.5 1.6-.6 2-.6 3.6s0 2 .6 3.5l.7 1.9v11.7c0 10.1 0 11.9-.3 12.4-.9 2.4-1 2.8-1 4.6 0 1.6 0 1.9.6 3.6l.7 1.8v23l-.7 1.6a8 8 0 0 0-.6 3.6c0 1.7 0 2 .6 3.4l.6 1.6v23.3l-.6 1.8c-.6 1.7-.6 2-.6 3.7s0 2 .6 3.4l.6 1.5v23.3l-.4 1.2a10 10 0 0 0-.2 7.7l.7 1.8v22.6l-.7 1.8c-.6 1.7-.6 2-.6 3.8s0 2 .6 3.6l.7 1.7v22.8l-.7 1.8c-.6 1.7-.6 2-.6 3.7s0 2 .6 3.7l.7 1.8v22.7l-.6 1.4c-.6 1.6-1 4-.9 4.9q.3 2.6.8 3.6l.3 1.2q.2.6-.6.5c-.5 0-.6 0-1.2-1.2z"/><path d="M42 155v-5.2h1.5v5.1l-.1 5-.7.1h-.8zm6-21.7v-3.4c0-.1 2.7-.2 6-.2h6v1.7H49.9l-.2 1.4v1.5q.1.2 5 .2h5q.3.2.3 1v1H48zm0-14.2v-3.5h12v1.7H49.8v3.4H60v1.9H48zm0-14.3v-3.4h12v.7q0 .7-.3.8h-5l-4.9.1v3.5H60v1.7H48zm0-14v-3.4h12V89l-5.1.2h-5.1v3.1h2.8l5 .1 2.4.1V94l-2.1.1-6 .2H48zm0-14.3v-3.2h12v.7q0 .7-.3.7l-4.2.1-4.8.1-1 .1v3.1H60v1.7H48zm0-14V59h3.6c3.5 0 3.5 0 3.6-.4 0-.4.1-.4 2.4-.4H60v1.9h-1.5c-1.4 0-1.6 0-1.6.3s0 .4-3.5.4h-3.6V64H60v1.7H48zM48 37v-4.5H24l-.5-.1v-6.6h-1.8c-2.3 0-2.4 0-2.4.8v.7h-7.6c-7.4 0-7.6 0-7.6-.4-.1-.3-.3-.3-2.1-.3H0v-2H4l3.9-.1V0h2v25.3h3.7l3.7.1V25c0-1 0-1 4.2-1h4v3.3l.2 3.2h10.9v-4.5c.2-.3.5-.3 2.2-.3h2V25q-.2-1 1.3-.8h.8V0h1.9v8.6c0 8.2 0 15.1.2 15.6q0 .2 2.7.2t2.8.2q.3 0 .2 4.3v4.2H60v.9q.1 1.2-.5 1l-5 .1h-4.6v4.6H60v1.9H48zm.6-8.6v-2.1h-6v1.1l-4.2.1v2.8c0 .2 1 .2 5.1.2h5zM13 16q-.4 0-.5-.7c-.1-.7 0-9.8.2-10h26.9l.7.2v5.2l.1 5.2H27.8l-13.6.1zm26-1.7V6.9H14v7.5c0 .2 2.5.2 12.4.2 11.6 0 12.3 0 12.4-.2"/></g><use class="G" href="#B"/><path d="M4.3 144.6h9.6v7.3H4.3z" class="F"/><path d="M15.1 82h5.1v5.1h-5z" class="G"/><path fill="#705b38" d="m55.4 149-1.3-.1v-.5q0-.5-.3-.6c-.4 0-.4-1 0-1l.3-.8v-.7h2c2 0 2 0 2 .3q.1.3-.5.3h-.5v2.6h1q.9 0 .9.2c0 .5-.8.5-3.6.3zm-.1-14.1H54v-.7q0-.6-.2-.6t-.3-.5.3-.5.2-.8v-.7h3.1v3.2h1.2q1.4 0 1.2.3c0 .4-.1.4-1.5.4zm2.8-3.6q0-.3 1.2-.4.4 0 .4.3 0 .4-.8.4t-.8-.2m-4-10.4v-.8q0-.6-.3-.6t-.3-.6q0-.7.3-.6t.2-.6q0-.5.2-.7l2.8-.2c2.6-.1 2.7-.1 2.7.3 0 .3-.1.3-1.3.3H57v3.6h-1.4zm1.3-14-1.3-.1v-.7q0-.8-.3-.8t-.3-.5.4-.7.3-.7v-.7h1.4l1.5-.1v3.8h1.3q1.5 0 1.3.3c0 .3-.1.3-1.5.3zm-1.2-14.3-.2-.8q0-.6-.2-.6c-.4 0-.4-1 0-1q.4-.2.3-.6c-.1-.9 0-1 1.6-1H57v4.1h-2.9zm0-14.6q0-1-.4-1c-.4 0-.3-1 0-1q.4 0 .3-.7v-.7h1.5l1.5-.1v4h-1.4c-1.5 0-1.5-.1-1.5-.5m4.1-3.2c0-.3.6-.5 1-.4q.9.4-.3.6-.7 0-.7-.2m-3-10.3H54v-.8q0-.6-.2-.7-.3-.2-.3-.5 0-.5.3-.5t.2-.7v-.8h1.2q1.3 0 1.3-.3 0-.4.4-.4.3-.1.1 1.2v2l.2 1h1.1q1.4 0 1.2.2c0 .4 0 .4-1.5.4z"/><g fill="#9c8761"><path d="M56.6 147.2v-1.8h.8l1.5-.2h.8l-.1.6-.1 1.8v1.4h-2.9zm1.2-12.3h-1.2V131h2.9v1.4l.1 2q.1.5-.2.5zm-4.3-1.9.2-.4q.6 0 .4.5-.5.7-.6 0"/><use href="#C"/><path d="M56.6 104.7v-2h3v4.2h-3z"/><use y="-28.3" href="#C"/><path d="M56.6 76.5v-2h3.1l-.1.5-.1 2v1.4h-2.9zm0-14.4v-2.3h2.9v4.6h-2.9z"/></g><g fill="#b7ae83"><path d="M59 147.2c0-1.6.1-1.9.4-2 .2 0 .3.2.3 1.9 0 1.8 0 1.9-.4 1.9-.3 0-.3-.1-.3-1.9m0-14.2c0-1.8 0-2 .3-2s.4.2.4 2 0 1.8-.4 1.8-.3 0-.3-1.8"/><use href="#D"/><path d="M59 106.7v-2.1c0-1.6.1-2 .4-2 .2 0 .3.2.3 2.1 0 1.8 0 2.2-.3 2.2z"/><use y="-28.3" href="#D"/><path d="M59 76.5v-2h.5q.5 0 .5.3 0 .4-.2.4t-.1 1.6c0 1.5 0 1.6-.4 1.6-.3 0-.3 0-.3-1.9m0-14.4c0-2.1 0-2.3.3-2.3s.4.2.4 2.3 0 2.3-.4 2.3-.3 0-.3-2.3"/></g><path d="M23.3 42.7H5.7l3-3 3.2-3.2c.3-.1 4.3-.2 14.9-.2h14.4v6.5z" class="E"/><g fill="#bebba3"><use href="#E"/><use y="-14.2" href="#E"/><use href="#F"/><path d="M59.2 104.7v-2h.8v4.2h-.9z"/><use y="-28.3" href="#F"/><use y="-70.6" href="#E"/><path d="M59.2 62.1v-2.3h.8v4.6h-.9z"/></g><path fill-opacity="0" d="M13 144.2h33.2v3.4H12.9z"/><g class="G"><path d="M15 100h5v5h-5zm0 9h5v5h-5z"/><g stroke="#000"><use y="44.8" href="#B"/><use y="26.8" href="#B"/><use y="35.5" href="#B"/><use y="18.1" href="#B"/><use y="8.8" href="#B"/></g></g><g class="E"><circle cx="20.8" cy="477.4" r="9.1"/><circle cx="42.7" cy="477.6" r="9.1"/><circle cx="43.4" cy="443.6" r="9.1"/><circle cx="20" cy="443.4" r="9.1"/><circle cx="43.4" cy="409.6" r="9.1"/><circle cx="19.8" cy="410.3" r="9.1"/><circle cx="19.7" cy="376.5" r="9.1"/><circle cx="43.2" cy="377.2" r="9.1"/><circle cx="43" cy="342.9" r="9.1"/><circle cx="19.9" cy="343.3" r="9.1"/><circle cx="20.1" cy="309.6" r="9.1"/><circle cx="43.1" cy="309.4" r="9.1"/><circle cx="20.2" cy="275.9" r="9.1"/><circle cx="43.4" cy="275.9" r="9.1"/><circle cx="43.1" cy="241.8" r="9.1"/><circle cx="19.6" cy="240.8" r="9.1"/><circle cx="19.7" cy="207.5" r="9.1"/><circle cx="42.4" cy="207.4" r="9.1"/></g><g stroke="#000" class="G"><use y="-.1" href="#B"/><use y="-9.1" href="#B"/><path d="M15 73h5v5h-5z"/><use y="-27.1" href="#B"/><path d="M14.9 54.8h5v5h-5z"/><use x="12.9" y="44.8" href="#B"/><use x="12.8" y="26.8" href="#B"/><use x="12.9" y="35.4" href="#B"/><use x="12.8" y="18" href="#B"/><use x="12.8" y="8.8" href="#B"/><path d="M27.8 90.9h5v5h-5z"/><use x="12.8" y="-9.1" href="#B"/><use x="12.9" y="-18.1" href="#B"/><use x="12.9" y="-27.2" href="#B"/><use x="12.8" y="-36.3" href="#B"/></g><path d="M11.6 185.8H28v10.6H11.6z" class="B"/><use class="C" href="#G"/><circle cx="19.7" cy="190.9" r="2.2"/><path d="M17.5 216.9a10 10 0 0 1-7.4-6.5c-.5-1.4-.5-4.5-.1-5.8a10 10 0 0 1 4.2-5.6q2.4-1.1-1.2-1H11v-13.2h17.8V198h-2c-1.2 0-2.2.1-2.2.2l.8.5c2 1 3.7 3.2 4.4 5.4.5 1.6.5 4.6 0 6.2a9 9 0 0 1-6.5 6.4c-1.5.4-4 .5-5.7.2m4.8-2c3.7-1.2 6.5-5.3 5.9-8.6a9 9 0 0 0-4.3-5.9 9 9 0 0 0-8.6.4 9 9 0 0 0-3.6 5.8c-.4 3.4 2 6.9 5.5 8.2q2.5 1 5.1.1zm.5-17.5v-.5h-6.1v1h6.1zm-9-1.5q-.1-.6 1.4-.7l5.7.1 4.8.1v.5q-.2.6.7.5h.7v-9.8h-7.3l-7.2-.1v9.9h.6q.8.1.6-.5"/><path d="M11.7 219.6h16.2v10.6H11.7z" class="B"/><use y="33.8" class="C" href="#G"/><circle cx="19.7" cy="224.6" r="2.2"/><use href="#H"/><path d="M12.4 254h16.3v10.6H12.4z" class="B"/><use x=".8" y="68.1" class="C" href="#G"/><circle cx="20.5" cy="259" r="2.2"/><use y="34.4" href="#H"/><path d="M11.7 287.7h16.2v10.6H11.7z" class="B"/><use y="101.9" class="C" href="#G"/><circle cx="19.8" cy="292.8" r="2.2"/><use y="68.1" href="#H"/><path d="M11.7 321.2h16.2v10.6H11.7z" class="B"/><use y="135.4" class="C" href="#G"/><circle cx="19.8" cy="326.3" r="2.2"/><use y="101.6" href="#H"/><path d="M11.7 355h16.2v10.6H11.7z" class="B"/><use y="169.1" class="C" href="#G"/><circle cx="19.8" cy="360" r="2.2"/><use y="135.4" href="#H"/><path d="M11.7 388.2h16.2v10.6H11.7z" class="B"/><use y="202.3" class="C" href="#G"/><circle cx="19.7" cy="393.2" r="2.2"/><use y="168.6" href="#H"/><path d="M12.1 422h16.3v10.6H12z" class="B"/><path d="M19.4 422.7H21v8.7h-1.6z" class="C"/><circle cx="20.2" cy="427" r="2.2"/><use y="202.4" href="#H"/><path d="M11.7 456h16.2v10.5H11.7z" class="B"/><use y="270.1" class="C" href="#G"/><circle cx="19.7" cy="461" r="2.2"/><use y="236.3" href="#H"/><path d="M34.8 185.7h16.3v10.6H34.8z" class="B"/><use x="23.2" y="-.1" class="C" href="#G"/><circle cx="42.9" cy="190.8" r="2.2"/><use x="23.2" y="-33.9" href="#H"/><path d="M34.8 219.5h16.3V230H34.8z" class="B"/><use x="23.2" y="33.6" class="C" href="#G"/><circle cx="42.9" cy="224.5" r="2.2"/><use x="23.2" y="-.1" href="#H"/><path d="M35.6 253.8h16.2v10.7H35.6z" class="B"/><use x="24" y="68" class="C" href="#G"/><circle cx="43.7" cy="258.9" r="2.2"/><use x="23.2" y="34.3" href="#H"/><path d="M34.8 287.6h16.3v10.6H34.8z" class="B"/><use x="23.2" y="101.8" class="C" href="#G"/><circle cx="42.9" cy="292.6" r="2.2"/><path d="M40.7 318.7a10 10 0 0 1-7.4-6.6c-.4-1.3-.5-4.4-.1-5.7a10 10 0 0 1 4.2-5.7q2.4-1-1.1-.9H34v-13.3h9l8.8.1v13.1h-2l-2.1.3.8.5c1.9 1 3.6 3.2 4.3 5.4.5 1.5.5 4.6 0 6.1a9 9 0 0 1-6.5 6.5c-1.5.4-4 .5-5.7.2zm4.8-2c3.7-1.2 6.5-5.3 5.9-8.6a9 9 0 0 0-4.3-6 9 9 0 0 0-8.5.4 9 9 0 0 0-3.7 5.9c-.3 3.4 2 6.8 5.5 8.1q2.6 1 5.1.2zM46 299v-.5H40v1H46zm-9-1.5q0-.6 1.4-.6h5.7l4.8.2v.4q-.2.6.7.5h.7v-9.8H35.7v9.8h.6q.8.1.6-.5z"/><path d="M34.8 321.1h16.3v10.6H34.8z" class="B"/><use x="23.2" y="135.3" class="C" href="#G"/><circle cx="42.9" cy="326.1" r="2.2"/><use x="23.2" y="101.5" href="#H"/><path d="M34.8 354.9h16.3v10.6H34.8z" class="B"/><use x="23.2" y="169" class="C" href="#G"/><circle cx="42.9" cy="359.9" r="2.2"/><use x="23.2" y="135.3" href="#H"/><path d="M34.8 388h16.3v10.7H34.8z" class="B"/><use x="23.2" y="202.2" class="C" href="#G"/><circle cx="42.9" cy="393.1" r="2.2"/><use x="23.2" y="168.5" href="#H"/><path d="M35.3 421.9h16.2v10.6H35.3z" class="B"/><use x="23.6" y="236" class="C" href="#G"/><circle cx="43.4" cy="426.9" r="2.2"/><path d="M40.7 453a10 10 0 0 1-7.5-6.6c-.4-1.3-.4-4.4 0-5.7a10 10 0 0 1 4.2-5.7q2.4-1.1-1.2-1h-2.1L34 428v-7.1h18V434h-2.2q-1.8.1-2 .2c-.3.1.3.3.7.6 2 1 3.7 3.2 4.4 5.3.5 1.6.5 4.6 0 6.2a9 9 0 0 1-6.5 6.5c-1.5.4-4.1.4-5.7.1zm4.8-2c3.7-1.2 6.5-5.3 5.9-8.7a9 9 0 0 0-4.3-5.9 9 9 0 0 0-8.6.4 9 9 0 0 0-3.6 5.8c-.4 3.4 2 6.9 5.5 8.2q2.6 1 5.1.1zm.5-17.6v-.5H40v1H46zm-9-1.5q-.1-.7 1.4-.6H44l5 .1v.5q-.2.6.6.5h.7v-9.8H35.7v9.8h.6q.8.1.6-.5z"/><path d="M34.8 455.8h16.3v10.6H34.8z" class="B"/><use x="23.2" y="270" class="C" href="#G"/><circle cx="42.9" cy="460.9" r="2.2"/><path d="M40.7 486.9a10 10 0 0 1-7.5-6.6c-.4-1.3-.4-4.4 0-5.7a10 10 0 0 1 4.2-5.6q2.4-1.1-1.2-1h-2.1l-.1-6.2v-7.1h9l9 .1V468l-2.2.1q-1.8 0-2 .2c-.3.2.3.3.7.5 2 1 3.7 3.2 4.4 5.4.5 1.6.5 4.6 0 6.1a9 9 0 0 1-6.5 6.5c-1.5.4-4.1.5-5.7.2zm4.8-2c3.7-1.2 6.5-5.3 5.9-8.6a9 9 0 0 0-4.3-6 9 9 0 0 0-8.6.5 9 9 0 0 0-3.6 5.8c-.4 3.4 2 6.8 5.5 8.1q2.6 1 5.1.2zm.5-17.6v-.5H40v1H46zm-9-1.4q-.1-.6 1.4-.7H44l5 .2v.5q-.2.5.6.5h.7v-9.8l-7.3-.1h-7.2v9.9h.6q.8 0 .6-.5z"/><path d="M4.8 145h7.4v4.7H4.8z" class="E"/><path d="M14.2 492.9h4.5v14h-4.5zM37.7 6.5h2V15h-2z"/><path d="M5.7 42.2h35.5V52H5.7z" class="E"/><defs><path id="B" d="M15 91h5v5h-5z"/><path id="C" d="M56.6 119v-2h2.9v3.5l.2.5h-3.1z"/><path id="D" d="m59.1 120.9-.1-2c0-1.9 0-2 .3-2s.4.1.4 2c0 1.7 0 2.1-.3 2.1z"/><path id="E" d="M59.2 147.1v-1.9h.8v3.8h-.9z"/><path id="F" d="M59.2 119v-2h.8v4h-.9z"/><path id="G" d="M19 186.5h1.5v8.8H19z"/><path id="H" d="M17.5 250.7A10 10 0 0 1 10 244c-.4-1.3-.5-4.4-.1-5.7a10 10 0 0 1 4.3-5.7q2.2-1-1.2-.9h-2.2v-13.3h9l8.9.1v13.1h-2.1q-2 .1-2.1.2 0 .2.8.6c1.9 1 3.7 3.2 4.3 5.4.5 1.5.6 4.6 0 6.1a9 9 0 0 1-6.5 6.5c-1.5.4-4 .5-5.7.2m4.8-2c3.8-1.2 6.5-5.3 5.9-8.7a9 9 0 0 0-4.3-5.8 9 9 0 0 0-8.5.3 9 9 0 0 0-3.7 5.9c-.3 3.4 2 6.8 5.5 8.1q2.5 1 5.2.2zM23 231v-.5h-6.2v1H23zm-9-1.5q-.1-.6 1.3-.6H21l4.9.2v.4q-.1.6.6.5h.7v-9.8H12.5v9.8h.6q.8.1.6-.5"/></defs></svg>