<svg width="265px" height="839px" version="1.0" viewBox="0 0 265 839" xml:space="preserve" xmlns="http://www.w3.org/2000/svg"><g><rect x="107.88" y="22" width="97.75" height="49.75"/><rect x=".010934" y="84.998" width="264.97" height="720.09"/><rect x="115.12" y="14" width="95.982" height="71.125"/></g><rect x="105" y="326.24" width="103.5" height="349.76" fill="#ccc" stroke-opacity=".94872" stroke-width=".25494"/><rect x="145.5" y="87" width="106" height="235.5" fill="#1a1a1a" stroke-opacity=".94872" stroke-width=".5"/><g fill="#081003"><path d="m159.97 765.69c-0.18-0.14-0.32-0.78-0.32-1.38 0-0.74 0.28-1.06 0.92-1.06 0.51 0 0.92 0.23 0.92 0.46 0 0.32 7.82 0.46 22.54 0.46s22.54-0.14 22.54-0.46c0-0.23 0.28-0.46 0.64-0.46 0.83 0 1.24 1.61 0.6 2.25-0.55 0.55-47.3 0.74-47.85 0.18z"/><path d="m159.64 750.37c0-10.72 0.05-11.04 0.92-11.04s0.92 0.32 0.92 11.04-0.05 11.04-0.92 11.04-0.92-0.32-0.92-11.04z"/><path d="m185.73 755.11-3.13-0.18 0.28-10.76 12.24-0.28-0.28 11.32-2.99 0.05c-1.66 0-4.42-0.05-6.12-0.14zm7.41-5.52c0.14-3.45 0.05-3.82-0.69-3.82s-0.83 0.37-0.69 3.36c0.18 3.13 0.14 3.4-0.92 3.91-1.01 0.51-0.97 0.51 0.55 0.41l1.61-0.09 0.14-3.77zm-7.59 3.22c-0.32-0.09-0.6-0.55-0.6-0.97 0-0.64-0.09-0.69-0.41-0.09-0.55 0.83-0.23 1.38 0.78 1.33 0.51 0 0.55-0.14 0.23-0.28zm4.46-3.36c0-1.79-0.05-1.84-1.61-1.84s-1.61 0.05-1.61 1.84 0.05 1.84 1.61 1.84 1.61-0.05 1.61-1.84z"/><path d="m206.57 739.1c0-3.86 0.14-4.83 0.64-4.83 0.83 0 1.15 1.75 1.01 5.29-0.18 4.19-0.23 4.37-0.97 4.37-0.55 0-0.69-0.83-0.69-4.83z"/><path d="m159.64 728.06c0-9.57 0.05-9.89 0.92-9.89s0.92 0.32 0.92 9.89-0.05 9.89-0.92 9.89-0.92-0.32-0.92-9.89z"/><path d="m182.51 730.73c-0.41-0.37-0.41-9.02-0.05-9.98 0.23-0.64 1.24-0.74 6.44-0.74h6.16v5.52 5.52h-6.12c-3.4 0-6.3-0.14-6.44-0.32zm10.72-5.2c0-3.68-0.28-4.37-1.56-3.86-0.55 0.23-0.6 0.46-0.23 1.15 0.23 0.51 0.41 1.98 0.32 3.31l-0.14 2.39h-3.22c-2.99 0-3.17-0.05-3.5-1.15-0.32-1.06-0.32-1.06-0.37 0.32l-0.05 1.47 3.82 0.14c2.07 0.09 4.05 0.05 4.37-0.05 0.37-0.09 0.55-1.24 0.55-3.73zm-3.31-0.09c-0.14-1.33-0.32-1.52-1.61-1.66-1.47-0.14-1.52-0.09-1.52 1.47 0 1.61 0.05 1.66 1.66 1.66 1.56 0 1.61-0.05 1.47-1.47zm-4.88-3.31c-0.41-0.74-0.87 0.74-0.6 1.93l0.23 1.24 0.28-1.38c0.18-0.74 0.18-1.56 0.09-1.79z"/><path d="m206.57 712.42c0-1.52 0.18-2.07 0.69-2.07 0.64 0 0.83 0.41 0.83 2.07s-0.18 2.07-0.83 2.07c-0.51 0-0.69-0.55-0.69-2.07z"/><path d="m159.64 699.77c0-10.72 0.05-11.04 0.92-11.04s0.92 0.32 0.92 11.04-0.05 11.04-0.92 11.04-0.92-0.32-0.92-11.04z"/><path d="m182.65 701.61v-5.57l6.12 0.14 6.07 0.14v5.29 5.29l-6.07 0.14-6.12 0.14v-5.57zm10.58 0v-3.68h-1.24c-0.97 0-1.1 0.14-0.69 0.55 0.74 0.74 0.74 5.52 0 6.26-0.41 0.41-0.28 0.55 0.69 0.55h1.24v-3.68zm-3.31 0.14c0.14-1.47 0.09-1.52-1.47-1.52-1.52 0-1.66 0.14-1.66 1.29 0 1.66 0.37 2.02 1.84 1.84 0.92-0.09 1.2-0.41 1.29-1.61z"/><path d="m159.74 686.33c0.09-0.69 0.51-1.1 1.2-1.2 0.92-0.14 1.06 0 0.92 0.92-0.09 0.69-0.51 1.1-1.2 1.2-0.92 0.14-1.06 0-0.92-0.92z"/><path d="m168.85 685.96c0-0.74 0.32-0.92 1.61-0.92s1.61 0.18 1.61 0.92-0.32 0.92-1.61 0.92-1.61-0.18-1.61-0.92z"/><path d="m173.91 685.96c0-0.92 0.23-0.92 16.88-0.83 15.69 0.14 16.93 0.18 17.07 0.97 0.14 0.74-0.92 0.78-16.88 0.78-16.79 0-17.07 0-17.07-0.92z"/><path d="m20.93 153.43-1.15-1.1v-15.83c0-15.41 0.05-15.83 0.97-16.7 0.83-0.74 1.79-0.87 9.06-0.87 8.88-0.09 9.75 0 9.75 0.97 0 0.51-1.47 0.64-7.96 0.64-6.44 0-8.14 0.14-8.97 0.74-1.01 0.69-1.01 0.74-1.01 15.32 0 13.57 0.05 14.68 0.83 15.37 0.69 0.64 1.93 0.78 7.36 0.78 6.21 0 6.53 0.05 6.53 0.92s-0.32 0.92-7.13 0.92c-6.99 0-7.18-0.05-8.28-1.15z"/><path d="m168.85 137.33c0-2.62 0.14-3.45 0.64-3.45 0.78 0 1.1 1.38 0.92 3.91-0.05 1.01-0.14 2.12-0.14 2.44-0.05 0.28-0.37 0.55-0.74 0.55-0.55 0-0.69-0.69-0.69-3.45z"/><path d="m254.42 130.48c0-0.78 1.93-1.29 3.45-0.92 2.12 0.51 1.38 1.56-1.15 1.56-1.66 0-2.3-0.18-2.3-0.64z"/><path d="m168.85 125.97c0-3.77-0.37-4.97-1.43-4.97-0.55 0-0.87-0.32-0.87-0.92 0-1.24 1.89-1.24 3.04 0.05 0.64 0.74 0.87 1.75 0.97 3.91 0.09 3.5-0.23 4.78-1.06 4.78-0.46 0-0.64-0.74-0.64-2.85z"/><path d="m42.33 119.89c0-0.74 1.43-1.1 5.01-1.2 3.17-0.09 5.11 0.37 5.11 1.2 0 0.51-1.01 0.64-5.06 0.64s-5.06-0.14-5.06-0.64z"/><path d="m70.39 119.89c0-0.74 1.15-1.1 2.44-0.83 1.47 0.37 0.87 1.47-0.83 1.47-1.1 0-1.61-0.23-1.61-0.64z"/><path d="m78.67 119.89c0-0.78 1.7-1.24 3.13-0.87 1.89 0.46 1.2 1.52-1.06 1.52-1.47 0-2.07-0.18-2.07-0.64z"/><path d="m86.03 119.89c0-0.78 1.7-1.24 3.13-0.87 1.89 0.46 1.2 1.52-1.06 1.52-1.47 0-2.07-0.18-2.07-0.64z"/><path d="m92.01 119.89c0-0.97 1.24-1.1 13.43-1.15 11.78-0.09 13.71 0.09 13.71 1.15 0 0.55-2.3 0.64-13.57 0.64s-13.57-0.09-13.57-0.64z"/><path d="m121.92 119.85c0-0.97 2.07-1.15 10.35-0.97 9.06 0.18 8.51 0.14 8.51 0.97 0 0.6-1.33 0.69-9.43 0.69-7.96 0-9.43-0.09-9.43-0.69z"/><path d="m155.04 119.85c0-0.37 0.05-0.69 0.14-0.69 4.83-0.74 8.6-0.41 8.6 0.69 0 0.55-0.87 0.69-4.37 0.69-3.59 0-4.37-0.14-4.37-0.69z"/></g><g fill="#091e03"><path d="m159.87 764.54c-0.18-0.83-0.05-7.55 0.18-10.35 0.05-0.32 0.37-0.6 0.74-0.6 0.55 0 0.69 0.83 0.69 4.55 0 2.48 0.14 5.2 0.28 5.98 0.28 1.24 0.18 1.43-0.69 1.43-0.6 0-1.01-0.37-1.2-1.01z"/><path d="m181.04 760.54-5.98-0.28-0.14-2.39-0.14-2.44h-2.02-2.02l-0.14 2.44-0.14 2.39-3.4 0.14c-2.44 0.09-3.54-0.05-3.77-0.46-0.46-0.69-0.55-17.53-0.14-19.64l0.32-1.47 7 0.28 0.14 2.21 0.14 2.16h2.07 2.02v-1.79c0-3.5-1.2-3.27 16.15-3.27h15.6v2.58c0 2.48-0.14 2.76-2.07 4.83-1.66 1.79-2.07 2.53-2.07 3.86s0.41 2.07 2.07 3.86c1.89 2.02 2.07 2.39 2.07 4.6v2.35h-6.76c-3.77 0-8.14 0.09-9.8 0.18s-5.66 0-8.97-0.14zm12.56-11 0.14-4.28-9.48 0.28-0.28 8 3.13 0.18c1.7 0.09 3.86 0.14 4.74 0.14l1.61-0.05 0.14-4.28z"/><path d="m185.41 751.75c0-0.83 0.32-0.92 2.99-0.92s2.99 0.09 2.99 0.92-0.32 0.92-2.99 0.92-2.99-0.09-2.99-0.92z"/><path d="m185.41 747.15c0-0.83 0.32-0.92 2.99-0.92s2.99 0.09 2.99 0.92-0.32 0.92-2.99 0.92-2.99-0.09-2.99-0.92z"/><path d="m159.92 741.08c-0.64-2.48-0.09-5.89 0.92-5.89 0.51 0 0.64 0.83 0.64 3.45s-0.14 3.45-0.64 3.45c-0.32 0-0.74-0.46-0.92-1.01z"/><path d="m174.96 734.18-0.37-2.44h-1.84-1.84l-0.28 4.42-7.54-0.28v-10.35-10.35h3.68 3.68l0.14 2.21 0.14 2.16h2.02 2.02l0.14-2.39 0.14-2.44 15.78-0.14 15.73-0.09v2.76c0 2.39-0.14 2.81-1.15 3.5-1.61 1.06-2.99 3.45-2.99 5.2 0 1.1 0.46 1.93 2.07 3.45 1.98 1.93 2.07 2.16 2.07 4.6v2.58h-15.6-15.6l-0.41-2.39zm18.72-8.65v-4.14h-4.83c-2.67 0-4.83 0.14-4.88 0.37-0.28 3.17-0.37 7.18-0.14 7.5 0.14 0.23 2.39 0.41 5.06 0.41h4.78v-4.14z"/><path d="m185.41 723.23c0-0.87 0.23-0.97 2.85-0.83 2.3 0.09 2.9 0.28 3.04 0.97s-0.23 0.78-2.85 0.78c-2.76 0-3.04-0.09-3.04-0.92z"/><path d="m159.92 719.92c-0.37-1.38-0.37-9.48 0-10.81 0.18-0.6 0.6-1.06 0.92-1.06 0.51 0 0.64 1.24 0.64 6.44s-0.14 6.44-0.64 6.44c-0.32 0-0.74-0.46-0.92-1.01z"/><path d="m175.06 710.12-0.28-2.53h-2.02-2.02l-0.14 2.21-0.14 2.16h-3.68-3.68v-10.58-10.58h3.68 3.68l0.14 2.21 0.14 2.16h2.02 2.02l0.14-2.39 0.14-2.44 15.55-0.14 15.5-0.09v2.81c0 2.67-0.09 2.94-1.84 4.83-1.52 1.66-1.84 2.35-1.84 3.86 0 1.61 0.28 2.12 2.12 3.86 2.02 1.93 2.07 2.07 1.93 4.46l-0.14 2.48-15.46 0.14-15.5 0.09-0.32-2.53zm18.4-8.51v-3.91l-4.69-0.14-4.74-0.14v4.19 4.19l4.74-0.14 4.69-0.14v-3.91z"/><path d="m185.73 704.55c-0.18-0.18-0.32-0.6-0.32-0.97 0-0.41 0.83-0.6 3.04-0.6 2.62 0 2.99 0.09 2.85 0.83-0.09 0.6-0.69 0.83-2.67 0.92-1.43 0.09-2.71 0-2.9-0.18z"/><path d="m185.41 699.58c0-0.92 0.55-1.2 1.75-0.87 1.52 0.37 1.24 1.52-0.37 1.52-0.87 0-1.38-0.23-1.38-0.64z"/><path d="m159.92 696.78c-0.37-1.52 0.14-3.45 0.92-3.45 0.46 0 0.64 0.64 0.64 2.3 0 2.53-1.06 3.27-1.56 1.15z"/><path d="m38.65 153.2c0-0.78 0.32-0.92 1.84-0.92s1.84 0.14 1.84 0.92-0.32 0.92-1.84 0.92-1.84-0.14-1.84-0.92z"/></g><g fill="#1f4506"><path d="m160.43 765.23c-0.18-0.14-0.32-17.67-0.32-38.88 0-38.23 0-38.55 0.92-38.55s0.92 0.32 0.92 37.96v37.96h22.08 22.08v-1.38-1.38h-15.6-15.55l-0.32-1.43c-0.14-0.78-0.28-1.93-0.28-2.53 0-0.97-0.23-1.1-1.56-1.1h-1.61l-0.14 2.44-0.14 2.39h-3.91-3.91l-0.14-1.93c-0.09-1.47 0-1.98 0.51-1.98 0.37 0 0.83 0.51 0.97 1.2 0.28 1.06 0.46 1.15 2.48 1.01l2.16-0.14 0.14-2.39 0.14-2.44h3.4 3.4l0.14 2.44 0.14 2.39 6.21 0.23c3.4 0.14 9.89 0.18 14.4 0.09 7.91-0.14 8.14-0.18 8.14-1.1 0-0.55-0.92-1.98-2.07-3.17-2.02-2.16-2.07-2.3-2.07-5.24s0.05-3.08 2.07-5.24c1.38-1.47 2.07-2.62 2.07-3.45v-1.2h-14.26-14.26l-0.28 1.15c-0.51 2.02-1.56 1.38-1.56-0.92v-2.07h15.64c10.12 0 15.64-0.18 15.64-0.46s-5.52-0.46-15.6-0.46h-15.64l-0.14-2.39-0.14-2.44-3.4-0.28-0.28 4.42-3.96 0.14c-4.83 0.14-4.55 0.74-4.55-8.97 0-6.72 0.05-7.04 0.92-7.04 0.83 0 0.92 0.37 1.01 7.04l0.14 6.99 4.78 0.28 0.28-4.42h3.22 3.22l0.37 2.44 0.41 2.39h14.22 14.22v-1.2c0-0.78-0.69-1.84-2.07-3.22-2.02-1.93-2.07-2.07-2.07-4.83 0-3.13 0.97-5.24 2.99-6.58 0.78-0.51 1.15-1.2 1.15-2.12v-1.38h-14.31c-13.89 0-14.31 0.05-14.54 0.92-0.46 1.7-1.52 1.06-1.52-0.92v-1.84h15.64c9.98 0 15.64-0.18 15.64-0.46s-5.7-0.51-15.5-0.55l-15.55-0.14-0.23-2.3c-0.23-2.25-0.23-2.3-1.93-2.44l-1.7-0.14-0.28 4.42-3.86 0.14c-2.81 0.09-4-0.05-4.23-0.46-0.46-0.69-0.55-20.15-0.14-21.26 0.23-0.6 1.01-0.74 3.82-0.74 2.16 0 3.77 0.23 4.09 0.55s0.55 1.43 0.55 2.53c0 1.93 0.05 1.98 1.56 1.98h1.52l0.64-5.52h15.6 15.64v-1.15c0-0.83-0.23-1.15-0.92-1.15-0.64 0-0.92-0.32-0.92-0.97 0-0.78 0.23-0.92 1.75-0.78l1.7 0.14v39.8 39.8l-23.51 0.14c-12.93 0.05-23.65-0.05-23.79-0.23zm45.68-15.64-0.05-4.97-1.56 1.7c-2.12 2.3-2.16 4.28-0.18 6.58 0.78 0.87 1.52 1.61 1.61 1.61s0.18-2.21 0.18-4.92zm0-24.15v-4.69l-1.61 1.56c-2.16 2.12-2.25 4.37-0.18 6.39 0.78 0.78 1.47 1.43 1.61 1.43 0.09 0 0.18-2.12 0.18-4.69zm-1.01-15.46c0.14-0.83-0.41-1.66-1.93-3.13l-2.12-2.02v-3.22c0-3.13 0.05-3.31 1.84-5.24 1.33-1.43 1.84-2.39 1.84-3.45v-1.43l-14.12 0.09-14.17 0.14-0.14 2.39c-0.14 2.07-0.28 2.39-1.29 2.62-0.64 0.18-2.16 0.18-3.4 0l-2.25-0.28-0.14-2.16-0.14-2.12h-2.3-2.3v9.2 9.2h2.3 2.3l0.14-2.16 0.14-2.21h3.4 3.4l0.28 2.53 0.32 2.53 14.12-0.09 14.08-0.14 0.14-1.06zm1.01-8.7-0.05-4.97-1.56 1.7c-2.16 2.35-2.21 4.51-0.14 6.67 0.83 0.83 1.52 1.52 1.61 1.52s0.14-2.21 0.14-4.92z"/><path d="m185.41 701.61v-2.76h2.99 2.99v2.76 2.76h-2.99-2.99v-2.76zm4.14 0c0-0.69-0.32-0.92-1.15-0.92s-1.15 0.23-1.15 0.92 0.32 0.92 1.15 0.92 1.15-0.23 1.15-0.92z"/><path d="m162.4 749.22c0-4.97 0.05-5.29 0.92-5.29s0.92 0.32 0.92 5.29-0.05 5.29-0.92 5.29-0.92-0.32-0.92-5.29z"/><path d="m185.41 749.45c0-2.44 0.09-2.76 0.92-2.76s0.92 0.32 0.92 2.76-0.09 2.76-0.92 2.76-0.92-0.32-0.92-2.76z"/><path d="m189.55 749.45c0-2.44 0.09-2.76 0.92-2.76s0.92 0.32 0.92 2.76-0.09 2.76-0.92 2.76-0.92-0.32-0.92-2.76z"/><path d="m169.21 742.69-0.14-2.21-2.12-0.14c-2.12-0.14-2.16-0.14-2.44 1.52-0.18 0.97-0.6 1.61-0.97 1.61-0.51 0-0.69-0.64-0.69-2.53v-2.53h3.91 3.91v1.29c0 0.69 0.14 1.75 0.32 2.35 0.28 1.01 0.41 1.06 2.71 0.78 2.44-0.28 2.48-0.28 2.48 0.87 0 1.1-0.09 1.15-3.4 1.15h-3.45l-0.14-2.16z"/><path d="m185.41 725.53c0-2.44 0.09-2.76 0.92-2.76 0.78 0 0.92 0.32 0.92 1.84 0 1.66 0.14 1.84 1.15 1.84 1.06 0 1.15-0.18 1.15-1.84 0-1.52 0.14-1.84 0.92-1.84 0.83 0 0.92 0.32 0.92 2.76v2.76h-2.99-2.99v-2.76z"/><path d="m169.21 718.77-0.14-2.21h-2.3-2.3l-0.14 1.75c-0.14 1.33-0.32 1.7-1.06 1.7-0.83 0-0.92-0.28-0.78-2.62l0.14-2.67h4.14 4.14l0.14 2.21 0.14 2.16h2.53c2.16 0 2.48 0.09 2.48 0.92s-0.32 0.92-3.4 0.92h-3.45l-0.14-2.16z"/><path d="m183.11 686.42c0-0.87 0.32-0.92 5.29-0.92s5.29 0.05 5.29 0.92-0.32 0.92-5.29 0.92-5.29-0.05-5.29-0.92z"/><path d="m28.62 154.17c-6.26-0.28-6.67-0.32-7.5-1.38-0.83-1.01-0.87-1.98-0.87-16.38 0-14.17 0.05-15.32 0.83-16.01s6.44-0.78 68-0.78h73.24c5.47 0 6.16 0.09 6.99 0.92 0.87 0.87 0.92 1.52 0.92 16.1v15.23l-2.25 2.25h-64.46c-35.47 0-64.64 0.09-64.92 0.23-0.23 0.18 0.13409-0.49735-0.49203-0.36478-0.90046 0.19066-0.17007 0.54868-0.86007 0.54868s1.5201-1.2412 1.5201-0.41118c0 0.64-2.648 0.40728-2.968 0.36728-0.32-0.05-3.59-0.18-7.18-0.32zm13.25-7.18c0-0.74-0.23-1.7-0.46-2.07-0.32-0.51-0.46 0.14-0.46 2.07s0.14 2.58 0.46 2.07c0.23-0.37 0.46-1.29 0.46-2.07zm47.39-2.3v-4.83h2.44l-1.06-1.15c-0.92-0.97-1.15-1.79-1.29-4.46-0.14-2.07-0.37-2.99-0.6-2.62-0.55 0.92-0.51 17.9 0.05 17.9 0.28 0 0.46-1.93 0.46-4.83zm-48.86-4.09c-0.09-0.05-1.79 0.05-3.82 0.18-3.96 0.23-3.77 0.69 0.55 1.2 1.66 0.23 2.62 0.55 2.81 1.06 0.23 0.51 0.37 0.23 0.46-0.78 0.09-0.87 0.09-1.61 0-1.66zm55.99 0.6c-1.24-0.14-2.39-0.23-2.48-0.14-0.37 0.32 3.04 0.92 3.86 0.69 0.6-0.18 0.09-0.37-1.38-0.55zm-35.66 0.05c0.46-0.32-0.28-0.46-2.53-0.46s-2.99 0.14-2.53 0.46c0.37 0.23 1.52 0.46 2.53 0.46s2.16-0.23 2.53-0.46zm18.4 0c0.46-0.32-0.41-0.46-2.85-0.46-1.93 0-3.68 0.23-3.82 0.46-0.37 0.6 5.75 0.6 6.67 0zm41.41 0c0.46-0.32-0.23-0.46-2.3-0.41-2.07 0-2.71 0.14-2.07 0.41 1.24 0.55 3.54 0.55 4.37 0zm13.3-5.66c0-3.59-0.18-5.29-0.41-4.69-0.55 1.33-0.55 10.95 0 10.58 0.28-0.18 0.46-2.62 0.41-5.89zm15.55 0.83c-0.09-2.62-0.46-5.11-0.78-5.57-0.46-0.78-0.51-0.74-0.28 0.28 0.14 0.64 0.28 3.27 0.28 5.89 0 3.4 0.14 4.65 0.51 4.42s0.46-1.75 0.28-5.01zm10.67 4.88c0.41-0.28 0.09-0.46-1.1-0.6-1.47-0.18-1.61-0.14-0.87 0.41 0.97 0.69 1.1 0.74 1.98 0.18zm-33.17-4.78c-0.23-5.7-1.06-7.91-1.06-2.85 0 2.81-0.18 3.63-1.06 4.78l-1.06 1.43h1.2c0.74 0 1.15 0.28 1.15 0.69 0 0.37 0.23 0.69 0.51 0.69 0.37 0 0.46-1.38 0.32-4.74zm-44.99 0.74c0-0.55-0.18-1.15-0.46-1.29-0.28-0.18-0.46 0.51-0.46 1.7 0 1.43 0.14 1.79 0.46 1.29 0.23-0.37 0.46-1.15 0.46-1.7zm77.52-10.72c1.61 0 3.08-0.18 3.22-0.46 0.18-0.28-0.92-0.46-2.94-0.46h-3.22l-0.14-2.16c-0.09-1.29-0.32-2.12-0.6-1.98s-0.46 3.22-0.46 7.82c0 10.03 0.87 13.16 1.06 3.82l0.14-6.58zm-100.71 7.36c8.14 0 8.05 0.05 6.86-2.53l-0.6-1.38-0.05 1.52-0.05 1.47h-13.76l-0.14-1.47-0.14-1.52-0.6 1.7c-0.51 1.38-0.51 2.07 0 3.68l0.6 1.98 0.14-1.7 0.14-1.75h7.59zm-14.58-0.46c0-0.87-0.18-1.93-0.41-2.3-0.32-0.46-0.46 0.28-0.41 2.53 0 3.31 0.78 3.08 0.83-0.23zm60.73 0.23c0-0.74-0.18-1.79-0.41-2.3-0.28-0.64-0.41 0.09-0.41 2.3s0.14 2.94 0.41 2.3c0.23-0.51 0.41-1.52 0.41-2.3zm6.26-0.23c0-1.75-0.05-3.22-0.09-3.22-0.05 0-0.28 0.74-0.55 1.61-0.28 1.06-0.28 2.16 0 3.22 0.28 0.87 0.51 1.61 0.55 1.61 0.05 0 0.09-1.43 0.09-3.22zm-82.63 0.14c0-2.21-0.09-2.48-0.51-1.66-0.41 0.92-0.18 4.28 0.32 4.28 0.14 0 0.23-1.2 0.18-2.62zm44.9-4.05c0-1.79-0.09-1.98-0.55-1.29-0.32 0.41-0.6 0.97-0.6 1.2 0 0.37 0.87 2.16 1.06 2.16 0.05 0 0.09-0.92 0.09-2.07zm69.93-3.63c0.28-0.09-0.28-0.32-1.2-0.46-1.06-0.23-2.21-0.14-3.22 0.32-1.56 0.64-1.56 0.64 1.2 0.46 1.52-0.14 2.99-0.28 3.22-0.32zm-105.95-0.32c-0.69-0.23-1.66-0.28-2.53 0-1.33 0.37-1.24 0.41 1.06 0.41 2.02 0.05 2.3-0.05 1.47-0.41zm21.9-0.05c-0.87-0.28-1.7-0.28-2.53 0-1.15 0.41-0.97 0.46 1.24 0.46s2.39-0.05 1.29-0.46zm22.41 0.09c-0.32-0.55-4.23-0.55-5.52 0-0.64 0.28 0.14 0.41 2.44 0.41 2.12 0.05 3.27-0.14 3.08-0.41zm16.24-0.09c-0.87-0.28-1.7-0.28-2.53 0-1.15 0.41-0.97 0.46 1.24 0.46s2.39-0.05 1.29-0.46zm21.85 0.05c-0.87-0.28-1.84-0.23-2.53 0-0.83 0.37-0.55 0.46 1.47 0.41 2.3 0 2.39-0.05 1.06-0.41z"/><path d="m252.58 132.27v-2.07h6.21 6.21v2.07 2.07h-6.21-6.21v-2.07z"/></g><g fill="#362a10"><path d="m252.44 263.76c-0.18-0.14-0.32-0.55-0.32-0.92 0-0.46 1.38-0.6 6.44-0.6 6.12 0 6.44 0.05 6.44 0.92s-0.32 0.92-6.12 0.92c-3.4 0-6.3-0.14-6.44-0.32z"/><path d="m252.26 241.26c-0.14-0.37-0.09-0.87 0.14-1.01 0.23-0.18 3.17-0.28 6.53-0.18 5.61 0.14 6.07 0.23 6.07 1.06s-0.41 0.87-6.21 0.87c-5.24 0-6.3-0.14-6.53-0.74z"/><path d="m252.58 219.5v-1.43h6.21c5.8 0 6.21 0.05 6.21 0.87 0 0.78-0.46 0.92-4.46 1.1-2.48 0.14-5.29 0.41-6.21 0.55-1.7 0.32-1.75 0.32-1.75-1.1z"/><path d="m252.44 200.27c-0.18-0.14-0.32-0.87-0.32-1.61 0-0.97 0.23-1.29 0.92-1.29 0.51 0 0.92 0.32 0.92 0.69 0 0.6 0.92 0.69 5.52 0.69 5.2 0 5.52 0.05 5.52 0.92s-0.32 0.92-6.12 0.92c-3.4 0-6.3-0.14-6.44-0.32z"/><path d="m252.35 177.95c-0.14-0.32-0.14-1.01-0.05-1.52 0.14-0.87 0.55-0.92 6.39-1.06 6.07-0.09 6.3-0.09 6.3 0.83 0 0.87-0.28 0.92-5.52 0.92-4.6 0-5.52 0.14-5.52 0.69 0 0.83-1.33 0.92-1.61 0.14z"/><path d="m192.31 157.85c-0.78-1.52-0.6-3.27 0.41-3.27 0.46 0 0.97 0.41 1.1 0.92 0.23 0.83 0.6 0.92 3.63 0.92 1.84 0 3.82-0.14 4.42-0.28l1.01-0.28-0.09-22.82-0.14-22.82-1.38-0.37c-1.84-0.51-6.53 0-7.36 0.83-1.29 1.29-2.07 0.78-2.07-1.33 0-3.17 0.74-3.54 6.76-3.54 3.96 0 5.2 0.14 5.66 0.69 0.78 0.92 0.74 50.65-0.05 51.57-0.41 0.46-1.98 0.64-5.98 0.64-4.92 0-5.47-0.09-5.93-0.87z"/><path d="m252.44 154.4c-0.14-0.37-0.14-0.78 0-0.92 0.18-0.14 3.04-0.28 6.44-0.28 5.8 0 6.12 0.05 6.12 0.92s-0.32 0.92-6.16 0.92c-4.88 0-6.21-0.14-6.39-0.64z"/></g><g fill="#4b4b49"><path d="m119.53 800.2c-0.46-0.09-0.83-0.51-0.83-0.87 0-0.51 1.2-0.64 6.67-0.64 6.35 0 6.67 0.05 6.67 0.92s-0.28 0.92-5.84 0.87c-3.27-0.05-6.26-0.14-6.67-0.28z"/><path d="m260.4 240.62c0-0.78 0.32-0.92 2.3-0.92s2.3 0.14 2.3 0.92-0.32 0.92-2.3 0.92-2.3-0.14-2.3-0.92z"/><path d="m252.58 219.96c0-0.74 0.28-0.97 1.15-0.97 0.74 0 1.15 0.28 1.15 0.69 0 0.37-0.18 0.69-0.41 0.69s-0.74 0.14-1.15 0.28c-0.55 0.18-0.74 0-0.74-0.69z"/><path d="m212.55 159.09c0-1.38 0.6-2.67 1.2-2.67 0.41 0 0.64 0.55 0.64 1.61 0 1.29-0.18 1.61-0.92 1.61-0.51 0-0.92-0.28-0.92-0.55z"/></g><g fill="#817038"><path d="m252.58 284.32c0-0.87 0.32-0.92 6.21-0.92s6.21 0.05 6.21 0.92-0.32 0.92-6.21 0.92-6.21-0.05-6.21-0.92z"/><path d="m253.04 262.7c0-0.87 0.32-0.92 5.98-0.92s5.98 0.05 5.98 0.92-0.32 0.92-5.98 0.92-5.98-0.05-5.98-0.92z"/><path d="m252.58 240.89v-1.24l4.88 0.09c5.61 0.09 6.63 0.28 6.63 1.15 0 0.51-0.97 0.64-4.32 0.64-2.35 0-4.97 0.14-5.75 0.28-1.33 0.28-1.43 0.18-1.43-0.92z"/><path d="m253.5 219.45c0-0.87 0.32-0.92 5.75-0.92s5.75 0.05 5.75 0.92-0.32 0.92-5.75 0.92-5.75-0.05-5.75-0.92z"/><path d="m252.58 198.29c0-0.87 0.32-0.92 6.21-0.92s6.21 0.05 6.21 0.92-0.32 0.92-6.21 0.92-6.21-0.05-6.21-0.92z"/><path d="m252.58 177.59c0-0.87 0.32-0.92 6.21-0.92s6.21 0.05 6.21 0.92-0.32 0.92-6.21 0.92-6.21-0.05-6.21-0.92z"/><path d="m192.63 157.44c-0.41-0.51-0.6-6.44-0.69-24.06-0.09-20.34-0.05-23.42 0.6-24.02 1.2-1.24 9.57-1.61 11.32-0.51 0.23 0.14 0.41 1.06 0.41 2.07 0 1.47-0.14 1.79-0.87 1.79-0.64 0-0.97-0.37-1.06-1.24-0.14-1.24-0.23-1.29-3.45-1.43l-3.36-0.14v6.03 5.98h3.45 3.45v3.68c0 2.67-0.14 3.68-0.6 3.68-0.41 0-0.51 0.55-0.41 1.84l0.18 1.84h-2.53c-3.5 0-4-0.28-4-2.12 0-1.1-0.23-1.56-0.69-1.56-0.55 0-0.69 0.74-0.69 3.82v3.77h4.28 4.23l0.14 3.17c0.09 2.25-0.05 3.31-0.46 3.54-0.32 0.23-1.89 0.41-3.5 0.41h-2.9l0.14 5.89 0.14 5.84 4.28-0.05c3.77 0 4.23 0.05 4.23 0.78 0 0.97-1.2 1.24-7.04 1.47-3.13 0.14-4.14 0-4.6-0.51z"/></g><g fill="#21d04b"><path d="m160.52 738.32c0-14.77 0-32.62-0.05-39.7l-0.05-12.88 21.58-0.09c11.87-0.09 22.45 0 23.56 0.14l1.93 0.23v39.57 39.52h-23.46-23.46l-0.05-26.78zm9.16 18.63 0.14-2.44h2.99c2.81 0 2.94 0.05 2.94 1.1 0 0.6 0.14 1.75 0.28 2.53l0.32 1.43h14.4 14.45v-1.43c0-1.06-0.51-2.02-1.84-3.45-1.75-1.93-1.84-2.16-1.84-5.01s0.09-3.08 1.84-5.01c1.43-1.56 1.84-2.35 1.84-3.68v-1.66h-14.45-14.49l-0.14 2.44-0.14 2.39-3.04 0.14c-3.36 0.14-3.63-0.09-3.63-3.22 0-1.24-0.09-1.29-2.48-1.29h-2.44l-0.28 4.28c-0.28 4-0.05 13.66 0.41 14.95 0.09 0.41 0.92 0.55 2.58 0.46l2.44-0.14 0.14-2.39zm35.52-23c0-1.43-0.32-2.07-1.84-3.5-1.79-1.66-1.84-1.79-1.84-4.78s0.09-3.17 1.79-4.97c1.29-1.29 1.84-2.3 1.98-3.45l0.14-1.61-14.58-0.14-14.63-0.09v2.53 2.53h-3.17-3.22l-0.14-2.16-0.14-2.21h-2.76-2.71l-0.18 8.05c-0.09 4.42 0 8.74 0.14 9.57l0.28 1.52 5.24-0.28 0.28-4.42 6.16 0.28 0.14 2.44 0.14 2.39h14.49 14.45v-1.7zm0-23.97c0-1.43-0.32-2.07-1.84-3.54-1.79-1.75-1.84-1.89-1.84-4.97 0-3.13 0.05-3.22 1.89-5.06 1.56-1.56 1.84-2.12 1.7-3.5l-0.14-1.66-14.35-0.14-14.35-0.09-0.64 5.52h-2.9-2.94v-1.98c0-2.53-0.6-3.08-3.27-3.08-1.75 0-2.25 0.18-2.48 0.92-0.37 1.1-0.14 17.8 0.28 18.45 0.14 0.28 1.38 0.41 2.76 0.32l2.48-0.14 0.28-4.42 6.16 0.28 0.14 1.84c0.05 1.01 0.23 2.12 0.32 2.44 0.14 0.41 3.45 0.55 14.49 0.55h14.26v-1.75z"/><path d="m185.87 749.45v-2.76h2.48c2.81 0 2.99 0.28 2.67 3.59l-0.18 1.93h-2.48-2.48v-2.76z"/><path d="m185.87 725.3v-2.53h2.53 2.53v2.53 2.53h-2.53-2.53v-2.53z"/><path d="m185.87 701.51v-2.44h2.53 2.53v2.44 2.39h-2.53-2.53v-2.39z"/></g><g fill="#8c7b41"><path d="m255.8 284.78c0-0.87 0.32-0.92 4.37-0.92s4.37 0.05 4.37 0.92-0.32 0.92-4.37 0.92-4.37-0.05-4.37-0.92z"/><path d="m252.58 262.79c0-0.83 0.28-0.87 4.74-0.64 2.58 0.09 4.78 0.28 4.88 0.37 0.6 0.55-1.01 0.87-5.06 1.01-4.28 0.18-4.55 0.14-4.55-0.74z"/><path d="m263.53 263.3c-1.24-0.32-1.01-1.06 0.32-1.06 0.74 0 1.15 0.28 1.15 0.69 0 0.69-0.09 0.74-1.47 0.37z"/><path d="m253.04 219.45c0-0.74 0.32-0.92 1.61-0.92 1.84 0 2.25 1.1 0.6 1.56-1.75 0.46-2.21 0.32-2.21-0.64z"/><path d="m260.4 219.22c0-0.51 0.55-0.69 2.3-0.69s2.3 0.18 2.3 0.69-0.55 0.69-2.3 0.69-2.3-0.18-2.3-0.69z"/><path d="m202.06 156.33c0.09-0.69 0.51-1.1 1.2-1.2 0.92-0.14 1.06 0 0.92 0.92-0.09 0.69-0.51 1.1-1.2 1.2-0.92 0.14-1.06 0-0.92-0.92z"/><path d="m252.67 155.04c0.05-1.01 0.28-1.38 0.92-1.38 0.46 0 0.83 0.23 0.83 0.46 0 0.28 2.07 0.46 5.29 0.46 4.97 0 5.29 0.05 5.29 0.92s-0.32 0.92-6.16 0.92h-6.21l0.05-1.38z"/><path d="m202.43 148.37v-4.37h-1.84c-2.16 0-2.48-0.97-0.55-1.7l1.24-0.51-1.24-0.05c-0.64-0.05-1.33-0.32-1.43-0.6-0.18-0.46-0.28-0.46-0.28 0-0.05 0.32-0.74 0.55-1.75 0.6l-1.75 0.05 1.75 0.46c1.93 0.51 2.35 1.75 0.55 1.75-1.1 0-1.15 0.09-1.15 3.22 0 2.9-0.09 3.22-0.92 3.22-0.78 0-0.87-0.37-1.01-3.54-0.18-4.65-1.2-5.2-1.43-0.74-0.09 1.7-0.14-4-0.18-12.74 0-8.74 0.05-15.55 0.09-15.18 0.09 0.37 0.28 1.47 0.46 2.44 0.41 2.67 1.15 1.56 1.15-1.79 0-2.62 0.09-2.94 0.92-2.94s0.92 0.32 0.92 2.71c0 3.68 0.23 4.19 2.12 4.19 0.87 0 1.56-0.18 1.56-0.46 0-0.23 0.64-0.46 1.38-0.46h1.38v-5.75c0-3.54-0.18-5.75-0.46-5.75-0.23 0-0.46-0.41-0.46-0.97 0-1.56 1.98-0.97 2.35 0.74 0.18 0.78 0.32 7.22 0.37 14.4 0.05 11.23-0.05 12.97-0.64 12.97-0.55 0-0.69 0.6-0.69 2.53s0.14 2.53 0.69 2.53 0.69 0.87 0.69 5.06c0 4.74-0.05 5.06-0.92 5.06s-0.92-0.32-0.92-4.37zm-1.61-9.89c-0.32-0.55-3.77-0.55-5.06 0-0.64 0.28 0.05 0.41 2.21 0.41 1.98 0.05 3.04-0.14 2.85-0.41zm-1.61-1.38c0-0.23-0.32-0.46-0.69-0.46s-0.69 0.23-0.69 0.46c0 0.28 0.32 0.46 0.69 0.46s0.69-0.18 0.69-0.46zm0.69-5.98c-0.14-0.23-1.06-0.46-1.98-0.46-1.29 0-1.52 0.14-1.01 0.46 0.92 0.6 3.36 0.6 2.99 0zm-0.23-2.58c0-0.37 0.32-0.64 0.69-0.64s0.69-0.18 0.69-0.46c0-0.23-0.32-0.46-0.69-0.46s-0.69-0.18-0.69-0.46c0-0.23-0.74-0.46-1.61-0.46s-1.61 0.23-1.61 0.46c0 0.28-0.32 0.46-0.69 0.46s-0.69 0.23-0.69 0.46c0 0.28 0.32 0.46 0.69 0.46s0.69 0.28 0.69 0.64c0 0.37 0.37 0.74 0.83 0.83 1.24 0.28 2.39-0.14 2.39-0.83zm1.38-4.78c0-0.28-1.29-0.46-2.99-0.46s-2.99 0.18-2.99 0.46 1.29 0.46 2.99 0.46 2.99-0.18 2.99-0.46z"/><path d="m147.04 132.87c-0.46-1.75-0.32-2.21 0.64-2.21 0.74 0 0.92 0.32 0.92 1.61 0 1.84-1.1 2.25-1.56 0.6z"/></g><g fill="#9f8656"><path d="m252.58 284.74c0-0.83 0.41-0.87 6.21-0.87 5.61 0 6.21 0.09 6.21 0.83 0 0.69-0.64 0.78-6.21 0.87-5.84 0.05-6.21 0-6.21-0.83z"/><path d="m252.58 262.79c0-0.69 0.64-0.78 6.07-0.64 5.66 0.14 6.81 0.28 6.3 0.74-0.09 0.09-2.94 0.28-6.26 0.41-5.52 0.23-6.12 0.18-6.12-0.51z"/><path d="m252.58 240.85c0-0.6 1.01-0.69 6.21-0.69s6.21 0.09 6.21 0.69-1.01 0.69-6.21 0.69-6.21-0.09-6.21-0.69z"/><path d="m252.58 219.5c0-0.97 0.14-0.97 6.21-0.87 4.6 0.09 6.21 0.28 6.21 0.74 0 0.41-1.24 0.55-4.78 0.55-2.62 0-5.43 0.14-6.21 0.28-1.24 0.28-1.43 0.18-1.43-0.69z"/><path d="m252.58 198.98v-1.15h6.21 6.21v1.15 1.15h-6.21-6.21v-1.15z"/><path d="m252.58 176.9v-1.15h6.21 6.21v1.15 1.15h-6.21-6.21v-1.15z"/><path d="m252.9 154.95-0.18-1.29h6.16 6.12v1.1 1.15l-11.86 0.28-0.23-1.24z"/></g><g fill="#b29c50"><path d="m194.61 149.75v-7.13h3.22 3.22v6.44 6.39l-2.3 0.32c-1.29 0.18-2.44 0.51-2.58 0.69-0.14 0.23-0.55 0.41-0.92 0.41-0.55 0-0.64-1.24-0.64-7.13z"/><path d="m195.07 136.36c0-1.2 0.05-1.24 2.12-0.92 1.2 0.14 2.58 0.28 3.13 0.28 0.97 0.05 0.92 0.05-0.14 0.92-0.69 0.6-1.75 0.92-3.08 0.92-1.89 0-2.02-0.09-2.02-1.2z"/><path d="m194.79 133.65c-0.74-1.89 1.06-2.53 4.83-1.79 1.1 0.23 1.43 0.55 1.43 1.38 0 1.06-0.14 1.1-2.99 1.1-2.25 0-3.08-0.18-3.27-0.69z"/><path d="m194.93 130.34c-0.18-0.14-0.32-0.69-0.32-1.15 0-0.74 0.41-0.83 3.45-0.83 1.89 0 3.45 0.18 3.45 0.41 0 1.56-0.6 1.89-3.4 1.89-1.61 0-3.04-0.14-3.17-0.32z"/><path d="m195.07 125.83c0-0.37 0.37-0.69 0.83-0.74 0.41 0 1.29-0.09 1.93-0.23 0.64-0.09 1.43 0 1.79 0.23 1.15 0.74 0.05 1.43-2.3 1.43-1.7 0-2.25-0.18-2.25-0.69z"/><path d="m194.61 117.87c0-4.37 0.09-5.11 0.92-5.98 1.01-1.06 1.75-1.2 4.09-0.74l1.43 0.32v5.66 5.7h-3.22-3.22v-4.97z"/></g><g fill="#979792"><path d="m117.78 800.01c-21.12-0.14-55.12-0.32-75.54-0.37l-37.17-0.05v-356.32-356.32h95.69 95.69v5.98c0 5.93 0 5.98-1.06 5.98-0.6 0-2.12 0.32-3.4 0.69-2.9 0.87-5.89 3.91-6.44 6.53-0.18 0.97-0.37 13.34-0.37 27.51 0 24.29 0.05 25.86 0.87 27.37 1.79 3.36 3.73 4.65 7.64 5.06l2.53 0.23 0.14 1.79c0.09 1.01 0.05 2.3-0.09 2.9l-0.28 1.06h-17.02-17.02l0.09 71.68 0.14 71.63 22.68 0.14 22.64 0.09v2.99 2.99l-28.39 0.09c-26.64 0.05-46.33 0.14-61.65 0.32l-6.58 0.05v57.97 57.97h48.31 48.31v7.36 7.36h-47.85-47.85v111.11 111.11h47.62 47.62v2.76 2.76h-25.76-25.76v44.86 44.86h25.76 25.76l0.09 8.65 0.14 8.6 19.78 0.14 19.78 0.09v6.35 6.3l-45.32 0.05c-24.94 0-62.62-0.14-83.73-0.32zm53.83-642.35c3.17-2.12 3.13-1.93 3.31-20.8l0.14-17.02-1.06-1.7c-0.6-0.97-1.84-2.07-3.04-2.62-1.93-0.97-2.02-0.97-75.77-0.97-70.99 0-73.89 0.05-75.68 0.87-1.06 0.46-2.39 1.56-2.99 2.39l-1.1 1.56v17.25 17.25l1.1 1.52c0.6 0.87 1.75 1.98 2.53 2.44 1.38 0.83 3.59 0.87 76.23 0.87h74.81l1.52-1.06z"/><path d="m214.54 777.8-1.1261 0.0299v-464.52h12.759c7.6704 0 13.588-0.18 14.863-0.51 2.6878-0.64 5.9599-3.22 7.1392-5.66 0.73304-1.47 0.92426-3.04 0.92426-7.27v-9.43h12.217l-0.0956 246.13-0.14874 241.44-22.724-0.0826c-12.515 0.05-23.207-0.05-23.802-0.14z" stroke-width="1.0307"/><path d="m171.33 303.74c-0.55-0.41-1.24-1.24-1.52-1.79-0.37-0.74-0.51-17.48-0.51-60.18 0-65.28-0.18-61.01 2.94-62.52 1.33-0.64 3.59-0.74 16.1-0.74h14.54l0.05-1.01c0-0.6 0-3.27-0.05-5.93l-0.05-4.88 2.62-0.55c1.79-0.41 3.13-1.1 4.32-2.21 3.36-2.99 3.27-2.21 3.13-32.39l-0.14-26.91-1.24-1.93c-1.56-2.3-2.99-3.31-5.8-4l-2.16-0.55-0.14-2.85-0.14-2.81h17.76c18.91 0 20.24 0.14 21.35 2.25 0.37 0.64 0.51 30.23 0.55 103.75 0 92.66-0.05 102.92-0.74 103.93-0.37 0.6-1.24 1.33-1.89 1.61-0.83 0.41-10.26 0.55-34.6 0.55-31.01 0-33.54-0.09-34.41-0.83zm25.704-1.4419c1.2-1.47 1.0256-3.8981-0.39438-5.0481-3.68-2.9-8.0388 2.1138-4.7288 5.4338 0.92 0.92 2.4456 1.0062 3.6356 0.77625 0.83-0.14 0.99626-0.66188 1.4875-1.1619zm5.5456-21.303-0.625-8.3875-4.84-0.265c-5.38-0.09-7.1488 0.1125-8.125-0.3525-0.41 0.69-0.51 12.42-0.05 15.92l0.28 2.39 7.18-0.09 4.805-0.17125zm0.68-22.665c0.09-2.02 0-4.55-0.14-5.66l-0.28-1.98-10.76 0.28-0.28 11.32 11.32-0.28zm34.51-1.7-0.14-5.66h-10.58l-0.14 5.01c-0.05 2.81 0 5.34 0.09 5.66 0.18 0.46 1.61 0.6 5.57 0.6h5.34zm-34.51-19.92c0.18-7.18 0.6-6.72-5.8-6.58l-5.38 0.14-0.14 5.01c-0.05 2.81 0 5.34 0.09 5.66 0.18 0.51 1.47 0.6 5.66 0.51l5.43-0.14zm34.37-0.92v-5.52h-10.58l-0.14 5.01c-0.05 2.81 0 5.34 0.09 5.66 0.18 0.51 1.43 0.6 5.43 0.51l5.2-0.14zm-34.37-20.8-0.14-5.43h-11.04l-0.14 5.43-0.14 5.38h11.6zm34.6-0.14v-5.52h-11.04v11.04h11.04zm-34.74-20.7v-5.29l-5.61-0.14-5.66-0.14v11.14l5.66-0.14 5.61-0.14zm34.74 0v-5.52h-11.04v11.04h11.04z"/><path d="m249.36 273.05v-3.45h7.82 7.82v3.45 3.45h-7.82-7.82v-3.45z"/><path d="m249.36 251.43v-3.45l5.89-0.09c3.22-0.05 6.72-0.14 7.82-0.18l1.93-0.09v3.63 3.63h-7.82-7.82v-3.45z"/><path d="m249.36 229.8v-3.45h7.82 7.82v3.45 3.45h-7.82-7.82v-3.45z"/><path d="m249.36 208.18v-3.45h7.82 7.82v3.45 3.45h-7.82-7.82v-3.45z"/><path d="m250.42 189.69c-0.97-0.18-1.06-0.46-1.06-3.63v-3.4h7.82 7.82v3.68 3.68l-6.76-0.05c-3.77-0.05-7.27-0.18-7.82-0.28z"/><path d="m249.36 164.24v-3.68h7.82 7.82v3.68 3.68h-7.82-7.82v-3.68z"/><path d="m249.36 142.62v-3.68h7.82 7.82v3.68 3.68h-7.82-7.82v-3.68z"/><path d="m249.36 113.64v-11.04h7.36 7.36l0.09-2.16c0-1.24 0-2.76-0.05-3.4s0.14-1.66 0.37-2.3c0.32-0.74 0.46 3.86 0.46 14.45l0.05 15.5h-7.82-7.82v-11.04z"/></g><g fill="#fefefe"><path d="m0 808.37v-2.79h252.12v-14.26h7.36v2.71c0 1.52 0.14 3.08 0.28 3.5 0.37 0.92 2.58 2.07 4.09 2.07h1.15v7.56h-265z"/><path d="m35.24 153.39c-0.55-1.43-0.28-2.02 0.92-2.02 1.75 0 3.86-2.3 3.86-4.28 0-2.35-1.47-4-3.63-4-3.82 0-7.22-2.07-8.83-5.34-1.47-3.08-1.1-7.32 0.78-9.71 4.23-5.34 12.56-4.97 15.73 0.69 2.12 3.82 1.7 8.01-1.15 11.18l-1.7 1.84 0.87 1.47c1.24 2.07 1.2 5.66-0.14 7.78-1.61 2.58-6.03 4.19-6.72 2.39zm3.91-14.22c3.04-1.61 4.14-6.16 2.25-9.25-1.2-1.89-4.32-3.17-6.67-2.76-2.25 0.46-4.65 2.94-5.06 5.29-0.83 5.06 4.83 9.06 9.48 6.72z"/><path d="m87.51 140.37 0.14-10.54 1.43-1.79c2.99-3.73 7.68-4.83 11.96-2.67 5.61 2.81 6.81 10.31 2.3 14.77-3.08 3.08-6.95 3.73-10.58 1.79-1.2-0.64-2.25-1.15-2.39-1.15-0.09 0-0.18 2.3-0.18 5.06v5.06h-1.43-1.38l0.14-10.54zm12.65-1.43c4.23-2.58 3.73-8.93-0.92-11.18-4.55-2.25-9.89 1.98-8.88 7.13 0.83 4.23 6.03 6.39 9.8 4.05z"/><path d="m55.16 142.48c-4.14-1.56-6.39-4.69-6.39-8.88 0.05-5.43 4-9.39 9.43-9.39 4.78 0 8.97 4.14 8.97 8.97v1.61h-7.64-7.59l0.28 1.06c0.18 0.55 0.92 1.61 1.61 2.35 1.52 1.56 5.29 2.21 7.13 1.2 0.92-0.51 1.24-0.51 1.84 0 2.58 2.16-3.5 4.6-7.64 3.08zm8.79-11.09c0-1.75-3.59-4.42-6.03-4.42-1.66 0-4.14 1.47-5.06 2.94-0.46 0.78-0.87 1.56-0.87 1.79 0 0.18 2.71 0.32 5.98 0.32 4.74 0 5.98-0.14 5.98-0.64z"/><path d="m115.52 142.39c-5.84-1.84-8.33-9.16-4.83-14.12 3.77-5.38 11.82-5.38 15.6 0 1.33 1.93 1.38 2.16 1.52 8.19l0.18 6.16h-1.43c-1.1 0-1.43-0.18-1.43-0.92 0-1.15-0.09-1.15-2.25 0-2.48 1.24-4.97 1.47-7.36 0.69zm5.93-3.22c2.21-1.15 3.22-2.85 3.22-5.43 0-2.99-1.29-5.06-3.68-6.03-2.35-0.92-2.99-0.92-5.38 0.14-2.35 1.1-3.36 2.9-3.36 5.98 0 1.79 0.28 2.58 1.24 3.73 0.64 0.83 1.66 1.66 2.16 1.84 1.52 0.64 4.37 0.51 5.8-0.23z"/><path d="m71.31 141.24v-1.33l3.96-0.14c4.51-0.14 5.34-0.69 4.51-2.99-0.37-1.06-0.87-1.38-3.4-2.02-3.73-1.01-5.06-2.35-5.06-5.24 0-1.61 0.28-2.39 1.33-3.54 1.33-1.47 1.43-1.52 5.75-1.66l4.42-0.18v1.43 1.43h-3.27c-3.96 0-5.01 0.51-5.01 2.3s0.92 2.58 3.45 2.94c1.38 0.23 2.67 0.83 3.59 1.66 1.29 1.15 1.47 1.61 1.47 3.68 0 2.12-0.18 2.53-1.52 3.73-1.43 1.29-1.66 1.33-5.84 1.33h-4.37v-1.38z"/><path d="m131.76 141.43c-0.18-0.69-0.18-3.5-0.05-6.3 0.23-4.6 0.37-5.29 1.56-6.95 3.45-4.97 11.18-5.34 15-0.74 1.7 2.02 2.16 4.09 2.16 10.03v5.2l-1.47-0.14-1.52-0.14-0.23-5.75c-0.23-6.3-0.6-7.36-2.9-8.74-1.89-1.15-3.68-1.15-6.07 0-2.99 1.43-3.45 2.67-3.45 9.16v5.57h-1.38c-1.1 0-1.43-0.23-1.66-1.2z"/><path d="m156.47 141.89c-2.02-1.43-2.35-3.17-2.35-12.84v-8.97h1.61c1.61 0 1.61 0 1.61 2.07v2.07h2.48c3.36 0 3.96 0.28 3.96 1.89v1.33h-3.22-3.22v5.47c0 4.19 0.14 5.57 0.64 6.03 1.01 0.78 2.76 0.37 3.27-0.78 0.51-1.2 2.39-1.47 2.81-0.41 0.32 0.87-0.97 3.27-2.21 4.14-1.33 0.97-4 0.92-5.38 0z"/><path d="m152.28 80.93c0-1.7 0.87-2.71 2.35-2.71 1.15 0 1.52 0.28 2.07 1.61 0.32 0.87 0.64 1.7 0.64 1.84s-1.15 0.23-2.53 0.23c-2.25 0-2.53-0.09-2.53-0.97z"/></g><g fill="#b3b3b3" stroke-opacity=".94872"><rect x="5.0979" y="87.018" width="6.4772" height="712.58" stroke-width=".17751"/><rect x="8.8232" y="87.088" width="187.38" height="5.1573" stroke-width=".081226"/><rect x="215.81" y="315.34" width="3.7272" height="462.03" stroke-width=".10843"/><rect x="168.03" y="178.53" width="3.802" height="125.71" stroke-width=".057125"/><rect x="171.29" y="178.54" width="31.524" height="4.528" stroke-width=".031218"/><rect x="203.73" y="93.305" width="38.709" height="2.8486" rx="0" ry="1.4243" stroke-width=".027438"/><rect x="238.66" y="94.679" width="3.7272" height="209.59" stroke-width=".07303"/><rect x="203.7" y="93.298" width="3.7272" height="2.8287" stroke-width=".0084842"/><rect x="115.48" y="458.78" width="9.9772" height="216.9" stroke-width=".12155"/></g><g stroke-opacity=".94872" stroke-width=".5"><rect x="191.54" y="188.53" width="11.49" height="11.402"/><rect x="226.54" y="188.53" width="11.49" height="11.402"/><rect x="191.76" y="209.44" width="11.49" height="11.402"/><rect x="226.54" y="209.09" width="11.49" height="11.402"/><rect x="191.85" y="229.92" width="11.49" height="11.402"/><rect x="226.49" y="230.06" width="11.49" height="11.402"/></g><g stroke-opacity=".94872"><rect x="198.04" y="18.436" width="7.078" height="53.696" fill="#333" stroke-width=".16305"/><rect x="108.88" y="22.875" width="88.828" height="47.821" fill="#1a1a1a" stroke-width=".54511"/><rect x="117.25" y="15.875" width="87.953" height="4.5711" fill="#333" stroke-width=".1677"/><rect x="115.93" y="71.456" width="81.64" height="2.5052" fill="#333" stroke-width=".11961"/></g><g stroke-opacity=".94872"><rect x="226.84" y="250.94" width="11.49" height="11.402" stroke-width=".5"/><rect x="191.74" y="250.97" width="11.49" height="11.402" stroke-width=".5"/><rect x="188.6" y="271.78" width="14.849" height="19.154" stroke-width=".73671"/></g><g stroke-opacity=".94872"><rect x="176.12" y="76" width="10.469" height="6.5312" fill="#87090c" stroke-width=".5"/><rect x="112.57" y="458.76" width="3.8671" height="216.78" fill="#979792" stroke-width=".51711"/><rect x="114.91" y="328.01" width="9.9772" height="105.4" fill="#b3b3b3" stroke-width=".08473"/><rect x="112" y="328" width="3.8671" height="105.34" fill="#979792" stroke-width=".36046"/></g><g transform="translate(-167.75,127.5)"><path d="m309.73 442.41-36.48-0.09v-117.32h103.06v117.68l-15.04-0.05c-8.33-0.05-31.51-0.14-51.53-0.23zm60.04-24.11 0.09-17.39h-9.66v6.7215l-5.61-4e-3 -5.66-0.0478-0.14 10.72-0.09 10.67h-20.7v-5.06c0-2.76-0.14-5.06-0.32-5.06-0.23 0-3.04-0.05-6.35-0.09l-5.98-0.05-0.14 5.11-0.14 5.15h-25.26v-90.18h25.3v10.12h12.88v-10.12h20.7v21.16h11.786l-0.0241 3.59-0.0319 3.54 4.74-0.0158 4.69-0.047v-17.047c0-9.57-0.18-17.67-0.37-17.99-0.32-0.46-9.57-0.55-44.76-0.46l-44.35 0.14-0.14 52.13-0.09 52.08 44.72-0.09 44.76-0.14 0.14-17.34zm-61.19 2.53 0.14-1.52h-12.01v3.27l5.89-0.14 5.84-0.14zm11.82-36.81v-28.2h-11.82c-11.55 0-11.87 0.05-11.87 0.92s0.32 0.92 8.97 0.92h8.97v6.9l-8.83 0.09c-8.83 0.14-8.88 0.14-9.02 1.2l-0.14 1.01h17.99v6.9h-17.99l0.14 1.06c0.14 1.01 0.18 1.01 9.02 1.15l8.83 0.09v6.9h-8.97c-8.56 0-8.97 0.05-8.97 0.87 0 0.74 0.46 0.92 2.9 1.2 1.56 0.14 5.57 0.23 8.83 0.14l5.98-0.14 0.14 3.59 0.14 3.54h-9.02c-8.65 0-8.97 0.05-8.97 0.92s0.32 0.92 8.97 0.92h8.97v7.36h-8.97c-8.65 0-8.97 0.05-8.97 0.92s0.32 0.92 8.97 0.92h8.97v6.9h-17.94v2.3l11.82-0.09 11.82-0.14 0.05-28.16zm-11.82-36.81 0.14-1.52h-12.01v3.27l5.89-0.14 5.84-0.14z"/><path d="m295.99 423.01c-0.05-0.37-0.05-1.1-0.05-1.61 0-2.99-0.6-2.76 6.99-2.76h6.9v5.06h-6.9c-5.8 0-6.9-0.09-6.95-0.69z"/><path d="m295.67 411.51 0.05-2.07 9.02-0.09 9.02-0.14 0.14-2.39 0.14-2.44h-17.9l-0.18-1.38c-0.14-0.74-0.09-1.56 0.09-1.79 0.14-0.28 3.96-0.51 8.97-0.6l8.74-0.14v-5.06l-17.9-0.18 0.05-1.38c0.05-0.78 0.09-1.61 0.09-1.89 0.05-0.28 3.36-0.46 9.02-0.46h8.97v-5.06h-18.4v-4.14h18.4v-5.06l-9.06-0.09-9.11-0.14-0.05-1.93-0.05-1.98h18.27v-5.06h-8.97c-9.8 0-9.06 0.18-9.06-2.53 0-0.37 0-0.87 0.05-1.15s3.4-0.46 9.06-0.46h8.97l-0.14-2.39-0.14-2.44-9.02-0.14-9.06-0.09 0.1-3.68 8.28-0.05c4.6 0 9.57-0.09 11.09-0.18s3.63-0.05 4.74 0.09l1.93 0.28v58.29h-26.22l0.09-2.07z" fill="#313231"/><path d="m295.81 347.7c0.09-1.33 0.18-2.53 0.18-2.67 0.05-0.14 3.17-0.28 6.95-0.32l6.9-0.09v5.47h-14.18l0.14-2.39z"/><g><rect x="340.79" y="343.62" width="4.75" height="16.75" fill="#313231" stroke-opacity=".94872" stroke-width=".5"/><rect x="341.54" y="407.5" width="4.75" height="16.75" fill="#313231" stroke-opacity=".94872" stroke-width=".5"/><rect x="351.94" y="340.4" width="14.316" height="16.79" fill="#f9f9f9" stroke="#000" stroke-width="2.8311"/><rect x="352.19" y="410.89" width="14.316" height="16.79" fill="#f9f9f9" stroke="#000" stroke-width="2.8311"/></g></g><g transform="translate(-167.62 239.25)"><path d="m309.73 442.41-36.48-0.09v-117.32h103.06v117.68l-15.04-0.05c-8.33-0.05-31.51-0.14-51.53-0.23zm60.04-24.11 0.09-17.39h-9.66v6.7215l-5.61-4e-3 -5.66-0.0478-0.14 10.72-0.09 10.67h-20.7v-5.06c0-2.76-0.14-5.06-0.32-5.06-0.23 0-3.04-0.05-6.35-0.09l-5.98-0.05-0.14 5.11-0.14 5.15h-25.26v-90.18h25.3v10.12h12.88v-10.12h20.7v21.16h11.786l-0.0241 3.59-0.0319 3.54 4.74-0.0158 4.69-0.047v-17.047c0-9.57-0.18-17.67-0.37-17.99-0.32-0.46-9.57-0.55-44.76-0.46l-44.35 0.14-0.14 52.13-0.09 52.08 44.72-0.09 44.76-0.14 0.14-17.34zm-61.19 2.53 0.14-1.52h-12.01v3.27l5.89-0.14 5.84-0.14zm11.82-36.81v-28.2h-11.82c-11.55 0-11.87 0.05-11.87 0.92s0.32 0.92 8.97 0.92h8.97v6.9l-8.83 0.09c-8.83 0.14-8.88 0.14-9.02 1.2l-0.14 1.01h17.99v6.9h-17.99l0.14 1.06c0.14 1.01 0.18 1.01 9.02 1.15l8.83 0.09v6.9h-8.97c-8.56 0-8.97 0.05-8.97 0.87 0 0.74 0.46 0.92 2.9 1.2 1.56 0.14 5.57 0.23 8.83 0.14l5.98-0.14 0.14 3.59 0.14 3.54h-9.02c-8.65 0-8.97 0.05-8.97 0.92s0.32 0.92 8.97 0.92h8.97v7.36h-8.97c-8.65 0-8.97 0.05-8.97 0.92s0.32 0.92 8.97 0.92h8.97v6.9h-17.94v2.3l11.82-0.09 11.82-0.14 0.05-28.16zm-11.82-36.81 0.14-1.52h-12.01v3.27l5.89-0.14 5.84-0.14z"/><path d="m295.99 423.01c-0.05-0.37-0.05-1.1-0.05-1.61 0-2.99-0.6-2.76 6.99-2.76h6.9v5.06h-6.9c-5.8 0-6.9-0.09-6.95-0.69z"/><path d="m295.67 411.51 0.05-2.07 9.02-0.09 9.02-0.14 0.14-2.39 0.14-2.44h-17.9l-0.18-1.38c-0.14-0.74-0.09-1.56 0.09-1.79 0.14-0.28 3.96-0.51 8.97-0.6l8.74-0.14v-5.06l-17.9-0.18 0.05-1.38c0.05-0.78 0.09-1.61 0.09-1.89 0.05-0.28 3.36-0.46 9.02-0.46h8.97v-5.06h-18.4v-4.14h18.4v-5.06l-9.06-0.09-9.11-0.14-0.05-1.93-0.05-1.98h18.27v-5.06h-8.97c-9.8 0-9.06 0.18-9.06-2.53 0-0.37 0-0.87 0.05-1.15s3.4-0.46 9.06-0.46h8.97l-0.14-2.39-0.14-2.44-9.02-0.14-9.06-0.09 0.1-3.68 8.28-0.05c4.6 0 9.57-0.09 11.09-0.18s3.63-0.05 4.74 0.09l1.93 0.28v58.29h-26.22l0.09-2.07z" fill="#313231"/><path d="m295.81 347.7c0.09-1.33 0.18-2.53 0.18-2.67 0.05-0.14 3.17-0.28 6.95-0.32l6.9-0.09v5.47h-14.18l0.14-2.39z"/><g><rect x="340.79" y="343.62" width="4.75" height="16.75" fill="#313231" stroke-opacity=".94872" stroke-width=".5"/><rect x="341.54" y="407.5" width="4.75" height="16.75" fill="#313231" stroke-opacity=".94872" stroke-width=".5"/><rect x="351.94" y="340.4" width="14.316" height="16.79" fill="#f9f9f9" stroke="#000" stroke-width="2.8311"/><rect x="352.19" y="410.89" width="14.316" height="16.79" fill="#f9f9f9" stroke="#000" stroke-width="2.8311"/></g></g><g transform="translate(-167.64 -3.435)"><path d="m309.73 442.41-36.48-0.09v-117.32h103.06v117.68l-15.04-0.05c-8.33-0.05-31.51-0.14-51.53-0.23zm60.04-24.11 0.09-17.39h-9.66v6.7215l-5.61-4e-3 -5.66-0.0478-0.14 10.72-0.09 10.67h-20.7v-5.06c0-2.76-0.14-5.06-0.32-5.06-0.23 0-3.04-0.05-6.35-0.09l-5.98-0.05-0.14 5.11-0.14 5.15h-25.26v-90.18h25.3v10.12h12.88v-10.12h20.7v21.16h11.786l-0.0241 3.59-0.0319 3.54 4.74-0.0158 4.69-0.047v-17.047c0-9.57-0.18-17.67-0.37-17.99-0.32-0.46-9.57-0.55-44.76-0.46l-44.35 0.14-0.14 52.13-0.09 52.08 44.72-0.09 44.76-0.14 0.14-17.34zm-61.19 2.53 0.14-1.52h-12.01v3.27l5.89-0.14 5.84-0.14zm11.82-36.81v-28.2h-11.82c-11.55 0-11.87 0.05-11.87 0.92s0.32 0.92 8.97 0.92h8.97v6.9l-8.83 0.09c-8.83 0.14-8.88 0.14-9.02 1.2l-0.14 1.01h17.99v6.9h-17.99l0.14 1.06c0.14 1.01 0.18 1.01 9.02 1.15l8.83 0.09v6.9h-8.97c-8.56 0-8.97 0.05-8.97 0.87 0 0.74 0.46 0.92 2.9 1.2 1.56 0.14 5.57 0.23 8.83 0.14l5.98-0.14 0.14 3.59 0.14 3.54h-9.02c-8.65 0-8.97 0.05-8.97 0.92s0.32 0.92 8.97 0.92h8.97v7.36h-8.97c-8.65 0-8.97 0.05-8.97 0.92s0.32 0.92 8.97 0.92h8.97v6.9h-17.94v2.3l11.82-0.09 11.82-0.14 0.05-28.16zm-11.82-36.81 0.14-1.52h-12.01v3.27l5.89-0.14 5.84-0.14z"/><path d="m295.99 423.01c-0.05-0.37-0.05-1.1-0.05-1.61 0-2.99-0.6-2.76 6.99-2.76h6.9v5.06h-6.9c-5.8 0-6.9-0.09-6.95-0.69z"/><path d="m295.67 411.51 0.05-2.07 9.02-0.09 9.02-0.14 0.14-2.39 0.14-2.44h-17.9l-0.18-1.38c-0.14-0.74-0.09-1.56 0.09-1.79 0.14-0.28 3.96-0.51 8.97-0.6l8.74-0.14v-5.06l-17.9-0.18 0.05-1.38c0.05-0.78 0.09-1.61 0.09-1.89 0.05-0.28 3.36-0.46 9.02-0.46h8.97v-5.06h-18.4v-4.14h18.4v-5.06l-9.06-0.09-9.11-0.14-0.05-1.93-0.05-1.98h18.27v-5.06h-8.97c-9.8 0-9.06 0.18-9.06-2.53 0-0.37 0-0.87 0.05-1.15s3.4-0.46 9.06-0.46h8.97l-0.14-2.39-0.14-2.44-9.02-0.14-9.06-0.09 0.1-3.68 8.28-0.05c4.6 0 9.57-0.09 11.09-0.18s3.63-0.05 4.74 0.09l1.93 0.28v58.29h-26.22l0.09-2.07z" fill="#313231"/><path d="m295.81 347.7c0.09-1.33 0.18-2.53 0.18-2.67 0.05-0.14 3.17-0.28 6.95-0.32l6.9-0.09v5.47h-14.18l0.14-2.39z"/><g><rect x="340.79" y="343.62" width="4.75" height="16.75" fill="#313231" stroke-opacity=".94872" stroke-width=".5"/><rect x="341.54" y="407.5" width="4.75" height="16.75" fill="#313231" stroke-opacity=".94872" stroke-width=".5"/><rect x="351.94" y="340.4" width="14.316" height="16.79" fill="#f9f9f9" stroke="#000" stroke-width="2.8311"/><rect x="352.19" y="410.89" width="14.316" height="16.79" fill="#f9f9f9" stroke="#000" stroke-width="2.8311"/></g></g><rect x="187.66" y="100.72" width="23.317" height="63.817" ry="8.7707" fill="none" stroke="#6e6607" stroke-width="1.7825"/></svg>
