<svg width="60px" height="513px" version="1.0" viewBox="0 0 60 513" xml:space="preserve" xmlns="http://www.w3.org/2000/svg" xmlns:xlink="http://www.w3.org/1999/xlink"><g><rect x="8.8125" y=".0625" width="35.5" height="25.625" fill="#c87137"/><rect x=".10225" y="492.12" width="48.148" height="20.875" fill="#b3b3b3"/><rect x="54.393" y="493.26" width="5.633" height="3.816" fill="#666"/><rect x=".125" y="493.25" width="48.148" height="7.5" fill="#666"/><rect x=".11441" y="505.89" width="48.148" height="6.9896" fill="#ccc"/><rect x=".17678" y="32.441" width="47.861" height="127.01" fill="#ccc"/><rect x="48.084" y="40.357" width="11.889" height="119.93" fill="#b3b3b3"/><rect x="48.171" y="33.951" width="11.843" height="6.4341" fill="#666"/><rect x="1.9005" y="160.24" width="58.166" height="332.64" fill="#ccc"/><rect x=".03125" y="158.62" width="3.4157" height="334.77" fill="#666"/><rect x="3.6144" y="178.83" width="6.0733" height="313.12" fill="#b3b3b3"/><rect x="13.934" y="144.46" width="31.986" height="3.6364" fill="#999"/><rect x="13.563" y="164.62" width="46.466" height="9.3817" fill="#1a1a1a"/><rect x="3.625" y="175.75" width="55.236" height="8.0943" fill="#b3b3b3"/><rect x="13.961" y="147.46" width="2.6411" height="15.48" fill="#999"/><rect x="55.347" y="167.25" width="4.5962" height="6.9385" fill="#b3b3b3"/><rect x="5.0824" y="42.861" width="36.173" height="100.63" fill="#1a1a1a"/><rect x="40.92" y="36.173" width="1.7903" height="7.1614"/></g><g fill="#1a1a1a"><rect x="47.118" y="115.86" width="12.873" height="6.4404"/><rect x="47.121" y="101.62" width="12.873" height="6.4404"/><rect x="47.029" y="87.665" width="12.873" height="6.4404"/><rect x="47.121" y="73.3" width="12.873" height="6.4404"/><rect x="46.977" y="59.062" width="12.873" height="6.4404"/><rect x="46.945" y="130" width="12.873" height="6.4404"/><rect x="47.061" y="144.25" width="12.873" height="6.4404"/></g><g><rect x="9.652" y="5.5" width="33.452" height="9.7126" fill="#a05a2c"/><rect x="9.75" y="18.875" width="33.452" height="7.2829" fill="#a05a2c"/><rect x="9.625" y=".75" width="33.452" height="1.476" fill="#d38d5f"/><rect x="9.0503" y="12.685" width="33.452" height="3.6601" fill="#c87137"/><rect x=".1875" y="25.562" width="48.66" height="7" fill="#b3b3b3"/><rect x="23.938" y="25.469" width="13.359" height="5.8125" fill="#784421"/></g><g fill="#020201"><path d="m48.03 503.15-0.05-9.6h-5.28l-0.1 6.22c-0.05 3.43-0.1 6.24-0.12 6.24-0.19 0.17-2.74 0.29-7.96 0.39l-6.31 0.1-0.1 3.86-2.46-0.1v-3.76l-3.97-0.09c-4.82-0.1-4.64-0.02-4.64-2.32v-1.43h-0.6c-0.32 0-0.6 0.05-0.6 0.14-0.02 1.81-0.22 3.89-0.39 3.99-0.12 0.07-0.44 0.14-0.73 0.14h-0.53l-0.1-2.16c-0.07-1.21-0.12-4.23-0.12-6.73v-4.57h-5.86c-5.52 0-5.88-0.02-6.26-0.32l-0.41-0.32v-318.06l0.41-0.44c0.41-0.43 0.49-0.44 2.35-0.44h1.93v-11.76h-4.78v-1.88h-1.36v-2.04h12.1v-13.12l-4.13-0.03-4.14-0.05 0.02-51.15c0.02-28.13-0.008125-49.266 0.061875-49.506 0.09-0.34 0.011406-2.206 0.029675-2.5155 0.00746-0.1264 0.32712-0.54225 0.64362-0.76084 0.41964-0.28982 6.242-5.8157 6.852-5.8157 0.49 0-1.273 4.3479-3.6595 5.6544-0.28069 0.15367-0.085795 0.81441-0.3158 1.0544l-0.65688 0.2025 17.535-0.20312h17.93v-5.62h-14.9c-9.77 0-14.95 0.05-15.02 0.17-0.05 0.09-0.26 0.17-0.44 0.17-0.17 0-0.32 0.09-0.32 0.2 0 0.44-0.9 1.16-1.48 1.16-0.51 0-0.56-0.03-0.56-0.55 0-0.6 0.88016-1.6875 1.3402-1.6875 0.15 0 0.30922-0.09188 0.38922-0.30188l0.060625-0.28062 15.85-0.05c8.73-0.02 16.11 0 16.4 0.05l0.56 0.1 0.03 53.64 0.05 53.64 1.52 0.05c1.67 0.05 1.93 0.17 2.01 0.85l0.05 0.46 6.1 0.05 6.09 0.03v1.48l-2.16 0.1c-1.21 0.07-3.49 0.12-5.1 0.12h-2.93l-0.07 0.78c-0.03 0.43-0.03 1.09 0 1.45l0.07 0.66h10.2v1.88h-11.94l-0.09-0.39c-0.05-0.2-0.1-1.18-0.14-2.16-0.03-0.99-0.05 0.9-0.03 4.18v5.97l6.1 0.05 6.09 0.03v1.82l-1.4 0.1c-0.78 0.07-3.49 0.12-6.03 0.12h-4.62l-0.1 2.86c-0.09 2.63-0.72 7.16-1.02 7.48-0.07 0.05-0.49 0.14-0.97 0.19l-0.85 0.09v-0.68c0-0.72 0.46-4.55 0.61-5.03 0.09-0.29-0.75-0.31-15.77-0.31h-15.87v8.86h40.06v-2.85c0-1.59 0.05-3.27 0.1-3.75l0.12-0.9h5.74v0.85c0 0.48-0.05 0.87-0.12 0.87-0.09 0.02-0.94 0.07-1.93 0.14l-1.79 0.1v5.62l1.88 0.1c1.04 0.07 1.89 0.12 1.93 0.14 0.02 0 0.03 71.88 0.03 159.73v159.72h-2.2l-0.44 1.38c-0.24 0.75-0.43 1.43-0.43 1.53 0 0.09 0.68 0.15 1.53 0.15h1.53v1.88h-2.61c-1.81 0-2.68-0.07-2.81-0.2-0.14-0.14-0.2-0.87-0.2-2.2 0-1.11-0.05-2.11-0.1-2.27-0.15-0.41-3.9-0.41-4.06 0-0.05 0.15-0.1 4.48-0.1 9.63v9.36h-2.04zm-8.4-4.23v-5.37h-20.62l-0.05 5.2c-0.02 2.86 0 5.28 0.05 5.4 0.05 0.19 2.18 0.22 10.35 0.19l10.28-0.05v-5.37zm-22.59-2.23v-3.07l-0.55 0.05-0.56 0.05-0.05 2.81c-0.02 1.53 0 2.9 0.03 3.02 0.05 0.12 0.32 0.22 0.61 0.22h0.51v-3.09zm41.56-162.84c0.02-116.51-0.02-157.53-0.15-157.7-0.17-0.2-4.69-0.24-27.49-0.2l-27.29 0.05-0.05 157.72-0.03 157.7 27.48-0.03 27.49-0.05 0.05-157.48zm-47.52-170.73v-2.9h-2.56v5.8h2.56zm34.74-9.41-0.05-9.09-13.64-0.05c-7.5-0.03-14.66 0-15.89 0.05l-2.27 0.12v18.04h31.88zm-33.65-10.79 0.27-0.43h28.8v-99.38h-35.46v100.22h6.1l0.27-0.43z"/><path d="m9.26 481.5c-0.82-1.72-1.01-2.91-0.92-5.71 0.07-2.06 0.15-2.56 0.61-3.99l0.55-1.64v-20.56l-0.51-1.57c-1.16-3.63-1.14-6.85 0.07-10.33l0.44-1.3v-20.66l-0.49-1.5c-1.18-3.51-1.16-6.87 0.05-10.21l0.44-1.21v-20.61l-0.43-1.26c-1.24-3.66-1.24-6.95-0.02-10.55l0.44-1.28v-20.34l-0.49-1.53c-1.18-3.55-1.14-7.11 0.07-10.36l0.43-1.11v-20.84l-0.49-1.47c-1.18-3.43-1.16-6.92 0.05-10.14l0.44-1.16v-20.86l-0.43-1.26c-1.24-3.68-1.24-7.14 0-10.48l0.43-1.11v-21.36l-0.51-1.47c-1.09-3.22-1.14-6.38-0.1-9.48l0.61-1.82v-20.84l-0.51-1.52c-1.23-3.61-1.14-6.48 0.36-10.64l0.38-1.07 1.56 0.1 0.05 0.78c0.03 0.55-0.09 1.13-0.38 1.84-1.14 2.83-1.21 4.81-0.24 7.43l0.56 1.53 0.05 11.66 0.03 11.68-0.63 1.79c-0.58 1.65-0.63 1.96-0.63 3.6s0.05 1.94 0.63 3.58l0.63 1.81v11.74c-0.02 10.14-0.05 11.86-0.27 12.44-0.89 2.32-0.99 2.73-0.99 4.52 0 1.64 0.05 1.94 0.63 3.61l0.63 1.81v22.96l-0.63 1.7c-0.58 1.59-0.63 1.84-0.63 3.58 0 1.72 0.05 1.99 0.58 3.41l0.6 1.53 0.03 11.66 0.05 11.68-0.63 1.79c-0.6 1.67-0.65 1.94-0.63 3.68 0 1.72 0.05 2.01 0.58 3.41l0.6 1.53 0.03 11.63 0.05 11.63-0.49 1.24c-1.09 2.76-1.13 4.76-0.12 7.67l0.61 1.77v22.64l-0.63 1.81c-0.6 1.67-0.65 1.91-0.63 3.75 0 1.84 0.03 2.06 0.63 3.66l0.63 1.7v22.76l-0.63 1.82c-0.58 1.69-0.63 1.99-0.63 3.72-0.02 1.74 0.03 2.01 0.63 3.7l0.63 1.81v22.69l-0.51 1.38c-0.61 1.65-1.04 3.95-0.92 4.88 0.22 1.72 0.49 2.95 0.78 3.61 0.17 0.41 0.31 0.97 0.31 1.24 0 0.44-0.05 0.49-0.6 0.49-0.56 0-0.61-0.05-1.18-1.23z" fill="#88958e"/><path d="m41.93 154.96v-5.13h0.77 0.77l-0.03 5.08-0.05 5.06-0.72 0.05-0.73 0.05v-5.11z"/><path d="m48.03 133.26c-0.05-1.81-0.07-3.34-0.02-3.41 0.03-0.09 2.74-0.14 6.03-0.14h5.95v0.85 0.85h-5.1-5.08l-0.12 1.36c-0.07 0.75-0.09 1.43-0.02 1.53s1.86 0.17 4.94 0.17c2.66 0 4.94 0.05 5.1 0.1 0.2 0.09 0.27 0.34 0.27 1.02v0.92h-5.95-5.93l-0.09-3.27z"/><path d="m48.07 119.06v-3.49h5.97 5.97v0.85 0.85h-5.1-5.1l-0.07 0.82c-0.03 0.44-0.03 1.21 0 1.7l0.07 0.89h5.1 5.1v0.94 0.94h-5.97-5.97v-3.49z"/><path d="m48.07 104.83v-3.41h5.97 5.97v0.66c0 0.49-0.09 0.7-0.29 0.77-0.17 0.05-2.47 0.1-5.1 0.14l-4.81 0.05-0.09 0.95c-0.05 0.53-0.05 1.31 0 1.76l0.1 0.78h5.08 5.1v0.85 0.85h-5.97-5.97v-3.41z"/><path d="m48.07 90.85v-3.41h5.97 5.97v0.75 0.73l-5.11 0.14-5.11 0.12v1.52 1.52h2.78c1.53 0 3.84 0.05 5.11 0.12l2.34 0.1v0.8 0.8l-2.16 0.1c-1.21 0.07-3.89 0.12-5.97 0.12h-3.8v-3.41z"/><path d="m48.07 76.53v-3.24h5.97 5.97v0.66c0 0.44-0.09 0.7-0.27 0.77-0.15 0.05-2.05 0.1-4.21 0.1-2.18 0-4.36 0.05-4.84 0.1l-0.9 0.12v1.5 1.52h5.11 5.11v0.85 0.85h-5.97-5.97v-3.24z"/><path d="m48.07 62.47v-3.32l3.55-0.03c3.51-0.05 3.53-0.05 3.58-0.43 0.05-0.39 0.1-0.39 2.44-0.39h2.37v0.94 0.94h-1.53c-1.41 0-1.53 0.02-1.53 0.34s-0.12 0.34-3.56 0.34h-3.56l-0.07 0.82c-0.02 0.44-0.03 1.16 0 1.62l0.05 0.8h5.11 5.1v0.85 0.85h-5.97-5.97v-3.32z"/><path d="m48.03 37.04-0.05-4.57h-11.76c-6.46 0-11.97-0.02-12.22-0.05l-0.48-0.03-0.03-3.27-0.05-3.29-1.7-0.05c-2.34-0.07-2.47-0.02-2.47 0.82v0.68h-7.57c-7.41 0-7.57 0-7.65-0.34-0.09-0.32-0.24-0.34-2.06-0.34h-1.98v-1.02-1.02l3.87-0.03 3.89-0.05 0.05-12.22 0.03-12.24h0.94 0.94l0.03 8.4c0.02 4.6 0.03 10.31 0.03 12.65l0.02 4.26 3.72 0.05 3.7 0.03v-0.55c0-1.02-0.07-1.01 4.19-0.95l3.9 0.05 0.15 3.2 0.15 3.19h5.42 5.44v-2.11c0-1.16 0.05-2.23 0.1-2.39 0.09-0.22 0.44-0.27 2.13-0.27h2.03v-0.58c0-0.66 0.19-0.78 1.3-0.78h0.75v-12.1-12.1h0.94 0.94v8.57c0 8.23 0.12 15.14 0.26 15.6 0.05 0.15 0.75 0.2 2.69 0.2 1.81 0 2.68 0.07 2.81 0.2 0.15 0.15 0.2 1.35 0.2 4.35v4.14h4.69 4.69v0.92c0 0.89-0.02 0.92-0.53 1.02-0.29 0.05-2.56 0.1-5.03 0.1h-4.5v2.3 2.3l4.31 0.02c2.35 0.02 4.62 0.02 5.03-0.02l0.72-0.03v0.95 0.95h-5.97-5.97l-0.03-4.55zm0.55-8.66v-2.13h-2.97-2.98l-0.05 0.56-0.05 0.55-4.1 0.18-0.05 1.26c-0.03 0.7-0.02 1.36 0.03 1.5 0.07 0.17 1.07 0.22 5.13 0.22h5.03v-2.13z"/><path d="m13.01 16.09c-0.27-0.07-0.41-0.26-0.49-0.66-0.12-0.72 0.05-9.8 0.19-9.95 0.15-0.15 25.99-0.2 26.88-0.05l0.73 0.14 0.05 5.23 0.03 5.23h-12.65c-6.97 0-13.04 0.03-13.52 0.07-0.46 0.05-1.02 0.03-1.23 0zm25.91-1.72c0.05-0.17 0.07-1.91 0.05-3.89l-0.02-3.58h-12.44-12.44l-0.05 3.66c-0.02 2.01 0 3.75 0.03 3.87 0.07 0.17 2.59 0.22 12.44 0.22 11.63 0 12.36-0.02 12.43-0.29z"/></g><rect x="14.938" y="91.031" width="5.0823" height="5.0381" fill="#f2f2f2"/><rect x="4.2704" y="144.62" width="9.6022" height="7.3243" fill="#1a1a1a"/><rect x="15.125" y="82.062" width="5.0823" height="5.0381" fill="#f2f2f2"/><g fill="#705b38"><path d="m55.4 148.99-1.28-0.1v-0.51c-0.02-0.34-0.1-0.53-0.31-0.56-0.38-0.07-0.41-1.06-0.05-1.06 0.17 0 0.27-0.24 0.31-0.72l0.05-0.73 2.01-0.05c1.93-0.05 1.99-0.05 1.99 0.29 0 0.29-0.1 0.36-0.51 0.36h-0.51v1.28 1.28h0.94c0.68 0 0.94 0.07 0.94 0.24 0 0.44-0.75 0.49-3.58 0.29z"/><path d="m55.28 134.88-1.24-0.07v-0.58c0-0.41-0.09-0.6-0.26-0.6s-0.26-0.17-0.26-0.51 0.09-0.51 0.26-0.51c0.19 0 0.26-0.2 0.26-0.77v-0.77h1.53 1.53v1.62 1.62h1.19c1.07 0 1.19 0.03 1.19 0.34 0 0.32-0.1 0.34-1.48 0.31-0.84-0.02-2.06-0.07-2.73-0.09z"/><path d="m58.13 131.35c0-0.24 0.49-0.44 1.16-0.44 0.26 0 0.38 0.1 0.38 0.34 0 0.29-0.12 0.34-0.77 0.34-0.55 0-0.77-0.07-0.77-0.24z"/><path d="m54.15 120.9c-0.07-0.05-0.12-0.41-0.12-0.77 0-0.46-0.07-0.65-0.26-0.65-0.17 0-0.26-0.19-0.26-0.6s0.09-0.6 0.26-0.6 0.26-0.17 0.26-0.58c0-0.32 0.05-0.63 0.14-0.66 0.07-0.05 1.33-0.14 2.81-0.2 2.66-0.14 2.68-0.14 2.68 0.24 0 0.34-0.09 0.36-1.28 0.36h-1.28v1.79 1.79h-1.41c-0.78 0-1.48-0.05-1.53-0.12z"/><path d="m55.4 106.89-1.28-0.1-0.05-0.72c-0.03-0.49-0.14-0.73-0.31-0.73-0.15 0-0.24-0.19-0.24-0.58 0-0.43 0.09-0.6 0.34-0.66 0.27-0.07 0.32-0.2 0.29-0.75l-0.03-0.65 1.5-0.05 1.48-0.05v1.89 1.88h1.28c1.16 0 1.28 0.03 1.28 0.34 0 0.32-0.1 0.34-1.48 0.31-0.84-0.02-2.08-0.07-2.78-0.12z"/><path d="m54.15 92.61c-0.07-0.05-0.12-0.41-0.12-0.77 0-0.46-0.07-0.65-0.26-0.65-0.41 0-0.34-0.95 0.09-1.07 0.24-0.07 0.31-0.19 0.26-0.48-0.17-0.9 0-1.01 1.55-1.01h1.43v2.05 2.05h-1.41c-0.78 0-1.48-0.05-1.53-0.12z"/><path d="m54.2 78c0-0.6-0.17-0.95-0.44-0.95-0.38 0-0.31-0.99 0.07-1.06 0.22-0.03 0.29-0.22 0.29-0.73v-0.68l1.5-0.05 1.48-0.05v1.98 1.96h-1.45c-1.41 0-1.45-0.02-1.45-0.41z"/><path d="m58.3 74.76c0-0.27 0.55-0.44 1.02-0.32 0.63 0.17 0.39 0.56-0.34 0.56-0.46 0-0.68-0.07-0.68-0.24z"/><path d="m55.28 64.48-1.24-0.07v-0.68c0-0.44-0.09-0.72-0.26-0.77-0.14-0.07-0.26-0.29-0.26-0.51 0-0.26 0.1-0.41 0.26-0.41 0.19 0 0.26-0.2 0.26-0.77v-0.77h1.18c1.02 0 1.18-0.03 1.26-0.34 0.05-0.19 0.22-0.34 0.38-0.34 0.26 0 0.27 0.14 0.17 1.19-0.07 0.65-0.07 1.57 0 2.05l0.12 0.85h1.18c1.06 0 1.18 0.03 1.18 0.34 0 0.32-0.1 0.34-1.48 0.31-0.84-0.02-2.06-0.07-2.73-0.09z"/></g><g fill="#9c8761"><path d="m56.59 147.2v-1.76l0.78-0.12c0.44-0.05 1.14-0.1 1.57-0.1h0.77l-0.12 0.53c-0.05 0.29-0.1 1.14-0.1 1.88v1.35h-1.45-1.45v-1.77z"/><path d="m57.84 134.88-1.24-0.07v-1.86-1.88h1.45 1.45v1.43c0 0.78 0.05 1.67 0.1 1.96 0.1 0.44 0.07 0.53-0.2 0.49-0.19-0.02-0.89-0.07-1.55-0.09z"/><path d="m53.52 133.04c0-0.24 0.1-0.43 0.22-0.43 0.34 0 0.43 0.15 0.34 0.53-0.14 0.48-0.56 0.41-0.56-0.1z"/><path d="m56.59 118.98v-2.05h1.45 1.45v1.52c0 0.84 0.05 1.76 0.1 2.05l0.12 0.53h-1.57-1.55v-2.05z"/><path d="m56.59 104.74v-2.13h1.5 1.48v2.13 2.13h-1.48-1.5v-2.13z"/><path d="m56.59 90.68v-2.05h1.45 1.45v1.52c0 0.84 0.05 1.76 0.1 2.05l0.12 0.53h-1.57-1.55v-2.05z"/><path d="m56.59 76.45v-1.96h1.55 1.57l-0.12 0.53c-0.05 0.29-0.1 1.18-0.1 1.96v1.43h-1.45-1.45v-1.96z"/><path d="m56.59 62.13v-2.3h1.45 1.45v2.3 2.3h-1.45-1.45v-2.3z"/></g><g fill="#b7ae83"><path d="m59.01 147.15c0.05-1.59 0.09-1.84 0.36-1.89 0.26-0.05 0.29 0.12 0.29 1.82 0 1.79-0.02 1.89-0.34 1.89-0.34 0-0.36-0.09-0.31-1.82z"/><path d="m58.98 132.95c0-1.76 0.02-1.88 0.34-1.88s0.34 0.12 0.34 1.88-0.02 1.88-0.34 1.88-0.34-0.12-0.34-1.88z"/><path d="m59.1 120.9c-0.07-0.05-0.12-0.97-0.12-2.05 0-1.81 0.02-1.93 0.34-1.93s0.34 0.12 0.34 2.05c0 1.59-0.05 2.05-0.22 2.05-0.14 0-0.29-0.05-0.34-0.12z"/><path d="m59.05 106.65c-0.03-0.12-0.05-1.06-0.03-2.1 0.05-1.6 0.09-1.86 0.36-1.91 0.26-0.05 0.29 0.14 0.29 2.08 0 1.82-0.03 2.15-0.26 2.15-0.15 0-0.31-0.1-0.36-0.22z"/><path d="m59.1 92.61c-0.07-0.05-0.12-0.97-0.12-2.05 0-1.81 0.02-1.93 0.34-1.93s0.34 0.12 0.34 2.05c0 1.59-0.05 2.05-0.22 2.05-0.14 0-0.29-0.05-0.34-0.12z"/><path d="m59.01 76.5 0.05-1.93 0.48-0.05c0.38-0.05 0.46 0.02 0.46 0.29 0 0.2-0.07 0.36-0.17 0.36s-0.17 0.65-0.17 1.62c0 1.52-0.02 1.62-0.34 1.62-0.34 0-0.36-0.09-0.31-1.91z"/><path d="m58.98 62.13c0-2.18 0.02-2.3 0.34-2.3s0.34 0.12 0.34 2.3-0.02 2.3-0.34 2.3-0.34-0.12-0.34-2.3z"/></g><g transform="matrix(.96411 0 0 1.0464 .51735 -1.3132)" fill="#999"><path d="m23.659 42.1-18.32-0.09 3.07-2.83c1.69-1.55 3.22-2.91 3.43-3.02 0.27-0.15 4.38-0.2 15.38-0.2h15.02v1.41c0 0.77 0.02 2.16 0.03 3.09 0.02 0.97-0.03 1.7-0.12 1.7-0.1 0.02-8.4-0.02-18.48-0.07z" fill="#999"/></g><g fill="#bebba3"><path d="m59.15 147.1v-1.88h0.43 0.43v1.88 1.88h-0.43-0.43v-1.88z"/><path d="m59.15 132.95v-1.88h0.43 0.43v1.88 1.88h-0.43-0.43v-1.88z"/><path d="m59.15 118.98v-2.05h0.43 0.43v2.05 2.05h-0.43-0.43v-2.05z"/><path d="m59.15 104.74v-2.13h0.43 0.43v2.13 2.13h-0.43-0.43v-2.13z"/><path d="m59.15 90.68v-2.05h0.43 0.43v2.05 2.05h-0.43-0.43v-2.05z"/><path d="m59.15 76.53v-1.88h0.43 0.43v1.88 1.88h-0.43-0.43v-1.88z"/><path d="m59.15 62.13v-2.3h0.43 0.43v2.3 2.3h-0.43-0.43v-2.3z"/></g><rect x="12.938" y="144.19" width="33.25" height="3.375" fill-opacity="0"/><g fill="#f2f2f2"><rect x="15" y="100" width="5.0823" height="5.0381"/><rect x="15" y="109" width="5.0823" height="5.0381"/><g stroke="#000"><rect x="14.922" y="135.84" width="5.0823" height="5.0381"/><rect x="14.905" y="117.83" width="5.0823" height="5.0381"/><rect x="14.916" y="126.5" width="5.0823" height="5.0381"/><rect x="14.915" y="109.1" width="5.0823" height="5.0381"/><rect x="14.902" y="99.837" width="5.0823" height="5.0381"/></g></g><g fill="#999" stroke-opacity="0"><circle cx="20.771" cy="477.39" r="9.0796"/><circle cx="42.657" cy="477.63" r="9.0796"/><circle cx="43.363" cy="443.57" r="9.0796"/><circle cx="20.003" cy="443.38" r="9.0796"/><circle cx="43.404" cy="409.55" r="9.0796"/><circle cx="19.794" cy="410.28" r="9.0796"/><circle cx="19.747" cy="376.53" r="9.0796"/><circle cx="43.18" cy="377.18" r="9.0796"/><circle cx="42.984" cy="342.86" r="9.0796"/><circle cx="19.943" cy="343.28" r="9.0796"/><circle cx="20.149" cy="309.65" r="9.0796"/><circle cx="43.067" cy="309.4" r="9.0796"/><circle cx="20.242" cy="275.93" r="9.0796"/><circle cx="43.43" cy="275.93" r="9.0796"/><circle cx="43.078" cy="241.78" r="9.0796"/><circle cx="19.617" cy="240.77" r="9.0796"/><circle cx="19.742" cy="207.52" r="9.0796"/><circle cx="42.367" cy="207.43" r="9.0796"/></g><g fill="#f2f2f2" stroke="#000"><rect x="14.908" y="90.925" width="5.0823" height="5.0381"/><rect x="14.904" y="81.97" width="5.0823" height="5.0381"/><rect x="14.92" y="72.942" width="5.0823" height="5.0381"/><rect x="14.921" y="63.898" width="5.0823" height="5.0381"/><rect x="14.9" y="54.765" width="5.0823" height="5.0381"/><rect x="27.794" y="135.8" width="5.0823" height="5.0381"/><rect x="27.778" y="117.79" width="5.0823" height="5.0381"/><rect x="27.789" y="126.46" width="5.0823" height="5.0381"/><rect x="27.788" y="109.05" width="5.0823" height="5.0381"/><rect x="27.774" y="99.789" width="5.0823" height="5.0381"/><rect x="27.78" y="90.878" width="5.0823" height="5.0381"/><rect x="27.776" y="81.922" width="5.0823" height="5.0381"/><rect x="27.793" y="72.894" width="5.0823" height="5.0381"/><rect x="27.793" y="63.85" width="5.0823" height="5.0381"/><rect x="27.772" y="54.717" width="5.0823" height="5.0381"/></g><rect x="63.198" y="198.08" width="15.556" height="13.17" fill="none"/><g><circle cx="19.711" cy="191.01" r="2.6737" display="none"/><g><rect x="11.645" y="185.84" width="16.241" height="10.607" fill="#ff7f2a"/><rect x="18.915" y="186.53" width="1.591" height="8.7672" fill="#f95"/><circle cx="19.722" cy="190.89" r="2.1545"/></g><path d="m17.47 216.9c-3.51-0.66-6.39-3.19-7.41-6.55-0.41-1.3-0.46-4.4-0.1-5.73 0.6-2.28 2.42-4.67 4.28-5.64 1.47-0.77 1.26-0.92-1.19-0.92-1.18 0-2.13-0.02-2.15-0.03 0-0.03-0.05-2.81-0.09-6.19-0.07-4.06 0.11062-5.9506 0.09-6.61l-0.0053-0.46781 9.0053 0.03781 8.83 0.05v13.12l-2.08 0.05c-1.16 0.02-2.1 0.1-2.1 0.17s0.36 0.31 0.8 0.55c1.91 1.01 3.68 3.2 4.35 5.37 0.49 1.57 0.53 4.6 0.07 6.14-0.95 3.24-3.41 5.66-6.55 6.48-1.55 0.39-4.11 0.48-5.74 0.17zm4.84-1.98c3.72-1.19 6.49-5.28 5.85-8.63-0.46-2.34-2.23-4.79-4.24-5.88-2.59-1.41-6.02-1.28-8.57 0.38-1.93 1.24-3.49 3.7-3.68 5.81-0.32 3.41 2.01 6.85 5.51 8.16 1.74 0.65 3.43 0.7 5.15 0.15zm0.53-17.57v-0.48h-6.14v0.94h6.14zm-9.03-1.48c0-0.48 0.34041-0.56734 1.3904-0.63734 0.58-0.05 2.9396 0.0273 5.6496 0.0773l4.89 0.09v0.48c0 0.46 0.05 0.49 0.68 0.49h0.68l-0.03-4.89-0.05-4.91-7.19-0.05-7.21-0.03v9.88h0.6c0.55 0 0.6-0.05 0.6-0.49z"/><g transform="translate(.021309 33.753)"><g><rect x="11.645" y="185.84" width="16.241" height="10.607" fill="#ff7f2a"/><rect x="18.915" y="186.53" width="1.591" height="8.7672" fill="#f95"/><circle cx="19.722" cy="190.89" r="2.1545"/></g><path d="m17.47 216.9c-3.51-0.66-6.39-3.19-7.41-6.55-0.41-1.3-0.46-4.4-0.1-5.73 0.6-2.28 2.42-4.67 4.28-5.64 1.47-0.77 1.26-0.92-1.19-0.92-1.18 0-2.13-0.02-2.15-0.03 0-0.03-0.05-2.81-0.09-6.19-0.07-4.06 0.11062-5.9506 0.09-6.61l-0.0053-0.46781 9.0053 0.0378 8.83 0.05v13.12l-2.08 0.05c-1.16 0.02-2.1 0.1-2.1 0.17s0.36 0.31 0.8 0.55c1.91 1.01 3.68 3.2 4.35 5.37 0.49 1.57 0.53 4.6 0.07 6.14-0.95 3.24-3.41 5.66-6.55 6.48-1.55 0.39-4.11 0.48-5.74 0.17zm4.84-1.98c3.72-1.19 6.49-5.28 5.85-8.63-0.46-2.34-2.23-4.79-4.24-5.88-2.59-1.41-6.02-1.28-8.57 0.38-1.93 1.24-3.49 3.7-3.68 5.81-0.32 3.41 2.01 6.85 5.51 8.16 1.74 0.65 3.43 0.7 5.15 0.15zm0.53-17.57v-0.48h-6.14v0.94h6.14zm-9.03-1.48c0-0.48 0.34041-0.56734 1.3904-0.63734 0.58-0.05 2.9396 0.0273 5.6496 0.0773l4.89 0.09v0.48c0 0.46 0.05 0.49 0.68 0.49h0.68l-0.03-4.89-0.05-4.91-7.19-0.05-7.21-0.03v9.88h0.6c0.55 0 0.6-0.05 0.6-0.49z"/></g><g transform="translate(.78148 68.113)"><g><rect x="11.645" y="185.84" width="16.241" height="10.607" fill="#ff7f2a"/><rect x="18.915" y="186.53" width="1.591" height="8.7672" fill="#f95"/><circle cx="19.722" cy="190.89" r="2.1545"/></g><path d="m16.731 216.9c-3.51-0.66-6.39-3.19-7.41-6.55-0.41-1.3-0.46-4.4-0.1-5.73 0.6-2.28 2.42-4.67 4.28-5.64 1.47-0.77 1.26-0.92-1.19-0.92-1.18 0-2.13-0.02-2.15-0.03 0-0.03-0.05-2.81-0.09-6.19-0.07-4.06 0.11062-5.9506 0.09-6.61l-0.0053-0.46781 9.0053 0.0378 8.83 0.05v13.12l-2.08 0.05c-1.16 0.02-2.1 0.1-2.1 0.17s0.36 0.31 0.8 0.55c1.91 1.01 3.68 3.2 4.35 5.37 0.49 1.57 0.53 4.6 0.07 6.14-0.95 3.24-3.41 5.66-6.55 6.48-1.55 0.39-4.11 0.48-5.74 0.17zm4.84-1.98c3.72-1.19 6.49-5.28 5.85-8.63-0.46-2.34-2.23-4.79-4.24-5.88-2.59-1.41-6.02-1.28-8.57 0.38-1.93 1.24-3.49 3.7-3.68 5.81-0.32 3.41 2.01 6.85 5.51 8.16 1.74 0.65 3.43 0.7 5.15 0.15zm0.53-17.57v-0.48h-6.14v0.94h6.14zm-9.03-1.48c0-0.48 0.34041-0.56734 1.3904-0.63734 0.58-0.05 2.9396 0.0273 5.6496 0.0773l4.89 0.09v0.48c0 0.46 0.05 0.49 0.68 0.49h0.68l-0.03-4.89-0.05-4.91-7.19-0.05-7.21-0.03v9.88h0.6c0.55 0 0.6-0.05 0.6-0.49z"/></g><g transform="translate(.027692 101.86)"><g><rect x="11.645" y="185.84" width="16.241" height="10.607" fill="#ff7f2a"/><rect x="18.915" y="186.53" width="1.591" height="8.7672" fill="#f95"/><circle cx="19.722" cy="190.89" r="2.1545"/></g><path d="m17.47 216.9c-3.51-0.66-6.39-3.19-7.41-6.55-0.41-1.3-0.46-4.4-0.1-5.73 0.6-2.28 2.42-4.67 4.28-5.64 1.47-0.77 1.26-0.92-1.19-0.92-1.18 0-2.13-0.02-2.15-0.03 0-0.03-0.05-2.81-0.09-6.19-0.07-4.06 0.11062-5.9506 0.09-6.61l-0.0053-0.46781 9.0053 0.0378 8.83 0.05v13.12l-2.08 0.05c-1.16 0.02-2.1 0.1-2.1 0.17s0.36 0.31 0.8 0.55c1.91 1.01 3.68 3.2 4.35 5.37 0.49 1.57 0.53 4.6 0.07 6.14-0.95 3.24-3.41 5.66-6.55 6.48-1.55 0.39-4.11 0.48-5.74 0.17zm4.84-1.98c3.72-1.19 6.49-5.28 5.85-8.63-0.46-2.34-2.23-4.79-4.24-5.88-2.59-1.41-6.02-1.28-8.57 0.38-1.93 1.24-3.49 3.7-3.68 5.81-0.32 3.41 2.01 6.85 5.51 8.16 1.74 0.65 3.43 0.7 5.15 0.15zm0.53-17.57v-0.48h-6.14v0.94h6.14zm-9.03-1.48c0-0.48 0.34041-0.56734 1.3904-0.63734 0.58-0.05 2.9396 0.0273 5.6496 0.0773l4.89 0.09v0.48c0 0.46 0.05 0.49 0.68 0.49h0.68l-0.03-4.89-0.05-4.91-7.19-0.05-7.21-0.03v9.88h0.6c0.55 0 0.6-0.05 0.6-0.49z"/></g><g transform="translate(.02864 135.36)"><g><rect x="11.645" y="185.84" width="16.241" height="10.607" fill="#ff7f2a"/><rect x="18.915" y="186.53" width="1.591" height="8.7672" fill="#f95"/><circle cx="19.722" cy="190.89" r="2.1545"/></g><path d="m17.47 216.9c-3.51-0.66-6.39-3.19-7.41-6.55-0.41-1.3-0.46-4.4-0.1-5.73 0.6-2.28 2.42-4.67 4.28-5.64 1.47-0.77 1.26-0.92-1.19-0.92-1.18 0-2.13-0.02-2.15-0.03 0-0.03-0.05-2.81-0.09-6.19-0.07-4.06 0.11062-5.9506 0.09-6.61l-0.0053-0.46781 9.0053 0.0378 8.83 0.05v13.12l-2.08 0.05c-1.16 0.02-2.1 0.1-2.1 0.17s0.36 0.31 0.8 0.55c1.91 1.01 3.68 3.2 4.35 5.37 0.49 1.57 0.53 4.6 0.07 6.14-0.95 3.24-3.41 5.66-6.55 6.48-1.55 0.39-4.11 0.48-5.74 0.17zm4.84-1.98c3.72-1.19 6.49-5.28 5.85-8.63-0.46-2.34-2.23-4.79-4.24-5.88-2.59-1.41-6.02-1.28-8.57 0.38-1.93 1.24-3.49 3.7-3.68 5.81-0.32 3.41 2.01 6.85 5.51 8.16 1.74 0.65 3.43 0.7 5.15 0.15zm0.53-17.57v-0.48h-6.14v0.94h6.14zm-9.03-1.48c0-0.48 0.34041-0.56734 1.3904-0.63734 0.58-0.05 2.9396 0.0273 5.6496 0.0773l4.89 0.09v0.48c0 0.46 0.05 0.49 0.68 0.49h0.68l-0.03-4.89-0.05-4.91-7.19-0.05-7.21-0.03v9.88h0.6c0.55 0 0.6-0.05 0.6-0.49z"/></g><g transform="translate(.031484 169.11)"><g><rect x="11.645" y="185.84" width="16.241" height="10.607" fill="#ff7f2a"/><rect x="18.915" y="186.53" width="1.591" height="8.7672" fill="#f95"/><circle cx="19.722" cy="190.89" r="2.1545"/></g><path d="m17.47 216.9c-3.51-0.66-6.39-3.19-7.41-6.55-0.41-1.3-0.46-4.4-0.1-5.73 0.6-2.28 2.42-4.67 4.28-5.64 1.47-0.77 1.26-0.92-1.19-0.92-1.18 0-2.13-0.02-2.15-0.03 0-0.03-0.05-2.81-0.09-6.19-0.07-4.06 0.11062-5.9506 0.09-6.61l-0.0053-0.46781 9.0053 0.0378 8.83 0.05v13.12l-2.08 0.05c-1.16 0.02-2.1 0.1-2.1 0.17s0.36 0.31 0.8 0.55c1.91 1.01 3.68 3.2 4.35 5.37 0.49 1.57 0.53 4.6 0.07 6.14-0.95 3.24-3.41 5.66-6.55 6.48-1.55 0.39-4.11 0.48-5.74 0.17zm4.84-1.98c3.72-1.19 6.49-5.28 5.85-8.63-0.46-2.34-2.23-4.79-4.24-5.88-2.59-1.41-6.02-1.28-8.57 0.38-1.93 1.24-3.49 3.7-3.68 5.81-0.32 3.41 2.01 6.85 5.51 8.16 1.74 0.65 3.43 0.7 5.15 0.15zm0.53-17.57v-0.48h-6.14v0.94h6.14zm-9.03-1.48c0-0.48 0.34041-0.56734 1.3904-0.63734 0.58-0.05 2.9396 0.0273 5.6496 0.0773l4.89 0.09v0.48c0 0.46 0.05 0.49 0.68 0.49h0.68l-0.03-4.89-0.05-4.91-7.19-0.05-7.21-0.03v9.88h0.6c0.55 0 0.6-0.05 0.6-0.49z"/></g><g transform="translate(.026717 202.33)"><g><rect x="11.645" y="185.84" width="16.241" height="10.607" fill="#ff7f2a"/><rect x="18.915" y="186.53" width="1.591" height="8.7672" fill="#f95"/><circle cx="19.722" cy="190.89" r="2.1545"/></g><path d="m17.47 216.9c-3.51-0.66-6.39-3.19-7.41-6.55-0.41-1.3-0.46-4.4-0.1-5.73 0.6-2.28 2.42-4.67 4.28-5.64 1.47-0.77 1.26-0.92-1.19-0.92-1.18 0-2.13-0.02-2.15-0.03 0-0.03-0.05-2.81-0.09-6.19-0.07-4.06 0.11062-5.9506 0.09-6.61l-0.0053-0.46781 9.0053 0.0378 8.83 0.05v13.12l-2.08 0.05c-1.16 0.02-2.1 0.1-2.1 0.17s0.36 0.31 0.8 0.55c1.91 1.01 3.68 3.2 4.35 5.37 0.49 1.57 0.53 4.6 0.07 6.14-0.95 3.24-3.41 5.66-6.55 6.48-1.55 0.39-4.11 0.48-5.74 0.17zm4.84-1.98c3.72-1.19 6.49-5.28 5.85-8.63-0.46-2.34-2.23-4.79-4.24-5.88-2.59-1.41-6.02-1.28-8.57 0.38-1.93 1.24-3.49 3.7-3.68 5.81-0.32 3.41 2.01 6.85 5.51 8.16 1.74 0.65 3.43 0.7 5.15 0.15zm0.53-17.57v-0.48h-6.14v0.94h6.14zm-9.03-1.48c0-0.48 0.34041-0.56734 1.3904-0.63734 0.58-0.05 2.9396 0.0273 5.6496 0.0773l4.89 0.09v0.48c0 0.46 0.05 0.49 0.68 0.49h0.68l-0.03-4.89-0.05-4.91-7.19-0.05-7.21-0.03v9.88h0.6c0.55 0 0.6-0.05 0.6-0.49z"/></g><g transform="translate(.47527 236.14)"><g><rect x="11.645" y="185.84" width="16.241" height="10.607" fill="#ff7f2a"/><rect x="18.915" y="186.53" width="1.591" height="8.7672" fill="#f95"/><circle cx="19.722" cy="190.89" r="2.1545"/></g><path d="m17.013 216.9c-3.51-0.66-6.39-3.19-7.41-6.55-0.41-1.3-0.46-4.4-0.1-5.73 0.6-2.28 2.42-4.67 4.28-5.64 1.47-0.77 1.26-0.92-1.19-0.92-1.18 0-2.13-0.02-2.15-0.03 0-0.03-0.05-2.81-0.09-6.19-0.07-4.06 0.11062-5.9506 0.09-6.61l-0.0053-0.46781 9.0053 0.0378 8.83 0.05v13.12l-2.08 0.05c-1.16 0.02-2.1 0.1-2.1 0.17s0.36 0.31 0.8 0.55c1.91 1.01 3.68 3.2 4.35 5.37 0.49 1.57 0.53 4.6 0.07 6.14-0.95 3.24-3.41 5.66-6.55 6.48-1.55 0.39-4.11 0.48-5.74 0.17zm4.84-1.98c3.72-1.19 6.49-5.28 5.85-8.63-0.46-2.34-2.23-4.79-4.24-5.88-2.59-1.41-6.02-1.28-8.57 0.38-1.93 1.24-3.49 3.7-3.68 5.81-0.32 3.41 2.01 6.85 5.51 8.16 1.74 0.65 3.43 0.7 5.15 0.15zm0.53-17.57v-0.48h-6.14v0.94h6.14zm-9.03-1.48c0-0.48 0.34041-0.56734 1.3904-0.63734 0.58-0.05 2.9396 0.0273 5.6496 0.0773l4.89 0.09v0.48c0 0.46 0.05 0.49 0.68 0.49h0.68l-0.03-4.89-0.05-4.91-7.19-0.05-7.21-0.03v9.88h0.6c0.55 0 0.6-0.05 0.6-0.49z"/></g><g transform="translate(.017468 270.08)"><g><rect x="11.645" y="185.84" width="16.241" height="10.607" fill="#ff7f2a"/><rect x="18.915" y="186.53" width="1.591" height="8.7672" fill="#f95"/><circle cx="19.722" cy="190.89" r="2.1545"/></g><path d="m17.47 216.9c-3.51-0.66-6.39-3.19-7.41-6.55-0.41-1.3-0.46-4.4-0.1-5.73 0.6-2.28 2.42-4.67 4.28-5.64 1.47-0.77 1.26-0.92-1.19-0.92-1.18 0-2.13-0.02-2.15-0.03 0-0.03-0.05-2.81-0.09-6.19-0.07-4.06 0.11062-5.9506 0.09-6.61l-0.0053-0.46781 9.0053 0.0378 8.83 0.05v13.12l-2.08 0.05c-1.16 0.02-2.1 0.1-2.1 0.17s0.36 0.31 0.8 0.55c1.91 1.01 3.68 3.2 4.35 5.37 0.49 1.57 0.53 4.6 0.07 6.14-0.95 3.24-3.41 5.66-6.55 6.48-1.55 0.39-4.11 0.48-5.74 0.17zm4.84-1.98c3.72-1.19 6.49-5.28 5.85-8.63-0.46-2.34-2.23-4.79-4.24-5.88-2.59-1.41-6.02-1.28-8.57 0.38-1.93 1.24-3.49 3.7-3.68 5.81-0.32 3.41 2.01 6.85 5.51 8.16 1.74 0.65 3.43 0.7 5.15 0.15zm0.53-17.57v-0.48h-6.14v0.94h6.14zm-9.03-1.48c0-0.48 0.34041-0.56734 1.3904-0.63734 0.58-0.05 2.9396 0.0273 5.6496 0.0773l4.89 0.09v0.48c0 0.46 0.05 0.49 0.68 0.49h0.68l-0.03-4.89-0.05-4.91-7.19-0.05-7.21-0.03v9.88h0.6c0.55 0 0.6-0.05 0.6-0.49z"/></g><g transform="translate(23.172 -.10594)"><g><rect x="11.645" y="185.84" width="16.241" height="10.607" fill="#ff7f2a"/><rect x="18.915" y="186.53" width="1.591" height="8.7672" fill="#f95"/><circle cx="19.722" cy="190.89" r="2.1545"/></g><path d="m17.47 216.9c-3.51-0.66-6.39-3.19-7.41-6.55-0.41-1.3-0.46-4.4-0.1-5.73 0.6-2.28 2.42-4.67 4.28-5.64 1.47-0.77 1.26-0.92-1.19-0.92-1.18 0-2.13-0.02-2.15-0.03 0-0.03-0.05-2.81-0.09-6.19-0.07-4.06 0.11062-5.9506 0.09-6.61l-0.0053-0.46781 9.0053 0.0378 8.83 0.05v13.12l-2.08 0.05c-1.16 0.02-2.1 0.1-2.1 0.17s0.36 0.31 0.8 0.55c1.91 1.01 3.68 3.2 4.35 5.37 0.49 1.57 0.53 4.6 0.07 6.14-0.95 3.24-3.41 5.66-6.55 6.48-1.55 0.39-4.11 0.48-5.74 0.17zm4.84-1.98c3.72-1.19 6.49-5.28 5.85-8.63-0.46-2.34-2.23-4.79-4.24-5.88-2.59-1.41-6.02-1.28-8.57 0.38-1.93 1.24-3.49 3.7-3.68 5.81-0.32 3.41 2.01 6.85 5.51 8.16 1.74 0.65 3.43 0.7 5.15 0.15zm0.53-17.57v-0.48h-6.14v0.94h6.14zm-9.03-1.48c0-0.48 0.34041-0.56734 1.3904-0.63734 0.58-0.05 2.9396 0.0273 5.6496 0.0773l4.89 0.09v0.48c0 0.46 0.05 0.49 0.68 0.49h0.68l-0.03-4.89-0.05-4.91-7.19-0.05-7.21-0.03v9.88h0.6c0.55 0 0.6-0.05 0.6-0.49z"/></g><g transform="translate(23.193 33.647)"><g><rect x="11.645" y="185.84" width="16.241" height="10.607" fill="#ff7f2a"/><rect x="18.915" y="186.53" width="1.591" height="8.7672" fill="#f95"/><circle cx="19.722" cy="190.89" r="2.1545"/></g><path d="m17.47 216.9c-3.51-0.66-6.39-3.19-7.41-6.55-0.41-1.3-0.46-4.4-0.1-5.73 0.6-2.28 2.42-4.67 4.28-5.64 1.47-0.77 1.26-0.92-1.19-0.92-1.18 0-2.13-0.02-2.15-0.03 0-0.03-0.05-2.81-0.09-6.19-0.07-4.06 0.11062-5.9506 0.09-6.61l-0.0053-0.46781 9.0053 0.0378 8.83 0.05v13.12l-2.08 0.05c-1.16 0.02-2.1 0.1-2.1 0.17s0.36 0.31 0.8 0.55c1.91 1.01 3.68 3.2 4.35 5.37 0.49 1.57 0.53 4.6 0.07 6.14-0.95 3.24-3.41 5.66-6.55 6.48-1.55 0.39-4.11 0.48-5.74 0.17zm4.84-1.98c3.72-1.19 6.49-5.28 5.85-8.63-0.46-2.34-2.23-4.79-4.24-5.88-2.59-1.41-6.02-1.28-8.57 0.38-1.93 1.24-3.49 3.7-3.68 5.81-0.32 3.41 2.01 6.85 5.51 8.16 1.74 0.65 3.43 0.7 5.15 0.15zm0.53-17.57v-0.48h-6.14v0.94h6.14zm-9.03-1.48c0-0.48 0.34041-0.56734 1.3904-0.63734 0.58-0.05 2.9396 0.0273 5.6496 0.0773l4.89 0.09v0.48c0 0.46 0.05 0.49 0.68 0.49h0.68l-0.03-4.89-0.05-4.91-7.19-0.05-7.21-0.03v9.88h0.6c0.55 0 0.6-0.05 0.6-0.49z"/></g><g transform="translate(23.954 68.007)"><g><rect x="11.645" y="185.84" width="16.241" height="10.607" fill="#ff7f2a"/><rect x="18.915" y="186.53" width="1.591" height="8.7672" fill="#f95"/><circle cx="19.722" cy="190.89" r="2.1545"/></g><path d="m16.731 216.9c-3.51-0.66-6.39-3.19-7.41-6.55-0.41-1.3-0.46-4.4-0.1-5.73 0.6-2.28 2.42-4.67 4.28-5.64 1.47-0.77 1.26-0.92-1.19-0.92-1.18 0-2.13-0.02-2.15-0.03 0-0.03-0.05-2.81-0.09-6.19-0.07-4.06 0.11062-5.9506 0.09-6.61l-0.0053-0.46781 9.0053 0.0378 8.83 0.05v13.12l-2.08 0.05c-1.16 0.02-2.1 0.1-2.1 0.17s0.36 0.31 0.8 0.55c1.91 1.01 3.68 3.2 4.35 5.37 0.49 1.57 0.53 4.6 0.07 6.14-0.95 3.24-3.41 5.66-6.55 6.48-1.55 0.39-4.11 0.48-5.74 0.17zm4.84-1.98c3.72-1.19 6.49-5.28 5.85-8.63-0.46-2.34-2.23-4.79-4.24-5.88-2.59-1.41-6.02-1.28-8.57 0.38-1.93 1.24-3.49 3.7-3.68 5.81-0.32 3.41 2.01 6.85 5.51 8.16 1.74 0.65 3.43 0.7 5.15 0.15zm0.53-17.57v-0.48h-6.14v0.94h6.14zm-9.03-1.48c0-0.48 0.34041-0.56734 1.3904-0.63734 0.58-0.05 2.9396 0.0273 5.6496 0.0773l4.89 0.09v0.48c0 0.46 0.05 0.49 0.68 0.49h0.68l-0.03-4.89-0.05-4.91-7.19-0.05-7.21-0.03v9.88h0.6c0.55 0 0.6-0.05 0.6-0.49z"/></g><g transform="translate(23.2 101.76)"><g><rect x="11.645" y="185.84" width="16.241" height="10.607" fill="#ff7f2a"/><rect x="18.915" y="186.53" width="1.591" height="8.7672" fill="#f95"/><circle cx="19.722" cy="190.89" r="2.1545"/></g><path d="m17.47 216.9c-3.51-0.66-6.39-3.19-7.41-6.55-0.41-1.3-0.46-4.4-0.1-5.73 0.6-2.28 2.42-4.67 4.28-5.64 1.47-0.77 1.26-0.92-1.19-0.92-1.18 0-2.13-0.02-2.15-0.03 0-0.03-0.05-2.81-0.09-6.19-0.07-4.06 0.11062-5.9506 0.09-6.61l-0.0053-0.46781 9.0053 0.0378 8.83 0.05v13.12l-2.08 0.05c-1.16 0.02-2.1 0.1-2.1 0.17s0.36 0.31 0.8 0.55c1.91 1.01 3.68 3.2 4.35 5.37 0.49 1.57 0.53 4.6 0.07 6.14-0.95 3.24-3.41 5.66-6.55 6.48-1.55 0.39-4.11 0.48-5.74 0.17zm4.84-1.98c3.72-1.19 6.49-5.28 5.85-8.63-0.46-2.34-2.23-4.79-4.24-5.88-2.59-1.41-6.02-1.28-8.57 0.38-1.93 1.24-3.49 3.7-3.68 5.81-0.32 3.41 2.01 6.85 5.51 8.16 1.74 0.65 3.43 0.7 5.15 0.15zm0.53-17.57v-0.48h-6.14v0.94h6.14zm-9.03-1.48c0-0.48 0.34041-0.56734 1.3904-0.63734 0.58-0.05 2.9396 0.0273 5.6496 0.0773l4.89 0.09v0.48c0 0.46 0.05 0.49 0.68 0.49h0.68l-0.03-4.89-0.05-4.91-7.19-0.05-7.21-0.03v9.88h0.6c0.55 0 0.6-0.05 0.6-0.49z"/></g><g transform="translate(23.201 135.26)"><g><rect x="11.645" y="185.84" width="16.241" height="10.607" fill="#ff7f2a"/><rect x="18.915" y="186.53" width="1.591" height="8.7672" fill="#f95"/><circle cx="19.722" cy="190.89" r="2.1545"/></g><path d="m17.47 216.9c-3.51-0.66-6.39-3.19-7.41-6.55-0.41-1.3-0.46-4.4-0.1-5.73 0.6-2.28 2.42-4.67 4.28-5.64 1.47-0.77 1.26-0.92-1.19-0.92-1.18 0-2.13-0.02-2.15-0.03 0-0.03-0.05-2.81-0.09-6.19-0.07-4.06 0.11062-5.9506 0.09-6.61l-0.0053-0.46781 9.0053 0.0378 8.83 0.05v13.12l-2.08 0.05c-1.16 0.02-2.1 0.1-2.1 0.17s0.36 0.31 0.8 0.55c1.91 1.01 3.68 3.2 4.35 5.37 0.49 1.57 0.53 4.6 0.07 6.14-0.95 3.24-3.41 5.66-6.55 6.48-1.55 0.39-4.11 0.48-5.74 0.17zm4.84-1.98c3.72-1.19 6.49-5.28 5.85-8.63-0.46-2.34-2.23-4.79-4.24-5.88-2.59-1.41-6.02-1.28-8.57 0.38-1.93 1.24-3.49 3.7-3.68 5.81-0.32 3.41 2.01 6.85 5.51 8.16 1.74 0.65 3.43 0.7 5.15 0.15zm0.53-17.57v-0.48h-6.14v0.94h6.14zm-9.03-1.48c0-0.48 0.34041-0.56734 1.3904-0.63734 0.58-0.05 2.9396 0.0273 5.6496 0.0773l4.89 0.09v0.48c0 0.46 0.05 0.49 0.68 0.49h0.68l-0.03-4.89-0.05-4.91-7.19-0.05-7.21-0.03v9.88h0.6c0.55 0 0.6-0.05 0.6-0.49z"/></g><g transform="translate(23.204 169.01)"><g><rect x="11.645" y="185.84" width="16.241" height="10.607" fill="#ff7f2a"/><rect x="18.915" y="186.53" width="1.591" height="8.7672" fill="#f95"/><circle cx="19.722" cy="190.89" r="2.1545"/></g><path d="m17.47 216.9c-3.51-0.66-6.39-3.19-7.41-6.55-0.41-1.3-0.46-4.4-0.1-5.73 0.6-2.28 2.42-4.67 4.28-5.64 1.47-0.77 1.26-0.92-1.19-0.92-1.18 0-2.13-0.02-2.15-0.03 0-0.03-0.05-2.81-0.09-6.19-0.07-4.06 0.11062-5.9506 0.09-6.61l-0.0053-0.46781 9.0053 0.0378 8.83 0.05v13.12l-2.08 0.05c-1.16 0.02-2.1 0.1-2.1 0.17s0.36 0.31 0.8 0.55c1.91 1.01 3.68 3.2 4.35 5.37 0.49 1.57 0.53 4.6 0.07 6.14-0.95 3.24-3.41 5.66-6.55 6.48-1.55 0.39-4.11 0.48-5.74 0.17zm4.84-1.98c3.72-1.19 6.49-5.28 5.85-8.63-0.46-2.34-2.23-4.79-4.24-5.88-2.59-1.41-6.02-1.28-8.57 0.38-1.93 1.24-3.49 3.7-3.68 5.81-0.32 3.41 2.01 6.85 5.51 8.16 1.74 0.65 3.43 0.7 5.15 0.15zm0.53-17.57v-0.48h-6.14v0.94h6.14zm-9.03-1.48c0-0.48 0.34041-0.56734 1.3904-0.63734 0.58-0.05 2.9396 0.0273 5.6496 0.0773l4.89 0.09v0.48c0 0.46 0.05 0.49 0.68 0.49h0.68l-0.03-4.89-0.05-4.91-7.19-0.05-7.21-0.03v9.88h0.6c0.55 0 0.6-0.05 0.6-0.49z"/></g><g transform="translate(23.199 202.22)"><g><rect x="11.645" y="185.84" width="16.241" height="10.607" fill="#ff7f2a"/><rect x="18.915" y="186.53" width="1.591" height="8.7672" fill="#f95"/><circle cx="19.722" cy="190.89" r="2.1545"/></g><path d="m17.47 216.9c-3.51-0.66-6.39-3.19-7.41-6.55-0.41-1.3-0.46-4.4-0.1-5.73 0.6-2.28 2.42-4.67 4.28-5.64 1.47-0.77 1.26-0.92-1.19-0.92-1.18 0-2.13-0.02-2.15-0.03 0-0.03-0.05-2.81-0.09-6.19-0.07-4.06 0.11062-5.9506 0.09-6.61l-0.0053-0.46781 9.0053 0.0378 8.83 0.05v13.12l-2.08 0.05c-1.16 0.02-2.1 0.1-2.1 0.17s0.36 0.31 0.8 0.55c1.91 1.01 3.68 3.2 4.35 5.37 0.49 1.57 0.53 4.6 0.07 6.14-0.95 3.24-3.41 5.66-6.55 6.48-1.55 0.39-4.11 0.48-5.74 0.17zm4.84-1.98c3.72-1.19 6.49-5.28 5.85-8.63-0.46-2.34-2.23-4.79-4.24-5.88-2.59-1.41-6.02-1.28-8.57 0.38-1.93 1.24-3.49 3.7-3.68 5.81-0.32 3.41 2.01 6.85 5.51 8.16 1.74 0.65 3.43 0.7 5.15 0.15zm0.53-17.57v-0.48h-6.14v0.94h6.14zm-9.03-1.48c0-0.48 0.34041-0.56734 1.3904-0.63734 0.58-0.05 2.9396 0.0273 5.6496 0.0773l4.89 0.09v0.48c0 0.46 0.05 0.49 0.68 0.49h0.68l-0.03-4.89-0.05-4.91-7.19-0.05-7.21-0.03v9.88h0.6c0.55 0 0.6-0.05 0.6-0.49z"/></g><g transform="translate(23.647 236.03)"><g><rect x="11.645" y="185.84" width="16.241" height="10.607" fill="#ff7f2a"/><rect x="18.915" y="186.53" width="1.591" height="8.7672" fill="#f95"/><circle cx="19.722" cy="190.89" r="2.1545"/></g><path d="m17.013 216.9c-3.51-0.66-6.39-3.19-7.41-6.55-0.41-1.3-0.46-4.4-0.1-5.73 0.6-2.28 2.42-4.67 4.28-5.64 1.47-0.77 1.26-0.92-1.19-0.92-1.18 0-2.13-0.02-2.15-0.03 0-0.03-0.05-2.81-0.09-6.19-0.07-4.06 0.11062-5.9506 0.09-6.61l-0.0053-0.46781 9.0053 0.0378 8.83 0.05v13.12l-2.08 0.05c-1.16 0.02-2.1 0.1-2.1 0.17s0.36 0.31 0.8 0.55c1.91 1.01 3.68 3.2 4.35 5.37 0.49 1.57 0.53 4.6 0.07 6.14-0.95 3.24-3.41 5.66-6.55 6.48-1.55 0.39-4.11 0.48-5.74 0.17zm4.84-1.98c3.72-1.19 6.49-5.28 5.85-8.63-0.46-2.34-2.23-4.79-4.24-5.88-2.59-1.41-6.02-1.28-8.57 0.38-1.93 1.24-3.49 3.7-3.68 5.81-0.32 3.41 2.01 6.85 5.51 8.16 1.74 0.65 3.43 0.7 5.15 0.15zm0.53-17.57v-0.48h-6.14v0.94h6.14zm-9.03-1.48c0-0.48 0.34041-0.56734 1.3904-0.63734 0.58-0.05 2.9396 0.0273 5.6496 0.0773l4.89 0.09v0.48c0 0.46 0.05 0.49 0.68 0.49h0.68l-0.03-4.89-0.05-4.91-7.19-0.05-7.21-0.03v9.88h0.6c0.55 0 0.6-0.05 0.6-0.49z"/></g><g transform="translate(23.19 269.98)"><g><rect x="11.645" y="185.84" width="16.241" height="10.607" fill="#ff7f2a"/><rect x="18.915" y="186.53" width="1.591" height="8.7672" fill="#f95"/><circle cx="19.722" cy="190.89" r="2.1545"/></g><path d="m17.47 216.9c-3.51-0.66-6.39-3.19-7.41-6.55-0.41-1.3-0.46-4.4-0.1-5.73 0.6-2.28 2.42-4.67 4.28-5.64 1.47-0.77 1.26-0.92-1.19-0.92-1.18 0-2.13-0.02-2.15-0.03 0-0.03-0.05-2.81-0.09-6.19-0.07-4.06 0.11062-5.9506 0.09-6.61l-0.0053-0.46781 9.0053 0.0378 8.83 0.05v13.12l-2.08 0.05c-1.16 0.02-2.1 0.1-2.1 0.17s0.36 0.31 0.8 0.55c1.91 1.01 3.68 3.2 4.35 5.37 0.49 1.57 0.53 4.6 0.07 6.14-0.95 3.24-3.41 5.66-6.55 6.48-1.55 0.39-4.11 0.48-5.74 0.17zm4.84-1.98c3.72-1.19 6.49-5.28 5.85-8.63-0.46-2.34-2.23-4.79-4.24-5.88-2.59-1.41-6.02-1.28-8.57 0.38-1.93 1.24-3.49 3.7-3.68 5.81-0.32 3.41 2.01 6.85 5.51 8.16 1.74 0.65 3.43 0.7 5.15 0.15zm0.53-17.57v-0.48h-6.14v0.94h6.14zm-9.03-1.48c0-0.48 0.34041-0.56734 1.3904-0.63734 0.58-0.05 2.9396 0.0273 5.6496 0.0773l4.89 0.09v0.48c0 0.46 0.05 0.49 0.68 0.49h0.68l-0.03-4.89-0.05-4.91-7.19-0.05-7.21-0.03v9.88h0.6c0.55 0 0.6-0.05 0.6-0.49z"/></g></g><g><rect x="4.773" y="145.05" width="7.3804" height="4.6846" fill="#999"/><rect x="14.231" y="492.85" width="4.5078" height="14.054"/><rect x="37.653" y="6.4523" width="2.0329" height="8.6621"/><rect x="5.701" y="42.18" width="35.517" height="9.891" fill="#999" stroke-opacity="0"/></g></svg>
