<svg xmlns="http://www.w3.org/2000/svg" xmlns:xlink="http://www.w3.org/1999/xlink" viewBox="0 0 265 839"><path d="M108 22h98v50h-98zM0 85h265v720H0z"/><path d="M115 14h96v71h-96z"/><path fill="#ccc" d="M105 326h104v350H105z"/><path fill="#1a1a1a" d="M146 87h106v236H146z"/><g fill="#081003"><path d="M160 766v-2l1-1v1h23l23-1 1 3z"/><use href="#a"/><path d="M186 755h-3v-11h12v11h-9m7-5-1-4v3l-1 4q-2 2 0 0h2zm-7 3-1-1q0-2 0 0zm4-4-2-1q-2 0-1 1l1 2q2 1 2-2m17-10v-5l1 6-1 4zm-47-11 1-10v20zM183 731l-1-10 7-1h6v11h-13m10-5q0-6-1-4l-1 1 1 3v3h-4q-4 0-3-2v1l-1 1h9zm-3-1-2-1-1 1 1 2q3 1 2-2m-5-3-1 2 1 1v-3m22-10v-2l1 2-1 2z"/><use y="-51" href="#a"/><path d="M183 702v-6h12v11h-12zm10 0v-4h-2v7h2zm-3 0q0-2-2-2l-1 2q0 2 2 1z"/><use href="#b"/><path d="m169 686 1-1 2 1-2 1q-2 0-1-1m5 0 17-1 17 1-17 1zM21 153l-1-1v-15l1-17 9-1 10 1-8 1h-9l-1 16v15l8 1 6 1-7 1c-7 0-7 0-8-2m148-16v-3q2 0 1 4v3zm85-7h4q3 1-1 1zm-85-4q0-6-2-5v-1h3l1 4q0 6-2 5zm-127-6 5-1 5 1-5 1zm28 0 3-1q2 1-1 2z"/><use href="#c"/><use x="7" href="#c"/><path d="m92 120 13-1 14 1-13 1zm30 0 10-1 9 1-10 1zm33 0zq8-1 9 1l-5 1z"/></g><g fill="#091e03"><path d="M160 765v-11h1v4l1 6-1 2zm21-4-6-1v-5h-4v3l-1 2h-7v-21h7l1 2v2h4v-1c0-4-1-4 16-4h16v3l-2 5q-3 2-3 4t3 4l2 4v3h-26m13-11v-5l-10 1v8h9z"/><use href="#d"/><use y="-5" href="#d"/><path d="M160 741q-1-4 1-6v7zm15-7v-2h-4v4h-8v-21h7l1 2v3h4v-5h16l16-1v3q0 3-2 4-2 2-3 5l2 3q3 2 3 5v3h-32zm19-8v-5h-5l-5 1v7l5 1h5zm-9-3 3-1 3 1-3 1zM160 720v-11l1-1v13zm15-10v-2h-4v2l-1 2h-7v-21h7l1 2v2h4v-5h31v3q0 3-2 5l-2 4 3 3q3 3 1 5v2l-15 1h-16zm18-8v-4h-4l-5-1v9h9zm-7 3-1-1 3-1 3 1-2 1zm-1-5q0-2 2-1t0 1zm-25-3 1-4v3q-1 3-1 1M39 153l1-1 2 1-2 1q-2 0-1-1"/></g><g fill="#1f4506"><path d="M160 765v-39l1-38 1 38v38h44v-3h-31v-1l-1-3-1-1h-2v5h-8v-4l1 1 3 1h2v-5h7v5h7l22-1-2-3q-2-2-2-5l2-6 2-3v-1h-28l-1 1q-1 3-1-1v-2h31l-16-1h-15v-5h-4v4l-4 1c-5 0-5 0-5-9l1-8 1 8v7h5l1-5h6v3l1 2h28v-1l-2-3q-2-2-2-5 0-4 3-7l1-2v-1h-14l-15 1q0 2-1-1v-2h31l-15-1h-16v-2q0-4-2-3h-2v4l-4 1-4-1v-21l3-1 5 1v2q0 3 2 2h1l1-5h31v-2l-1-1-1-1h4v79h-48m46-15v-5l-1 1q-4 4-1 7l2 2zm0-25v-4l-1 1q-4 4-1 7l2 1zm-1-15q1-1-2-3l-2-2v-3q0-5 2-6l2-3v-2l-14 1h-15v2l-1 3h-3l-3-1v-4h-5v19h5v-5h7v3l1 2h28zm1-9v-5l-1 2q-4 3-1 7l2 1zm-21 1v-3h6v5h-6zm5 0-2-1-1 1 1 1zm-28 47 1-5 1 5-1 6z"/><use href="#e"/><use x="4" href="#e"/><path d="M169 743v-3h-2q-3-1-2 2l-1 1-1-2v-3h8v4l3 1 2 1-3 1h-4zm16-17 1-3 1 2 1 1 2-1v-2l1 3v2h-6zm-16-7v-2h-5v1l-1 2-1-3 1-2h8v4h3l2 1-3 1h-4zm14-33h11l-6 1zM29 154l-8-1-1-17 1-16h141l7 1 1 16v15l-2 2H38l-1 1 2-1H29m13-7-1-2v4zm47-2v-5h3l-1-1q-2-1-2-5v-2 18zm-49-4h-3q-6 0 0 1l3 1v-2m56 0h-2l4 1zm-35 0h-5l2 1zm18 0h-7zm42 0h-5zm13-5q0-6-1-5v10zm15 0v-5h-1l1 6v4zm11 5h-2zm-33-4q0-10-1-3l-1 4-1 2h1l1 1h1zm-45 0-1-1v3zm77-10 4-1h-7v-5l-1 8q1 16 1 4v-6zm-100 7q10 1 7-3l-1-1v3H51v-3l-1 2v3l1 2v-3zm-15-1v-2zq1 5 1-1m61 1-1-3zv2zm6-1v-3l-1 2v3l1 2zm-83 1v-2 4zm45-4v-2zl1 3zm70-4zl-3 1h4m-106 0h-2 2m22 0h-2 2m23 0h-6 6m16 0h-3 3m22 0h-3 3m133 6v-2h12v4h-12z"/></g><path fill="#362a10" d="M252 264v-1l7-1 6 1-6 1zm0-23zh7l6 1-6 1zm1-22zh6l6 1-4 1-7 1zm-1-19v-1l1-2 1 1 5 1 6 1-6 1zm0-22v-2l7-1 6 1-6 1-5 1zm-60-20 1-3 1 1h9v-46h-2q-4-1-7 1-2 1-2-2-1-4 7-3h5v52l-6 1zm60-4zh7l6 1-6 1z"/><path fill="#4b4b49" d="m120 800-1-1h6l7 1h-12m140-559 3-1 2 1-2 1zm-7-21 1-1 1 1h-1zm-40-61 1-3v2z"/><g fill="#817038"><use href="#f"/><path d="m253 263 6-1 6 1-6 1zm0-22v-1h4l7 1-4 1h-6zm0-22h12l-6 1c-6 0-5 0-5-1"/><use y="-86" href="#f"/><use y="-107" href="#f"/><path d="m193 157-1-24 1-24h11v2l-1 2-1-2-3-1h-3v12h6v7l-1 2 1 2h-3q-4 0-4-2l-1-2v8h8v7h-7l1 6v6h8q1 2-7 2z"/></g><path fill="#21d04b" d="m161 738-1-39v-13h47v79h-46zm9 19v-2h3l3 1v4h29v-2q0-1-2-3l-1-5 1-5 2-4v-2h-29v5h-3q-4 1-4-3l-2-1h-3v4l1 15h5zm35-23-2-4-1-4 1-5 2-4v-1l-14-1h-15v5h-6v-4h-6v19h6v-4h6v5h29zm0-24-2-4-1-5 1-5q3-1 2-3v-2h-29v6h-6v-2q0-4-3-4l-3 1v19h6v-4h6v4l15 1h14zm-19 39v-2h2q4-1 3 3v2h-5zm0-24v-2h5v5h-5zm0-23v-3h5v5h-5z"/><g fill="#8c7b41"><path d="m256 285 4-1 5 1-5 1zm-3-22 4-1 5 1-5 1zm11 0q-2 0 0-1l1 1zm-11-44h2q2 1 0 1-2 1-2-1m7 0h5l-2 1z"/><use x="42" y="-530" href="#b"/><path d="m253 155 1-1 6 1 5 1h-12zm-51-7v-4h-1q-4 0-1-2h1-1l-1-1h-1l-1 1h-2 2q3 2 0 2l-1 3-1 3-1-3q0-7-1-1l-1-13 1-15v3q0 3 1-2l1-3 1 3q-1 4 2 4l2-1h2v-12l-1-1q1-2 3 1v38l-1 5zm-1-10h-5q-1 1 2 1zm-2-1h-1zm1-6h-3zm0-2v-1l1-1h-1q-1 0 0 0l-2-1-2 1h-1l1 1v1h4m1-5-3-1-3 1h6m-54 9 1-2 1 1q-1 4-2 1"/></g><g fill="#9f8656"><path d="m253 285 6-1 6 1-6 1zm0-22 6-1 6 1h-12m0-22 6-1 6 1-6 1zm0-21 6-1h6l-5 1h-7"/><use href="#g"/><use y="-22" href="#g"/><path d="M253 155v-1h12v2h-12z"/></g><path fill="#b29c50" d="M195 150v-7h6v12l-2 1h-3l-1 1zm0-14 2-1 3 1v1l-3 1q-2 0-2-2m0-2q-1-3 5-2l1 1-3 1zm0-4zl3-1 4 1q0 2-4 2zm0-4zh4q2 2-3 2zm0-8 1-6 4-1h1v12h-6z"/><g fill="#979792"><path d="M118 800H5V87h191v6l-1 6-3 1q-5 1-6 6v55q3 5 8 5h2v6h-34v143l23 1h22v6h-96v116h96v15h-95v222h95v5h-51v90h51v17l20 1h20v12H118m54-642c3-2 3-2 3-21v-17l-1-2-3-2-76-1H20l-3 3-2 1v35l2 1 2 3 76 1h75zm43 620h-2V313h28q5-1 7-6l1-7v-10h12v488h-46m-44-474-1-2-1-60c0-66 0-61 3-63h31v-12l2-1 5-2c3-3 3-2 3-32v-27l-1-2q-2-4-6-4l-2-1-1-3v-3h18c19 0 20 1 21 3l1 103-1 104-2 2-34 1zm26-2v-5c-4-3-8 2-5 6h4zm6-21-1-8-5-1h-8v18h12zm0-23v-7h-11v11h11zm35-1v-6h-11v11h11zm-35-20c0-7 1-7-6-7h-5v11h11zm35-1v-6h-11v11h11zm-35-21v-5h-11v10h11zm35 0v-6h-11v11h11zm-35-21v-5h-11v11h6l5-1zm35 0v-5h-11v11h11z"/><use href="#h"/><path d="M249 251v-3h16v7h-16z"/><use y="-43" href="#h"/><use y="-65" href="#h"/><path d="m250 190-1-4v-3h16v7h-15"/><use href="#i"/><use y="-22" href="#i"/><path d="M249 114v-11h15v-8q1-1 1 14v16h-16z"/></g><path fill="#fefefe" d="M0 808v-2h252v-15h7v3l1 4 4 2h1v7zm35-655 1-2q4-1 4-4t-4-4q-5 0-8-5-3-6 0-10c5-5 13-5 16 1q3 6-1 11l-2 2 1 1v8q-4 5-7 2m4-14q5-3 2-9-2-3-6-3-5 2-5 5c-1 6 5 10 9 7m49 1v-10l1-2q5-6 12-3c6 3 7 11 2 15q-5 5-10 2l-3-1v10h-3zm12-1q6-6-1-11c-4-2-10 2-9 7q3 6 10 4m-45 3q-6-2-6-8 1-9 9-10 8 1 9 9v2H52v1l2 2q3 3 7 1h2c2 3-4 5-8 3m9-11q-2-3-6-4-3 0-5 3l-1 2h6zm52 11c-6-1-9-9-5-14 3-5 12-5 15 0q3 1 2 8v7h-1l-2-1h-9m5-3q4-2 4-5 0-4-4-6h-5q-4 2-4 6l1 4 3 1zm-50 2v-1h4q7 0 5-3-1-2-4-2-5-2-5-5l2-4q0-2 5-2h5v3h-3q-5 0-5 2-1 3 3 3l4 2 1 4-1 3q-2 3-6 2h-5zm61 0v-6l1-7q8-7 15-1 3 3 2 10v6h-1l-2-1v-5q1-9-3-9h-6q-4 1-3 9v6h-2zm24 1c-2-2-2-3-2-13v-9h2l1 2v2h3q4 0 4 2v1h-7v6l1 6q2 1 3-1h3l-2 4zm-4-61q0-3 3-3l2 2v2h-2z"/><g fill="#b3b3b3"><path d="M5 87h7v713H5z"/><path d="M9 87h187v5H9zm207 228h4v462h-4zm-48-136h4v125h-4z"/><path d="M171 179h32v4h-32z"/><rect width="38.7" height="2.8" x="204" y="93" rx="0" ry="1.4"/><path d="M239 95h3v209h-3zm-35-2h3v3h-3zm-89 366h10v217h-10z"/></g><use href="#j"/><use x="35" href="#j"/><use y="21" href="#j"/><use x="35" y="21" href="#j"/><use y="41" href="#j"/><use x="35" y="42" href="#j"/><path fill="#333" d="M198 18h7v54h-7z"/><path fill="#1a1a1a" d="M109 23h89v48h-89z"/><path fill="#333" d="M117 16h88v4h-88zm-1 55h82v3h-82z"/><use x="35" y="62" href="#j"/><use y="62" href="#j"/><path d="M189 272h14v19h-14z"/><path fill="#87090c" d="M176 76h11v7h-11z"/><path fill="#979792" d="M113 459h3v217h-3z"/><path fill="#b3b3b3" d="M115 328h10v105h-10z"/><path fill="#979792" d="M112 328h4v105h-4z"/><path d="M142 570h-37V453h104v117h-67m60-24v-18h-10v7h-11v21h-21v-10h-12l-1 5v5h-25v-90h25v10h13v-10h21v21h12v8h9v-36h-89l-1 52v52h90zm-61 2v-1h-12v3h12zm12-36v-29h-12l-12 1 9 1h9v7h-9l-9 1v1h18v7h-18v1l9 1 9 1v6h-9l-9 1 3 2h15v7h-9l-9 1h18v8h-9l-9 1 9 1h9v7h-18v2h24zm-12-37v-2h-12v3h12z"/><use href="#k"/><use fill="#313231" href="#l"/><use href="#m"/><g fill="#313231"><use href="#n"/><use x="1" y="64" href="#n"/></g><path fill="#f9f9f9" stroke="#000" stroke-width="2.8" d="M184 468h15v17h-15zm0 70h15v17h-15z"/><path d="M142 682h-36V564h103v118h-67m60-24v-18h-9v7h-12v21h-21v-10h-12v5l-1 5h-25v-90h25v10h13v-10h21v21h12v7h9v-35h-89v104h89zm-61 2v-1h-12v3h12zm12-37v-28h-12l-12 1 9 1h9v7h-9l-9 1v1h18v7h-18v1l9 1h9v7h-9l-9 1 3 1h15v7h-9l-9 1 9 1h9v8h-9l-9 1h18v7h-18v3h12l12-1zm-12-37v-1h-12v3h12z"/><use y="112" href="#k"/><use y="112" fill="#313231" href="#l"/><use y="112" href="#m"/><g fill="#313231"><use y="112" href="#n"/><use x="1" y="176" href="#n"/></g><path fill="#f9f9f9" stroke="#000" stroke-width="2.8" d="M184 580h15v16h-15zm1 70h14v17h-14z"/><path d="M142 439h-36V322h103v117h-67m60-24v-18h-9v7h-12v22h-21v-11h-12v5l-1 6h-25v-91h25v10h13v-10h21v22h12v7h9v-35l-45-1h-44v104h89zm-61 2v-1h-12v3h12zm12-36v-29h-12l-12 1 9 1h9v7h-9l-9 1v1h18v7h-18v1l9 2h9v7h-18l3 2h15v7h-9l-9 1 9 1h9v7h-9l-9 1 9 1h9v7h-18v2h24zm-12-37v-2h-12v4l6-1h6z"/><use y="-131" href="#k"/><use y="-131" fill="#313231" href="#l"/><use y="-131" href="#m"/><g fill="#313231"><use y="-131" href="#n"/><use x="1" y="-67" href="#n"/></g><path fill="#f9f9f9" stroke="#000" stroke-width="2.8" d="M184 337h15v17h-15zm1 70h14v17h-14z"/><rect width="23.3" height="63.8" x="188" y="101" fill="none" stroke="#6e6607" stroke-width="1.8" ry="8.8"/><defs><path id="a" d="m160 750 1-11v22z"/><path id="b" d="M160 686zl1 1-1 1z"/><path id="c" d="m79 120 3-1q2 1-1 2z"/><path id="d" d="m185 752 3-1 3 1-3 1z"/><path id="e" d="m185 749 1-2 1 2-1 3z"/><path id="f" d="m253 284 6-1 6 1-6 1z"/><path id="g" d="M253 199v-1h12v2h-12z"/><path id="h" d="M249 273v-3h16v7h-16z"/><path id="i" d="M249 164v-3h16v7h-16z"/><path id="j" d="M192 189h11v11h-11z"/><path id="k" d="M128 551v-2q-2-4 7-3h7v5h-14"/><path id="l" d="M128 539v-2h18v-5h-18v-3l9-1h9v-5h-18v-4h18v-5h-18v-4h18v-5h-18v-4h18v-5h-9c-10 0-9 0-9-3v-1l9-1h9v-4l-9-1h-9v-3h8l11-1 5 1h2v58h-26z"/><path id="m" d="M128 475v-2l7-1h7v6h-14z"/><path id="n" d="M173 471h5v17h-5z"/></defs></svg>