<svg xmlns="http://www.w3.org/2000/svg" width="60" height="513" xmlns:v="https://vecta.io/nano"><style><![CDATA[.B{fill:#ff7f2a}.C{fill:#f95}.D{fill:#b3b3b3}.E{fill:#999}.F{fill:#1a1a1a}.G{fill:#f2f2f2}]]></style><path fill="#c87137" d="M8.813.063h35.5v25.625h-35.5z"/><path d="M.102 492.12H48.25v20.875H.102z" class="D"/><path d="M54.393 493.26h5.633v3.816h-5.633zm-54.268-.01h48.148v7.5H.125z" fill="#666"/><path d="M.114 505.89h48.148v6.99H.114zM.177 32.441h47.861v127.01H.177z" fill="#ccc"/><path d="M48.084 40.357h11.889v119.93H48.084z" class="D"/><path fill="#666" d="M48.171 33.951h11.843v6.434H48.171z"/><path fill="#ccc" d="M1.901 160.24h58.166v332.64H1.901z"/><path fill="#666" d="M.031 158.62h3.416v334.77H.031z"/><path d="M3.614 178.83h6.073v313.12H3.614z" class="D"/><path d="M13.934 144.46H45.92v3.636H13.934z" class="E"/><path d="M13.563 164.62h46.466v9.382H13.563z" class="F"/><path d="M3.625 175.75h55.236v8.094H3.625z" class="D"/><path d="M13.961 147.46h2.641v15.48h-2.641z" class="E"/><path d="M55.347 167.25h4.596v6.938h-4.596z" class="D"/><path d="M5.082 42.861h36.173v100.63H5.082z" class="F"/><path d="M40.92 36.173h1.79v7.161h-1.79z"/><path d="M47.118 115.86h12.873v6.44H47.118zm.003-14.24h12.873v6.44H47.121zm-.092-13.955h12.873v6.44H47.029zm.092-14.365h12.873v6.44H47.121zm-.144-14.238H59.85v6.44H46.977zM46.945 130h12.873v6.44H46.945zm.116 14.25h12.873v6.44H47.061z" class="F"/><path d="M9.652 5.5h33.452v9.713H9.652zm.098 13.375h33.452v7.283H9.75z" fill="#a05a2c"/><path fill="#d38d5f" d="M9.625.75h33.452v1.476H9.625z"/><path fill="#c87137" d="M9.05 12.685h33.452v3.66H9.05z"/><path d="M.188 25.562h48.66v7H.188z" class="D"/><path fill="#784421" d="M23.938 25.469h13.359v5.813H23.938z"/><g fill="#020201"><path d="M48.03 503.15l-.05-9.6H42.7l-.1 6.22-.12 6.24c-.19.17-2.74.29-7.96.39l-6.31.1-.1 3.86-2.46-.1v-3.76l-3.97-.09c-4.82-.1-4.64-.02-4.64-2.32v-1.43h-.6c-.32 0-.6.05-.6.14-.02 1.81-.22 3.89-.39 3.99-.12.07-.44.14-.73.14h-.53l-.1-2.16-.12-6.73v-4.57H8.11c-5.52 0-5.88-.02-6.26-.32l-.41-.32V174.77l.41-.44c.41-.43.49-.44 2.35-.44h1.93v-11.76H1.35v-1.88H-.01v-2.04h12.1v-13.12l-4.13-.03-4.14-.05.02-51.15.062-49.506c.09-.34.011-2.206.03-2.516.007-.126.327-.542.644-.761.42-.29 6.242-5.816 6.852-5.816.49 0-1.273 4.348-3.659 5.654-.281.154-.086.814-.316 1.054l-.657.203 17.535-.203h17.93v-5.62h-14.9l-15.02.17c-.05.09-.26.17-.44.17-.17 0-.32.09-.32.2 0 .44-.9 1.16-1.48 1.16-.51 0-.56-.03-.56-.55 0-.6.88-1.687 1.34-1.687.15 0 .309-.092.389-.302l.061-.281 15.85-.05 16.4.05.56.1.03 53.64.05 53.64 1.52.05c1.67.05 1.93.17 2.01.85l.05.46 6.1.05 6.09.03v1.48l-2.16.1a108.91 108.91 0 0 1-5.1.12H49.8l-.07.78c-.03.43-.03 1.09 0 1.45l.07.66H60v1.88H48.06l-.09-.39c-.05-.2-.1-1.18-.14-2.16-.03-.99-.05.9-.03 4.18v5.97l6.1.05 6.09.03v1.82l-1.4.1c-.78.07-3.49.12-6.03.12h-4.62l-.1 2.86c-.09 2.63-.72 7.16-1.02 7.48-.07.05-.49.14-.97.19l-.85.09v-.68c0-.72.46-4.55.61-5.03.09-.29-.75-.31-15.77-.31H13.97v8.86h40.06v-2.85c0-1.59.05-3.27.1-3.75l.12-.9h5.74v.85c0 .48-.05.87-.12.87-.09.02-.94.07-1.93.14l-1.79.1v5.62l1.88.1 1.93.14c.02 0 .03 71.88.03 159.73v159.72h-2.2l-.44 1.38c-.24.75-.43 1.43-.43 1.53 0 .09.68.15 1.53.15h1.53v1.88h-2.61c-1.81 0-2.68-.07-2.81-.2-.14-.14-.2-.87-.2-2.2 0-1.11-.05-2.11-.1-2.27-.15-.41-3.9-.41-4.06 0-.05.15-.1 4.48-.1 9.63v9.36h-2.04zm-8.4-4.23v-5.37H19.01l-.05 5.2c-.02 2.86 0 5.28.05 5.4.05.19 2.18.22 10.35.19l10.28-.05v-5.37zm-22.59-2.23v-3.07l-.55.05-.56.05-.05 2.81c-.02 1.53 0 2.9.03 3.02.05.12.32.22.61.22h.51v-3.09zM58.6 333.85l-.15-157.7c-.17-.2-4.69-.24-27.49-.2L3.67 176l-.05 157.72-.03 157.7 27.48-.03 27.49-.05.05-157.48zM11.08 163.12v-2.9H8.52v5.8h2.56zm34.74-9.41l-.05-9.09-13.64-.05c-7.5-.03-14.66 0-15.89.05l-2.27.12v18.04h31.88zm-33.65-10.79l.27-.43h28.8V43.11H5.78v100.22h6.1l.27-.43z"/><path d="M9.26 481.5c-.82-1.72-1.01-2.91-.92-5.71.07-2.06.15-2.56.61-3.99l.55-1.64V449.6l-.51-1.57c-1.16-3.63-1.14-6.85.07-10.33l.44-1.3v-20.66l-.49-1.5c-1.18-3.51-1.16-6.87.05-10.21l.44-1.21v-20.61l-.43-1.26c-1.24-3.66-1.24-6.95-.02-10.55l.44-1.28v-20.34L9 347.25c-1.18-3.55-1.14-7.11.07-10.36l.43-1.11v-20.84l-.49-1.47c-1.18-3.43-1.16-6.92.05-10.14l.44-1.16v-20.86l-.43-1.26c-1.24-3.68-1.24-7.14 0-10.48l.43-1.11V247.1l-.51-1.47c-1.09-3.22-1.14-6.38-.1-9.48l.61-1.82v-20.84l-.51-1.52c-1.23-3.61-1.14-6.48.36-10.64l.38-1.07 1.56.1.05.78c.03.55-.09 1.13-.38 1.84-1.14 2.83-1.21 4.81-.24 7.43l.56 1.53.05 11.66.03 11.68-.63 1.79c-.58 1.65-.63 1.96-.63 3.6s.05 1.94.63 3.58l.63 1.81v11.74c-.02 10.14-.05 11.86-.27 12.44-.89 2.32-.99 2.73-.99 4.52 0 1.64.05 1.94.63 3.61l.63 1.81v22.96l-.63 1.7c-.58 1.59-.63 1.84-.63 3.58 0 1.72.05 1.99.58 3.41l.6 1.53.03 11.66.05 11.68-.63 1.79c-.6 1.67-.65 1.94-.63 3.68 0 1.72.05 2.01.58 3.41l.6 1.53.03 11.63.05 11.63-.49 1.24c-1.09 2.76-1.13 4.76-.12 7.67l.61 1.77v22.64l-.63 1.81c-.6 1.67-.65 1.91-.63 3.75 0 1.84.03 2.06.63 3.66l.63 1.7v22.76l-.63 1.82c-.58 1.69-.63 1.99-.63 3.72-.02 1.74.03 2.01.63 3.7l.63 1.81v22.69l-.51 1.38c-.61 1.65-1.04 3.95-.92 4.88.22 1.72.49 2.95.78 3.61.17.41.31.97.31 1.24 0 .44-.05.49-.6.49-.56 0-.61-.05-1.18-1.23z" fill="#88958e"/><path d="M41.93 154.96v-5.13h.77.77l-.03 5.08-.05 5.06-.72.05-.73.05v-5.11zm6.1-21.7l-.02-3.41c.03-.09 2.74-.14 6.03-.14h5.95v.85.85h-5.1-5.08l-.12 1.36c-.07.75-.09 1.43-.02 1.53s1.86.17 4.94.17l5.1.1c.2.09.27.34.27 1.02v.92h-5.95-5.93l-.09-3.27zm.04-14.2v-3.49h5.97 5.97v.85.85h-5.1-5.1l-.07.82a16.06 16.06 0 0 0 0 1.7l.07.89h5.1 5.1v.94.94h-5.97-5.97v-3.49zm0-14.23v-3.41h5.97 5.97v.66c0 .49-.09.7-.29.77-.17.05-2.47.1-5.1.14l-4.81.05-.09.95c-.05.53-.05 1.31 0 1.76l.1.78h5.08H60v.85.85h-5.97-5.97v-3.41zm0-13.98v-3.41h5.97 5.97v.75.73l-5.11.14-5.11.12v1.52 1.52h2.78l5.11.12 2.34.1v.8.8l-2.16.1-5.97.12h-3.8v-3.41zm0-14.32v-3.24h5.97 5.97v.66c0 .44-.09.7-.27.77-.15.05-2.05.1-4.21.1l-4.84.1-.9.12v1.5 1.52h5.11 5.11v.85.85h-5.97-5.97v-3.24zm0-14.06v-3.32l3.55-.03c3.51-.05 3.53-.05 3.58-.43.05-.39.1-.39 2.44-.39h2.37v.94.94h-1.53c-1.41 0-1.53.02-1.53.34s-.12.34-3.56.34h-3.56l-.07.82v1.62l.05.8h5.11 5.1v.85.85h-5.97-5.97v-3.32zm-.04-25.43l-.05-4.57H36.22c-6.46 0-11.97-.02-12.22-.05l-.48-.03-.03-3.27-.05-3.29-1.7-.05c-2.34-.07-2.47-.02-2.47.82v.68H11.7c-7.41 0-7.57 0-7.65-.34-.09-.32-.24-.34-2.06-.34H.01v-1.02-1.02l3.87-.03 3.89-.05.05-12.22L7.85.02h.94.94l.03 8.4.03 12.65.02 4.26 3.72.05 3.7.03v-.55c0-1.02-.07-1.01 4.19-.95l3.9.05.15 3.2.15 3.19h5.42 5.44v-2.11c0-1.16.05-2.23.1-2.39.09-.22.44-.27 2.13-.27h2.03V25c0-.66.19-.78 1.3-.78h.75v-12.1V.02h.94.94v8.57c0 8.23.12 15.14.26 15.6.05.15.75.2 2.69.2 1.81 0 2.68.07 2.81.2.15.15.2 1.35.2 4.35v4.14h4.69 4.69V34c0 .89-.02.92-.53 1.02-.29.05-2.56.1-5.03.1h-4.5v2.3 2.3l4.31.02 5.03-.02.72-.03v.95.95h-5.97-5.97l-.03-4.55zm.55-8.66v-2.13h-2.97-2.98l-.05.56-.05.55-4.1.18-.05 1.26c-.03.7-.02 1.36.03 1.5.07.17 1.07.22 5.13.22h5.03v-2.13zM13.01 16.09c-.27-.07-.41-.26-.49-.66-.12-.72.05-9.8.19-9.95.15-.15 25.99-.2 26.88-.05l.73.14.05 5.23.03 5.23H27.75l-13.52.07c-.46.05-1.02.03-1.23 0zm25.91-1.72c.05-.17.07-1.91.05-3.89l-.02-3.58H26.51 14.07l-.05 3.66c-.02 2.01 0 3.75.03 3.87.07.17 2.59.22 12.44.22 11.63 0 12.36-.02 12.43-.29z"/></g><use href="#B" class="G"/><path d="M4.27 144.62h9.602v7.324H4.27z" class="F"/><path d="M15.125 82.062h5.082V87.1h-5.082z" class="G"/><path d="M55.4 148.99l-1.28-.1v-.51c-.02-.34-.1-.53-.31-.56-.38-.07-.41-1.06-.05-1.06.17 0 .27-.24.31-.72l.05-.73 2.01-.05c1.93-.05 1.99-.05 1.99.29 0 .29-.1.36-.51.36h-.51v1.28 1.28h.94c.68 0 .94.07.94.24 0 .44-.75.49-3.58.29zm-.12-14.11l-1.24-.07v-.58c0-.41-.09-.6-.26-.6s-.26-.17-.26-.51.09-.51.26-.51c.19 0 .26-.2.26-.77v-.77h1.53 1.53v1.62 1.62h1.19c1.07 0 1.19.03 1.19.34 0 .32-.1.34-1.48.31l-2.73-.09zm2.85-3.53c0-.24.49-.44 1.16-.44.26 0 .38.1.38.34 0 .29-.12.34-.77.34-.55 0-.77-.07-.77-.24zm-3.98-10.45c-.07-.05-.12-.41-.12-.77 0-.46-.07-.65-.26-.65-.17 0-.26-.19-.26-.6s.09-.6.26-.6.26-.17.26-.58c0-.32.05-.63.14-.66.07-.05 1.33-.14 2.81-.2 2.66-.14 2.68-.14 2.68.24 0 .34-.09.36-1.28.36H57.1v1.79 1.79h-1.41c-.78 0-1.48-.05-1.53-.12zm1.25-14.01l-1.28-.1-.05-.72c-.03-.49-.14-.73-.31-.73-.15 0-.24-.19-.24-.58 0-.43.09-.6.34-.66.27-.07.32-.2.29-.75l-.03-.65 1.5-.05 1.48-.05v1.89 1.88h1.28c1.16 0 1.28.03 1.28.34 0 .32-.1.34-1.48.31l-2.78-.12zm-1.25-14.28c-.07-.05-.12-.41-.12-.77 0-.46-.07-.65-.26-.65-.41 0-.34-.95.09-1.07.24-.07.31-.19.26-.48-.17-.9 0-1.01 1.55-1.01h1.43v2.05 2.05h-1.41c-.78 0-1.48-.05-1.53-.12zM54.2 78c0-.6-.17-.95-.44-.95-.38 0-.31-.99.07-1.06.22-.03.29-.22.29-.73v-.68l1.5-.05 1.48-.05v1.98 1.96h-1.45c-1.41 0-1.45-.02-1.45-.41zm4.1-3.24c0-.27.55-.44 1.02-.32.63.17.39.56-.34.56-.46 0-.68-.07-.68-.24zm-3.02-10.28l-1.24-.07v-.68c0-.44-.09-.72-.26-.77-.14-.07-.26-.29-.26-.51 0-.26.1-.41.26-.41.19 0 .26-.2.26-.77v-.77h1.18c1.02 0 1.18-.03 1.26-.34.05-.19.22-.34.38-.34.26 0 .27.14.17 1.19-.07.65-.07 1.57 0 2.05l.12.85h1.18c1.06 0 1.18.03 1.18.34 0 .32-.1.34-1.48.31l-2.73-.09z" fill="#705b38"/><g fill="#9c8761"><path d="M56.59 147.2v-1.76l.78-.12 1.57-.1h.77l-.12.53c-.05.29-.1 1.14-.1 1.88v1.35h-1.45-1.45v-1.77zm1.25-12.32l-1.24-.07v-1.86-1.88h1.45 1.45v1.43c0 .78.05 1.67.1 1.96.1.44.07.53-.2.49l-1.55-.09zm-4.32-1.84c0-.24.1-.43.22-.43.34 0 .43.15.34.53-.14.48-.56.41-.56-.1z"/><use href="#C"/><path d="m56.59 104.74v-2.13h1.5 1.48v2.13 2.13h-1.48-1.5v-2.13z"/><use href="#C" y="-28.3"/><path d="M56.59 76.45v-1.96h1.55 1.57l-.12.53c-.05.29-.1 1.18-.1 1.96v1.43h-1.45-1.45v-1.96zm0-14.32v-2.3h1.45 1.45v2.3 2.3h-1.45-1.45v-2.3z"/></g><g fill="#b7ae83"><path d="M59.01 147.15c.05-1.59.09-1.84.36-1.89.26-.05.29.12.29 1.82 0 1.79-.02 1.89-.34 1.89-.34 0-.36-.09-.31-1.82zm-.03-14.2c0-1.76.02-1.88.34-1.88s.34.12.34 1.88-.02 1.88-.34 1.88-.34-.12-.34-1.88z"/><use href="#D"/><path d="M59.05 106.65c-.03-.12-.05-1.06-.03-2.1.05-1.6.09-1.86.36-1.91.26-.05.29.14.29 2.08 0 1.82-.03 2.15-.26 2.15-.15 0-.31-.1-.36-.22z"/><use href="#D" y="-28.29"/><path d="M59.01 76.5l.05-1.93.48-.05c.38-.05.46.02.46.29 0 .2-.07.36-.17.36s-.17.65-.17 1.62c0 1.52-.02 1.62-.34 1.62-.34 0-.36-.09-.31-1.91zm-.03-14.37c0-2.18.02-2.3.34-2.3s.34.12.34 2.3-.02 2.3-.34 2.3-.34-.12-.34-2.3z"/></g><path d="M23.327 42.74l-17.662-.094 2.96-2.961 3.307-3.16c.26-.157 4.223-.209 14.828-.209H41.24v1.475l.029 3.233c.019 1.015-.029 1.779-.116 1.779-.096.021-8.099-.021-17.817-.073z" class="E"/><g fill="#bebba3"><use href="#E"/><use href="#E" y="-14.15"/><use href="#F"/><path d="M59.15 104.74v-2.13h.43.43v2.13 2.13h-.43-.43v-2.13z"/><use href="#F" y="-28.3"/><use href="#E" y="-70.57"/><path d="M59.15 62.13v-2.3h.43.43v2.3 2.3h-.43-.43v-2.3z"/></g><path fill-opacity="0" d="M12.938 144.19h33.25v3.375h-33.25z"/><g class="G"><path d="M15 100h5.082v5.038H15zm0 9h5.082v5.038H15z"/><g stroke="#000"><use href="#B" x="-0.016" y="44.809"/><use href="#B" x="-0.033" y="26.799"/><use href="#B" x="-0.022" y="35.469"/><use href="#B" x="-0.023" y="18.069"/><use href="#B" x="-0.036" y="8.806"/></g></g><g class="E"><circle cx="20.771" cy="477.39" r="9.08"/><circle cx="42.657" cy="477.63" r="9.08"/><circle cx="43.363" cy="443.57" r="9.08"/><circle cx="20.003" cy="443.38" r="9.08"/><circle cx="43.404" cy="409.55" r="9.08"/><circle cx="19.794" cy="410.28" r="9.08"/><circle cx="19.747" cy="376.53" r="9.08"/><circle cx="43.18" cy="377.18" r="9.08"/><circle cx="42.984" cy="342.86" r="9.08"/><circle cx="19.943" cy="343.28" r="9.08"/><circle cx="20.149" cy="309.65" r="9.08"/><circle cx="43.067" cy="309.4" r="9.08"/><circle cx="20.242" cy="275.93" r="9.08"/><circle cx="43.43" cy="275.93" r="9.08"/><circle cx="43.078" cy="241.78" r="9.08"/><circle cx="19.617" cy="240.77" r="9.08"/><circle cx="19.742" cy="207.52" r="9.08"/><circle cx="42.367" cy="207.43" r="9.08"/></g><g stroke="#000" class="G"><use href="#B" x="-0.03" y="-0.106"/><use href="#B" x="-0.034" y="-9.061"/><path d="M14.92 72.942h5.082v5.038H14.92z"/><use href="#B" x="-0.017" y="-27.133"/><path d="M14.9 54.765h5.082v5.038H14.9z"/><use href="#B" x="12.856" y="44.769"/><use href="#B" x="12.84" y="26.759"/><use href="#B" x="12.851" y="35.429"/><use href="#B" x="12.85" y="18.019"/><use href="#B" x="12.836" y="8.758"/><path d="M27.78 90.878h5.082v5.038H27.78z"/><use href="#B" x="12.838" y="-9.109"/><use href="#B" x="12.855" y="-18.137"/><use href="#B" x="12.855" y="-27.181"/><use href="#B" x="12.834" y="-36.314"/></g><path d="M11.645 185.84h16.241v10.607H11.645z" class="B"/><use href="#G" class="C"/><circle cx="19.722" cy="190.89" r="2.155"/><path d="M17.47 216.9c-3.51-.66-6.39-3.19-7.41-6.55-.41-1.3-.46-4.4-.1-5.73.6-2.28 2.42-4.67 4.28-5.64 1.47-.77 1.26-.92-1.19-.92-1.18 0-2.13-.02-2.15-.03l-.09-6.19.09-6.61-.005-.468 9.005.038 8.83.05v13.12l-2.08.05c-1.16.02-2.1.1-2.1.17s.36.31.8.55c1.91 1.01 3.68 3.2 4.35 5.37.49 1.57.53 4.6.07 6.14-.95 3.24-3.41 5.66-6.55 6.48-1.55.39-4.11.48-5.74.17zm4.84-1.98c3.72-1.19 6.49-5.28 5.85-8.63-.46-2.34-2.23-4.79-4.24-5.88-2.59-1.41-6.02-1.28-8.57.38-1.93 1.24-3.49 3.7-3.68 5.81-.32 3.41 2.01 6.85 5.51 8.16 1.74.65 3.43.7 5.15.15zm.53-17.57v-.48H16.7v.94h6.14zm-9.03-1.48c0-.48.34-.567 1.39-.637.58-.05 2.94.027 5.65.077l4.89.09v.48c0 .46.05.49.68.49h.68l-.03-4.89-.05-4.91-7.19-.05-7.21-.03v9.88h.6c.55 0 .6-.05.6-.49z"/><path d="M11.666 219.593h16.241V230.2H11.666z" class="B"/><use href="#G" x="0.021" y="33.753" class="C"/><circle cx="19.743" cy="224.643" r="2.155"/><use href="#H"/><path d="M12.426 253.953h16.241v10.607H12.426z" class="B"/><use href="#G" x="0.781" y="68.113" class="C"/><circle cx="20.503" cy="259.003" r="2.155"/><use href="#H" x="0.021" y="34.36"/><path d="M11.673 287.7h16.241v10.607H11.673z" class="B"/><use href="#G" x="0.028" y="101.86" class="C"/><circle cx="19.75" cy="292.75" r="2.155"/><use href="#H" x="0.007" y="68.107"/><path d="M11.674 321.2h16.241v10.607H11.674z" class="B"/><use href="#G" x="0.029" y="135.36" class="C"/><circle cx="19.751" cy="326.25" r="2.155"/><use href="#H" x="0.008" y="101.607"/><path d="M11.676 354.95h16.241v10.607H11.676z" class="B"/><use href="#G" x="0.031" y="169.11" class="C"/><circle cx="19.753" cy="360" r="2.155"/><use href="#H" x="0.01" y="135.357"/><path d="M11.672 388.17h16.241v10.607H11.672z" class="B"/><use href="#G" x="0.027" y="202.33" class="C"/><circle cx="19.749" cy="393.22" r="2.155"/><use href="#H" x="0.006" y="168.577"/><path d="M12.12 421.98h16.241v10.607H12.12z" class="B"/><path d="M19.39 422.67h1.591v8.767H19.39z" class="C"/><circle cx="20.197" cy="427.03" r="2.155"/><use href="#H" x="-0.003" y="202.387"/><path d="M11.662 455.92h16.241v10.607H11.662z" class="B"/><use href="#G" x="0.017" y="270.08" class="C"/><circle cx="19.739" cy="460.97" r="2.155"/><use href="#H" x="-0.004" y="236.327"/><path d="M34.817 185.734h16.241v10.607H34.817z" class="B"/><use href="#G" x="23.172" y="-0.106" class="C"/><circle cx="42.894" cy="190.784" r="2.155"/><use href="#H" x="23.151" y="-33.859"/><path d="M34.838 219.487h16.241v10.607H34.838z" class="B"/><use href="#G" x="23.193" y="33.647" class="C"/><circle cx="42.915" cy="224.537" r="2.155"/><use href="#H" x="23.172" y="-0.106"/><path d="M35.599 253.847H51.84v10.607H35.599z" class="B"/><use href="#G" x="23.954" y="68.007" class="C"/><circle cx="43.676" cy="258.897" r="2.155"/><use href="#H" x="23.194" y="34.254"/><path d="M34.845 287.6h16.241v10.607H34.845z" class="B"/><use href="#G" x="23.2" y="101.76" class="C"/><circle cx="42.922" cy="292.65" r="2.155"/><path d="M40.67 318.66c-3.51-.66-6.39-3.19-7.41-6.55-.41-1.3-.46-4.4-.1-5.73.6-2.28 2.42-4.67 4.28-5.64 1.47-.77 1.26-.92-1.19-.92-1.18 0-2.13-.02-2.15-.03l-.09-6.19.09-6.61-.005-.468 9.005.038 8.83.05v13.12l-2.08.05c-1.16.02-2.1.1-2.1.17s.36.31.8.55c1.91 1.01 3.68 3.2 4.35 5.37.49 1.57.53 4.6.07 6.14-.95 3.24-3.41 5.66-6.55 6.48-1.55.39-4.11.48-5.74.17zm4.84-1.98c3.72-1.19 6.49-5.28 5.85-8.63-.46-2.34-2.23-4.79-4.24-5.88-2.59-1.41-6.02-1.28-8.57.38-1.93 1.24-3.49 3.7-3.68 5.81-.32 3.41 2.01 6.85 5.51 8.16 1.74.65 3.43.7 5.15.15zm.53-17.57v-.48H39.9v.94h6.14zm-9.03-1.48c0-.48.34-.567 1.39-.637.58-.05 2.94.027 5.65.077l4.89.09v.48c0 .46.05.49.68.49h.68l-.03-4.89-.05-4.91-7.19-.05-7.21-.03v9.88h.6c.55 0 .6-.05.6-.49z"/><path d="M34.846 321.1h16.241v10.607H34.846z" class="B"/><use href="#G" x="23.201" y="135.26" class="C"/><circle cx="42.923" cy="326.15" r="2.155"/><use href="#H" x="23.18" y="101.507"/><path d="M34.849 354.85H51.09v10.607H34.849z" class="B"/><use href="#G" x="23.204" y="169.01" class="C"/><circle cx="42.926" cy="359.9" r="2.155"/><use href="#H" x="23.183" y="135.257"/><path d="M34.844 388.06h16.241v10.607H34.844z" class="B"/><use href="#G" x="23.199" y="202.22" class="C"/><circle cx="42.921" cy="393.11" r="2.155"/><use href="#H" x="23.178" y="168.467"/><path d="M35.292 421.87h16.241v10.607H35.292z" class="B"/><use href="#G" x="23.647" y="236.03" class="C"/><circle cx="43.369" cy="426.92" r="2.155"/><path d="M40.66 452.93c-3.51-.66-6.39-3.19-7.41-6.55-.41-1.3-.46-4.4-.1-5.73.6-2.28 2.42-4.67 4.28-5.64 1.47-.77 1.26-.92-1.19-.92-1.18 0-2.13-.02-2.15-.03l-.09-6.19.09-6.61-.005-.468 9.005.038 8.83.05V434l-2.08.05c-1.16.02-2.1.1-2.1.17s.36.31.8.55c1.91 1.01 3.68 3.2 4.35 5.37.49 1.57.53 4.6.07 6.14-.95 3.24-3.41 5.66-6.55 6.48-1.55.39-4.11.48-5.74.17zm4.84-1.98c3.72-1.19 6.49-5.28 5.85-8.63-.46-2.34-2.23-4.79-4.24-5.88-2.59-1.41-6.02-1.28-8.57.38-1.93 1.24-3.49 3.7-3.68 5.81-.32 3.41 2.01 6.85 5.51 8.16 1.74.65 3.43.7 5.15.15zm.53-17.57v-.48h-6.14v.94h6.14zM37 431.9c0-.48.34-.567 1.39-.637.58-.05 2.94.027 5.65.077l4.89.09v.48c0 .46.05.49.68.49h.68l-.03-4.89-.05-4.91-7.19-.05-7.21-.03v9.88h.6c.55 0 .6-.05.6-.49z"/><path d="M34.835 455.82h16.241v10.607H34.835z" class="B"/><use href="#G" x="23.19" y="269.98" class="C"/><circle cx="42.912" cy="460.87" r="2.155"/><path d="M40.66 486.88c-3.51-.66-6.39-3.19-7.41-6.55-.41-1.3-.46-4.4-.1-5.73.6-2.28 2.42-4.67 4.28-5.64 1.47-.77 1.26-.92-1.19-.92-1.18 0-2.13-.02-2.15-.03l-.09-6.19.09-6.61-.005-.468 9.005.038 8.83.05v13.12l-2.08.05c-1.16.02-2.1.1-2.1.17s.36.31.8.55c1.91 1.01 3.68 3.2 4.35 5.37.49 1.57.53 4.6.07 6.14-.95 3.24-3.41 5.66-6.55 6.48-1.55.39-4.11.48-5.74.17zm4.84-1.98c3.72-1.19 6.49-5.28 5.85-8.63-.46-2.34-2.23-4.79-4.24-5.88-2.59-1.41-6.02-1.28-8.57.38-1.93 1.24-3.49 3.7-3.68 5.81-.32 3.41 2.01 6.85 5.51 8.16 1.74.65 3.43.7 5.15.15zm.53-17.57v-.48h-6.14v.94h6.14zM37 465.85c0-.48.34-.567 1.39-.637.58-.05 2.94.027 5.65.077l4.89.09v.48c0 .46.05.49.68.49h.68l-.03-4.89-.05-4.91-7.19-.05-7.21-.03v9.88h.6c.55 0 .6-.05.6-.49z"/><path d="M4.773 145.05h7.38v4.685h-7.38z" class="E"/><path d="M14.231 492.85h4.508v14.054h-4.508zM37.653 6.452h2.033v8.662h-2.033z"/><path d="M5.701 42.18h35.517v9.891H5.701z" class="E"/><defs ><path id="B" d="M14.938 91.031h5.082v5.038h-5.082z"/><path id="C" d="M56.59 118.98v-2.05h1.45 1.45v1.52l.1 2.05.12.53h-1.57-1.55v-2.05z"/><path id="D" d="M59.1 120.9c-.07-.05-.12-.97-.12-2.05 0-1.81.02-1.93.34-1.93s.34.12.34 2.05c0 1.59-.05 2.05-.22 2.05-.14 0-.29-.05-.34-.12z"/><path id="E" d="M59.15 147.1v-1.88h.43.43v1.88 1.88h-.43-.43v-1.88z"/><path id="F" d="M59.15 118.98v-2.05h.43.43v2.05 2.05h-.43-.43v-2.05z"/><path id="G" d="M18.915 186.53h1.591v8.767h-1.591z"/><path id="H" d="M17.491 250.653c-3.51-.66-6.39-3.19-7.41-6.55-.41-1.3-.46-4.4-.1-5.73.6-2.28 2.42-4.67 4.28-5.64 1.47-.77 1.26-.92-1.19-.92-1.18 0-2.13-.02-2.15-.03l-.09-6.19.09-6.61-.005-.468 9.005.038 8.83.05v13.12l-2.08.05c-1.16.02-2.1.1-2.1.17s.36.31.8.55c1.91 1.01 3.68 3.2 4.35 5.37.49 1.57.53 4.6.07 6.14-.95 3.24-3.41 5.66-6.55 6.48-1.55.39-4.11.48-5.74.17zm4.84-1.98c3.72-1.19 6.49-5.28 5.85-8.63-.46-2.34-2.23-4.79-4.24-5.88-2.59-1.41-6.02-1.28-8.57.38-1.93 1.24-3.49 3.7-3.68 5.81-.32 3.41 2.01 6.85 5.51 8.16 1.74.65 3.43.7 5.15.15zm.53-17.57v-.48h-6.14v.94h6.14zm-9.03-1.48c0-.48.34-.567 1.39-.637.58-.05 2.94.027 5.65.077l4.89.09v.48c0 .46.05.49.68.49h.68l-.03-4.89-.05-4.91-7.19-.05-7.21-.03v9.88h.6c.55 0 .6-.05.6-.49z"/></defs></svg>