<svg xmlns="http://www.w3.org/2000/svg" width="265" height="839" xmlns:v="https://vecta.io/nano"><path d="M107.88 22h97.75v49.75h-97.75zM.011 84.998h264.97v720.09H.011z"/><path d="M115.12 14h95.982v71.125H115.12z"/><path fill="#ccc" d="M105 326.24h103.5V676H105z"/><path fill="#1a1a1a" d="M145.5 87h106v235.5h-106z"/><g fill="#081003"><path d="M159.97 765.69c-.18-.14-.32-.78-.32-1.38 0-.74.28-1.06.92-1.06.51 0 .92.23.92.46 0 .32 7.82.46 22.54.46s22.54-.14 22.54-.46c0-.23.28-.46.64-.46.83 0 1.24 1.61.6 2.25-.55.55-47.3.74-47.85.18z"/><use href="#B"/><path d="M185.73 755.11l-3.13-.18.28-10.76 12.24-.28-.28 11.32-2.99.05c-1.66 0-4.42-.05-6.12-.14zm7.41-5.52c.14-3.45.05-3.82-.69-3.82s-.83.37-.69 3.36c.18 3.13.14 3.4-.92 3.91-1.01.51-.97.51.55.41l1.61-.09.14-3.77zm-7.59 3.22c-.32-.09-.6-.55-.6-.97 0-.64-.09-.69-.41-.09-.55.83-.23 1.38.78 1.33.51 0 .55-.14.23-.28zm4.46-3.36c0-1.79-.05-1.84-1.61-1.84s-1.61.05-1.61 1.84.05 1.84 1.61 1.84 1.61-.05 1.61-1.84zm16.56-10.35c0-3.86.14-4.83.64-4.83.83 0 1.15 1.75 1.01 5.29-.18 4.19-.23 4.37-.97 4.37-.55 0-.69-.83-.69-4.83zm-46.93-11.04c0-9.57.05-9.89.92-9.89s.92.32.92 9.89-.05 9.89-.92 9.89-.92-.32-.92-9.89z"/><path d="M182.51 730.73c-.41-.37-.41-9.02-.05-9.98.23-.64 1.24-.74 6.44-.74h6.16v5.52 5.52h-6.12c-3.4 0-6.3-.14-6.44-.32zm10.72-5.2c0-3.68-.28-4.37-1.56-3.86-.55.23-.6.46-.23 1.15.23.51.41 1.98.32 3.31l-.14 2.39h-3.22c-2.99 0-3.17-.05-3.5-1.15-.32-1.06-.32-1.06-.37.32l-.05 1.47 3.82.14c2.07.09 4.05.05 4.37-.05.37-.09.55-1.24.55-3.73zm-3.31-.09c-.14-1.33-.32-1.52-1.61-1.66-1.47-.14-1.52-.09-1.52 1.47 0 1.61.05 1.66 1.66 1.66 1.56 0 1.61-.05 1.47-1.47zm-4.88-3.31c-.41-.74-.87.74-.6 1.93l.23 1.24.28-1.38c.18-.74.18-1.56.09-1.79zm21.53-9.71c0-1.52.18-2.07.69-2.07.64 0 .83.41.83 2.07s-.18 2.07-.83 2.07c-.51 0-.69-.55-.69-2.07z"/><use href="#B" y="-50.6"/><path d="M182.65 701.61v-5.57l6.12.14 6.07.14v5.29 5.29l-6.07.14-6.12.14v-5.57zm10.58 0v-3.68h-1.24c-.97 0-1.1.14-.69.55.74.74.74 5.52 0 6.26-.41.41-.28.55.69.55h1.24v-3.68zm-3.31.14c.14-1.47.09-1.52-1.47-1.52-1.52 0-1.66.14-1.66 1.29 0 1.66.37 2.02 1.84 1.84.92-.09 1.2-.41 1.29-1.61z"/><use href="#C"/><path d="M168.85 685.96c0-.74.32-.92 1.61-.92s1.61.18 1.61.92-.32.92-1.61.92-1.61-.18-1.61-.92zm5.06 0c0-.92.23-.92 16.88-.83 15.69.14 16.93.18 17.07.97.14.74-.92.78-16.88.78-16.79 0-17.07 0-17.07-.92zM20.93 153.43l-1.15-1.1V136.5c0-15.41.05-15.83.97-16.7.83-.74 1.79-.87 9.06-.87 8.88-.09 9.75 0 9.75.97 0 .51-1.47.64-7.96.64-6.44 0-8.14.14-8.97.74-1.01.69-1.01.74-1.01 15.32 0 13.57.05 14.68.83 15.37.69.64 1.93.78 7.36.78 6.21 0 6.53.05 6.53.92s-.32.92-7.13.92c-6.99 0-7.18-.05-8.28-1.15zm147.92-16.1c0-2.62.14-3.45.64-3.45.78 0 1.1 1.38.92 3.91l-.14 2.44c-.05.28-.37.55-.74.55-.55 0-.69-.69-.69-3.45zm85.57-6.85c0-.78 1.93-1.29 3.45-.92 2.12.51 1.38 1.56-1.15 1.56-1.66 0-2.3-.18-2.3-.64zm-85.57-4.51c0-3.77-.37-4.97-1.43-4.97-.55 0-.87-.32-.87-.92 0-1.24 1.89-1.24 3.04.05.64.74.87 1.75.97 3.91.09 3.5-.23 4.78-1.06 4.78-.46 0-.64-.74-.64-2.85zm-126.52-6.08c0-.74 1.43-1.1 5.01-1.2 3.17-.09 5.11.37 5.11 1.2 0 .51-1.01.64-5.06.64s-5.06-.14-5.06-.64zm28.06 0c0-.74 1.15-1.1 2.44-.83 1.47.37.87 1.47-.83 1.47-1.1 0-1.61-.23-1.61-.64z"/><use href="#D"/><use href="#D" x="7.36"/><path d="M92.01 119.89c0-.97 1.24-1.1 13.43-1.15 11.78-.09 13.71.09 13.71 1.15 0 .55-2.3.64-13.57.64s-13.57-.09-13.57-.64zm29.91-.04c0-.97 2.07-1.15 10.35-.97 9.06.18 8.51.14 8.51.97 0 .6-1.33.69-9.43.69-7.96 0-9.43-.09-9.43-.69zm33.12 0c0-.37.05-.69.14-.69 4.83-.74 8.6-.41 8.6.69 0 .55-.87.69-4.37.69-3.59 0-4.37-.14-4.37-.69z"/></g><g fill="#091e03"><path d="M159.87 764.54c-.18-.83-.05-7.55.18-10.35.05-.32.37-.6.74-.6.55 0 .69.83.69 4.55 0 2.48.14 5.2.28 5.98.28 1.24.18 1.43-.69 1.43-.6 0-1.01-.37-1.2-1.01zm21.17-4l-5.98-.28-.14-2.39-.14-2.44h-2.02-2.02l-.14 2.44-.14 2.39-3.4.14c-2.44.09-3.54-.05-3.77-.46-.46-.69-.55-17.53-.14-19.64l.32-1.47 7 .28.14 2.21.14 2.16h2.07 2.02v-1.79c0-3.5-1.2-3.27 16.15-3.27h15.6V741c0 2.48-.14 2.76-2.07 4.83-1.66 1.79-2.07 2.53-2.07 3.86s.41 2.07 2.07 3.86c1.89 2.02 2.07 2.39 2.07 4.6v2.35h-6.76c-3.77 0-8.14.09-9.8.18s-5.66 0-8.97-.14zm12.56-11l.14-4.28-9.48.28-.28 8 3.13.18c1.7.09 3.86.14 4.74.14l1.61-.05.14-4.28z"/><use href="#E"/><use href="#E" y="-4.6"/><path d="M159.92 741.08c-.64-2.48-.09-5.89.92-5.89.51 0 .64.83.64 3.45s-.14 3.45-.64 3.45c-.32 0-.74-.46-.92-1.01zm15.04-6.9l-.37-2.44h-1.84-1.84l-.28 4.42-7.54-.28v-10.35-10.35h3.68 3.68l.14 2.21.14 2.16h2.02 2.02l.14-2.39.14-2.44 15.78-.14 15.73-.09v2.76c0 2.39-.14 2.81-1.15 3.5-1.61 1.06-2.99 3.45-2.99 5.2 0 1.1.46 1.93 2.07 3.45 1.98 1.93 2.07 2.16 2.07 4.6v2.58h-15.6-15.6l-.41-2.39zm18.72-8.65v-4.14h-4.83c-2.67 0-4.83.14-4.88.37-.28 3.17-.37 7.18-.14 7.5.14.23 2.39.41 5.06.41h4.78v-4.14zm-8.27-2.3c0-.87.23-.97 2.85-.83 2.3.09 2.9.28 3.04.97s-.23.78-2.85.78c-2.76 0-3.04-.09-3.04-.92z"/><path d="M159.92 719.92c-.37-1.38-.37-9.48 0-10.81.18-.6.6-1.06.92-1.06.51 0 .64 1.24.64 6.44s-.14 6.44-.64 6.44c-.32 0-.74-.46-.92-1.01zm15.14-9.8l-.28-2.53h-2.02-2.02l-.14 2.21-.14 2.16h-3.68-3.68v-10.58-10.58h3.68 3.68l.14 2.21.14 2.16h2.02 2.02l.14-2.39.14-2.44 15.55-.14 15.5-.09v2.81c0 2.67-.09 2.94-1.84 4.83-1.52 1.66-1.84 2.35-1.84 3.86 0 1.61.28 2.12 2.12 3.86 2.02 1.93 2.07 2.07 1.93 4.46l-.14 2.48-15.46.14-15.5.09-.32-2.53zm18.4-8.51v-3.91l-4.69-.14-4.74-.14v4.19 4.19l4.74-.14 4.69-.14v-3.91zm-7.73 2.94c-.18-.18-.32-.6-.32-.97 0-.41.83-.6 3.04-.6 2.62 0 2.99.09 2.85.83-.09.6-.69.83-2.67.92-1.43.09-2.71 0-2.9-.18zm-.32-4.97c0-.92.55-1.2 1.75-.87 1.52.37 1.24 1.52-.37 1.52-.87 0-1.38-.23-1.38-.64zm-25.49-2.8c-.37-1.52.14-3.45.92-3.45.46 0 .64.64.64 2.3 0 2.53-1.06 3.27-1.56 1.15zM38.65 153.2c0-.78.32-.92 1.84-.92s1.84.14 1.84.92-.32.92-1.84.92-1.84-.14-1.84-.92z"/></g><g fill="#1f4506"><path d="M160.43 765.23c-.18-.14-.32-17.67-.32-38.88 0-38.23 0-38.55.92-38.55s.92.32.92 37.96v37.96h22.08 22.08v-1.38-1.38h-15.6-15.55l-.32-1.43c-.14-.78-.28-1.93-.28-2.53 0-.97-.23-1.1-1.56-1.1h-1.61l-.14 2.44-.14 2.39H167h-3.91l-.14-1.93c-.09-1.47 0-1.98.51-1.98.37 0 .83.51.97 1.2.28 1.06.46 1.15 2.48 1.01l2.16-.14.14-2.39.14-2.44h3.4 3.4l.14 2.44.14 2.39 6.21.23c3.4.14 9.89.18 14.4.09 7.91-.14 8.14-.18 8.14-1.1 0-.55-.92-1.98-2.07-3.17-2.02-2.16-2.07-2.3-2.07-5.24s.05-3.08 2.07-5.24c1.38-1.47 2.07-2.62 2.07-3.45v-1.2h-14.26-14.26l-.28 1.15c-.51 2.02-1.56 1.38-1.56-.92v-2.07h15.64c10.12 0 15.64-.18 15.64-.46s-5.52-.46-15.6-.46h-15.64l-.14-2.39-.14-2.44-3.4-.28-.28 4.42-3.96.14c-4.83.14-4.55.74-4.55-8.97 0-6.72.05-7.04.92-7.04.83 0 .92.37 1.01 7.04l.14 6.99 4.78.28.28-4.42h3.22 3.22l.37 2.44.41 2.39h14.22 14.22v-1.2c0-.78-.69-1.84-2.07-3.22-2.02-1.93-2.07-2.07-2.07-4.83 0-3.13.97-5.24 2.99-6.58.78-.51 1.15-1.2 1.15-2.12v-1.38h-14.31c-13.89 0-14.31.05-14.54.92-.46 1.7-1.52 1.06-1.52-.92v-1.84h15.64c9.98 0 15.64-.18 15.64-.46s-5.7-.51-15.5-.55l-15.55-.14-.23-2.3c-.23-2.25-.23-2.3-1.93-2.44l-1.7-.14-.28 4.42-3.86.14c-2.81.09-4-.05-4.23-.46-.46-.69-.55-20.15-.14-21.26.23-.6 1.01-.74 3.82-.74 2.16 0 3.77.23 4.09.55s.55 1.43.55 2.53c0 1.93.05 1.98 1.56 1.98h1.52l.64-5.52h15.6 15.64v-1.15c0-.83-.23-1.15-.92-1.15-.64 0-.92-.32-.92-.97 0-.78.23-.92 1.75-.78l1.7.14v39.8 39.8l-23.51.14c-12.93.05-23.65-.05-23.79-.23zm45.68-15.64l-.05-4.97-1.56 1.7c-2.12 2.3-2.16 4.28-.18 6.58.78.87 1.52 1.61 1.61 1.61s.18-2.21.18-4.92zm0-24.15v-4.69l-1.61 1.56c-2.16 2.12-2.25 4.37-.18 6.39.78.78 1.47 1.43 1.61 1.43.09 0 .18-2.12.18-4.69zm-1.01-15.46c.14-.83-.41-1.66-1.93-3.13l-2.12-2.02v-3.22c0-3.13.05-3.31 1.84-5.24 1.33-1.43 1.84-2.39 1.84-3.45v-1.43l-14.12.09-14.17.14-.14 2.39c-.14 2.07-.28 2.39-1.29 2.62-.64.18-2.16.18-3.4 0l-2.25-.28-.14-2.16-.14-2.12h-2.3-2.3v9.2 9.2h2.3 2.3l.14-2.16.14-2.21h3.4 3.4l.28 2.53.32 2.53 14.12-.09 14.08-.14.14-1.06zm1.01-8.7l-.05-4.97-1.56 1.7c-2.16 2.35-2.21 4.51-.14 6.67.83.83 1.52 1.52 1.61 1.52s.14-2.21.14-4.92zm-20.7.33v-2.76h2.99 2.99v2.76 2.76h-2.99-2.99v-2.76zm4.14 0c0-.69-.32-.92-1.15-.92s-1.15.23-1.15.92.32.92 1.15.92 1.15-.23 1.15-.92zm-27.15 47.61c0-4.97.05-5.29.92-5.29s.92.32.92 5.29-.05 5.29-.92 5.29-.92-.32-.92-5.29z"/><use href="#F"/><use href="#F" x="4.14"/><path d="M169.21 742.69l-.14-2.21-2.12-.14c-2.12-.14-2.16-.14-2.44 1.52-.18.97-.6 1.61-.97 1.61-.51 0-.69-.64-.69-2.53v-2.53h3.91 3.91v1.29c0 .69.14 1.75.32 2.35.28 1.01.41 1.06 2.71.78 2.44-.28 2.48-.28 2.48.87 0 1.1-.09 1.15-3.4 1.15h-3.45l-.14-2.16zm16.2-17.16c0-2.44.09-2.76.92-2.76.78 0 .92.32.92 1.84 0 1.66.14 1.84 1.15 1.84 1.06 0 1.15-.18 1.15-1.84 0-1.52.14-1.84.92-1.84.83 0 .92.32.92 2.76v2.76h-2.99-2.99v-2.76zm-16.2-6.76l-.14-2.21h-2.3-2.3l-.14 1.75c-.14 1.33-.32 1.7-1.06 1.7-.83 0-.92-.28-.78-2.62l.14-2.67h4.14 4.14l.14 2.21.14 2.16h2.53c2.16 0 2.48.09 2.48.92s-.32.92-3.4.92h-3.45l-.14-2.16zm13.9-32.35c0-.87.32-.92 5.29-.92s5.29.05 5.29.92-.32.92-5.29.92-5.29-.05-5.29-.92zM28.62 154.17c-6.26-.28-6.67-.32-7.5-1.38-.83-1.01-.87-1.98-.87-16.38 0-14.17.05-15.32.83-16.01s6.44-.78 68-.78h73.24c5.47 0 6.16.09 6.99.92.87.87.92 1.52.92 16.1v15.23l-2.25 2.25h-64.46l-64.92.23c-.23.18.134-.497-.492-.365-.9.191-.17.549-.86.549s1.52-1.241 1.52-.411c0 .64-2.648.407-2.968.367-.32-.05-3.59-.18-7.18-.32zm13.25-7.18c0-.74-.23-1.7-.46-2.07-.32-.51-.46.14-.46 2.07s.14 2.58.46 2.07c.23-.37.46-1.29.46-2.07zm47.39-2.3v-4.83h2.44l-1.06-1.15c-.92-.97-1.15-1.79-1.29-4.46-.14-2.07-.37-2.99-.6-2.62-.55.92-.51 17.9.05 17.9.28 0 .46-1.93.46-4.83zM40.4 140.6c-.09-.05-1.79.05-3.82.18-3.96.23-3.77.69.55 1.2 1.66.23 2.62.55 2.81 1.06.23.51.37.23.46-.78.09-.87.09-1.61 0-1.66zm55.99.6c-1.24-.14-2.39-.23-2.48-.14-.37.32 3.04.92 3.86.69.6-.18.09-.37-1.38-.55zm-35.66.05c.46-.32-.28-.46-2.53-.46s-2.99.14-2.53.46c.37.23 1.52.46 2.53.46s2.16-.23 2.53-.46zm18.4 0c.46-.32-.41-.46-2.85-.46-1.93 0-3.68.23-3.82.46-.37.6 5.75.6 6.67 0zm41.41 0c.46-.32-.23-.46-2.3-.41-2.07 0-2.71.14-2.07.41 1.24.55 3.54.55 4.37 0zm13.3-5.66c0-3.59-.18-5.29-.41-4.69-.55 1.33-.55 10.95 0 10.58.28-.18.46-2.62.41-5.89zm15.55.83c-.09-2.62-.46-5.11-.78-5.57-.46-.78-.51-.74-.28.28.14.64.28 3.27.28 5.89 0 3.4.14 4.65.51 4.42s.46-1.75.28-5.01zm10.67 4.88c.41-.28.09-.46-1.1-.6-1.47-.18-1.61-.14-.87.41.97.69 1.1.74 1.98.18zm-33.17-4.78c-.23-5.7-1.06-7.91-1.06-2.85 0 2.81-.18 3.63-1.06 4.78l-1.06 1.43h1.2c.74 0 1.15.28 1.15.69 0 .37.23.69.51.69.37 0 .46-1.38.32-4.74zm-44.99.74c0-.55-.18-1.15-.46-1.29-.28-.18-.46.51-.46 1.7 0 1.43.14 1.79.46 1.29.23-.37.46-1.15.46-1.7zm77.52-10.72c1.61 0 3.08-.18 3.22-.46.18-.28-.92-.46-2.94-.46h-3.22l-.14-2.16c-.09-1.29-.32-2.12-.6-1.98s-.46 3.22-.46 7.82c0 10.03.87 13.16 1.06 3.82l.14-6.58zM58.71 133.9c8.14 0 8.05.05 6.86-2.53l-.6-1.38-.05 1.52-.05 1.47H51.11l-.14-1.47-.14-1.52-.6 1.7c-.51 1.38-.51 2.07 0 3.68l.6 1.98.14-1.7.14-1.75h7.59zm-14.58-.46c0-.87-.18-1.93-.41-2.3-.32-.46-.46.28-.41 2.53 0 3.31.78 3.08.83-.23zm60.73.23c0-.74-.18-1.79-.41-2.3-.28-.64-.41.09-.41 2.3s.14 2.94.41 2.3c.23-.51.41-1.52.41-2.3zm6.26-.23c0-1.75-.05-3.22-.09-3.22-.05 0-.28.74-.55 1.61-.28 1.06-.28 2.16 0 3.22.28.87.51 1.61.55 1.61.05 0 .09-1.43.09-3.22zm-82.63.14c0-2.21-.09-2.48-.51-1.66-.41.92-.18 4.28.32 4.28.14 0 .23-1.2.18-2.62zm44.9-4.05c0-1.79-.09-1.98-.55-1.29-.32.41-.6.97-.6 1.2 0 .37.87 2.16 1.06 2.16.05 0 .09-.92.09-2.07zm69.93-3.63c.28-.09-.28-.32-1.2-.46-1.06-.23-2.21-.14-3.22.32-1.56.64-1.56.64 1.2.46l3.22-.32zm-105.95-.32a4.27 4.27 0 0 0-2.53 0c-1.33.37-1.24.41 1.06.41 2.02.05 2.3-.05 1.47-.41zm21.9-.05c-.87-.28-1.7-.28-2.53 0-1.15.41-.97.46 1.24.46s2.39-.05 1.29-.46zm22.41.09c-.32-.55-4.23-.55-5.52 0-.64.28.14.41 2.44.41 2.12.05 3.27-.14 3.08-.41zm16.24-.09c-.87-.28-1.7-.28-2.53 0-1.15.41-.97.46 1.24.46s2.39-.05 1.29-.46zm21.85.05a4.27 4.27 0 0 0-2.53 0c-.83.37-.55.46 1.47.41 2.3 0 2.39-.05 1.06-.41zm132.81 6.69v-2.07h6.21H265v2.07 2.07h-6.21-6.21v-2.07z"/></g><path d="M252.44 263.76c-.18-.14-.32-.55-.32-.92 0-.46 1.38-.6 6.44-.6 6.12 0 6.44.05 6.44.92s-.32.92-6.12.92c-3.4 0-6.3-.14-6.44-.32zm-.18-22.5c-.14-.37-.09-.87.14-1.01.23-.18 3.17-.28 6.53-.18 5.61.14 6.07.23 6.07 1.06s-.41.87-6.21.87c-5.24 0-6.3-.14-6.53-.74zm.32-21.76v-1.43h6.21c5.8 0 6.21.05 6.21.87 0 .78-.46.92-4.46 1.1l-6.21.55c-1.7.32-1.75.32-1.75-1.1zm-.14-19.23c-.18-.14-.32-.87-.32-1.61 0-.97.23-1.29.92-1.29.51 0 .92.32.92.69 0 .6.92.69 5.52.69 5.2 0 5.52.05 5.52.92s-.32.92-6.12.92c-3.4 0-6.3-.14-6.44-.32zm-.09-22.32c-.14-.32-.14-1.01-.05-1.52.14-.87.55-.92 6.39-1.06 6.07-.09 6.3-.09 6.3.83 0 .87-.28.92-5.52.92-4.6 0-5.52.14-5.52.69 0 .83-1.33.92-1.61.14zm-60.04-20.1c-.78-1.52-.6-3.27.41-3.27.46 0 .97.41 1.1.92.23.83.6.92 3.63.92 1.84 0 3.82-.14 4.42-.28l1.01-.28-.09-22.82-.14-22.82-1.38-.37c-1.84-.51-6.53 0-7.36.83-1.29 1.29-2.07.78-2.07-1.33 0-3.17.74-3.54 6.76-3.54 3.96 0 5.2.14 5.66.69.78.92.74 50.65-.05 51.57-.41.46-1.98.64-5.98.64-4.92 0-5.47-.09-5.93-.87zm60.13-3.45c-.14-.37-.14-.78 0-.92.18-.14 3.04-.28 6.44-.28 5.8 0 6.12.05 6.12.92s-.32.92-6.16.92c-4.88 0-6.21-.14-6.39-.64z" fill="#362a10"/><path d="M119.53 800.2c-.46-.09-.83-.51-.83-.87 0-.51 1.2-.64 6.67-.64 6.35 0 6.67.05 6.67.92s-.28.92-5.84.87l-6.67-.28zM260.4 240.62c0-.78.32-.92 2.3-.92s2.3.14 2.3.92-.32.92-2.3.92-2.3-.14-2.3-.92zm-7.82-20.66c0-.74.28-.97 1.15-.97.74 0 1.15.28 1.15.69 0 .37-.18.69-.41.69s-.74.14-1.15.28c-.55.18-.74 0-.74-.69zm-40.03-60.87c0-1.38.6-2.67 1.2-2.67.41 0 .64.55.64 1.61 0 1.29-.18 1.61-.92 1.61-.51 0-.92-.28-.92-.55z" fill="#4b4b49"/><g fill="#817038"><use href="#G"/><path d="M253.04 262.7c0-.87.32-.92 5.98-.92s5.98.05 5.98.92-.32.92-5.98.92-5.98-.05-5.98-.92zm-.46-21.81v-1.24l4.88.09c5.61.09 6.63.28 6.63 1.15 0 .51-.97.64-4.32.64l-5.75.28c-1.33.28-1.43.18-1.43-.92zm.92-21.44c0-.87.32-.92 5.75-.92s5.75.05 5.75.92-.32.92-5.75.92-5.75-.05-5.75-.92z"/><use href="#G" y="-86.03"/><use href="#G" y="-106.73"/><path d="M192.63 157.44c-.41-.51-.6-6.44-.69-24.06-.09-20.34-.05-23.42.6-24.02 1.2-1.24 9.57-1.61 11.32-.51.23.14.41 1.06.41 2.07 0 1.47-.14 1.79-.87 1.79-.64 0-.97-.37-1.06-1.24-.14-1.24-.23-1.29-3.45-1.43l-3.36-.14v6.03 5.98h3.45 3.45v3.68c0 2.67-.14 3.68-.6 3.68-.41 0-.51.55-.41 1.84l.18 1.84h-2.53c-3.5 0-4-.28-4-2.12 0-1.1-.23-1.56-.69-1.56-.55 0-.69.74-.69 3.82v3.77h4.28 4.23l.14 3.17c.09 2.25-.05 3.31-.46 3.54-.32.23-1.89.41-3.5.41h-2.9l.14 5.89.14 5.84 4.28-.05c3.77 0 4.23.05 4.23.78 0 .97-1.2 1.24-7.04 1.47-3.13.14-4.14 0-4.6-.51z"/></g><path d="M160.52 738.32l-.05-39.7-.05-12.88 21.58-.09 23.56.14 1.93.23v39.57 39.52h-23.46-23.46l-.05-26.78zm9.16 18.63l.14-2.44h2.99c2.81 0 2.94.05 2.94 1.1 0 .6.14 1.75.28 2.53l.32 1.43h14.4 14.45v-1.43c0-1.06-.51-2.02-1.84-3.45-1.75-1.93-1.84-2.16-1.84-5.01s.09-3.08 1.84-5.01c1.43-1.56 1.84-2.35 1.84-3.68v-1.66h-14.45-14.49l-.14 2.44-.14 2.39-3.04.14c-3.36.14-3.63-.09-3.63-3.22 0-1.24-.09-1.29-2.48-1.29h-2.44l-.28 4.28c-.28 4-.05 13.66.41 14.95.09.41.92.55 2.58.46l2.44-.14.14-2.39zm35.52-23c0-1.43-.32-2.07-1.84-3.5-1.79-1.66-1.84-1.79-1.84-4.78s.09-3.17 1.79-4.97c1.29-1.29 1.84-2.3 1.98-3.45l.14-1.61-14.58-.14-14.63-.09v2.53 2.53h-3.17-3.22l-.14-2.16-.14-2.21h-2.76-2.71l-.18 8.05c-.09 4.42 0 8.74.14 9.57l.28 1.52 5.24-.28.28-4.42 6.16.28.14 2.44.14 2.39h14.49 14.45v-1.7zm0-23.97c0-1.43-.32-2.07-1.84-3.54-1.79-1.75-1.84-1.89-1.84-4.97 0-3.13.05-3.22 1.89-5.06 1.56-1.56 1.84-2.12 1.7-3.5l-.14-1.66-14.35-.14-14.35-.09-.64 5.52h-2.9-2.94v-1.98c0-2.53-.6-3.08-3.27-3.08-1.75 0-2.25.18-2.48.92-.37 1.1-.14 17.8.28 18.45.14.28 1.38.41 2.76.32l2.48-.14.28-4.42 6.16.28.14 1.84c.05 1.01.23 2.12.32 2.44.14.41 3.45.55 14.49.55h14.26v-1.75zm-19.33 39.47v-2.76h2.48c2.81 0 2.99.28 2.67 3.59l-.18 1.93h-2.48-2.48v-2.76zm0-24.15v-2.53h2.53 2.53v2.53 2.53h-2.53-2.53v-2.53zm0-23.79v-2.44h2.53 2.53v2.44 2.39h-2.53-2.53v-2.39z" fill="#21d04b"/><g fill="#8c7b41"><path d="M255.8 284.78c0-.87.32-.92 4.37-.92s4.37.05 4.37.92-.32.92-4.37.92-4.37-.05-4.37-.92zm-3.22-21.99c0-.83.28-.87 4.74-.64l4.88.37c.6.55-1.01.87-5.06 1.01-4.28.18-4.55.14-4.55-.74zm10.95.51c-1.24-.32-1.01-1.06.32-1.06.74 0 1.15.28 1.15.69 0 .69-.09.74-1.47.37zm-10.49-43.85c0-.74.32-.92 1.61-.92 1.84 0 2.25 1.1.6 1.56-1.75.46-2.21.32-2.21-.64zm7.36-.23c0-.51.55-.69 2.3-.69s2.3.18 2.3.69-.55.69-2.3.69-2.3-.18-2.3-.69z"/><use href="#C" x="42.32" y="-530"/><path d="M252.67 155.04c.05-1.01.28-1.38.92-1.38.46 0 .83.23.83.46 0 .28 2.07.46 5.29.46 4.97 0 5.29.05 5.29.92s-.32.92-6.16.92h-6.21l.05-1.38zm-50.24-6.67V144h-1.84c-2.16 0-2.48-.97-.55-1.7l1.24-.51-1.24-.05c-.64-.05-1.33-.32-1.43-.6-.18-.46-.28-.46-.28 0-.05.32-.74.55-1.75.6l-1.75.05 1.75.46c1.93.51 2.35 1.75.55 1.75-1.1 0-1.15.09-1.15 3.22 0 2.9-.09 3.22-.92 3.22-.78 0-.87-.37-1.01-3.54-.18-4.65-1.2-5.2-1.43-.74-.09 1.7-.14-4-.18-12.74l.09-15.18c.09.37.28 1.47.46 2.44.41 2.67 1.15 1.56 1.15-1.79 0-2.62.09-2.94.92-2.94s.92.32.92 2.71c0 3.68.23 4.19 2.12 4.19.87 0 1.56-.18 1.56-.46 0-.23.64-.46 1.38-.46h1.38v-5.75c0-3.54-.18-5.75-.46-5.75-.23 0-.46-.41-.46-.97 0-1.56 1.98-.97 2.35.74.18.78.32 7.22.37 14.4.05 11.23-.05 12.97-.64 12.97-.55 0-.69.6-.69 2.53s.14 2.53.69 2.53.69.87.69 5.06c0 4.74-.05 5.06-.92 5.06s-.92-.32-.92-4.37zm-1.61-9.89c-.32-.55-3.77-.55-5.06 0-.64.28.05.41 2.21.41 1.98.05 3.04-.14 2.85-.41zm-1.61-1.38c0-.23-.32-.46-.69-.46s-.69.23-.69.46c0 .28.32.46.69.46s.69-.18.69-.46zm.69-5.98c-.14-.23-1.06-.46-1.98-.46-1.29 0-1.52.14-1.01.46.92.6 3.36.6 2.99 0zm-.23-2.58c0-.37.32-.64.69-.64s.69-.18.69-.46c0-.23-.32-.46-.69-.46s-.69-.18-.69-.46c0-.23-.74-.46-1.61-.46s-1.61.23-1.61.46c0 .28-.32.46-.69.46s-.69.23-.69.46c0 .28.32.46.69.46s.69.28.69.64c0 .37.37.74.83.83 1.24.28 2.39-.14 2.39-.83zm1.38-4.78c0-.28-1.29-.46-2.99-.46s-2.99.18-2.99.46 1.29.46 2.99.46 2.99-.18 2.99-.46zm-54.01 9.11c-.46-1.75-.32-2.21.64-2.21.74 0 .92.32.92 1.61 0 1.84-1.1 2.25-1.56.6z"/></g><g fill="#9f8656"><path d="M252.58 284.74c0-.83.41-.87 6.21-.87 5.61 0 6.21.09 6.21.83 0 .69-.64.78-6.21.87-5.84.05-6.21 0-6.21-.83zm0-21.95c0-.69.64-.78 6.07-.64 5.66.14 6.81.28 6.3.74-.09.09-2.94.28-6.26.41-5.52.23-6.12.18-6.12-.51zm0-21.94c0-.6 1.01-.69 6.21-.69s6.21.09 6.21.69-1.01.69-6.21.69-6.21-.09-6.21-.69zm0-21.35c0-.97.14-.97 6.21-.87 4.6.09 6.21.28 6.21.74 0 .41-1.24.55-4.78.55l-6.21.28c-1.24.28-1.43.18-1.43-.69z"/><use href="#H"/><use href="#H" y="-22.08"/><path d="M252.9 154.95l-.18-1.29h6.16H265v1.1 1.15l-11.86.28-.23-1.24z"/></g><path d="M194.61 149.75v-7.13h3.22 3.22v6.44 6.39l-2.3.32c-1.29.18-2.44.51-2.58.69-.14.23-.55.41-.92.41-.55 0-.64-1.24-.64-7.13zm.46-13.39c0-1.2.05-1.24 2.12-.92l3.13.28c.97.05.92.05-.14.92-.69.6-1.75.92-3.08.92-1.89 0-2.02-.09-2.02-1.2zm-.28-2.71c-.74-1.89 1.06-2.53 4.83-1.79 1.1.23 1.43.55 1.43 1.38 0 1.06-.14 1.1-2.99 1.1-2.25 0-3.08-.18-3.27-.69zm.14-3.31c-.18-.14-.32-.69-.32-1.15 0-.74.41-.83 3.45-.83 1.89 0 3.45.18 3.45.41 0 1.56-.6 1.89-3.4 1.89-1.61 0-3.04-.14-3.17-.32zm.14-4.51c0-.37.37-.69.83-.74.41 0 1.29-.09 1.93-.23.64-.09 1.43 0 1.79.23 1.15.74.05 1.43-2.3 1.43-1.7 0-2.25-.18-2.25-.69zm-.46-7.96c0-4.37.09-5.11.92-5.98 1.01-1.06 1.75-1.2 4.09-.74l1.43.32v5.66 5.7h-3.22-3.22v-4.97z" fill="#b29c50"/><g fill="#979792"><path d="M117.78 800.01l-75.54-.37-37.17-.05V443.27 86.95h95.69 95.69v5.98c0 5.93 0 5.98-1.06 5.98-.6 0-2.12.32-3.4.69-2.9.87-5.89 3.91-6.44 6.53-.18.97-.37 13.34-.37 27.51 0 24.29.05 25.86.87 27.37 1.79 3.36 3.73 4.65 7.64 5.06l2.53.23.14 1.79c.09 1.01.05 2.3-.09 2.9l-.28 1.06h-17.02-17.02l.09 71.68.14 71.63 22.68.14 22.64.09v2.99 2.99l-28.39.09-61.65.32-6.58.05V380v57.97h48.31 48.31v7.36 7.36h-47.85-47.85V563.8v111.11h47.62 47.62v2.76 2.76h-25.76-25.76v44.86 44.86h25.76 25.76l.09 8.65.14 8.6 19.78.14 19.78.09v6.35 6.3l-45.32.05c-24.94 0-62.62-.14-83.73-.32zm53.83-642.35c3.17-2.12 3.13-1.93 3.31-20.8l.14-17.02-1.06-1.7c-.6-.97-1.84-2.07-3.04-2.62-1.93-.97-2.02-.97-75.77-.97l-75.68.87c-1.06.46-2.39 1.56-2.99 2.39l-1.1 1.56v17.25 17.25l1.1 1.52c.6.87 1.75 1.98 2.53 2.44 1.38.83 3.59.87 76.23.87h74.81l1.52-1.06zm42.93 620.14l-1.126.03V313.31h12.759c7.67 0 13.588-.18 14.863-.51 2.688-.64 5.96-3.22 7.139-5.66.733-1.47.924-3.04.924-7.27v-9.43h12.217l-.096 246.13-.149 241.44-22.724-.083c-12.515.05-23.207-.05-23.802-.14zm-43.21-474.06c-.55-.41-1.24-1.24-1.52-1.79-.37-.74-.51-17.48-.51-60.18 0-65.28-.18-61.01 2.94-62.52 1.33-.64 3.59-.74 16.1-.74h14.54l.05-1.01-.05-5.93-.05-4.88 2.62-.55c1.79-.41 3.13-1.1 4.32-2.21 3.36-2.99 3.27-2.21 3.13-32.39l-.14-26.91-1.24-1.93c-1.56-2.3-2.99-3.31-5.8-4l-2.16-.55-.14-2.85-.14-2.81h17.76c18.91 0 20.24.14 21.35 2.25.37.64.51 30.23.55 103.75l-.74 103.93c-.37.6-1.24 1.33-1.89 1.61-.83.41-10.26.55-34.6.55-31.01 0-33.54-.09-34.41-.83zm25.704-1.442c1.2-1.47 1.026-3.898-.394-5.048-3.68-2.9-8.039 2.114-4.729 5.434.92.92 2.446 1.006 3.636.776.83-.14.996-.662 1.488-1.162zm5.546-21.303l-.625-8.387-4.84-.265c-5.38-.09-7.149.113-8.125-.353-.41.69-.51 12.42-.05 15.92l.28 2.39 7.18-.09 4.805-.171zm.68-22.665c.09-2.02 0-4.55-.14-5.66l-.28-1.98-10.76.28-.28 11.32 11.32-.28zm34.51-1.7l-.14-5.66h-10.58l-.14 5.01c-.05 2.81 0 5.34.09 5.66.18.46 1.61.6 5.57.6h5.34zm-34.51-19.92c.18-7.18.6-6.72-5.8-6.58l-5.38.14-.14 5.01c-.05 2.81 0 5.34.09 5.66.18.51 1.47.6 5.66.51l5.43-.14zm34.37-.92v-5.52h-10.58l-.14 5.01c-.05 2.81 0 5.34.09 5.66.18.51 1.43.6 5.43.51l5.2-.14zm-34.37-20.8l-.14-5.43h-11.04l-.14 5.43-.14 5.38h11.6zm34.6-.14v-5.52h-11.04v11.04h11.04zm-34.74-20.7v-5.29l-5.61-.14-5.66-.14v11.14l5.66-.14 5.61-.14zm34.74 0v-5.52h-11.04v11.04h11.04z"/><use href="#I"/><path d="M249.36 251.43v-3.45l5.89-.09 7.82-.18 1.93-.09v3.63 3.63h-7.82-7.82v-3.45z"/><use href="#I" y="-43.25"/><use href="#I" y="-64.87"/><path d="M250.42 189.69c-.97-.18-1.06-.46-1.06-3.63v-3.4h7.82H265v3.68 3.68l-6.76-.05-7.82-.28z"/><use href="#J"/><use href="#J" y="-21.62"/><path d="M249.36 113.64V102.6h7.36 7.36l.09-2.16-.05-3.4c-.05-.64.14-1.66.37-2.3.32-.74.46 3.86.46 14.45l.05 15.5h-7.82-7.82v-11.04z"/></g><path d="M0 808.37v-2.79h252.12v-14.26h7.36v2.71c0 1.52.14 3.08.28 3.5.37.92 2.58 2.07 4.09 2.07H265v7.56H0zm35.24-654.98c-.55-1.43-.28-2.02.92-2.02 1.75 0 3.86-2.3 3.86-4.28 0-2.35-1.47-4-3.63-4-3.82 0-7.22-2.07-8.83-5.34-1.47-3.08-1.1-7.32.78-9.71 4.23-5.34 12.56-4.97 15.73.69 2.12 3.82 1.7 8.01-1.15 11.18l-1.7 1.84.87 1.47c1.24 2.07 1.2 5.66-.14 7.78-1.61 2.58-6.03 4.19-6.72 2.39zm3.91-14.22c3.04-1.61 4.14-6.16 2.25-9.25-1.2-1.89-4.32-3.17-6.67-2.76-2.25.46-4.65 2.94-5.06 5.29-.83 5.06 4.83 9.06 9.48 6.72zm48.36 1.2l.14-10.54 1.43-1.79c2.99-3.73 7.68-4.83 11.96-2.67 5.61 2.81 6.81 10.31 2.3 14.77-3.08 3.08-6.95 3.73-10.58 1.79-1.2-.64-2.25-1.15-2.39-1.15-.09 0-.18 2.3-.18 5.06v5.06h-1.43-1.38l.14-10.54zm12.65-1.43c4.23-2.58 3.73-8.93-.92-11.18-4.55-2.25-9.89 1.98-8.88 7.13.83 4.23 6.03 6.39 9.8 4.05zm-45 3.54c-4.14-1.56-6.39-4.69-6.39-8.88.05-5.43 4-9.39 9.43-9.39 4.78 0 8.97 4.14 8.97 8.97v1.61h-7.64-7.59l.28 1.06c.18.55.92 1.61 1.61 2.35 1.52 1.56 5.29 2.21 7.13 1.2.92-.51 1.24-.51 1.84 0 2.58 2.16-3.5 4.6-7.64 3.08zm8.79-11.09c0-1.75-3.59-4.42-6.03-4.42-1.66 0-4.14 1.47-5.06 2.94-.46.78-.87 1.56-.87 1.79 0 .18 2.71.32 5.98.32 4.74 0 5.98-.14 5.98-.64zm51.57 11c-5.84-1.84-8.33-9.16-4.83-14.12 3.77-5.38 11.82-5.38 15.6 0 1.33 1.93 1.38 2.16 1.52 8.19l.18 6.16h-1.43c-1.1 0-1.43-.18-1.43-.92 0-1.15-.09-1.15-2.25 0-2.48 1.24-4.97 1.47-7.36.69zm5.93-3.22c2.21-1.15 3.22-2.85 3.22-5.43 0-2.99-1.29-5.06-3.68-6.03-2.35-.92-2.99-.92-5.38.14-2.35 1.1-3.36 2.9-3.36 5.98 0 1.79.28 2.58 1.24 3.73.64.83 1.66 1.66 2.16 1.84 1.52.64 4.37.51 5.8-.23zm-50.14 2.07v-1.33l3.96-.14c4.51-.14 5.34-.69 4.51-2.99-.37-1.06-.87-1.38-3.4-2.02-3.73-1.01-5.06-2.35-5.06-5.24 0-1.61.28-2.39 1.33-3.54 1.33-1.47 1.43-1.52 5.75-1.66l4.42-.18v1.43V127h-3.27c-3.96 0-5.01.51-5.01 2.3s.92 2.58 3.45 2.94c1.38.23 2.67.83 3.59 1.66 1.29 1.15 1.47 1.61 1.47 3.68 0 2.12-.18 2.53-1.52 3.73-1.43 1.29-1.66 1.33-5.84 1.33h-4.37v-1.38zm60.45.19c-.18-.69-.18-3.5-.05-6.3.23-4.6.37-5.29 1.56-6.95 3.45-4.97 11.18-5.34 15-.74 1.7 2.02 2.16 4.09 2.16 10.03v5.2l-1.47-.14-1.52-.14-.23-5.75c-.23-6.3-.6-7.36-2.9-8.74-1.89-1.15-3.68-1.15-6.07 0-2.99 1.43-3.45 2.67-3.45 9.16v5.57h-1.38c-1.1 0-1.43-.23-1.66-1.2zm24.71.46c-2.02-1.43-2.35-3.17-2.35-12.84v-8.97h1.61c1.61 0 1.61 0 1.61 2.07v2.07h2.48c3.36 0 3.96.28 3.96 1.89v1.33h-3.22-3.22v5.47c0 4.19.14 5.57.64 6.03 1.01.78 2.76.37 3.27-.78.51-1.2 2.39-1.47 2.81-.41.32.87-.97 3.27-2.21 4.14-1.33.97-4 .92-5.38 0zm-4.19-60.96c0-1.7.87-2.71 2.35-2.71 1.15 0 1.52.28 2.07 1.61l.64 1.84c0 .14-1.15.23-2.53.23-2.25 0-2.53-.09-2.53-.97z" fill="#fefefe"/><g fill="#b3b3b3"><path d="M5.098 87.018h6.477v712.58H5.098z"/><path d="M8.823 87.088h187.38v5.157H8.823zM215.81 315.34h3.727v462.03h-3.727zm-47.78-136.81h3.802v125.71h-3.802z"/><path d="M171.29 178.54h31.524v4.528H171.29z"/><rect x="203.73" y="93.305" width="38.709" height="2.849" rx="0" ry="1.424"/><path d="M238.66 94.679h3.727v209.59h-3.727zm-34.96-1.381h3.727v2.829H203.7zM115.48 458.78h9.977v216.9h-9.977z"/></g><use href="#K"/><use href="#K" x="35"/><use href="#K" x="0.22" y="20.91"/><use href="#K" x="35" y="20.56"/><use href="#K" x="0.31" y="41.39"/><use href="#K" x="34.95" y="41.53"/><path fill="#333" d="M198.04 18.436h7.078v53.696h-7.078z"/><path fill="#1a1a1a" d="M108.88 22.875h88.828v47.821H108.88z"/><path d="M117.25 15.875h87.953v4.571H117.25zm-1.32 55.581h81.64v2.505h-81.64z" fill="#333"/><use href="#K" x="35.3" y="62.41"/><use href="#K" x="0.2" y="62.44"/><path d="M188.6 271.78h14.849v19.154H188.6z"/><path fill="#87090c" d="M176.12 76h10.469v6.531H176.12z"/><path fill="#979792" d="M112.57 458.76h3.867v216.78h-3.867z"/><path fill="#b3b3b3" d="M114.91 328.01h9.977v105.4h-9.977z"/><path fill="#979792" d="M112 328h3.867v105.34H112z"/><path d="M141.98 569.91l-36.48-.09V452.5h103.06v117.68l-15.04-.05-51.53-.23zm60.04-24.11l.09-17.39h-9.66v6.721l-5.61-.004-5.66-.048-.14 10.72-.09 10.67h-20.7v-5.06c0-2.76-.14-5.06-.32-5.06-.23 0-3.04-.05-6.35-.09l-5.98-.05-.14 5.11-.14 5.15h-25.26v-90.18h25.3v10.12h12.88v-10.12h20.7v21.16h11.786l-.024 3.59-.032 3.54 4.74-.016 4.69-.047V477.47c0-9.57-.18-17.67-.37-17.99-.32-.46-9.57-.55-44.76-.46l-44.35.14-.14 52.13-.09 52.08 44.72-.09 44.76-.14.14-17.34zm-61.19 2.53l.14-1.52h-12.01v3.27l5.89-.14 5.84-.14zm11.82-36.81v-28.2h-11.82c-11.55 0-11.87.05-11.87.92s.32.92 8.97.92h8.97v6.9l-8.83.09c-8.83.14-8.88.14-9.02 1.2l-.14 1.01h17.99v6.9h-17.99l.14 1.06c.14 1.01.18 1.01 9.02 1.15l8.83.09v6.9h-8.97c-8.56 0-8.97.05-8.97.87 0 .74.46.92 2.9 1.2 1.56.14 5.57.23 8.83.14l5.98-.14.14 3.59.14 3.54h-9.02c-8.65 0-8.97.05-8.97.92s.32.92 8.97.92h8.97v7.36h-8.97c-8.65 0-8.97.05-8.97.92s.32.92 8.97.92h8.97v6.9h-17.94v2.3l11.82-.09 11.82-.14.05-28.16zm-11.82-36.81l.14-1.52h-12.01v3.27l5.89-.14 5.84-.14z"/><use href="#L"/><use href="#M" fill="#313231"/><use href="#N"/><g fill="#313231"><use href="#O"/><use href="#O" x="0.75" y="63.88"/></g><path d="M184.19 467.9h14.316v16.79H184.19zm.25 70.49h14.316v16.79H184.44z" fill="#f9f9f9" stroke="#000" stroke-width="2.831"/><path d="M142.11 681.66l-36.48-.09V564.25h103.06v117.68l-15.04-.05-51.53-.23zm60.04-24.11l.09-17.39h-9.66v6.721l-5.61-.004-5.66-.048-.14 10.72-.09 10.67h-20.7v-5.06c0-2.76-.14-5.06-.32-5.06-.23 0-3.04-.05-6.35-.09l-5.98-.05-.14 5.11-.14 5.15h-25.26v-90.18h25.3v10.12h12.88v-10.12h20.7v21.16h11.786l-.024 3.59-.032 3.54 4.74-.016 4.69-.047V589.22c0-9.57-.18-17.67-.37-17.99-.32-.46-9.57-.55-44.76-.46l-44.35.14-.14 52.13-.09 52.08 44.72-.09 44.76-.14.14-17.34zm-61.19 2.53l.14-1.52h-12.01v3.27l5.89-.14 5.84-.14zm11.82-36.81v-28.2h-11.82c-11.55 0-11.87.05-11.87.92s.32.92 8.97.92h8.97v6.9l-8.83.09c-8.83.14-8.88.14-9.02 1.2l-.14 1.01h17.99v6.9h-17.99l.14 1.06c.14 1.01.18 1.01 9.02 1.15l8.83.09v6.9h-8.97c-8.56 0-8.97.05-8.97.87 0 .74.46.92 2.9 1.2 1.56.14 5.57.23 8.83.14l5.98-.14.14 3.59.14 3.54h-9.02c-8.65 0-8.97.05-8.97.92s.32.92 8.97.92h8.97v7.36h-8.97c-8.65 0-8.97.05-8.97.92s.32.92 8.97.92h8.97v6.9h-17.94v2.3l11.82-.09 11.82-.14.05-28.16zm-11.82-36.81l.14-1.52h-12.01v3.27l5.89-.14 5.84-.14z"/><use href="#L" x="0.13" y="111.75"/><use href="#M" x="0.13" y="111.75" fill="#313231"/><use href="#N" x="0.13" y="111.75"/><g fill="#313231"><use href="#O" x="0.13" y="111.75"/><use href="#O" x="0.88" y="175.63"/></g><path d="M184.32 579.65h14.316v16.79H184.32zm.25 70.49h14.316v16.79H184.57z" fill="#f9f9f9" stroke="#000" stroke-width="2.831"/><path d="M142.09 438.975l-36.48-.09v-117.32h103.06v117.68l-15.04-.05-51.53-.23zm60.04-24.11l.09-17.39h-9.66v6.721l-5.61-.004-5.66-.048-.14 10.72-.09 10.67h-20.7v-5.06c0-2.76-.14-5.06-.32-5.06-.23 0-3.04-.05-6.35-.09l-5.98-.05-.14 5.11-.14 5.15h-25.26v-90.18h25.3v10.12h12.88v-10.12h20.7v21.16h11.786l-.024 3.59-.032 3.54 4.74-.016 4.69-.047v-17.047c0-9.57-.18-17.67-.37-17.99-.32-.46-9.57-.55-44.76-.46l-44.35.14-.14 52.13-.09 52.08 44.72-.09 44.76-.14.14-17.34zm-61.19 2.53l.14-1.52h-12.01v3.27l5.89-.14 5.84-.14zm11.82-36.81v-28.2h-11.82c-11.55 0-11.87.05-11.87.92s.32.92 8.97.92h8.97v6.9l-8.83.09c-8.83.14-8.88.14-9.02 1.2l-.14 1.01h17.99v6.9h-17.99l.14 1.06c.14 1.01.18 1.01 9.02 1.15l8.83.09v6.9h-8.97c-8.56 0-8.97.05-8.97.87 0 .74.46.92 2.9 1.2 1.56.14 5.57.23 8.83.14l5.98-.14.14 3.59.14 3.54h-9.02c-8.65 0-8.97.05-8.97.92s.32.92 8.97.92h8.97v7.36h-8.97c-8.65 0-8.97.05-8.97.92s.32.92 8.97.92h8.97v6.9h-17.94v2.3l11.82-.09 11.82-.14.05-28.16zm-11.82-36.81l.14-1.52h-12.01v3.27l5.89-.14 5.84-.14z"/><use href="#L" x="0.11" y="-130.935"/><use href="#M" x="0.11" y="-130.935" fill="#313231"/><use href="#N" x="0.11" y="-130.935"/><g fill="#313231"><use href="#O" x="0.11" y="-130.935"/><use href="#O" x="0.86" y="-67.055"/></g><path d="M184.3 336.965h14.316v16.79H184.3zm.25 70.49h14.316v16.79H184.55z" fill="#f9f9f9" stroke="#000" stroke-width="2.831"/><rect x="187.66" y="100.72" width="23.317" height="63.817" ry="8.771" fill="none" stroke="#6e6607" stroke-width="1.783"/><defs ><path id="B" d="M159.64 750.37c0-10.72.05-11.04.92-11.04s.92.32.92 11.04-.05 11.04-.92 11.04-.92-.32-.92-11.04z"/><path id="C" d="M159.74 686.33c.09-.69.51-1.1 1.2-1.2.92-.14 1.06 0 .92.92-.09.69-.51 1.1-1.2 1.2-.92.14-1.06 0-.92-.92z"/><path id="D" d="M78.67 119.89c0-.78 1.7-1.24 3.13-.87 1.89.46 1.2 1.52-1.06 1.52-1.47 0-2.07-.18-2.07-.64z"/><path id="E" d="M185.41 751.75c0-.83.32-.92 2.99-.92s2.99.09 2.99.92-.32.92-2.99.92-2.99-.09-2.99-.92z"/><path id="F" d="M185.41 749.45c0-2.44.09-2.76.92-2.76s.92.32.92 2.76-.09 2.76-.92 2.76-.92-.32-.92-2.76z"/><path id="G" d="M252.58 284.32c0-.87.32-.92 6.21-.92s6.21.05 6.21.92-.32.92-6.21.92-6.21-.05-6.21-.92z"/><path id="H" d="M252.58 198.98v-1.15h6.21H265v1.15 1.15h-6.21-6.21v-1.15z"/><path id="I" d="M249.36 273.05v-3.45h7.82H265v3.45 3.45h-7.82-7.82v-3.45z"/><path id="J" d="M249.36 164.24v-3.68h7.82H265v3.68 3.68h-7.82-7.82v-3.68z"/><path id="K" d="M191.54 188.53h11.49v11.402h-11.49z"/><path id="L" d="M128.24 550.51c-.05-.37-.05-1.1-.05-1.61 0-2.99-.6-2.76 6.99-2.76h6.9v5.06h-6.9c-5.8 0-6.9-.09-6.95-.69z"/><path id="M" d="M127.92 539.01l.05-2.07 9.02-.09 9.02-.14.14-2.39.14-2.44h-17.9l-.18-1.38c-.14-.74-.09-1.56.09-1.79.14-.28 3.96-.51 8.97-.6l8.74-.14v-5.06l-17.9-.18.05-1.38.09-1.89c.05-.28 3.36-.46 9.02-.46h8.97v-5.06h-18.4v-4.14h18.4v-5.06l-9.06-.09-9.11-.14-.05-1.93-.05-1.98h18.27v-5.06h-8.97c-9.8 0-9.06.18-9.06-2.53l.05-1.15c.05-.28 3.4-.46 9.06-.46h8.97l-.14-2.39-.14-2.44-9.02-.14-9.06-.09.1-3.68 8.28-.05c4.6 0 9.57-.09 11.09-.18s3.63-.05 4.74.09l1.93.28v58.29h-26.22l.09-2.07z"/><path id="N" d="M128.06 475.2l.18-2.67c.05-.14 3.17-.28 6.95-.32l6.9-.09v5.47h-14.18l.14-2.39z"/><path id="O" d="M173.04 471.12h4.75v16.75h-4.75z"/></defs></svg>